<svg width="375" height="294" viewBox="0 0 375 294" fill="none" xmlns="http://www.w3.org/2000/svg"><g filter="url(#filter0_f_269_3213)"><ellipse cx="26.5" cy="265.079" rx="24.5" ry="14.5" fill="url(#paint0_linear_269_3213)"/></g><g clip-path="url(#clip0_269_3213)"><path d="M26.796 238.995s-3.408-41.2 2.71-50.571c5.654-8.673 20.987-4.414 17.967 9.603-1.936 9.139-10.765 39.884-10.765 39.884l-9.912 1.084z" fill="url(#paint1_linear_269_3213)"/><path d="M32.836 189.354c2.246-3.33 5.886-4.802 9.294-4.415-4.183-2.013-9.681-1.006-12.624 3.485-6.118 9.371-2.71 50.571-2.71 50.571l3.252-.387c-.464-6.97-2.633-40.89 2.788-49.254z" fill="#ADE68F"/><path d="M32.759 186.488l-1.704-3.407m8.132 2.246l.387-3.718m4.724 6.583l1.704-3.407m.619 7.899l2.633-2.633m-5.964 16.108l3.64 1.084m-4.8 5.344l3.562-1.239m-4.569 5.421l2.555.31m2.711-19.748l2.942-1.472m-4.569 6.195l3.33-.077M30.9 190.361l-3.098-2.169" stroke="#88BD6D" stroke-width="1.007" stroke-linecap="round" stroke-linejoin="round"/><path d="M15.876 233.574s-16.34-44.53-12.391-56.689c3.64-11.384 21.839-11.306 22.768 5.112.62 10.687.155 47.395.155 47.395l-10.532 4.182z" fill="url(#paint2_linear_269_3213)"/><path d="M7.434 176.885c1.394-4.414 5.034-7.125 8.984-7.822-5.266-.929-11.075 1.937-12.933 7.822-3.95 12.159 12.39 56.689 12.39 56.689l3.486-1.394c-2.71-7.589-15.411-44.375-11.927-55.295z" fill="#ADE68F"/><path d="M5.73 193.381H2.169m5.033 7.512l-4.336.31m6.35 6.582l-4.105 1.549m1.394-35.701l-2.942-3.175m9.68 0l-.774-4.26m7.279 5.886l.852-4.26m3.098 8.519l2.168-3.717m-1.703 19.671h4.336m-3.717 7.434l3.64-2.4m-3.485 7.279l2.943-.309m-2.943-22.692l2.788-2.555m-3.253 8.209l3.64-1.084m-22.536-7.667l-4.105-1.394m3.563 7.047l-4.337.387" stroke="#88BD6D" stroke-width="1.162" stroke-linecap="round" stroke-linejoin="round"/><path d="M10.765 178.434c0 .387-.388.775-.775.775a.777.777 0 01-.774-.775c0-.465.31-.852.774-.852.387 0 .775.387.775.852zm6.97 3.64c0 .775-.543 1.317-1.317 1.317a1.305 1.305 0 01-1.316-1.317c0-.697.62-1.316 1.316-1.316.774 0 1.317.619 1.317 1.316zm4.955 14.095c-.851 1.161-2.477 1.394-3.639.542-1.084-.852-1.394-2.478-.542-3.64.852-1.084 2.478-1.394 3.64-.542 1.161.852 1.394 2.478.542 3.64zm-4.723 10.145c-.62.852-1.549 1.084-2.246.619-.62-.464-.62-1.471-.077-2.323.62-.774 1.626-1.084 2.246-.619.62.464.697 1.548.077 2.323zm-3.253-19.051c0 .619-.464 1.162-1.084 1.162-.62 0-1.162-.543-1.162-1.162 0-.62.543-1.084 1.162-1.084.62 0 1.084.464 1.084 1.084z" fill="#88BD6D"/><path d="M2.866 225.83l3.794 42.671h5.654l-.387-2.246h10.3l.154 2.246h8.829l.465-2.246h8.054l-.078 2.246h5.112l3.794-42.671H2.866z" fill="#A87C56"/><path d="M10.61 225.83H2.866l3.794 42.671h5.654l-.387-2.246h2.942L10.61 225.83z" fill="#BA8A60"/><path d="M3.253 230.322l44.685 2.71.62-7.202H2.865l.387 4.492z" fill="url(#paint3_linear_269_3213)"/><path d="M49.254 229.47l.697-7.745H1.471l.697 7.745h47.086z" fill="#D68E4F"/><path d="M9.138 221.725H1.471l.697 7.745h7.9l-.93-7.745z" fill="#E3A874"/></g><g clip-path="url(#clip1_269_3213)"><path d="M158.624 17.78c75.831-9.478 131.938 24.602 146.896 89.092 7.562 25.807 3.233 55.34-12.163 83.448-18.794 34.3-50.738 61.312-83.832 70.956-27.341 10.081-56.819 8.931-83.229-3.178-32.217-14.739-57.97-44.327-70.736-81.092l-.657-2.137c-8.986-31.012-6.082-61.531 8.383-88.325 16.602-30.847 47.888-54.682 88.05-67.174l7.288-1.59z" fill="#DEE2FF"/><g filter="url(#filter1_d_269_3213)"><path d="M163.624 13.143c75.831-9.479 131.938 24.602 146.896 89.092 7.562 25.806 3.233 55.339-12.163 83.447-18.794 34.3-50.738 61.313-83.832 70.956-27.341 10.082-56.819 8.931-83.229-3.178-32.217-14.739-57.97-44.327-70.736-81.092l-.657-2.137c-8.986-31.012-6.082-61.531 8.383-88.324 16.602-30.848 47.888-54.682 88.05-67.175l7.288-1.589z" fill="url(#paint4_linear_269_3213)"/></g><path opacity=".2" fill-rule="evenodd" clip-rule="evenodd" d="M141.959 142.223c0 2.926-2.241 5.167-5.167 5.167-2.927 0-5.167-2.241-5.167-5.167v-7.134h-29.676c-1.143 0-2.287-.32-3.201-1.143-2.378-1.783-2.652-4.984-.869-7.27l34.889-43.302c.091 0 .091-.092.183-.183a1.62 1.62 0 00.274-.412c.274-.091.366-.182.457-.274.092-.091.275-.183.366-.274.183-.092.32-.183.594-.183.092-.183.183-.275.366-.275.092-.091.275-.091.549-.182.091 0 .274 0 .411-.138h1.601c.183.138.274.138.457.138.092.091.366.091.549.182.091 0 .274.092.366.092.228.183.411.274.503.366.183.091.274.183.457.274 0 0 .091 0 .091.092.092 0 .275.091.275.182.183.183.274.32.411.412.092.091.183.274.275.366.091.091.182.183.365.457 0 .092.092.274.183.366.092.183.092.32.183.594 0 .092.092.275.092.366.091.183.091.274.091.549 0 .183.092.274.092.503v38.318h.96c2.926 0 5.258 2.377 5.258 5.167 0 2.926-2.332 5.212-5.258 5.212h-.96v7.134zm-10.334-40.788l-18.748 23.229h18.748v-23.229zm35.117 35.529c-4.115-6.036-6.31-13.946-6.401-22.543.091-8.642 2.286-16.46 6.401-22.497 3.978-6.035 10.106-10.47 17.513-10.47 7.271 0 13.489 4.435 17.422 10.47 4.069 6.036 6.31 13.855 6.31 22.497 0 8.597-2.241 16.507-6.31 22.543-3.933 5.945-10.151 10.426-17.422 10.426-7.407 0-13.535-4.481-17.513-10.426zm4.07-22.543c0 6.722 1.875 12.758 4.527 16.69 2.789 4.07 5.99 5.853 8.916 5.853 2.927 0 6.036-1.783 8.779-5.853 2.653-3.932 4.527-9.968 4.527-16.69 0-6.767-1.874-12.711-4.527-16.735-2.743-3.978-5.852-5.853-8.779-5.762-2.926-.09-6.127 1.784-8.916 5.762-2.652 4.024-4.527 9.968-4.527 16.735zm103.979 15.456c0 2.926-2.377 5.212-5.304 5.212h-.914v7.134c0 2.926-2.287 5.167-5.213 5.167s-5.167-2.241-5.167-5.167v-7.134h-29.676c-1.143 0-2.24-.32-3.201-1.143-2.332-1.783-2.652-4.984-.868-7.27l34.888-43.302c.092 0 .092-.092.183-.183s.183-.229.274-.412c.275-.091.366-.182.458-.274.091-.091.274-.183.365-.274.229-.092.321-.183.595-.183.091-.183.183-.275.366-.275.091-.091.274-.091.548-.182.138 0 .32 0 .412-.138h1.6c.183.138.275.138.458.138.091.091.365.091.548.182.092 0 .32.092.412.092.183.183.366.274.457.366.183.091.274.183.457.274 0 0 .092 0 .092.092.091 0 .274.091.274.182.229.183.32.32.412.412.091.091.183.274.274.366.091.091.183.183.366.457 0 .092.091.274.183.366.091.183.091.32.183.594 0 .092.091.275.091.366.092.183.092.274.092.549 0 .183.137.274.137.503v38.318h.914c2.927 0 5.304 2.377 5.304 5.167zm-16.598-28.442l-18.747 23.275h18.747v-23.275z" fill="#000"/><path fill-rule="evenodd" clip-rule="evenodd" d="M144.245 128.002c0 2.926-2.332 5.167-5.258 5.167h-.961v7.179c0 2.926-2.24 5.167-5.167 5.167-2.926 0-5.167-2.241-5.167-5.167v-7.179H98.017c-1.144 0-2.287-.274-3.201-1.143-2.378-1.783-2.652-4.984-.869-7.225l34.843-43.348c.091 0 .091-.091.183-.183.091-.091.183-.182.32-.365.274-.092.366-.183.457-.275.092-.091.274-.183.366-.274.183-.137.274-.229.549-.229.137-.183.228-.274.411-.274.092-.091.274-.091.549-.183.091 0 .274 0 .366-.091h1.6c.183.091.274.091.503.091.091.091.366.091.549.183.091 0 .274.091.365.091.183.183.366.275.503.412.183.091.275.183.458.274 0 0 .091 0 .091.092.092 0 .275.091.275.183l.365.365c.092.092.183.275.275.366.137.092.228.183.411.503 0 .092.092.275.183.366.092.183.092.274.183.549 0 .091.091.274.091.411.092.183.092.275.092.549 0 .183.091.274.091.457v38.364h.961c2.926 0 5.258 2.332 5.258 5.167zm-16.553-28.441l-18.747 23.274h18.747V99.561zm28.716 12.986c.092-8.642 2.241-16.462 6.402-22.497 3.932-6.036 10.059-10.471 17.513-10.471 7.27 0 13.489 4.435 17.421 10.47 4.07 6.036 6.31 13.856 6.31 22.498 0 8.596-2.24 16.507-6.31 22.497-3.932 5.944-10.151 10.471-17.421 10.471-7.454 0-13.581-4.527-17.513-10.471-4.161-5.99-6.31-13.901-6.402-22.497zm37.221 0c0-6.768-1.921-12.712-4.527-16.781-2.744-3.933-5.853-5.808-8.779-5.716-2.927-.092-6.128 1.783-8.963 5.716-2.606 4.069-4.526 10.013-4.526 16.781 0 6.676 1.92 12.711 4.526 16.69 2.835 4.023 6.036 5.807 8.963 5.807 2.926 0 6.035-1.784 8.779-5.807 2.606-3.979 4.527-10.014 4.527-16.69zm77.185 15.455c0 2.926-2.332 5.167-5.259 5.167h-.96v7.179c0 2.926-2.241 5.167-5.167 5.167-2.926 0-5.167-2.241-5.167-5.167v-7.179h-29.676c-1.143 0-2.286-.274-3.201-1.143-2.377-1.783-2.652-4.984-.868-7.225l34.842-43.348c.092 0 .092-.091.229-.183.092-.091.183-.182.274-.365.275-.092.366-.183.458-.275.091-.091.274-.183.365-.274.183-.137.275-.229.595-.229.091-.183.183-.274.366-.274.091-.091.274-.091.548-.183.092 0 .275 0 .366-.091h1.601c.228.091.32.091.503.091.091.091.365.091.548.183.092 0 .275.091.366.091.183.183.412.275.503.412.183.091.274.183.457.274 0 0 .092 0 .092.092.091 0 .274.091.274.183l.366.365c.137.092.229.275.32.366.091.092.183.183.366.503 0 .092.091.275.183.366.091.183.091.274.183.549 0 .091.091.274.091.411.092.183.092.275.092.549 0 .183.091.274.091.457v38.364h.96c2.927 0 5.259 2.332 5.259 5.167zm-16.553-28.441l-18.747 23.274h18.747V99.561z" fill="#0021DB"/><path opacity=".2" d="M217.04 160.056h-62.598c-7.819 0-14.175 6.401-14.175 14.22v7.728c0 7.865 6.356 14.221 14.175 14.221h62.598c7.865 0 14.221-6.356 14.221-14.221v-7.728c0-7.819-6.356-14.22-14.221-14.22z" fill="#000"/><path d="M227.329 180.129c0 7.865-6.402 14.221-14.221 14.221H150.51c-7.819 0-14.221-6.356-14.221-14.221v-7.727c0-7.865 6.402-14.221 14.221-14.221h62.598c7.819 0 14.221 6.356 14.221 14.221v7.727z" fill="#0021DB"/><path d="M147.172 182.415v-13.443c0-.686.548-1.234 1.28-1.234h7.408c.685 0 1.28.548 1.28 1.234 0 .732-.595 1.28-1.28 1.28h-6.128v4.161h5.305c.64 0 1.234.595 1.234 1.281 0 .686-.594 1.234-1.234 1.234h-5.305v4.207h6.128c.685 0 1.28.549 1.28 1.28 0 .686-.595 1.235-1.28 1.235h-7.408c-.732 0-1.28-.549-1.28-1.235z" fill="#fff"/><path fill-rule="evenodd" clip-rule="evenodd" d="M171.681 181.775c.228.64-.138 1.372-.824 1.601-.091 0-.274.045-.503.045-.228 0-.594-.045-.914-.228-.274-.183-.549-.503-.732-.823-.274-.64-.457-1.463-.457-2.698 0-.457-.091-.732-.274-1.006-.137-.229-.412-.457-.686-.64a3.917 3.917 0 00-1.28-.549h-2.653v4.938c0 .686-.594 1.235-1.28 1.235-.731 0-1.28-.549-1.28-1.235v-13.443c0-.686.549-1.234 1.28-1.234h4.07c2.698 0 4.847 2.194 4.847 4.892 0 1.509-.686 2.835-1.784 3.75.32.228.595.457.823.823.458.64.732 1.509.732 2.469 0 .686.046 1.097.091 1.326.366.137.686.411.824.777zm-3.201-9.145c0-1.326-1.052-2.378-2.332-2.378h-2.79v4.71h2.79a2.342 2.342 0 002.332-2.332zm17.421 9.145c.229.64-.137 1.372-.823 1.601-.091 0-.274.045-.503.045a1.91 1.91 0 01-.914-.228c-.275-.183-.549-.503-.732-.823-.32-.64-.457-1.463-.457-2.698-.046-.457-.137-.732-.275-1.006-.137-.229-.411-.457-.686-.64a3.908 3.908 0 00-1.28-.549h-2.698v4.938a1.23 1.23 0 01-1.234 1.235c-.732 0-1.281-.549-1.281-1.235v-13.443c0-.686.549-1.234 1.281-1.234-.031 0-.031 0 0 0h4.069c2.698 0 4.847 2.194 4.847 4.892 0 1.509-.686 2.835-1.783 3.75.32.228.594.457.823.823.457.64.732 1.509.732 2.469 0 .686.045 1.097.091 1.326.366.137.686.411.823.777zm-3.201-9.145c0-1.326-1.051-2.378-2.332-2.378h-2.835v4.71h2.835a2.342 2.342 0 002.332-2.332zm19.022-2.926c1.418 1.509 2.332 3.521 2.332 5.761a8.317 8.317 0 01-2.332 5.762c-1.326 1.463-3.338 2.423-5.441 2.423-2.149 0-4.161-.96-5.578-2.423-1.372-1.464-2.241-3.521-2.241-5.762 0-2.24.869-4.252 2.241-5.761a7.672 7.672 0 015.578-2.424c2.103 0 4.115.915 5.441 2.424zm-.274 5.761c0-1.555-.64-2.972-1.555-3.978-.96-1.006-2.24-1.6-3.612-1.6-1.417 0-2.698.594-3.658 1.6-.96 1.006-1.555 2.423-1.555 3.978 0 1.555.595 2.972 1.555 3.978.96 1.006 2.241 1.646 3.658 1.646 1.372 0 2.652-.64 3.612-1.646.915-1.006 1.555-2.423 1.555-3.978zm17.604 6.31c.229.64-.137 1.372-.823 1.601-.091 0-.274.045-.457.045h-.046a1.76 1.76 0 01-.869-.228c-.32-.183-.548-.503-.731-.823-.32-.64-.503-1.463-.503-2.698 0-.457-.092-.732-.274-1.006-.138-.229-.412-.457-.686-.64a3.92 3.92 0 00-1.281-.549h-2.652v4.938c0 .686-.594 1.235-1.28 1.235-.732 0-1.235-.549-1.235-1.235v-13.443c0-.686.503-1.234 1.235-1.234h4.07c2.697 0 4.846 2.194 4.846 4.892 0 1.509-.64 2.835-1.737 3.75.274.228.549.457.777.823.457.64.732 1.509.732 2.469 0 .686.046 1.097.091 1.326.366.137.686.411.823.777zm-3.2-9.145c0-1.326-1.052-2.378-2.332-2.378h-2.79v4.71h2.79a2.342 2.342 0 002.332-2.332z" fill="#fff"/></g><g clip-path="url(#clip2_269_3213)"><path d="M339.024 25.167c-55.964-17.661-57.44-7.774-61.677.322-4.258 8.053 8.496 16.588 13.645 18.469-2.751 4.51-7.969 2.819-4.799 4.76 2.391 1.442 6.423 1.704 10.015-1.895 8.827 4.184 26.998 9.966 36.433 11.704 8.494 1.393 23.573 2.488 31.071-4.987 8.335-8.307-1.885-21.148-24.688-28.373z" fill="#222"/><path d="M284.205 18.327c-7.142.559-17.073 8.07-11.889 15.799 1.978 2.964 5.425 4.827 8.501 6.342 3.182 1.518 6.49 2.69 9.844 3.737.126.046.194-.142.069-.188-5.717-2.373-12.054-4.117-16.634-8.53-2.501-2.408-3.531-5.63-2.084-8.91 1.968-4.512 7.612-7.397 12.262-8.047.105.003.068-.189-.069-.203z" fill="#222"/><path d="M280.879 20.03c-4.332 2.119-7.428 8.745-4.664 13.064 3.363 5.213 10.02 8.712 15.818 10.473.094.035.151-.122.068-.188-5.16-2.24-10.536-4.666-14.337-8.972-1.936-2.201-2.644-4.453-1.823-7.284.817-2.726 2.503-5.491 5.018-6.921.128-.06.049-.232-.08-.172z" fill="#222"/><path d="M281.554 19.352c-4.912 2.44-10.476 9.198-7.199 14.842 1.735 2.947 4.719 5.104 7.555 6.887 3.119 1.886 6.651 3.71 10.203 4.508.125.046.226-.13.069-.188-5.748-2.775-11.896-4.842-16.227-9.84-2.17-2.536-2.54-5.126-1.362-8.254 1.215-3.328 3.877-6.235 7.001-7.87.074-.008.014-.137-.04-.085z" fill="#222"/><path d="M279.927 21.177c-2.616 1.998-4.71 4.614-5.343 7.906-.497 2.63.324 5.349 1.612 7.67 3.148 5.704 9.308 9.199 14.861 12.116 8.336 4.36 17.539 7.223 26.852 8.418 4.214.543 8.5.791 12.758.532 2.648-.137 5.94-.287 8.187-1.957.109-.102-.022-.328-.162-.237-2.452 1.453-5.796 1.548-8.549 1.682-3.876.186-7.802-.074-11.659-.522-8.506-.97-16.83-3.512-24.583-7.127-5.908-2.726-12.24-6.142-16.191-11.498-1.639-2.236-2.78-4.859-2.796-7.64-.009-3.776 2.476-6.782 5.167-9.18.097-.071-.057-.234-.154-.163z" fill="#222"/><path d="M288.847 44.397c1.686 1.327 3.701 2.241 5.61 3.152a196.152 196.152 0 009.076 3.99c4.484 1.85 8.947 3.659 13.66 4.882 5.658 1.461 11.454 2.546 17.302 2.902 2.849.187 5.716.13 8.541-.297 2.2-.371 4.862-1.036 6.432-2.704.109-.103.009-.317-.131-.226-4.807 2.835-10.122 3.065-15.598 2.666-5.7-.373-11.367-1.517-16.93-2.944-4.388-1.14-8.538-2.833-12.75-4.55-2.937-1.214-5.863-2.46-8.753-3.8-2.098-.98-4.398-1.892-6.327-3.236-.114-.078-.214.1-.132.165zm-13.676-16.239c-.072-11.982 14.25-14.758 23.642-14.851 17.78-.162 35.244 7.07 50.069 16.362a331.792 331.792 0 014.819 3.077c.114.077.214-.1.132-.166-7.731-5.919-16.675-10.466-25.734-13.916-7.595-2.88-15.596-4.842-23.74-5.538-6.033-.53-12.353-.277-18.201 1.609-4.077 1.322-8.004 3.695-10.059 7.57-.939 1.793-1.293 3.834-1.171 5.836.017.148.24.123.243.017z" fill="#222"/><path d="M300.061 17.392c9.69-.127 19.217 1.751 28.697 3.755 4.551.985 8.995 2.36 13.371 3.921 3.496 1.242 7.187 2.34 10.523 4.021 4.806 2.431 9.239 6.078 12.414 10.44 2.534 3.488 4.477 8.396 1.431 12.159-1.61 1.974-4.156 3.001-6.513 3.706-3.937 1.231-8.132 1.514-12.227 1.62-.149.017-.178.29.002.285 6.091-.017 14.216-.146 18.811-4.837 2.831-2.88 2.366-6.965.748-10.331-2.147-4.45-6.083-8.093-10.043-10.89-5.66-3.99-12.499-5.918-18.996-8.005-6.234-2.028-12.6-3.107-19.027-4.316-6.332-1.173-12.753-2.202-19.227-1.72-.075.01-.069.19.036.192z" fill="#222"/><path d="M321.35 55.27c2.523.885 5.055 1.454 7.665 1.909 3.009.53 6.003 1.196 8.99 1.788 5.384 1.041 10.455 1.185 15.805.079 3.819-.812 8.684-1.953 10.899-5.485 1.917-3.107-.797-8.048-3.073-10.196-.103-.109-.254.014-.152.123 2.649 3.173 5.044 8.21 1.355 11.49-2.993 2.643-7.677 3.387-11.473 4.136-4.988.99-10.104.189-15.002-.817-4.962-1.03-10.15-1.536-14.945-3.216-.126-.046-.194.142-.069.188zm-31.661-12.203c.043 1.83-1.277 2.523-2.481 3.578-.217.205-1.449.752-1.304 1.232.429 1.65 2.879 1.762 4.128.973.086-.04-.005-.18-.091-.14-.945.153-1.911.263-2.844-.007-1.647-.459-.175-1.273.336-1.798 1.241-1.255 2.547-1.81 2.467-3.832-.028-.117-.197-.143-.211-.006z" fill="#222"/><path d="M285.645 47.71c-.563.08-1.629.367-1.027 1.156 1.009 1.329 2.793 1.802 4.349 2.121 4.016.791 8.231-.908 10.896-3.92.066-.082-.037-.191-.134-.12-2.073 1.876-4.342 3.218-7.115 3.7-1.508.232-3.027.104-4.497-.255-.588-.143-1.153-.35-1.719-.556-.396-.18-2.747-1.537-.705-1.965.117-.029.069-.189-.048-.16z" fill="#222"/><path d="M291.794 46.754c4.146 2.581 8.787 4.49 13.236 6.435a158.114 158.114 0 0011.768 4.51c5.634 1.916 11.426 3.497 17.365 4.385 9.264 1.426 19.183.671 27.627-3.646 2.929-1.493 5.785-3.76 6.441-7.114.834-4.428-3.221-8.328-6.248-10.857-.165-.131-.288.108-.186.217 2.627 2.454 5.761 5.662 5.853 9.503.05 2.687-1.891 4.79-3.952 6.243-4.837 3.5-11.441 4.825-17.253 5.442-9.756.992-19.853-1.663-28.987-4.714-3.939-1.296-7.841-2.792-11.677-4.371-4.66-1.951-9.18-4.384-13.875-6.241-.094-.035-.195.142-.112.208z" fill="#222"/><path d="M300.754 35.728c-1.528-.556-2.526-1.372-2.994-2.447-.464-1.085-.389-2.471.225-4.16.639-1.757 1.482-2.892 2.528-3.404 1.046-.513 2.333-.491 3.861.065 1.538.56 2.538 1.37 3 2.432.471 1.065.387 2.476-.252 4.233-.615 1.688-1.448 2.798-2.502 3.33-1.039.527-2.328.51-3.866-.05zm.502-1.379c1.008.368 1.847.362 2.516-.016.683-.385 1.255-1.212 1.717-2.48.487-1.338.587-2.359.301-3.063-.274-.71-.914-1.248-1.923-1.615-.998-.364-1.836-.363-2.511.002-.662.358-1.237 1.207-1.724 2.545-.461 1.268-.559 2.267-.293 2.997.279.724.918 1.267 1.917 1.63zm9.059 4.858c-1.278-.465-2.101-1.126-2.467-1.983-.357-.854-.319-1.875.114-3.063.432-1.188 1.064-1.993 1.896-2.414.832-.42 1.882-.4 3.15.061 1.278.465 2.1 1.126 2.467 1.983.367.858.334 1.88-.099 3.069-.432 1.188-1.065 1.993-1.896 2.414-.822.424-1.877.402-3.165-.067zm.501-1.378c.749.273 1.344.286 1.784.039.454-.253.83-.79 1.128-1.608.298-.819.353-1.466.164-1.942-.178-.472-.642-.844-1.391-1.117-.739-.269-1.334-.282-1.784-.039-.44.247-.81.78-1.108 1.599-.298.819-.359 1.47-.184 1.951.189.476.652.848 1.391 1.117zm8.202 4.546c-1.278-.465-2.1-1.126-2.467-1.983-.356-.854-.319-1.875.114-3.063.432-1.188 1.065-1.993 1.896-2.414.832-.421 1.882-.4 3.15.06 1.278.466 2.101 1.127 2.467 1.984.367.857.334 1.88-.099 3.068-.432 1.189-1.064 1.993-1.896 2.414-.822.425-1.877.403-3.165-.066zm.502-1.378c.749.273 1.343.285 1.784.039.454-.253.83-.79 1.128-1.608.298-.82.352-1.466.164-1.942-.179-.472-.643-.845-1.392-1.117-.739-.27-1.333-.282-1.784-.039-.44.247-.809.78-1.107 1.599-.298.818-.36 1.469-.185 1.951.189.476.653.848 1.392 1.117zm3.678 6.394l3.762-10.335 1.408.512-.166.737c.424-.173.852-.26 1.282-.263.431-.001.906.092 1.425.281 1.018.371 1.71.94 2.076 1.706.369.756.321 1.774-.144 3.052-.465 1.278-1.108 2.13-1.93 2.554-.818.415-1.737.437-2.755.066-.859-.313-1.52-.78-1.984-1.4l-1.341 3.684-1.633-.594zm4.985-3.071c1.378.502 2.384-.116 3.016-1.854.305-.839.367-1.49.184-1.951-.178-.473-.632-.841-1.361-1.107-.729-.265-1.429-.237-2.1.084l-1.292 3.55c.161.273.359.521.595.743.249.215.569.393.958.535zm7.15 3.993a9.707 9.707 0 01-1.37-.617 7.022 7.022 0 01-1.001-.653l.502-1.378c.292.254.63.49 1.014.709.384.218.761.395 1.13.53.559.203.977.299 1.253.286.276-.013.467-.164.572-.453a.635.635 0 00-.045-.576c-.096-.171-.271-.359-.524-.564a36.096 36.096 0 00-.947-.752 8.14 8.14 0 01-.93-.848 2.088 2.088 0 01-.485-.905c-.075-.322-.036-.692.116-1.112.236-.649.653-1.063 1.249-1.241.601-.189 1.42-.094 2.458.284.41.149.788.32 1.136.515.348.194.635.384.862.568l-.496 1.363a5.152 5.152 0 00-.836-.593 5.578 5.578 0 00-.896-.427c-.519-.19-.93-.288-1.233-.296-.292-.005-.487.128-.585.397-.102.28-.04.529.186.747.24.211.628.528 1.164.949.498.373.877.715 1.137 1.024.261.31.412.625.453.946.056.314.007.68-.146 1.1-.254.699-.7 1.13-1.336 1.295-.633.154-1.434.055-2.402-.298zm4.336 1.409l.463-1.273 1.378.501-.463 1.273-1.378-.501zm2.677.974l.463-1.273 1.378.502-.463 1.273-1.378-.502zm2.677.974l.463-1.273 1.378.502-.463 1.273-1.378-.502z" fill="#fff"/></g><defs><linearGradient id="paint0_linear_269_3213" x1="26.5" y1="250.579" x2="26.5" y2="279.579" gradientUnits="userSpaceOnUse"><stop stop-color="#EDEDED" stop-opacity="0"/><stop offset="1" stop-color="#EDEDED"/></linearGradient><linearGradient id="paint1_linear_269_3213" x1="3345.51" y1="2160.63" x2="2127.74" y2="4967.29" gradientUnits="userSpaceOnUse"><stop stop-color="#A1D685"/><stop offset="1" stop-color="#71C782"/></linearGradient><linearGradient id="paint2_linear_269_3213" x1="3170.05" y1="1022.31" x2="4002.68" y2="4203.69" gradientUnits="userSpaceOnUse"><stop offset=".11" stop-color="#A1D685"/><stop offset="1" stop-color="#71C782"/></linearGradient><linearGradient id="paint3_linear_269_3213" x1="171.925" y1="786.165" x2="2867.74" y2="786.165" gradientUnits="userSpaceOnUse"><stop stop-color="#805E41"/><stop offset="1" stop-color="#A87C56"/></linearGradient><linearGradient id="paint4_linear_269_3213" x1="184.473" y1="11.579" x2="184.473" y2="263.45" gradientUnits="userSpaceOnUse"><stop stop-color="#D2D9FF"/><stop offset="1" stop-color="#CFE9FF"/></linearGradient><clipPath id="clip0_269_3213"><path fill="#fff" transform="translate(0 165.579)" d="M0 0h50.338v103H0z"/></clipPath><clipPath id="clip1_269_3213"><path fill="#fff" transform="translate(42 6.726)" d="M0 0h295.583v286.852H0z"/></clipPath><clipPath id="clip2_269_3213"><path fill="#fff" transform="rotate(20 140.093 794.51)" d="M0 0h99.988v45.379H0z"/></clipPath><filter id="filter0_f_269_3213" x="1" y="249.579" width="51" height="31" filterUnits="userSpaceOnUse" color-interpolation-filters="sRGB"><feFlood flood-opacity="0" result="BackgroundImageFix"/><feBlend in="SourceGraphic" in2="BackgroundImageFix" result="shape"/><feGaussianBlur stdDeviation=".5" result="effect1_foregroundBlur_269_3213"/></filter><filter id="filter1_d_269_3213" x="43.791" y=".579" width="279.362" height="271.871" filterUnits="userSpaceOnUse" color-interpolation-filters="sRGB"><feFlood flood-opacity="0" result="BackgroundImageFix"/><feColorMatrix in="SourceAlpha" values="0 0 0 0 0 0 0 0 0 0 0 0 0 0 0 0 0 0 127 0" result="hardAlpha"/><feOffset dx="-1" dy="-1"/><feGaussianBlur stdDeviation="5"/><feComposite in2="hardAlpha" operator="out"/><feColorMatrix values="0 0 0 0 0 0 0 0 0 0 0 0 0 0 0 0 0 0 0.09 0"/><feBlend in2="BackgroundImageFix" result="effect1_dropShadow_269_3213"/><feBlend in="SourceGraphic" in2="effect1_dropShadow_269_3213" result="shape"/></filter></defs></svg>