<svg xmlns="http://www.w3.org/2000/svg"><defs><font id="springoo" horiz-adv-x="480"><font-face font-family="springoo" units-per-em="300" ascent="300" descent="0"/><glyph glyph-name="bold-dislike" unicode="" horiz-adv-x="300" d="M195.107 231.22v-127c0-5-1.5-9.876-4.25-14l-34.125-50.75c-5.375-8.126-18.75-13.876-30.125-9.626-12.25 4.125-20.375 17.875-17.75 30.125l6.5 40.875c.5 3.75-.5 7.125-2.625 9.75-2.125 2.375-5.25 3.875-8.625 3.875H52.732c-9.875 0-18.375 4-23.375 11-4.75 6.75-5.625 15.5-2.5 24.375l30.75 93.625c3.875 15.5 20.75 28.125 37.5 28.125h48.75c8.375 0 20.125-2.875 25.5-8.25l16-12.375c6.125-4.75 9.75-12 9.75-19.75zm39.75-151.376h12.875c19.375 0 27.25 7.5 27.25 26V231.47c0 18.5-7.875 26-27.25 26h-12.875c-19.375 0-27.25-7.5-27.25-26V105.72c0-18.375 7.875-25.875 27.25-25.875z"/><glyph glyph-name="bold-facebook" unicode="" horiz-adv-x="150" d="M142.406 201.11H96.452v30.106c0 11.306 7.526 13.959 12.798 13.959h32.36v49.7l-44.628.167c-49.502 0-60.741-37.069-60.741-60.809V201.11H7.594v-51.193H36.24V4.958h60.244v144.926h40.65l5.271 51.226z"/><glyph glyph-name="bold-heart" unicode="" horiz-adv-x="300" d="M205.5 261.25c-22.625 0-42.875-11-55.5-27.875-12.625 16.875-32.875 27.875-55.5 27.875-38.375 0-69.5-31.25-69.5-69.875C25 176.5 27.375 162.75 31.5 150c19.75-62.5 80.625-99.875 110.75-110.125 4.25-1.5 11.25-1.5 15.5 0C187.875 50.125 248.75 87.5 268.5 150c4.125 12.75 6.5 26.5 6.5 41.375 0 38.625-31.125 69.875-69.5 69.875z"/><glyph glyph-name="bold-like" unicode="" horiz-adv-x="300" d="M104.893 68.78v127c0 5 1.5 9.876 4.25 14l34.125 50.75c5.375 8.126 18.75 13.876 30.125 9.626 12.25-4.125 20.375-17.875 17.75-30.125l-6.5-40.875c-.5-3.75.5-7.125 2.625-9.75 2.125-2.375 5.25-3.875 8.625-3.875h51.375c9.875 0 18.375-4 23.375-11 4.75-6.75 5.625-15.5 2.5-24.375l-30.75-93.625c-3.875-15.5-20.75-28.125-37.5-28.125h-48.75c-8.375 0-20.125 2.875-25.5 8.25l-16 12.375c-6.125 4.625-9.75 12-9.75 19.75zm-39.75 151.376H52.268c-19.375 0-27.25-7.5-27.25-26V68.406c0-18.5 7.875-26 27.25-26h12.875c19.375 0 27.25 7.5 27.25 26v125.75c0 18.5-7.875 26-27.25 26z"/><glyph glyph-name="bold-play-circle" unicode="" horiz-adv-x="300" d="M150 275c-69 0-125-56-125-125S81 25 150 25s125 56 125 125-55.875 125-125 125zm37.5-152.875l-36.25-20.875a28.557 28.557 0 00-14.375-3.875c-5 0-9.875 1.25-14.375 3.875-9 5.25-14.375 14.5-14.375 25v41.875c0 10.375 5.375 19.75 14.375 25s19.75 5.25 28.875 0l36.25-20.875c9-5.25 14.375-14.5 14.375-25s-5.375-19.875-14.5-25.125z"/><glyph glyph-name="bold-quick-view" unicode="" horiz-adv-x="300" d="M149.98 238.889c-32.063 0-57.738-14.603-76.428-31.984-18.572-17.223-30.992-37.857-36.865-52.024a12.62 12.62 0 010-9.763c5.873-14.165 18.293-34.801 36.865-52.022 18.69-17.382 44.365-31.985 76.428-31.985 32.064 0 57.739 14.603 76.429 31.985 18.571 17.26 30.991 37.857 36.904 52.022a12.617 12.617 0 010 9.763c-5.913 14.167-18.333 34.801-36.904 52.024-18.69 17.38-44.365 31.984-76.429 31.984zm57.143-88.89c0-31.546-25.596-57.142-57.143-57.142S92.837 118.453 92.837 150c0 31.548 25.596 57.143 57.143 57.143s57.143-25.595 57.143-57.143zm-57.143 25.398c0-14.008-11.389-25.397-25.397-25.397-4.563 0-8.849 1.19-12.54 3.333-.079-1.11-.158-2.182-.158-3.333 0-21.032 17.063-38.096 38.095-38.096s38.096 17.064 38.096 38.096c0 21.032-17.064 38.095-38.096 38.095-1.11 0-2.222-.04-3.333-.159a25.281 25.281 0 003.333-12.54z"/><glyph glyph-name="bold-springoo-logo" unicode="" horiz-adv-x="282.857" d="M198.837 299.912c-61.93-50.881-114.633 0-114.633 0L.174 262.15l19.265-50.902 31.617 7.718V103.65a8.482 8.482 0 018.484-8.049h7.842V58.604c0-4.904 3.973-8.876 8.856-8.876a8.875 8.875 0 018.877 8.876v93.279c0 3.848 3.27 6.952 7.304 6.952 4.014 0 7.283-3.104 7.283-6.952V95.6h.063V40.87c0-4.904 3.972-8.877 8.856-8.877a8.875 8.875 0 018.876 8.878v144.18a8.01 8.01 0 01-.206 1.821v7.428c0 3.828 3.497 6.932 7.8 6.932 4.284 0 7.78-3.104 7.78-6.932V95.6h.042v-5.4c0-4.884 3.973-8.857 8.856-8.857 4.904 0 8.876 3.973 8.876 8.857v45.894c.745 3.083 3.704 5.38 7.222 5.38 4.097 0 7.429-3.104 7.429-6.931V59.37a8.853 8.853 0 018.856-8.856c4.903 0 8.876 3.952 8.876 8.856v107.949c0 3.828 3.455 6.932 7.718 6.932 4.242 0 7.698-3.104 7.698-6.932V35.471a8.875 8.875 0 018.877-8.877c4.883 0 8.856 3.973 8.856 8.877V95.6h7.304c4.696 0 8.504 3.807 8.504 8.484v114.88l31.617-7.717 19.265 50.902-84.03 37.762zM216.693 9.09c0-4.946-4.014-8.96-8.96-8.96-4.945 0-8.959 4.014-8.959 8.96 0 4.944 4.014 8.96 8.96 8.96 4.945 0 8.96-4.016 8.96-8.96zm-65.65 53.487c0-4.945-4.014-8.96-8.96-8.96-4.944 0-8.96 4.015-8.96 8.96 0 4.946 4.016 8.96 8.96 8.96 4.946 0 8.96-4.014 8.96-8.96zM85.49 31.5c0-4.946-3.993-8.96-8.938-8.96-4.946 0-8.96 4.014-8.96 8.96 0 4.944 4.014 8.96 8.96 8.96 4.945 0 8.938-4.016 8.938-8.96zM-.009 299.912h282.857V.088H-.01v299.824z"/><glyph glyph-name="bold-tick-circle" unicode="" horiz-adv-x="300" d="M150 275c-68.875 0-125-56.125-125-125S81.125 25 150 25s125 56.125 125 125-56.125 125-125 125zm59.75-96.25l-70.875-70.875a9.366 9.366 0 00-6.625-2.75c-2.5 0-4.875 1-6.625 2.75L90.25 143.25c-3.625 3.625-3.625 9.625 0 13.25s9.625 3.625 13.25 0l28.75-28.75L196.5 192c3.625 3.625 9.625 3.625 13.25 0s3.625-9.5 0-13.25z"/><glyph glyph-name="bold-tick-square" unicode="" horiz-adv-x="300" d="M202.437 275H97.687c-45.5 0-72.625-27.125-72.625-72.625V97.75C25.062 52.125 52.187 25 97.687 25h104.625c45.5 0 72.625 27.125 72.625 72.625v104.75c.125 45.5-27 72.625-72.5 72.625zm7.375-96.25l-70.875-70.875a9.366 9.366 0 00-6.625-2.75c-2.5 0-4.875 1-6.625 2.75L90.312 143.25c-3.625 3.625-3.625 9.625 0 13.25s9.625 3.625 13.25 0l28.75-28.75 64.25 64.25c3.625 3.625 9.625 3.625 13.25 0s3.625-9.5 0-13.25z"/><glyph glyph-name="bold-twitter" unicode="" horiz-adv-x="300" d="M281.265 231.42c-9.66-4.29-20.04-7.17-30.93-8.49 11.13 6.66 19.65 17.22 23.67 29.79a108.3 108.3 0 00-34.2-13.08 53.746 53.746 0 01-39.3 17.01c-29.76 0-53.88-24.09-53.88-53.85 0-4.23.48-8.34 1.38-12.27-44.76 2.25-84.45 23.67-111 56.28a53.804 53.804 0 01-7.29-27.09c0-18.69 9.51-35.16 23.94-44.82a53.34 53.34 0 00-24.39 6.75v-.69c0-26.1 18.57-47.85 43.2-52.8-4.5-1.23-9.27-1.89-14.19-1.89-3.48 0-6.84.33-10.11.96 6.84-21.39 26.73-36.96 50.28-37.41-18.42-14.43-41.61-23.04-66.87-23.04-4.35 0-8.61.24-12.84.75 23.85-15.27 52.14-24.18 82.56-24.18 99.06 0 153.24 82.05 153.24 153.21 0 2.34-.06 4.65-.15 6.96 10.53 7.62 19.68 17.1 26.88 27.9z"/><glyph glyph-name="bold-youtube" unicode="" horiz-adv-x="300" d="M295.313 169.688v28.125c0 3.75 0 7.5-1.875 11.25-1.875 5.625-1.875 9.375-3.75 15-1.875 3.75-3.75 9.375-5.625 13.125-7.5 7.5-15 11.25-26.25 13.125-5.625 0-11.25 0-16.875 1.875H70.311c-5.624 0-13.124 0-18.75-1.875-3.75 0-9.374 0-13.124-1.875-11.25-3.75-16.876-7.5-22.5-16.875-3.75-5.625-5.626-11.25-7.5-18.75 0-5.625-1.876-11.25-1.876-16.875s0-11.25-1.875-16.875v-61.876c0-3.75 0-9.374 1.875-13.124 0-3.75 0-7.5 1.875-11.25 0-5.626 1.876-11.25 3.75-16.876 3.75-11.25 11.25-16.874 22.5-20.624 5.626-3.75 13.126-3.75 18.75-5.626 5.626 0 11.25 0 16.876-1.874h157.5c7.5 0 13.125 0 20.625 1.874 3.75 0 7.5 0 13.125 1.876 13.125 1.874 22.5 9.374 26.25 22.5 3.75 9.374 5.625 16.874 5.625 26.25 0 5.624 0 9.374 1.875 15v54.375zm-176.25-58.125v82.5c26.25-13.125 52.5-28.125 78.75-41.25-26.25-13.125-52.5-26.25-78.75-41.25z"/><glyph glyph-name="thin-2-column" unicode="" horiz-adv-x="189.474" d="M22.105 296.842h34.737a18.947 18.947 0 0018.947-18.947v-34.737a18.947 18.947 0 00-18.947-18.947H22.105a18.947 18.947 0 00-18.947 18.947v34.737a18.947 18.947 0 0018.947 18.947zm110.527 0h34.736a18.947 18.947 0 0018.948-18.947v-34.737a18.947 18.947 0 00-18.948-18.947h-34.736a18.947 18.947 0 00-18.948 18.947v34.737a18.947 18.947 0 0018.948 18.947zM22.105 186.316h34.737a18.947 18.947 0 0018.947-18.948v-34.736a18.947 18.947 0 00-18.947-18.948H22.105a18.947 18.947 0 00-18.947 18.948v34.736a18.947 18.947 0 0018.947 18.948zm110.527 0h34.736a18.947 18.947 0 0018.948-18.948v-34.736a18.947 18.947 0 00-18.948-18.948h-34.736a18.947 18.947 0 00-18.948 18.948v34.736a18.947 18.947 0 0018.948 18.948zM22.105 75.789h34.737A18.947 18.947 0 0075.79 56.842V22.105A18.947 18.947 0 0056.842 3.158H22.105A18.947 18.947 0 003.158 22.105v34.737A18.947 18.947 0 0022.105 75.79zm110.527 0h34.736a18.947 18.947 0 0018.948-18.947V22.105a18.947 18.947 0 00-18.948-18.947h-34.736a18.947 18.947 0 00-18.948 18.947v34.737a18.947 18.947 0 0018.948 18.947z"/><glyph glyph-name="thin-3-column" unicode="" horiz-adv-x="300" d="M22.105 296.842h34.737a18.947 18.947 0 0018.947-18.947v-34.737a18.947 18.947 0 00-18.947-18.947H22.105a18.947 18.947 0 00-18.947 18.947v34.737a18.947 18.947 0 0018.947 18.947zm110.527 0h34.736a18.947 18.947 0 0018.948-18.947v-34.737a18.947 18.947 0 00-18.948-18.947h-34.736a18.947 18.947 0 00-18.948 18.947v34.737a18.947 18.947 0 0018.948 18.947zM22.105 186.316h34.737a18.947 18.947 0 0018.947-18.948v-34.736a18.947 18.947 0 00-18.947-18.948H22.105a18.947 18.947 0 00-18.947 18.948v34.736a18.947 18.947 0 0018.947 18.948zm110.527 0h34.736a18.947 18.947 0 0018.948-18.948v-34.736a18.947 18.947 0 00-18.948-18.948h-34.736a18.947 18.947 0 00-18.948 18.948v34.736a18.947 18.947 0 0018.948 18.948zM22.105 75.789h34.737A18.947 18.947 0 0075.79 56.842V22.105A18.947 18.947 0 0056.842 3.158H22.105A18.947 18.947 0 003.158 22.105v34.737A18.947 18.947 0 0022.105 75.79zm110.527 0h34.736a18.947 18.947 0 0018.948-18.947V22.105a18.947 18.947 0 00-18.948-18.947h-34.736a18.947 18.947 0 00-18.948 18.947v34.737a18.947 18.947 0 0018.948 18.947zm110.526 221.053h34.737a18.947 18.947 0 0018.947-18.947v-34.737a18.947 18.947 0 00-18.947-18.947h-34.737a18.947 18.947 0 00-18.947 18.947v34.737a18.947 18.947 0 0018.947 18.947zm0-110.526h34.737a18.947 18.947 0 0018.947-18.948v-34.736a18.947 18.947 0 00-18.947-18.948h-34.737a18.947 18.947 0 00-18.947 18.948v34.736a18.947 18.947 0 0018.947 18.948zm0-110.527h34.737a18.947 18.947 0 0018.947-18.947V22.105a18.947 18.947 0 00-18.947-18.947h-34.737a18.947 18.947 0 00-18.947 18.947v34.737a18.947 18.947 0 0018.947 18.947z"/><glyph glyph-name="thin-4-column" unicode="" horiz-adv-x="300" d="M16.154 257.308h25.384a13.846 13.846 0 0013.847-13.846v-25.385a13.846 13.846 0 00-13.847-13.846H16.154a13.846 13.846 0 00-13.846 13.846v25.385a13.846 13.846 0 0013.846 13.846zm80.77 0h25.384a13.846 13.846 0 0013.846-13.846v-25.385a13.846 13.846 0 00-13.846-13.846H96.923a13.846 13.846 0 00-13.846 13.846v25.385a13.846 13.846 0 0013.846 13.846zm-80.77-80.77h25.384a13.846 13.846 0 0013.847-13.846v-25.384a13.846 13.846 0 00-13.847-13.846H16.154a13.846 13.846 0 00-13.846 13.846v25.384a13.846 13.846 0 0013.846 13.846zm80.77 0h25.384a13.846 13.846 0 0013.846-13.846v-25.384a13.846 13.846 0 00-13.846-13.846H96.923a13.846 13.846 0 00-13.846 13.846v25.384a13.846 13.846 0 0013.846 13.846zM16.153 95.77h25.384a13.846 13.846 0 0013.847-13.846V56.538a13.846 13.846 0 00-13.847-13.846H16.154A13.846 13.846 0 002.308 56.538v25.385A13.846 13.846 0 0016.154 95.77zm80.77 0h25.384a13.846 13.846 0 0013.846-13.846V56.538a13.846 13.846 0 00-13.846-13.846H96.923a13.846 13.846 0 00-13.846 13.846v25.385A13.846 13.846 0 0096.923 95.77zm80.768 161.539h25.385a13.846 13.846 0 0013.846-13.846v-25.385a13.846 13.846 0 00-13.846-13.846h-25.385a13.846 13.846 0 00-13.846 13.846v25.385a13.846 13.846 0 0013.846 13.846zm0-80.77h25.385a13.846 13.846 0 0013.846-13.846v-25.384a13.846 13.846 0 00-13.846-13.846h-25.385a13.846 13.846 0 00-13.846 13.846v25.384a13.846 13.846 0 0013.846 13.846zm0-80.769h25.385a13.846 13.846 0 0013.846-13.846V56.538a13.846 13.846 0 00-13.846-13.846h-25.385a13.846 13.846 0 00-13.846 13.846v25.385a13.846 13.846 0 0013.846 13.846zm80.77 161.539h25.384a13.846 13.846 0 0013.846-13.846v-25.385a13.846 13.846 0 00-13.846-13.846h-25.384a13.846 13.846 0 00-13.847 13.846v25.385a13.846 13.846 0 0013.847 13.846zm0-80.77h25.384a13.846 13.846 0 0013.846-13.846v-25.384a13.846 13.846 0 00-13.846-13.846h-25.384a13.846 13.846 0 00-13.847 13.846v25.384a13.846 13.846 0 0013.847 13.846zm0-80.769h25.384a13.846 13.846 0 0013.846-13.846V56.538a13.846 13.846 0 00-13.846-13.846h-25.384a13.846 13.846 0 00-13.847 13.846v25.385a13.846 13.846 0 0013.847 13.846z"/><glyph glyph-name="thin-activewear" unicode="" horiz-adv-x="300" d="M67.835 281.407c-9.961-2.695-17.696-10.546-20.274-20.566-1.289-4.922-1.289-36.562 0-41.484 3.34-12.715 14.649-21.387 27.95-21.387 2.167 0 3.984-.117 3.984-.293s-11.602-29.297-25.781-64.745c-14.18-35.45-25.782-65.274-25.782-66.212 0-4.747 2.227-6.973 16.114-16.113C60.803 39.65 73.81 33.145 91.096 27.228c44.707-15.293 91.758-12.246 137.93 9.024 14.883 6.855 38.671 21.268 41.368 25.078.702.995 1.463 2.928 1.64 4.335.352 2.343-1.64 7.5-25.488 67.148-14.239 35.509-25.84 64.688-25.84 64.864 0 .176 1.64.293 3.691.293 13.009 0 24.375 8.789 27.657 21.504 1.288 4.863 1.288 36.504 0 41.367-2.637 10.137-10.43 17.988-20.508 20.625-2.754.703-7.149.879-21.094.879-9.668 0-19.746-.234-22.383-.586-8.437-.937-12.247-3.926-16.7-12.95-3.28-6.62-6.269-9.667-12.07-12.421-3.574-1.7-4.453-1.875-9.492-1.875-5.039 0-5.918.176-9.375 1.816-5.976 2.871-8.437 5.39-11.543 11.836-3.164 6.621-6.62 10.547-10.898 12.48-2.988 1.407-3.34 1.407-25.02 1.524-17.812.117-22.558-.058-25.136-.762zm44.59-22.382c5.156-10.782 15.117-19.043 26.835-22.207 6.036-1.641 17.168-1.348 22.97.527 6.21 2.05 11.542 5.156 16.112 9.434 4.044 3.75 8.965 10.664 10.137 14.18.587 1.757.938 2.05 3.105 2.343 1.348.176 10.137.293 19.572.176 16.171-.176 17.166-.235 18.69-1.406.88-.645 2.168-1.934 2.813-2.813 1.172-1.523 1.23-2.344 1.23-19.102 0-16.757-.058-17.578-1.23-19.101-2.93-3.926-3.223-4.043-16.933-4.336-11.485-.293-12.657-.41-14.122-1.523-2.578-1.875-3.867-3.985-4.16-6.739-.293-2.344 2.227-8.906 26.718-70.136 14.884-37.09 27.012-67.677 27.012-67.969 0-.586-12.597-8.203-20.507-12.363-18.75-9.785-39.023-16.523-59.766-19.805-10.488-1.64-36.797-1.465-47.168.293-25.312 4.335-47.812 13.417-69.844 28.067-2.695 1.815-4.863 3.457-4.863 3.75 0 .292 12.129 30.937 27.012 68.027 24.492 61.23 27.011 67.792 26.718 70.136-.293 2.754-1.582 4.864-4.16 6.739-1.465 1.113-2.636 1.23-14.414 1.523-14.004.293-14.297.41-17.226 4.336-1.172 1.523-1.23 2.52-1.407 17.52-.117 8.788 0 16.757.176 17.812.41 2.344 2.871 5.332 5.274 6.387 1.347.586 6.21.761 20.507.761h18.75l2.168-4.511z"/><glyph glyph-name="thin-add" unicode="" horiz-adv-x="300" d="M235 150c0-5-3.75-10-10-10h-65V75c0-5-3.75-10-10-10s-10 3.75-10 10v65H75c-5 0-10 3.75-10 10 0 5 3.75 10 10 10h65v65c0 5 3.75 10 10 10s10-3.75 10-10v-65h65c5 0 10-5 10-10z"/><glyph glyph-name="thin-anti-age" unicode="" horiz-adv-x="300" d="M52.969 125.625V35.156H213.75v90.469H52.969zm142.969-72.656H70.313v54.843h125.624V52.97zM239.53 300c-33.281 0-60-27.188-60-60.469 0-9.375 2.344-18.281 6.094-26.25H26.25c-14.531 0-26.25-11.719-26.25-26.25V26.25C0 11.719 11.719 0 26.25 0h213.281c14.531 0 26.25 11.719 26.25 26.25v159.375C285.937 195.469 300 216.094 300 239.531 300 272.812 272.812 300 239.531 300zm8.906-273.75c0-4.688-3.75-8.906-8.906-8.906H26.25c-4.688 0-8.906 3.75-8.906 8.906v116.719h231.094V26.25zm0 134.531H17.813v26.25c0 4.688 3.75 8.906 8.907 8.906h172.03c10.781-10.312 25.313-16.406 41.25-16.406 2.813 0 6.094 0 8.906.469v-19.219zm-8.906 33.75c-24.844 0-45 20.156-45 45s20.156 45 45 45 45-20.156 45-45c.469-24.844-19.687-45-45-45zm7.5 52.5v18.75h-15v-33.75h33.75v15h-18.75z"/><glyph glyph-name="thin-arrow-down-2" unicode="" horiz-adv-x="300" d="M282.112 187.025L166 70.913c-4.441-4.44-10.223-6.615-16.006-6.615-5.782 0-11.611 2.22-16.006 6.615L17.877 187.025c-8.836 8.836-8.836 23.176 0 32.058l9.992 9.992c8.835 8.836 23.176 8.836 32.058 0l74.108-74.108c4.44-4.44 10.223-6.615 16.006-6.615 5.782 0 11.61 2.22 16.005 6.615l74.108 74.108c8.836 8.836 23.176 8.836 32.058 0l9.992-9.992c8.743-8.882 8.743-23.222-.092-32.058z"/><glyph glyph-name="thin-arrow-down" unicode="" horiz-adv-x="300" d="M150.625 96.094c-8.75 0-17.5 3.75-23.75 10l-82.5 81.25c-3.75 3.75-3.75 10 0 13.75s10 3.75 13.75 0l81.25-81.25c6.25-6.25 16.25-6.25 21.25 0l81.25 81.25c3.75 3.75 10 3.75 13.75 0s3.75-10 0-13.75l-81.25-81.25c-6.25-6.25-15-10-23.75-10z"/><glyph glyph-name="thin-arrow-left" unicode="" horiz-adv-x="300" d="M193.594 42.344c-2.5 0-5 1.25-6.25 2.5l-81.25 81.25c-6.25 6.25-10 15-10 23.75s3.75 17.5 10 23.75l81.25 81.25c3.75 3.75 10 3.75 13.75 0s3.75-10 0-13.75l-82.5-78.75c-2.5-2.5-5-6.25-5-11.25s1.25-7.5 5-11.25l81.25-81.25c3.75-3.75 3.75-10 0-13.75-1.25-1.25-3.75-2.5-6.25-2.5z"/><glyph glyph-name="thin-arrow-long-left" unicode="" horiz-adv-x="300" d="M53.66 158.582l50 48.575c4.884 4.743 12.794 4.743 17.677 0 4.882-4.744 4.882-12.429 0-17.172l-28.643-27.836h144.805c6.91 0 12.5-5.43 12.5-12.143 0-6.713-5.59-12.145-12.5-12.145H92.694l28.664-27.845c4.883-4.745 4.883-12.429 0-17.173-4.879-4.739-12.789-4.747-17.676 0l-50 48.576c-4.904 4.754-4.904 12.42-.021 17.163z"/><glyph glyph-name="thin-arrow-long-right-2" unicode="" horiz-adv-x="300" d="M189.434 39.41a12.03 12.03 0 00-8.596 3.569c-4.703 4.703-4.703 12.488 0 17.191 49.623 49.623 49.623 130.078 0 179.7-4.703 4.704-4.703 12.489 0 17.192 4.704 4.703 12.489 4.703 17.192 0l98.446-98.446c4.703-4.703 4.703-12.488 0-17.192L198.03 42.98a12.03 12.03 0 00-8.596-3.569zm95.683 98.443H12.161c-6.65 0-12.164 5.514-12.164 12.163 0 6.65 5.514 12.164 12.164 12.164h272.956c6.65 0 12.164-5.514 12.164-12.163 0-6.65-5.513-12.164-12.164-12.164z"/><glyph glyph-name="thin-arrow-long-right" unicode="" horiz-adv-x="300" d="M246.339 141.419l-50-48.576c-4.883-4.743-12.793-4.743-17.676 0-4.883 4.744-4.883 12.428 0 17.173l28.643 27.834H62.502c-6.91 0-12.5 5.431-12.5 12.144s5.59 12.144 12.5 12.144h144.804l-28.664 27.847c-4.883 4.743-4.883 12.428 0 17.172 4.88 4.74 12.79 4.747 17.675 0l50-48.575c4.905-4.755 4.905-12.42.022-17.163z"/><glyph glyph-name="thin-arrow-right" unicode="" horiz-adv-x="300" d="M105.156 41.094c-2.5 0-5 1.25-6.25 2.5-3.75 3.75-3.75 10 0 13.75l81.25 81.25c2.5 2.5 5 6.25 5 11.25s-1.25 7.5-5 11.25l-81.25 81.25c-3.75 3.75-3.75 10 0 13.75s10 3.75 13.75 0l81.25-81.25c6.25-6.25 10-15 10-23.75s-3.75-17.5-10-23.75l-81.25-81.25c-2.5-3.75-5-5-7.5-5z"/><glyph glyph-name="thin-arrow-up" unicode="" horiz-adv-x="300" d="M248.125 96.25c-2.5 0-5 1.25-6.25 2.5L160.625 180c-6.25 6.25-16.25 6.25-21.25 0l-81.25-81.25c-3.75-3.75-10-3.75-13.75 0s-3.75 10 0 13.75l81.25 81.25c13.75 13.75 35 13.75 48.75 0l81.25-81.25c3.75-3.75 3.75-10 0-13.75-2.5-1.25-5-2.5-7.5-2.5z"/><glyph glyph-name="thin-award" unicode="" horiz-adv-x="300" d="M228.75 206.875l-1.25 1.25v28.75c0 30-16.25 47.5-47.5 47.5h-62.5c-30 0-46.25-17.5-46.25-47.5v-28.75l-2.5-1.25c-23.75-16.25-25-18.75-25-45v-62.5c0-26.25 1.25-28.75 26.25-45l58.75-33.75c6.25-3.75 13.75-5 21.25-5s15 1.25 21.25 5l60 35c23.75 16.25 25 18.75 25 45v62.5c-1.25 25-2.5 27.5-27.5 43.75zm-140 30c0 20 8.75 27.5 27.5 27.5h62.5c20 0 27.5-8.75 27.5-27.5v-17.5l-38.75 22.5c-12.5 7.5-30 7.5-41.25 0l-37.5-22.5v17.5zm147.5-137.5c0-17.5 0-17.5-16.25-28.75l-60-33.75c-6.25-3.75-17.5-3.75-22.5 0l-58.75 33.75c-17.5 11.25-17.5 11.25-17.5 28.75v62.5c0 17.5 0 17.5 16.25 28.75l60 33.75c2.5 1.25 7.5 2.5 11.25 2.5s8.75-1.25 11.25-2.5l58.75-33.75c17.5-11.25 17.5-11.25 17.5-28.75v-62.5zm-67.5-20c-2.5 0-5 0-8.75 1.25l-12.5 5-12.5-5c-6.25-2.5-13.75-2.5-18.75 1.25-3.75 3.75-6.25 10-5 17.5l1.25 12.5-8.75 10c-5 5-6.25 12.5-3.75 17.5 2.5 6.25 7.5 10 13.75 12.5l12.5 3.75 7.5 11.25c3.75 6.25 10 8.75 16.25 10 6.25 0 11.25-3.75 16.25-8.75l7.5-11.25 12.5-3.75c7.5-1.25 12.5-6.25 13.75-12.5 2.5-6.25 0-12.5-3.75-17.5l-10-10 1.25-12.5c0-7.5-2.5-13.75-7.5-17.5-3.75-2.5-7.5-3.75-11.25-3.75zm-20 25c2.5 0 5 0 7.5-1.25l12.5-5-1.25 12.5c0 3.75 1.25 8.75 3.75 12.5l8.75 10-12.5 3.75c-3.75 1.25-8.75 5-11.25 7.5l-7.5 12.5-7.5-11.25c-2.5-3.75-6.25-7.5-11.25-7.5l-12.5-3.75 8.75-10c2.5-3.75 5-8.75 3.75-12.5l-1.25-12.5 12.5 5h7.5zm1.25 53.75zm-2.5 0z"/><glyph glyph-name="thin-backpack-2" unicode="" horiz-adv-x="300" d="M240.19 78.193l-2.112 56.556a9.798 9.798 0 01-9.822 9.461h-16.14c-.662 3.527-3.76 6.206-7.476 6.206h-13.655c-3.716 0-6.813-2.678-7.474-6.206h-65.544c-.66 3.528-3.758 6.206-7.474 6.206H96.84c-3.717 0-6.814-2.679-7.476-6.206H72.581a9.798 9.798 0 01-9.822-9.462l-2.113-56.555c-.194-5.19 1.266-10.161 4.15-14.345-.007-.099-.015-.197-.015-.297V44.277c0-12.09 9.836-21.927 21.927-21.927h9.446l4.54-2.696a5.808 5.808 0 015.94-.001l4.542 2.696H190.3l4.542-2.697a5.81 5.81 0 015.938 0l4.542 2.697h8.707c12.09 0 21.927 9.837 21.927 21.927V63.55c0 .055-.006.108-.007.163 2.946 4.212 4.437 9.235 4.24 14.48zm-10.897 56.227l2.112-56.556a14.885 14.885 0 00-4.189-10.974 14.885 14.885 0 00-10.81-4.597h-4.156v73.127h16.006c.56 0 1.016-.44 1.037-1zm-111.19-80.917h65.272V31.14h-65.272v22.362zM69.431 77.865l2.112 56.555c.021.56.477 1 1.038 1h16.646V62.293H84.43a14.885 14.885 0 00-10.81 4.597 14.887 14.887 0 00-4.19 10.975zm4.14-33.588v11.837a23.668 23.668 0 0110.86-2.611h4.797V31.14h-2.52c-7.243 0-13.136 5.893-13.136 13.136zm30.094-16.163l-5.647 3.353v110.159h11.294v-33.404a4.395 4.395 0 118.79 0v27.197h65.273V62.293h-65.272V89.49a4.395 4.395 0 11-8.79 0V31.466l-5.648-3.352zm88.5 3.353v110.159h11.295V31.467l-5.648-3.353-5.647 3.353zm21.867-.326h-1.782v22.362h4.156c3.812 0 7.473.89 10.762 2.561V44.277c0-7.243-5.893-13.136-13.136-13.136zM83.572 183.983h17.033a4.395 4.395 0 110 8.79H83.572c-4.942 0-8.963-4.02-8.963-8.962v-15.158c0-4.942 4.02-8.962 8.963-8.962h133.696c4.942 0 8.962 4.02 8.962 8.962v15.158c0 4.942-4.02 8.962-8.962 8.962h-97.93a4.395 4.395 0 110-8.79h97.93a.172.172 0 00.172-.172v-15.158a.172.172 0 00-.172-.171H83.572a.172.172 0 00-.172.17v15.16c0 .093.077.17.172.17zm194.514-65.85h-21.794l-3.152 84.385c-.09 2.426-2.122 4.331-4.556 4.228a4.395 4.395 0 01-4.229-4.556l6.043-161.763c.313-8.356-2.71-16.275-8.511-22.297-5.801-6.022-13.602-9.34-21.964-9.34H80.915c-8.362 0-16.162 3.317-21.964 9.34s-8.825 13.94-8.512 22.297l7.03 188.155a30.398 30.398 0 0030.475 29.359h124.95a30.398 30.398 0 0030.475-29.359l.286-7.66c.09-2.426 2.127-4.333 4.557-4.229a4.395 4.395 0 014.228 4.556l-.286 7.66a39.16 39.16 0 01-39.26 37.822h-3.382l-16.762 16.175C181.327 293.929 166.293 300 150.42 300c-15.876 0-30.909-6.071-42.332-17.094L91.326 266.73h-3.382a39.16 39.16 0 01-39.26-37.821l-4.139-110.776h-22.63c-5.869 0-10.642-4.775-10.642-10.641V55.315c0-11.789 9.591-21.38 21.38-21.38h9.34c1.104-8.2 4.755-15.808 10.628-21.904C60.094 4.273 70.143.001 80.915.001h139.007c10.773 0 20.821 4.272 28.295 12.03 5.872 6.096 9.523 13.703 10.627 21.904h8.503c11.789 0 21.38 9.591 21.38 21.38v52.177c0 5.867-4.773 10.642-10.64 10.642zM129.698 266.732a34.42 34.42 0 0041.442 0h-41.442zm-15.507 9.849c9.776 9.434 22.642 14.63 36.228 14.63 13.585 0 26.451-5.196 36.227-14.63l10.207-9.85h-12.66l-3.651 3.524a43.227 43.227 0 01-60.246 0l-3.652-3.523h-12.66l10.207 9.849zM21.914 109.343h22.302l-.396-10.604H20.063v8.754c0 1.02.83 1.85 1.851 1.85zm-1.85-54.028v34.633h23.428l-1.764-47.223h-9.075c-6.942 0-12.59 5.648-12.59 12.59zm258.022 54.028c1.02 0 1.851-.83 1.851-1.85v-8.754h-22.92l-.397 10.604h21.466zm-10.738-66.618h-8.238l-1.765 47.223h22.592V55.315c0-6.942-5.647-12.59-12.59-12.59z"/><glyph glyph-name="thin-backpack" unicode="" horiz-adv-x="300" d="M205.483 99.71H91.78c-4.096 0-7.428-3.332-7.428-7.428V38.99c0-4.095 3.332-7.427 7.428-7.427h113.704c4.096 0 7.428 3.332 7.428 7.427v53.293c0 4.096-3.332 7.428-7.429 7.428zM93.265 90.796h110.732V75.842H93.265v14.954zm110.733-50.32H93.265v26.453h110.733V40.475zm55.324 87.719l-17.062 9.32v155.27a4.457 4.457 0 01-4.457 4.457h-29.805a4.458 4.458 0 01-4.457-4.52l.343-24.276a72.82 72.82 0 01-27.799 8.542v15.018c0 4.407-3.586 7.993-7.992 7.993H128.38c-4.408 0-7.994-3.586-7.994-7.993v-15.384a72.777 72.777 0 01-23.447-7.488l-.962 23.83a4.458 4.458 0 01-4.453 4.278H61.719a4.457 4.457 0 01-4.457-4.457V137.254l-16.583-9.059a17.49 17.49 0 01-9.112-15.357V36.02a4.457 4.457 0 014.457-4.456h21.238v-2.217C57.262 13.165 70.427 0 86.608 0h126.306c16.18 0 29.346 13.165 29.346 29.346v2.217h21.716a4.456 4.456 0 014.457 4.456v76.818a17.49 17.49 0 01-9.11 15.358zm-202.06-87.72h-16.78v56.406h16.78V40.475zm0 65.32h-16.78v7.042a8.583 8.583 0 004.47 7.535l12.31 6.724v-21.302zm72.039 185.29h37.871v-13.744h-36.545c-.444 0-.885-.009-1.326-.016v13.76zm1.327-22.657h38.268a64.083 64.083 0 0036.562-11.406c.286-.26.602-.486.948-.666a64.987 64.987 0 0015.522-15.798 43.779 43.779 0 01-23.725 6.962 4.88 4.88 0 01-.42-.02 4.457 4.457 0 01-4.877-4.436v-61.837c0-7.87-6.084-14.273-13.564-14.273h-12.184v11.426c0 4.096-3.332 7.428-7.428 7.428h-23.414c-4.097 0-7.429-3.332-7.429-7.428v-11.426h-9.04c-7.48 0-13.565 6.403-13.565 14.273v61.837a4.457 4.457 0 01-4.457 4.456c-.085 0-.168-.008-.253-.012-.084.004-.168.012-.253.012-8.73 0-16.87-2.563-23.724-6.962 11.641 16.824 31.07 27.87 53.033 27.87zm7.173-101.474v9.94h20.443v-9.94h-20.443zm20.443-8.914v-8.808h-20.443v8.808h20.443zM66.176 288.33h21.068l.99-24.51A73.908 73.908 0 0166.176 239v49.33zM212.914 8.914H86.608c-11.266 0-20.432 9.165-20.432 20.432v174.118c0 18.042 13.668 32.944 31.192 34.914v-57.151c0-12.786 10.083-23.187 22.477-23.187h9.041v-10.294c0-4.096 3.333-7.428 7.428-7.428h23.415c4.096 0 7.428 3.332 7.428 7.428v10.294h12.184c12.394 0 22.478 10.401 22.478 23.187v57.194c17.685-1.816 31.525-16.8 31.525-34.957V29.346h.001c.001-11.267-9.165-20.432-20.431-20.432zM233.346 239a73.904 73.904 0 01-20.466 23.657l-.362 25.673h20.828V239zM259.52 40.475h-17.26v56.406h17.26V40.475zm0 65.32h-17.26v21.562l12.79-6.986a8.582 8.582 0 004.47-7.535v-7.042z"/><glyph glyph-name="thin-bag-2" unicode="" horiz-adv-x="300" d="M281.25 243.75H18.75C8.411 243.75 0 235.339 0 225V75c0-10.339 8.411-18.75 18.75-18.75h262.5C291.589 56.25 300 64.661 300 75v150c0 10.339-8.411 18.75-18.75 18.75zm-262.5-12.5h262.5a6.257 6.257 0 006.25-6.25v-61.5c-12.012-6.82-57.784-30.718-116.87-35.502v12.303c0 6.12-4.98 11.1-11.1 11.1h-19.06c-6.12 0-11.1-4.98-11.1-11.1v-12.303c-58.97 4.78-104.837 28.689-116.87 35.506V225a6.257 6.257 0 006.25 6.25zm139.38-92.35v-35.994h-16.26V138.9h16.26zm123.12-70.15H18.75A6.257 6.257 0 0012.5 75v74.247c6.493-3.413 16.036-8.049 28.101-12.841 20.4-8.103 51.968-18.09 88.769-20.941v-13.96c0-6.12 4.98-11.099 11.1-11.099h19.06c6.12 0 11.1 4.98 11.1 11.1v13.959c36.8 2.85 68.368 12.838 88.768 20.94 12.066 4.793 21.609 9.429 28.102 12.843V75a6.257 6.257 0 00-6.25-6.25z"/><glyph glyph-name="thin-bag-3" unicode="" horiz-adv-x="300" d="M224.076 238.176c-2.181 4.769-6.564 12.861-14.054 20.93-10.555 11.371-29.537 24.926-60.022 24.926s-49.466-13.555-60.021-24.926c-7.49-8.069-11.874-16.161-14.055-20.93H0V44.063c0-15.492 12.604-28.095 28.096-28.095h243.809C287.396 15.968 300 28.57 300 44.063v194.113h-75.924zm-11.27-150.001v16.26h14.172v-16.26h-14.173zm-1.401 28.76c-6.12 0-11.1-4.98-11.1-11.1v-19.06c0-6.12 4.98-11.1 11.1-11.1h2.236V62.5h12.5v13.175h2.237c6.12 0 11.1 4.98 11.1 11.1v19.06c0 6.12-4.98 11.1-11.1 11.1h-2.237v21.615h26.674V63.287c0-5.088-4.139-9.226-9.226-9.226H56.412c-5.088 0-9.226 4.138-9.226 9.226v75.263h26.673v-21.615h-2.236c-6.12 0-11.1-4.98-11.1-11.1v-19.06c0-6.12 4.98-11.1 11.1-11.1h2.236V62.5h12.5v13.175h2.237c6.12 0 11.1 4.98 11.1 11.1v19.06c0 6.12-4.98 11.1-11.1 11.1h-2.237v21.615H213.64v-21.615h-2.236zM73.023 88.175v16.26h14.172v-16.26H73.023zM86.36 151.05v74.626h127.28V151.05H86.36zm12.781 99.552c12.891 13.89 30.003 20.93 50.86 20.93 20.66 0 37.652-6.915 50.51-20.555a68.983 68.983 0 009.5-12.8H89.971a69.048 69.048 0 009.168 12.425zM12.5 225.676h61.359V151.05H28.096c-8.6 0-15.596 6.996-15.596 15.595v59.031zM271.905 28.467H28.096c-8.6 0-15.596 6.997-15.596 15.596v99.227a27.928 27.928 0 0115.596-4.74h6.59V63.287c0-11.98 9.746-21.727 21.726-21.727h187.177c11.98 0 21.726 9.748 21.726 21.727v75.263h6.59c5.766 0 11.13 1.748 15.595 4.74V44.062c0-8.6-6.996-15.596-15.595-15.596zm0 122.583H226.14v74.626h61.36v-59.03c0-8.6-6.996-15.596-15.595-15.596zm-161.209-80.1h78.606v50.714h-78.606V70.95zm12.5 38.213h53.606V83.45h-53.606v25.713z"/><glyph glyph-name="thin-bag-4" unicode="" horiz-adv-x="300" d="M268.594 132.422c19.219 25.312 15.469 52.031 15.469 52.969l-.938 5.156h-62.344c.469 17.344-1.406 64.219-25.781 90.469-11.719 12.656-26.719 18.75-45 18.75s-33.281-6.563-45-18.75c-24.375-26.72-26.25-73.125-25.781-90.47H16.406l-.937-5.155c0-.938-3.75-28.125 15.469-52.97-7.97-11.25-26.25-45.468-26.25-126.093V.234h290.625v6.094c0 80.625-18.282 114.844-26.72 126.094zM114.375 273.047c9.375 9.844 21.094 15 35.625 15 15 0 26.25-4.688 35.625-15 21.563-22.969 22.5-66.563 22.5-82.031H91.875c-.469 15.468.938 59.062 22.5 82.03zm157.5-94.688c0-8.437-1.875-24.843-15-40.312-16.875-20.156-45.938-31.875-86.719-34.688v7.97c0 6.093-5.156 11.25-11.25 11.25h-18.281c-6.094 0-11.25-5.157-11.25-11.25v-7.97c-40.781 2.813-69.844 14.532-86.719 34.688C30 153.516 28.125 169.922 28.125 178.359h243.75zm-113.906-68.437V73.828h-16.406v36.094h16.406zM17.344 12.89c0 26.718 2.812 62.343 13.125 90.468 3.281 9.375 7.031 15.938 9.375 19.688 19.687-18.75 49.687-29.063 89.531-31.875V72.89c0-6.094 5.156-11.25 11.25-11.25h18.75c6.094 0 11.25 5.156 11.25 11.25v18.28c39.844 2.813 69.844 13.595 89.531 31.876 2.344-3.75 5.625-9.375 8.906-18.281 10.782-28.125 13.594-64.688 13.594-91.875H17.344z"/><glyph glyph-name="thin-bag-5" unicode="" horiz-adv-x="300" d="M202.117 29.863H97.769c-38.33 0-67.735 13.844-59.382 69.565l9.725 75.515c5.149 27.803 22.883 38.444 38.444 38.444h127.23c15.79 0 32.496-11.442 38.445-38.444l9.726-75.515c7.094-49.429-21.511-69.565-59.84-69.565zm1.71 186.269c0 29.826-24.178 54.005-54.004 54.005a54.006 54.006 0 01-54.234-54.005m91.31-56.294h-.572m-72.316 0h-.572"/><glyph glyph-name="thin-bag" unicode="" horiz-adv-x="300" d="M252.665 146.437c-.113 20.346-1.232 55.124-12.404 86.44-7.111 19.935-17.362 35.687-30.467 46.82C193.936 293.17 173.818 300 150 300c-23.818 0-43.936-6.831-59.794-20.303-13.105-11.133-23.356-26.886-30.467-46.82-11.172-31.315-12.291-66.094-12.404-86.44H24.822V34.021c0-8.939 2.91-17.157 8.194-23.144C37.395 5.915 45.63 0 60 0h180c14.369 0 22.605 5.915 26.984 10.876 5.284 5.987 8.194 14.206 8.194 23.144v112.417h-22.513zm-181.153 82.24c6.364 17.84 15.377 31.8 26.787 41.494 13.536 11.498 30.93 17.329 51.7 17.329 20.772 0 38.166-5.83 51.702-17.33 11.41-9.693 20.423-23.654 26.787-41.494 10.476-29.367 11.563-62.63 11.676-82.24H59.836c.113 19.612 1.2 52.873 11.676 82.24zm191.165-94.74V87.195C251.06 80.651 206.04 57.532 150 57.532c-55.908 0-101.042 23.131-112.678 29.668v46.737h225.355zM141.87 45.187c2.682-.099 5.391-.155 8.13-.155 2.739 0 5.448.056 8.13.154V33.285h-16.26v11.901zM240 12.5H60c-5.32 0-22.678 1.552-22.678 21.521v38.94c15.738-8.157 49.502-23.075 92.048-26.973V31.884c0-6.12 4.98-11.1 11.1-11.1h19.06c6.12 0 11.1 4.98 11.1 11.1v14.104c42.546 3.897 76.31 18.815 92.047 26.972V34.02c0-19.968-17.357-21.52-22.677-21.52z"/><glyph glyph-name="thin-bathrobe" unicode="" horiz-adv-x="300" d="M290.886 111.797l-67.969 165.469c-.469.937-.937 1.406-1.875 2.343-1.406 2.813-2.812 5.157-4.219 7.032-2.343 2.343-4.687 2.812-6.093 2.812h-14.532l-9.375 9.375h-.468l-.469.469h-68.438s-.468 0-.468-.469h-.469l-9.375-9.375H92.605c-1.407 0-3.75-.469-6.094-2.812-.938-.938-1.875-2.344-2.813-4.22.47-.468 0-.937-.468-1.405L9.167 116.484c-.469-.937-.469-2.343 0-3.75.469-.937 1.406-1.875 2.813-2.343L56.51 94.92c.469 0 .937-.468 1.406-.468.469 0 1.406 0 1.875.469.938.469 1.875 1.406 2.344 2.812l22.031 68.438c1.406-5.625 1.875-10.781 1.875-16.406-.469-11.25-3.75-22.5-6.562-33.75-3.282-10.782-6.094-21.094-6.563-31.407-1.406-37.03-2.812-64.687-2.812-65.156V4.922A4.201 4.201 0 0174.323.703h155.625a4.201 4.201 0 014.22 4.219v14.531c0 .469-1.407 29.063-2.813 67.031-.469 9.844-3.282 19.688-6.563 30.47-3.281 10.78-6.562 21.562-6.562 32.343v4.219c.468 4.687 1.406 8.906 2.343 13.593l24.375-75.468c.47-1.407 1.407-2.344 2.344-2.813.469-.469 1.406-.469 1.875-.469.469 0 1.406 0 1.875.47l37.5 16.405c1.875 1.407 3.281 4.22 2.344 6.563zM178.855 291.328c-.469-2.812-.938-5.156-1.875-7.969h-49.688c-.937 2.813-1.875 5.157-2.344 7.97h53.907zm-6.094-16.875c-1.875-3.75-3.75-7.031-6.094-10.312v-.47c-5.156-7.968-10.781-14.53-14.531-18.28l-.469-.47c-5.156 5.626-14.531 16.876-21.094 29.063l42.188.47zm-88.125-70.312c0 2.343-1.875 4.687-4.219 4.687-2.344 0-4.687-1.875-4.687-4.219 0-7.5 1.875-15 3.75-22.5-.469-.468-.469-.937-.469-1.406l-24.375-75.469-35.625 12.188 55.781 123.75v-.938c0-2.343 2.344-4.218 4.219-4.218h.469c2.343 0 4.218 2.343 4.218 4.687-.468 2.813.938 12.188 3.282 21.563 2.812 12.187 5.625 16.875 6.562 17.812h17.344l1.406 1.406h.469l4.219 4.688c.468-2.813 1.406-5.625 2.812-8.438 0 0 0-.468.469-.468 6.562-16.407 19.687-31.407 25.781-37.97-7.031-7.03-12.656-12.187-13.125-12.187-.937-.937-1.406-1.875-1.406-3.28v-65.157H94.48c-.938 7.031-2.813 14.531-4.688 21.094-2.812 8.437-5.156 16.875-5.156 24.375zm8.906-64.22c.469 3.282.938 6.095.938 9.376h114.843c0-3.281.47-6.094.938-9.375H93.542zm85.781-8.905V77.109h-7.968v53.907h7.968zM131.043 9.14h-52.5v10.312c0 1.875 1.405 29.063 2.812 65.156.468 8.907 3.281 18.75 6.093 29.063 1.875 5.625 3.282 11.719 4.688 17.344h38.906V9.14zm91.405 77.343c1.407-37.03 2.813-65.156 2.813-67.03V9.14h-85.313v121.875h22.032V72.422a4.201 4.201 0 014.218-4.219h16.875a4.201 4.201 0 014.22 4.219v58.594h23.905c1.407-5.625 2.813-11.25 4.688-16.407 3.281-9.843 6.094-19.218 6.562-28.125zM251.98 99.61l-25.782 80.157c-.468.937-.937 1.406-1.406 2.343 1.875 7.032 3.281 14.063 3.281 20.625a4.201 4.201 0 01-4.218 4.22c-2.344 0-4.219-1.876-4.219-4.688 0-7.5-2.344-15.47-4.688-23.907-1.875-6.562-3.75-13.125-4.687-20.156h-70.313v63.281c2.813 2.344 8.438 7.5 14.532 14.063 0 0 .468 0 .468.469.47.468 1.875 1.875 4.688 4.687 5.625 6.094 11.25 12.656 14.531 18.75 5.156 7.969 10.313 17.344 12.656 26.719l4.22-4.219.468-.469.469-.468h16.875c.937-.938 3.75-5.625 6.562-17.813 2.344-9.375 3.281-18.75 2.813-21.562-.469-2.344 1.406-4.688 3.75-4.688h.468c1.875 0 3.75 1.406 4.22 3.281l54.374-127.968L251.98 99.61z"/><glyph glyph-name="thin-beanie" unicode="" horiz-adv-x="300" d="M277.5 37.031c4.219 3.75 6.563 9.375 6.563 15.469 0 11.719-9.375 21.563-21.563 21.563.469 39.374-12.656 90.937-43.125 123.28-5.625 5.626-11.25 10.782-17.813 15 3.75 3.282 8.438 7.032 9.844 13.595 1.406 7.03-1.406 13.125-3.75 18.28-1.406 2.813-2.812 5.157-3.281 7.5-.469 2.345-.469 5.157-.469 7.97 0 5.625.469 12.187-4.219 18.28-4.687 5.626-10.78 7.032-16.406 7.97-2.812.468-5.625.937-7.969 2.343-2.343.938-4.218 2.813-6.562 4.688-4.688 2.812-9.844 7.031-17.344 7.031-7.5 0-12.187-4.219-16.875-7.969-2.344-1.875-4.219-3.75-6.562-4.687-2.344-.938-4.688-1.406-7.5-2.344-5.625-.938-12.188-2.344-16.875-8.438-4.688-5.625-4.219-12.187-4.219-17.812 0-2.813 0-5.625-.469-7.969-.469-2.344-1.875-4.687-3.281-7.5C93.281 238.594 90 232.5 91.406 225c1.406-5.625 4.688-9.375 8.438-12.188-7.031-4.218-13.125-9.843-19.219-15.937C50.156 164.531 37.5 112.969 37.5 73.594c-11.719 0-21.563-9.375-21.563-21.563 0-6.093 2.344-11.718 6.563-15.468-4.219-3.75-6.563-9.376-6.563-15.47C15.938 9.376 25.782 0 37.5 0h225c11.719 0 21.563 9.375 21.563 21.563 0 6.093-2.813 11.25-6.563 15.468zm-67.031 151.875c28.594-30 40.312-78.281 39.844-114.844H198.75c0 43.594-6.563 109.22-25.781 138.282 14.062-4.219 26.719-12.188 37.5-23.438zM112.5 73.594c-.469 53.906 9.844 118.125 27.656 136.406 3.281 3.281 6.563 4.688 9.844 4.688 3.281 0 6.563-1.407 9.844-4.688 18.281-18.281 28.125-82.5 27.656-136.406h-75zm-2.344 146.25c-3.75 2.812-6.562 5.156-7.031 7.969-.469 3.28.469 6.093 2.813 10.312 1.406 2.813 3.28 6.094 4.218 9.844.938 3.75.938 7.5.938 11.25 0 5.156 0 7.969 1.875 10.312 1.875 2.344 5.156 3.281 9.844 4.219 3.28.469 7.03 1.406 10.312 2.813 3.75 1.875 6.563 4.218 9.375 6.562 3.75 3.281 6.094 5.156 9.375 5.156 3.281 0 5.625-1.875 9.375-5.156 2.344-2.344 5.156-4.688 8.906-6.094 3.75-1.875 7.5-2.344 10.781-3.281 4.688-.938 7.97-1.875 9.844-3.75 1.406-2.813 1.406-6.094.938-11.25 0-3.281 0-7.031.469-10.781.937-3.75 2.812-7.5 4.218-10.313 2.344-4.219 3.75-7.5 2.813-10.312-.938-3.281-3.281-5.156-7.031-7.969-.938-.469-1.407-.938-2.344-1.875-12.188 5.625-25.781 8.906-40.313 8.906-14.062 0-26.719-2.812-38.437-7.969 0 .938-.469.938-.938 1.407zm-20.625-30.938c10.781 11.25 23.438 19.219 37.5 22.969-19.219-28.594-26.25-94.688-25.781-138.281H49.687c-.468 37.031 11.25 85.312 39.844 115.312zM262.5 42.656h-37.031c-3.281 0-5.625-2.812-5.625-5.625 0-3.281 2.812-6.093 5.625-6.093H262.5c5.156 0 9.844-4.22 9.844-9.844 0-5.157-4.219-9.844-9.844-9.844h-225c-5.156 0-9.844 4.219-9.844 9.844 0 5.156 4.219 9.843 9.844 9.843h37.031c3.281 0 5.625 2.813 5.625 6.094 0 3.282-2.812 5.625-5.625 5.625H37.5c-5.156 0-9.844 4.219-9.844 9.844 0 5.156 4.219 9.844 9.844 9.844h225c5.156 0 9.844-4.219 9.844-9.844 0-5.625-4.219-9.844-9.844-9.844z"/><glyph glyph-name="thin-beauty" unicode="" horiz-adv-x="300" d="M281.47 255.22c-5.294 8.824-17.646 19.412-24.705 24.706-10.589 7.06-24.706 12.353-37.06 15.883-8.823 1.765-22.94 1.765-31.764 0-24.706-5.294-45.882-19.412-60-40.588-5.294-7.06-5.294-8.824-3.53-12.353 0-1.765 10.589-17.647 22.942-35.294l22.941-33.53V15.221l1.765-1.765c1.765-3.53 5.294-7.059 8.823-8.824l3.53-1.764h45.882l3.53 1.764 5.294 5.294c3.53 5.295 3.53 0 3.53 86.471v77.647l21.176 33.53c12.352 17.647 22.94 33.529 22.94 33.529v3.53c0 3.529-1.764 5.293-5.293 10.588zM223.236 96.398V22.28h-37.059v148.236h37.06V96.397zm24.706 120l-19.412-30h-5.294l3.53 8.824c1.764 5.294 3.53 8.823 3.53 10.588 0 5.294-5.295 10.588-10.59 8.823-3.529-1.764-5.293-3.53-8.823-12.353l-3.53-8.823-3.528 8.823c-5.295 8.824-5.295 10.589-8.824 10.589-5.294 1.764-12.353-1.765-12.353-8.824 0-1.765 1.765-5.294 1.765-10.588l3.53-8.824h-5.295l-19.412 30c-10.588 15.883-21.176 30-21.176 30 0 1.765 10.588 14.118 19.412 19.412 7.058 5.294 17.647 10.588 28.235 12.353 8.823 1.765 21.176 1.765 30 0 8.823-1.765 17.647-5.294 26.47-12.353 5.295-3.53 15.883-14.118 17.648-17.647l1.764-1.765-17.647-28.235zM110.294 101.691s-1.765 1.765-3.53 1.765H105v95.294l-1.765 1.765c-1.764 1.764-5.294 3.53-7.059 3.53 0 0-1.764 3.529-1.764 38.823 0 37.058 0 38.823-1.765 40.588-1.765 7.059-8.823 10.588-15.882 8.823-3.53 0-33.53-12.353-35.294-14.117-1.765-1.765-5.295-3.53-5.295-5.294-5.294-7.06-5.294-5.294-5.294-38.824 0-28.235 0-30-1.764-30-1.765 0-5.294-1.765-7.06-3.53v-97.057h-1.764c-1.765 0-3.53-1.765-3.53-1.765-3.529-1.765-3.529 0-3.529-44.117v-40.59L15 13.455c1.765-3.529 3.53-7.058 8.824-8.823l3.529-1.764h72.353l3.53 1.764c3.529 1.765 7.058 5.294 8.823 8.824 1.765 3.53 1.765 3.53 1.765 42.353 0 45.882 0 44.117-3.53 45.882zM48.53 260.515c1.765 3.53 7.06 5.294 15.883 8.823 7.059 3.53 12.353 5.294 12.353 5.294v-70.588H48.529v56.47zm-8.823-74.118h45.882v-82.941H39.706v82.941zm56.47-132.353V22.28H30.882v65.295h63.53l1.764-33.53z"/><glyph glyph-name="thin-belt-10" unicode="" horiz-adv-x="300" d="M281.953 162.568h-11.25c-.937 2.344-2.344 4.22-3.75 5.625-3.75 14.532-16.875 64.688-16.875 64.688-.937 2.812-2.812 5.625-5.625 7.031-2.812 1.406-6.094 1.875-8.906 1.406L26.953 187.412c-2.812-.937-5.625-2.812-7.031-5.625-1.875-2.344-2.344-5.625-1.406-8.437l2.812-10.313h-4.687c-9.375 0-16.875-7.5-16.875-16.875V90.85c0-9.375 7.5-16.875 16.875-16.875h49.687c2.344-8.907 10.781-15.47 20.625-15.47h112.031c4.22 0 7.5 3.282 7.5 7.5v8.438h31.875c1.407-4.218 5.625-7.5 10.782-7.5h11.25c4.687 0 8.906 3.282 10.78 7.5h11.25c9.845 0 17.813 7.97 17.813 17.813v52.5c-.468 9.844-8.437 17.812-18.28 17.812zm-44.062 0h-31.875v3.75l48.28 12.657 2.345-8.907h-7.97c-5.155.47-8.905-2.812-10.78-7.5zm33.28-30.937h19.688v-26.719h-19.687v26.719zm19.688 13.125v-4.219h-19.687v13.594h10.781c4.688 0 8.906-4.219 8.906-9.375zM27.422 177.568c.469.47.937.938 1.875 1.407l208.125 53.906c.937 0 1.406 0 2.344-.469.468-.469.937-.937 1.406-1.875l3.281-11.719-15.469-4.218c-2.343-.47-3.75-2.813-3.28-5.157.468-1.875 2.343-3.28 4.218-3.28h.937l15.47 4.218 6.093-22.969-47.344-12.187c-1.406 1.875-3.281 2.812-6.094 2.812h-76.406l90 23.438c2.344.468 3.75 2.812 3.281 5.156-.468 2.344-2.812 3.75-5.156 3.281l-180-46.875-3.281 11.719c-.469 1.406-.469 2.344 0 2.812zm75.469-92.343v20.156h81.562V85.225h-81.562zm-7.97 29.062v7.969H197.11v-7.969H94.922zm7.97 16.875v20.156h81.562v-20.156h-81.562zm0 28.594v9.844h94.687v-9.844h-94.687zm-36.563 2.812H62.11l4.688 1.407c-.469-.47-.469-.938-.469-1.407zm-49.687-8.437h48.75v-13.594H8.67v5.625c0 4.219 3.75 7.969 7.97 7.969zM8.67 90.38v5.625h9.845c2.343 0 4.218 1.875 4.218 4.219s-1.875 4.218-4.218 4.218H8.672v26.72H65.39v-26.72H37.266c-2.344 0-4.22-1.875-4.22-4.218s1.876-4.22 4.22-4.22H65.39V82.413H16.64c-4.22 0-7.97 3.75-7.97 7.969zm65.626-11.25v78.281c0 7.031 5.625 12.188 12.187 12.188h7.032v-38.438c-4.22 0-7.5-3.281-7.5-7.5V113.35c0-4.22 3.28-7.5 7.5-7.5V67.412h-7.032c-6.562-.469-12.187 4.688-12.187 11.719zm123.281-12.188H102.89v9.844h94.687v-9.844zm64.688 9.844c0-1.406-.938-2.344-2.344-2.344h-11.25c-1.406 0-2.344.938-2.344 2.344v8.906c0 2.344-1.875 4.22-4.219 4.22s-4.218-1.876-4.218-4.22v-3.75h-32.813c-1.406 1.875-3.281 2.813-6.094 2.813h-5.625v20.156h5.157c4.218 0 7.5 3.281 7.5 7.5v10.313c0 4.218-3.282 7.5-7.5 7.5h-5.157v20.156h5.625c2.344 0 4.688.937 6.094 2.812h32.813v-49.218c0-2.344 1.875-4.22 4.218-4.22s4.22 1.876 4.22 4.22v55.312c0 1.406.937 2.344 2.343 2.344h11.25c1.406 0 2.344-.938 2.344-2.344v-82.5zm19.687 5.625h-10.781v13.594h19.687v-4.219c0-5.156-4.218-9.375-8.906-9.375zm-63.75 67.031c-6.562 0-11.719-5.156-11.719-11.718 0-6.563 5.157-11.72 11.72-11.72s11.718 5.157 11.718 11.72c0 6.093-5.156 11.718-11.719 11.718zm0-15c-1.406 0-2.812 1.407-2.812 2.813 0 1.406 1.406 2.812 2.812 2.812s2.813-1.406 2.813-2.812c.468-1.406-.938-2.813-2.813-2.813zm0-23.437c-6.562 0-11.719-5.156-11.719-11.719 0-6.562 5.157-11.719 11.72-11.719s11.718 5.157 11.718 11.72c0 6.562-5.156 11.718-11.719 11.718zm0-14.531c-1.406 0-2.812 1.406-2.812 2.812s1.406 2.813 2.812 2.813 2.813-1.407 2.813-2.813c.468-1.406-.938-2.812-2.813-2.812z"/><glyph glyph-name="thin-belt-2" unicode="" horiz-adv-x="300" d="M62.813 75l12.656 12.656L88.125 75 75 62.812 62.812 75zm130.78 31.406c11.72 11.719 17.813 27.188 18.282 43.125L300 237.656 237.656 300l-88.125-88.125c-15.469 0-30.937-6.094-43.125-18.281-11.719-11.719-17.812-27.188-18.281-43.125L0 62.344 62.344 0l88.125 88.125c15.937.469 31.406 6.563 43.125 18.281zm81.563 131.25l-18.75-18.75c-1.406 9.375-5.625 17.813-12.656 24.844-7.031 7.031-15.938 11.25-24.844 12.656l18.75 18.75 37.5-37.5zm-43.594-6.094c10.313-10.312 10.313-27.187 0-37.5l-23.437-23.437c-2.813 8.438-7.969 16.406-14.531 22.969-6.563 6.562-14.531 11.719-22.969 14.531l23.438 23.438c10.312 10.312 27.187 10.312 37.5 0zm-50.156-50.156c17.344-17.344 17.344-45.469 0-62.344-15-15-38.437-16.874-55.781-5.624l37.031 37.03L150 162.657l-37.031-37.031c-11.25 17.344-9.375 40.313 5.625 55.781 17.344 16.875 45.469 16.875 62.812 0zM24.844 62.344l67.031 67.031c1.875-5.625 5.156-11.25 8.906-16.406L87.656 99.844l12.656-12.656 13.126 13.124c5.156-3.75 10.78-6.562 16.406-8.906l-67.5-66.562-37.5 37.5z"/><glyph glyph-name="thin-belt-3" unicode="" horiz-adv-x="300" d="M260.246 159.393h-29.341a9.901 9.901 0 01-2.703 3.837l13.905 4.749a15.384 15.384 0 018.897 7.831 15.38 15.38 0 01.753 11.83l-15.684 45.928c-2.76 8.081-11.58 12.41-19.66 9.65l-22.956-7.838a4.414 4.414 0 012.853-8.353l22.955 7.838c3.474 1.188 7.267-.675 8.454-4.15l15.685-45.93a6.614 6.614 0 00-.323-5.086 6.617 6.617 0 00-3.826-3.368l-49.602-16.939h-12.558c-11.682 14.581-29.628 23.936-49.722 23.936-20.093 0-38.039-9.355-49.72-23.936h-19.18a4.414 4.414 0 010-8.827h13.241a63.29 63.29 0 01-8.03-30.927 63.3 63.3 0 018.03-30.926H20.025c-6.174 0-11.198 5.024-11.198 11.198v39.457c0 6.174 5.024 11.198 11.198 11.198h19.64a4.413 4.413 0 110 8.827H21.076l-1.721 5.042a2.036 2.036 0 00.099 1.562c.14.284.478.796 1.175 1.035l157.867 53.911a4.414 4.414 0 01-2.852 8.353l-157.868-53.91a10.802 10.802 0 01-6.246-5.499 10.802 10.802 0 01-.53-8.304l1.28-3.749C5.075 154.8 0 147.665 0 139.367V99.911c0-11.042 8.983-20.026 20.025-20.026h57.628c11.681-14.58 29.627-23.936 49.72-23.936 20.094 0 38.04 9.356 49.722 23.936h23.347c1.44-3.672 5.01-6.282 9.185-6.282h12.092c4.176 0 7.746 2.611 9.186 6.282h29.341c21.92 0 39.754 17.834 39.754 39.754 0 21.92-17.833 39.754-39.754 39.754zM127.373 64.776c-28.765 0-52.429 22.254-54.684 50.45h8.865c2.229-23.321 21.924-41.623 45.819-41.623 25.385 0 46.036 20.652 46.036 46.036 0 12.714-5.36 24.994-14.704 33.69a4.414 4.414 0 01-6.013-6.462c7.556-7.032 11.89-16.956 11.89-27.229 0-20.517-16.692-37.209-37.209-37.209-19.023 0-34.748 14.353-36.938 32.796h15.813a4.414 4.414 0 110 8.827H90.435c2.19 18.443 17.915 32.795 36.938 32.795 3.645 0 7.26-.535 10.748-1.589a4.413 4.413 0 112.556 8.448 45.914 45.914 0 01-13.304 1.968c-23.895 0-43.59-18.302-45.819-41.623H72.69c2.255 28.196 25.92 50.45 54.685 50.45 30.252 0 54.863-24.611 54.863-54.863s-24.612-54.862-54.864-54.862zm72.384 23.937h-16.724a63.295 63.295 0 018.03 30.927 63.297 63.297 0 01-8.03 30.926h16.724V88.713zm23.006-5.24c0-.575-.468-1.043-1.044-1.043h-12.092c-.575 0-1.043.468-1.043 1.044v72.33c0 .576.468 1.044 1.043 1.044h12.092c.576 0 1.044-.468 1.044-1.043V83.474zm37.483 5.24H231.59v61.852h28.656c17.053 0 30.927-13.873 30.927-30.926 0-17.053-13.874-30.926-30.927-30.926zM43.57 119.639a4.413 4.413 0 014.414-4.413h2.17a4.413 4.413 0 110 8.827h-2.17a4.413 4.413 0 01-4.414-4.414zm101.918 4.414h-2.17a4.414 4.414 0 110-8.827h2.17a4.413 4.413 0 010 8.827zm-120.205 0a4.413 4.413 0 110-8.827h2.17a4.413 4.413 0 110 8.827h-2.17z"/><glyph glyph-name="thin-belt-9" unicode="" horiz-adv-x="300" d="M300 112.168c0 19.892-14.902 36.715-34.36 39.369a6.167 6.167 0 01-4.59 2.053h-19.46a6.159 6.159 0 01-4.212-1.668h-20.411l25.141 8.586a15.383 15.383 0 018.897 7.832 15.383 15.383 0 01.754 11.828l-15.685 45.93a15.383 15.383 0 01-7.832 8.896 15.386 15.386 0 01-11.829.754l-8.432-2.88a4.414 4.414 0 012.852-8.353l8.432 2.88a6.62 6.62 0 005.087-.324 6.613 6.613 0 003.368-3.826l15.685-45.93a6.614 6.614 0 00-.324-5.086 6.617 6.617 0 00-3.826-3.368l-34.744-11.865c-1.905 2.39-4.835 3.927-8.122 3.927h-86.5c-5.258 0-9.606-3.927-10.289-9.001H54.162a4.414 4.414 0 010-8.827h45.335V81.242H20.025c-6.174 0-11.198 5.024-11.198 11.199v39.456c0 6.175 5.024 11.198 11.198 11.198h15.328a4.414 4.414 0 010 8.827H21.076l-1.721 5.042a2.047 2.047 0 001.274 2.597l172.405 58.877a4.413 4.413 0 11-2.852 8.353L17.776 167.914c-5.673-1.937-8.713-8.13-6.775-13.803l1.28-3.749C5.074 147.33 0 140.194 0 131.897V92.44C0 81.4 8.983 72.415 20.025 72.415H99.6c.684-5.074 5.03-9.002 10.289-9.002h86.5c5.257 0 9.605 3.928 10.288 9.002h30.7a6.157 6.157 0 014.213-1.668h19.46c1.821 0 3.456.796 4.59 2.053C285.097 75.454 300 92.277 300 112.168zM197.955 73.805c0-.862-.703-1.565-1.566-1.565h-86.5c-.863 0-1.566.702-1.566 1.565v33.95h8.827V85.48a4.413 4.413 0 014.414-4.413h63.15a4.413 4.413 0 014.413 4.413v53.377a4.413 4.413 0 01-4.414 4.413h-63.15a4.413 4.413 0 01-4.413-4.413v-22.275h-8.827v33.95c0 .862.703 1.565 1.566 1.565h86.5c.863 0 1.565-.702 1.565-1.566V73.805zm-52.468 42.777h-19.51v17.86H180.3V89.895h-54.323v17.861h19.51a4.414 4.414 0 010 8.827zm112.922-37.008h-14.18v7.351a4.413 4.413 0 11-8.826 0v-5.683h-28.622v61.853h28.622v-37.36a4.413 4.413 0 118.827 0v39.028h14.18v-65.19zm8.827 2.482v60.217c13.746-3.194 23.937-15.596 23.937-30.105 0-14.51-10.19-26.92-23.937-30.112zM25.283 116.58a4.413 4.413 0 110-8.827h2.17a4.414 4.414 0 010 8.827h-2.17zm17.202-4.409a4.414 4.414 0 014.413-4.414h2.171a4.414 4.414 0 010 8.827H46.9a4.414 4.414 0 01-4.414-4.413zm28.195-4.414a4.414 4.414 0 010 8.827h-2.17a4.414 4.414 0 010-8.827h2.17z"/><glyph glyph-name="thin-belt" unicode="" horiz-adv-x="300" d="M295.541 182.694h-97.59v.298c0 5.408-4.4 9.808-9.808 9.808h-80.25c-5.408 0-9.808-4.4-9.808-9.808v-.298H4.458A4.458 4.458 0 010 178.236v-58.652a4.458 4.458 0 014.458-4.458h93.813c.88-4.51 4.859-7.926 9.623-7.926h80.25c4.763 0 8.741 3.415 9.623 7.926h97.775a4.458 4.458 0 014.458 4.458v58.652a4.46 4.46 0 01-4.459 4.458zm-199.04-58.651H8.916v49.734H96.5v-49.734zm92.534-7.035a.903.903 0 00-.892-.891h-80.25a.903.903 0 00-.891.891v65.984c0 .483.408.891.891.891h80.25a.903.903 0 00.892-.891v-19.266h-10.12v3.216c0 5.408-4.399 9.808-9.808 9.808H126.93c-5.408 0-9.81-4.4-9.81-9.808v-33.884c0-5.408 4.401-9.809 9.81-9.809h42.177c5.408 0 9.809 4.4 9.809 9.809v4.722h10.119v-20.772zm-27.58 20.773h8.544v-4.722a.903.903 0 00-.892-.892H126.93a.903.903 0 00-.892.892v33.883c0 .484.408.893.892.893h42.177a.904.904 0 00.892-.893v-3.216h-8.545c-7.153 0-12.972-5.82-12.972-12.972 0-7.153 5.82-12.973 12.972-12.973zm0 8.917a4.06 4.06 0 00-4.057 4.056 4.06 4.06 0 004.056 4.055h12.957l.045-.002.046.002h27.625a4.06 4.06 0 004.056-4.055 4.06 4.06 0 00-4.056-4.056h-40.673zm36.497-22.656v13.739h4.176c7.153 0 12.973 5.82 12.973 12.972 0 7.153-5.82 12.973-12.973 12.973h-4.176v10.051h93.131v-49.734h-93.131zm-128.1 37.548c-6.392 0-11.592-5.2-11.592-11.592 0-6.391 5.2-11.592 11.591-11.592 6.392 0 11.592 5.2 11.592 11.592s-5.2 11.592-11.592 11.592zm0-14.268a2.678 2.678 0 00-2.675 2.676c0 1.474 1.2 2.674 2.674 2.674 1.475 0 2.675-1.2 2.675-2.674 0-1.475-1.2-2.675-2.675-2.675zm-35.67 14.268c-6.391 0-11.591-5.2-11.591-11.592 0-6.391 5.2-11.592 11.591-11.592 6.392 0 11.592 5.2 11.592 11.592s-5.2 11.592-11.592 11.592zm0-14.268a2.678 2.678 0 00-2.675 2.676c0 1.474 1.2 2.674 2.675 2.674 1.475 0 2.675-1.2 2.675-2.674 0-1.475-1.2-2.675-2.675-2.675zM274.93 161.59c-6.391 0-11.591-5.2-11.591-11.592 0-6.391 5.2-11.592 11.591-11.592 6.392 0 11.592 5.2 11.592 11.592s-5.2 11.592-11.592 11.592zm0-14.268a2.678 2.678 0 00-2.674 2.676c0 1.474 1.2 2.674 2.674 2.674 1.475 0 2.675-1.2 2.675-2.674 0-1.475-1.2-2.675-2.675-2.675zm-35.664 14.268c-6.391 0-11.592-5.2-11.592-11.592 0-6.391 5.2-11.592 11.592-11.592 6.391 0 11.592 5.2 11.592 11.592s-5.2 11.592-11.592 11.592zm0-14.268a2.678 2.678 0 00-2.675 2.676c0 1.474 1.2 2.674 2.675 2.674 1.475 0 2.675-1.2 2.675-2.674 0-1.475-1.2-2.675-2.675-2.675z"/><glyph glyph-name="thin-bikini-2" unicode="" horiz-adv-x="300" d="M272.79 204.61c-5.625 29.062-23.906 59.062-55.312 92.343-1.875 2.344-4.688 3.281-7.97 3.281-3.28 0-6.093-.937-7.968-3.28-22.031-22.032-39.375-49.688-51.562-82.97-12.188 33.282-29.532 60.938-51.563 82.97-2.344 2.343-5.156 3.28-7.969 3.28-2.812 0-5.625-1.406-7.968-3.28-31.875-32.813-49.688-63.282-55.313-91.876-4.219-.937-7.031-4.219-7.031-8.437v-12.657a8.402 8.402 0 018.437-8.437h206.25a4.201 4.201 0 014.22 4.219 4.201 4.201 0 01-4.22 4.218H28.571v12.657h32.344a4.201 4.201 0 014.219 4.218 4.201 4.201 0 01-4.219 4.22H36.071c5.625 26.25 23.438 55.312 52.97 85.78.468.47 1.405.47 1.405.47.47 0 .938 0 1.875-.47 22.5-22.5 39.844-51.093 51.563-85.78H79.665a4.201 4.201 0 01-4.219-4.22 4.201 4.201 0 014.22-4.218h191.718v-12.657H253.57a4.201 4.201 0 01-4.218-4.218 4.201 4.201 0 014.218-4.22h17.813a8.402 8.402 0 018.437 8.438v12.657c.47 3.75-2.812 7.5-7.03 7.968zm-116.719.468c11.72 34.219 29.063 63.281 51.563 85.781.469.47 1.406.47 1.875.47.469 0 .937 0 1.406-.47 29.531-30.468 46.875-59.53 52.969-85.78H156.07zm115.313-59.531c-1.406 2.344-3.75 4.219-6.563 4.219H34.665c-2.812 0-5.156-1.407-6.562-4.22l-6.563-13.124c-2.344-5.156-.937-11.719 3.75-15 10.313-7.5 30.469-22.5 51.094-42.656 25.781-24.844 42.656-48.75 50.625-70.313.937-2.812 3.75-4.687 6.562-4.687h31.875c2.813 0 5.625 1.875 6.563 4.687 5.156 14.063 14.062 28.594 26.719 44.063 1.406 1.875 1.406 4.687-.47 6.093-1.874 1.407-4.687 1.407-6.093-.468-7.969-9.844-14.531-19.22-19.687-28.125 2.812 30 14.062 52.968 33.28 69.375 18.282 15.468 39.845 21.093 55.313 23.437-13.593-10.312-36.093-28.125-56.718-50.156-1.875-1.875-1.407-4.688 0-6.094 1.875-1.875 4.687-1.406 6.093 0 24.375 26.25 52.032 46.875 62.813 54.375 4.687 3.281 6.562 9.844 3.75 15l-5.625 13.594zM29.978 128.672l5.625 12.187h228.28l6.095-12.187v-.469H29.508s0 .469.47.469zm8.437-9.375c15.469-2.344 37.5-7.969 55.313-23.438 19.218-16.406 30.468-39.375 33.28-69.375-22.5 40.313-66.562 76.407-88.593 92.813zm161.719-16.875c-24.844-21.094-37.5-52.5-37.031-93.281h-26.25c.468 41.25-12.188 72.656-37.032 93.28-8.906 7.5-18.75 13.126-28.125 16.876H228.26c-9.844-3.75-19.219-9.375-28.125-16.875z"/><glyph glyph-name="thin-bikini-3" unicode="" horiz-adv-x="300" d="M232.969 117.188H66.094c-11.719 0-20.625-6.563-23.438-16.407-2.343-9.375 2.344-18.75 11.25-23.437 29.532-15 52.5-35.625 72.656-64.688C132.189 4.22 140.156 0 149.532 0s17.343 4.219 22.968 12.656c19.688 29.063 42.656 49.219 72.656 64.688 8.906 4.687 13.125 14.062 11.25 23.437-2.812 9.844-11.719 16.406-23.437 16.406zM54.375 97.5c.938 4.688 5.625 7.5 11.719 7.5h60.937c0-23.438-7.5-39.375-23.437-48.281C90.469 68.906 75.938 78.75 59.063 87.187c-4.688 2.813-5.626 7.5-4.688 10.313zm108.281-78.281c-3.281-4.688-7.969-7.5-13.125-7.5-5.625 0-9.844 2.344-13.125 7.5C128.906 30 120.937 39.844 112.5 48.75c17.813 11.719 26.719 30.938 26.25 56.719h21.563c0-26.25 8.906-45.469 26.25-56.719-8.438-8.906-16.407-18.75-23.907-29.531zm76.875 68.437C223.125 79.22 208.125 68.906 195 57.187c-15.938 9.376-23.438 25.313-23.438 48.282H232.5c6.094 0 10.781-2.813 11.719-7.5.937-3.281.469-7.969-4.688-10.313zM258.281 300c-3.281 0-5.625-2.813-5.625-5.625v-42.188c-46.406-11.718-78.281-40.312-95.156-84.375h-15c-16.875 44.063-48.75 72.657-95.156 84.375v42.188c-.469 2.813-3.282 5.625-6.563 5.625-3.281 0-5.625-2.813-5.625-5.625v-80.156c0-29.531 15-45.469 27.657-53.438 11.718-7.5 26.718-11.719 42.187-11.719 11.719 0 23.906 2.344 34.688 7.032h20.625c10.78-4.688 22.968-7.031 34.687-7.031 15 0 30 3.75 42.188 11.718 12.656 7.969 27.656 23.906 27.656 53.438v80.156c-.938 2.813-3.281 5.625-6.563 5.625zM46.875 209.531c23.438-5.625 42.656-22.5 56.719-49.219-12.656 0-24.844 3.282-34.688 9.375-13.594 8.907-21.094 22.5-22.031 39.844zm69.375-48.281c-15.938 33.75-39.844 54.375-69.375 60v18.281c40.781-11.25 68.438-35.625 83.438-75-4.688-1.406-9.375-2.344-14.063-3.281zM252.188 240v-18.281c-29.532-6.094-53.438-26.719-69.375-60-4.688.937-9.844 1.875-14.063 3.75 15 38.906 42.656 63.281 83.438 74.531zm-22.032-69.844c-9.375-6.094-22.031-9.375-34.687-9.375C209.53 187.5 228.75 204.375 252.188 210c-.938-17.813-8.438-31.406-22.032-39.844z"/><glyph glyph-name="thin-bikini" unicode="" horiz-adv-x="300" d="M107.662 295.723c-1.055-2.286-8.028-18.047-15.528-34.98L78.541 229.98l-3.75-3.046c-12.54-10.254-19.454-28.125-17.286-44.707 1.641-12.54 6.739-22.735 15.469-30.88 17.578-16.523 44.121-18.514 63.867-4.863 4.16 2.871 9.258 7.735 11.895 11.426l1.289 1.758.995-1.465c2.403-3.574 10.782-11.074 15.177-13.711 9.315-5.45 21.21-7.968 31.523-6.738 21.62 2.637 38.203 17.11 43.828 38.32 1.758 6.68 1.817 18.633 0 25.137-2.52 9.492-9.082 19.863-16.23 25.723l-3.75 3.046-15.294 34.57c-8.437 19.044-15.468 34.747-15.702 34.981-.352.352-14.766-5.8-15.586-6.68-.234-.175 5.976-14.765 13.77-32.343 7.792-17.578 14.062-32.227 13.944-32.578-.234-.703-50.39-29.825-52.148-30.293-.586-.176-11.719 5.86-27.246 14.824-14.414 8.262-26.309 15.117-26.367 15.176-.059 0 6.328 14.648 14.238 32.52 7.852 17.812 14.121 32.636 13.887 32.87-.41.352-3.574 1.817-12.95 5.86L109.596 300l-1.933-4.277zm6.093-98.086c14.356-8.203 26.25-15.117 26.543-15.352.762-.762-1.816-7.91-4.277-11.719-4.629-7.09-11.719-12.304-19.688-14.414-4.394-1.113-12.48-1.113-16.875 0-20.097 5.274-30.527 27.774-21.504 46.407 2.579 5.332 7.325 10.957 8.79 10.43.527-.177 12.656-7.09 27.011-15.352zm103.36 12.656c4.804-5.332 8.554-14.941 8.554-21.914 0-4.16-1.7-10.43-4.1-15.293-1.759-3.633-3.283-5.625-6.27-8.496-7.033-6.621-13.83-9.317-23.438-9.317-9.55 0-17.226 3.34-24.083 10.489-3.397 3.515-7.558 11.308-7.85 14.59l-.176 1.933 24.316 14.004c13.36 7.676 25.371 14.649 26.66 15.469 1.288.762 2.637 1.465 3.046 1.465.353.058 1.875-1.29 3.34-2.93zM61.606 63.34V37.03l14.239-.233c15.585-.293 17.87-.704 25.312-4.218 11.25-5.333 19.102-14.65 23.438-27.774L126.177 0 150.2.117l24.082.175 1.641 4.805c4.51 13.536 13.535 23.496 25.722 28.536 6.563 2.695 10.84 3.28 24.492 3.28h12.422V89.65H61.606V63.34zm159.376 0v-8.673l-6.27-.35c-21.563-1.172-41.484-14.005-50.918-32.696l-1.992-4.043H138.54l-1.113 2.519c-3.457 7.677-12.715 18.457-20.45 23.673-10.253 6.913-22.382 10.722-34.043 10.722h-3.75v17.579h141.798v-8.73z"/><glyph glyph-name="thin-body" unicode="" horiz-adv-x="300" d="M242.344 78.516c0 .468-18.75 32.812-18.75 60.468 0 23.907 8.906 51.563 13.125 64.688.937 3.281 1.875 5.625 2.344 7.5l1.406 4.687-4.219 2.344c-15.938 7.969-10.781 54.844-6.094 67.969l2.344 7.031-7.5 1.406a638.769 638.769 0 01-15.469 2.813c-2.812.469-5.156.937-6.562.937l-5.625.938-3.281-10.781c-14.532-46.875-19.22-59.532-44.063-59.532s-29.531 12.188-44.063 59.532l-3.28 10.78-5.626-.937c-1.406-.468-3.75-.468-6.562-.937-5.625-1.406-13.125-2.813-15.469-2.813l-7.5-.937 2.344-7.031c4.687-13.125 9.844-60-5.625-67.97L60 216.329l1.406-4.687c.469-1.875 1.407-4.22 2.344-7.5 4.219-13.125 13.125-40.782 13.125-64.688 0-28.125-18.75-60.469-18.75-60.469l-4.219-7.03 7.5-2.345c9.375-2.812 57.188-18.28 71.719-59.53C135.469 3.983 141.563.702 150 .702c8.438 0 15 3.75 16.875 9.375 14.531 41.25 62.344 56.719 71.719 59.531l7.5 2.344-3.75 6.563zm-87.188-64.22c0-.468-1.406-1.405-5.156-1.405s-5.156.937-5.156 1.406C130.78 54.14 90 72.89 72.188 78.984c6.093 11.72 16.874 36.563 16.874 60 0 25.782-9.374 54.375-13.593 68.438-.469.937-.469 1.875-.938 2.344 8.438 7.03 12.656 20.625 12.656 39.843 0 12.188-1.874 24.844-3.28 33.282 2.812.468 6.093.937 9.374 1.406 0 .937.469.937.469.937 7.031-22.968 12.188-39.375 19.688-50.625 8.437-12.187 19.687-17.812 36.562-17.812s28.125 5.625 36.563 17.812c7.5 11.25 12.656 27.657 19.687 50.625h.938c3.28-.468 6.562-.937 9.375-1.406-1.875-8.437-3.75-21.094-3.282-33.281 0-19.219 4.219-32.813 12.656-39.844-.468-.937-.468-1.875-.937-2.344-4.219-14.062-13.594-42.656-13.594-68.437 0-23.438 11.25-48.281 16.875-60-18.281-7.5-58.594-25.781-73.125-65.625z"/><glyph glyph-name="thin-boot-2" unicode="" horiz-adv-x="300" d="M225.952 98.906l-33.75 11.25c-17.812 5.625-30.469 24.844-28.594 43.594L177.671 300H35.64c-.47-27.656 3.28-55.313 12.187-82.5 7.5-22.5 6.563-45.938-3.281-64.688-6.094-12.187-9.844-27.187-9.375-40.78 11.25-17.344 17.812-38.438 17.812-59.063V0h52.97v51.094c0 5.625 5.624 11.25 12.187 10.312L163.608 0h101.25v44.063c.47 24.843-15.468 46.874-38.906 54.843zM88.608 282.187v-87.656c0-14.531-8.906-27.187-21.562-32.812 5.156 19.219 4.687 40.781-2.344 61.406-6.562 19.688-10.312 39.375-11.25 59.531h35.156zM71.265 17.813v17.813h17.812V17.812H71.265zM88.608 52.97H70.796c0 17.812-3.75 35.156-11.25 51.562 18.281-3.281 35.156-13.125 46.875-27.187-9.844-4.219-16.875-13.594-17.813-24.375zm-34.687 70.31c.937 6.094 2.812 12.656 5.156 18.75 26.719 3.281 47.344 25.781 47.344 52.969v87.188h52.031l-12.656-126.563c-2.813-26.719 14.531-53.906 40.312-62.344l33.75-11.25c13.594-4.687 23.438-15.937 26.72-29.531H146.264s-11.72 15.469-15.47 20.625c-18.75 28.594-45 46.875-76.874 50.156zM172.515 17.812L159.39 35.626h88.125V17.812h-75z"/><glyph glyph-name="thin-boot" unicode="" horiz-adv-x="300" d="M279.61 103.36c-11.72 11.718-27.188 17.812-43.126 17.812-7.968 0-15.468 1.406-22.968 3.75 1.875 2.812 2.343 6.562 1.406 9.844l-2.344 6.562c-.937 2.813-3.281 5.156-5.625 6.563-2.812 1.406-5.625 1.406-8.437.468l-15.938-5.625c-1.406.938-2.344 1.875-3.281 2.813l.937.469c2.813.937 5.157 3.28 6.563 5.625 1.406 2.812 1.406 5.625.469 8.437l-2.344 6.563c-1.875 6.093-8.438 8.906-14.531 7.03l-15.47-5.624c-1.874 2.344-3.28 4.219-4.687 6.562l9.844 3.282c6.094 1.875 8.906 8.437 7.031 14.53l-2.343 6.563c-.938 2.813-3.282 5.157-5.625 6.563-2.813 1.406-5.625 1.406-8.438.469l-7.969-2.813v6.563l7.032 28.593c7.03.47 12.656 6.563 12.656 13.594v34.688c0 7.5-6.094 13.593-13.594 13.593H17.11c-7.5 0-13.593-6.093-13.593-13.593v-33.75c0-7.5 6.093-13.594 13.593-13.594l7.5-89.063c0-5.156-1.406-10.312-4.218-15l-6.094-10.78C6.328 110.858 2.109 95.39 2.109 79.921V18.046c0-9.844 7.97-18.281 18.282-18.281h207.656c14.531 0 38.437 2.343 67.031 14.53 1.875.47 2.813 2.345 2.813 4.22v40.312c0 16.875-6.094 32.813-18.282 44.531zm-78.75 37.03h1.874c.47 0 .938-.468 1.407-1.406l2.343-6.562c.47-1.406 0-2.344-1.406-2.813l-34.219-12.187c-.937-.469-1.406 0-1.875 0-.468 0-.937.469-1.406 1.406l-2.344 6.563c-.468 1.406 0 2.343 1.407 2.812l1.875.469c.468 0 1.406.469 1.875.469l30.468 11.25zm-28.594 25.313h.937c.938 0 1.875-.469 2.344-1.406l2.344-6.563c.468-.937 0-1.406 0-1.875 0-.468-.47-.937-1.407-1.406l-7.968-2.812c-.47 0-.47 0-.938-.47l-25.312-8.905c-.938-.47-1.407 0-1.875 0-.47 0-.938.468-1.407 1.406l-2.343 6.562c-.47.938 0 1.407 0 1.875 0 .47.468.938 1.406 1.407l34.219 12.187zm-20.157 32.813h1.875c.47 0 .938-.47 1.407-1.407l2.343-6.562c.47-1.406 0-2.344-1.406-2.813l-14.531-5.156-19.688-7.031c-.937-.469-1.406 0-1.875 0-.468 0-.937.469-1.406 1.406l-2.344 6.563c-.468 1.406 0 2.343 1.407 2.812l20.156 7.031c.469 0 1.406.47 1.875.47l12.187 4.687zM12.891 286.64c0 2.343 1.875 4.687 4.687 4.687h129.375c2.344 0 4.688-1.875 4.688-4.687v-11.72H12.89v11.72zm4.218-38.438c-2.343 0-4.687 1.875-4.687 4.688v13.125h138.75V252.89c0-2.344-1.875-4.688-4.688-4.688H17.11zm-5.625-168.28c0 14.062 3.75 28.125 10.782 40.312l6.093 10.782c.47.937 1.407 2.343 1.875 3.75 5.157-2.344 14.532-8.438 23.907-18.75 17.343-19.688 27.187-47.813 28.125-81.563H20.39c-5.157 0-9.375 4.219-9.375 9.375v36.094zm277.5-58.125C261.797 11.016 239.297 9.14 228.516 9.14H20.39c-5.157 0-9.375 4.218-9.375 9.375v8.906c2.812-1.406 5.625-2.344 9.375-2.344h207.656c13.594 0 34.687 2.344 60.469 12.188l.468-15.47zm0 24.844c-27.187-10.782-49.687-12.657-60.468-12.657H91.172c-.938 45.938-16.875 73.125-30.469 88.125-10.781 12.188-22.031 18.282-27.656 21.094.469 2.344.469 4.688.469 7.5v.469l-7.032 88.125h112.032l-6.563-27.188v-.937c0-3.75 0-7.031.469-10.313l-13.125-4.687h-1.406c-8.907 0-15.938-7.031-15.938-15.938 0-8.906 7.031-15.937 15.938-15.937 3.28 0 6.093.937 8.906 2.812l.469.47 13.593 4.687 4.22-7.032-4.688-1.875h-.47c-8.905 0-15.937-7.03-15.937-15.937 0-8.906 7.032-15.938 15.938-15.938 4.687 0 8.437 1.407 11.25 4.22l17.344 6.093c.937-.938 2.343-1.875 3.28-2.813l-6.093-2.343c-3.75-.938-7.031-2.813-9.375-6.094-2.344-3.281-3.75-7.5-3.281-11.719.469-4.219 2.812-7.969 6.094-10.781 2.812-1.875 6.093-3.281 9.375-3.281h2.343c3.75.468 7.5 2.343 9.844 5.625l22.031 7.968c10.782-4.687 22.032-7.03 32.813-7.03 14.062 0 27.187-5.157 37.031-15 10.313-10.313 15.938-23.438 15.938-37.97V46.641z"/><glyph glyph-name="thin-bow-tie" unicode="" horiz-adv-x="300" d="M300 191.104c0 16.518-5.341 32.085-15.038 43.85l-.05.063-.024.03c-.026.03-.055.058-.081.088-.067.076-.133.152-.205.222-.042.042-.086.08-.13.12-.062.058-.124.117-.191.17-.057.048-.118.092-.178.136-.055.04-.108.081-.165.12a4.25 4.25 0 01-.22.135c-.048.029-.095.058-.144.085-.08.043-.162.082-.244.12-.047.022-.094.045-.143.066-.081.035-.165.064-.249.094-.052.018-.104.038-.158.054-.077.025-.157.045-.235.065-.062.015-.124.032-.186.045a4.644 4.644 0 01-.214.037c-.072.011-.143.024-.216.031-.064.007-.129.01-.193.014-.08.005-.16.01-.241.011-.06 0-.12-.002-.18-.004a4.444 4.444 0 01-.25-.012c-.062-.005-.124-.015-.186-.023a3.43 3.43 0 01-.238-.035c-.07-.013-.14-.03-.21-.047-.07-.016-.138-.031-.207-.051a4.508 4.508 0 01-.244-.08c-.056-.02-.112-.038-.168-.06a4.717 4.717 0 01-.264-.118c-.04-.02-.08-.034-.12-.054L187.1 189.06c-.054-.027-.103-.06-.156-.09a18.506 18.506 0 01-11.946 4.361H125.01a18.504 18.504 0 01-11.95-4.364c-.053.03-.104.064-.16.093l-92.263 47.08a.01.01 0 01-.003.002l-.064.033c-.037.018-.076.033-.114.05a4.65 4.65 0 01-.27.122c-.054.021-.107.038-.162.057-.083.029-.166.058-.25.083-.068.019-.135.034-.202.05-.072.017-.143.035-.216.048-.077.014-.155.024-.233.035-.063.007-.126.017-.19.023-.082.007-.165.01-.247.012-.06.002-.121.005-.182.004-.08 0-.16-.006-.242-.01-.063-.005-.127-.008-.19-.015a3.437 3.437 0 01-.22-.031c-.07-.011-.14-.021-.21-.036a4.911 4.911 0 01-.193-.047 4.708 4.708 0 01-.228-.062c-.057-.017-.112-.038-.168-.058a4.01 4.01 0 01-.238-.09c-.053-.021-.104-.047-.156-.07-.078-.037-.155-.073-.231-.115-.053-.029-.105-.06-.158-.091-.07-.042-.14-.083-.208-.128-.06-.04-.117-.085-.175-.128-.057-.042-.114-.082-.168-.127-.069-.056-.134-.117-.2-.178-.04-.038-.082-.074-.122-.114a4.772 4.772 0 01-.207-.225c-.027-.03-.054-.056-.08-.087l-.024-.03-.05-.062C5.341 223.189 0 207.622 0 191.104c0-15.265 4.57-29.71 12.915-41.102C4.57 138.612 0 124.165 0 108.9c0-16.561 5.367-32.167 15.112-43.943.034-.04.071-.076.107-.115a3.911 3.911 0 01.428-.42c.05-.043.097-.087.148-.127.296-.233.617-.424.953-.572.046-.02.094-.037.141-.056a4.565 4.565 0 01.562-.183c.12-.03.243-.054.364-.075.063-.01.126-.023.19-.03.156-.02.31-.03.468-.033.025 0 .05-.005.075-.005a4.593 4.593 0 011.402.233c.034.011.069.019.102.031.175.063.348.137.518.224l92.33 47.116c.056.029.107.063.161.092a18.506 18.506 0 0111.95-4.363h49.987a18.51 18.51 0 0111.946 4.36c.052-.03.101-.062.156-.089l92.33-47.116c.17-.087.343-.16.518-.224l.102-.031c.188-.062.378-.111.57-.148.053-.01.105-.02.16-.028a4.39 4.39 0 01.672-.057c.025 0 .05.004.075.005.157.002.312.012.468.032.064.008.126.02.19.031.122.02.243.045.363.075.061.015.123.033.184.05.127.039.252.083.376.132.047.02.096.036.144.057.336.148.656.338.952.57.051.041.099.086.15.129a4.508 4.508 0 01.426.42c.035.039.073.074.106.114C294.633 76.732 300 92.338 300 108.9c0 15.266-4.57 29.712-12.915 41.102C295.43 161.393 300 175.838 300 191.104zM51.19 145.546h55.23v-20.283c0-2.45.48-4.79 1.346-6.935L19.825 73.45c-15.262 21.234-14.553 53.524 2.152 73.71l.014.018c.07.085.132.173.195.261.024.034.05.066.073.1.055.084.104.17.154.256.025.043.052.085.075.13.036.068.067.138.098.208.03.064.062.128.09.194.017.044.03.09.047.135.034.092.069.183.096.277l.014.058c.033.12.064.24.087.36l.005.035c.024.128.043.257.055.386.004.041.003.082.006.122.007.1.014.2.014.3 0 .1-.007.201-.014.302l-.006.12a4.655 4.655 0 01-.056.391l-.004.03a4.511 4.511 0 01-.089.369c-.005.016-.007.033-.012.049a4.449 4.449 0 01-.1.287c-.014.042-.027.084-.043.125-.028.07-.062.136-.093.204-.031.066-.06.133-.094.198-.025.047-.054.093-.081.14-.047.082-.094.165-.147.245-.025.037-.053.073-.08.108-.06.086-.12.171-.187.253-.006.006-.01.013-.014.019-16.708 20.187-17.418 52.477-2.155 73.71l87.942-44.876a18.488 18.488 0 01-1.347-6.935v-20.283H51.19a4.455 4.455 0 110-8.911zm123.808-29.963H125.01c-5.337 0-9.68 4.343-9.68 9.68v49.476c0 5.338 4.343 9.68 9.68 9.68h12.035l39.645-68.679a9.77 9.77 0 00-1.692-.157zm9.68 34.58c-.002-.055-.009-.107-.009-.162 0-.055.006-.106.009-.16v-24.578a9.61 9.61 0 00-.881-4.01l-36.464 63.166h27.665c5.337 0 9.68-4.341 9.68-9.679v-24.578zm95.497-76.712l-87.935 44.874a18.493 18.493 0 011.349 6.939v20.283h55.221a4.455 4.455 0 110 8.911h-55.22v20.283a18.48 18.48 0 01-1.349 6.938l87.936 44.874c15.261-21.233 14.552-53.523-2.153-73.71l-.014-.018a4.331 4.331 0 01-.195-.26c-.024-.035-.05-.067-.073-.101-.055-.083-.103-.169-.153-.254-.025-.044-.053-.087-.077-.131-.036-.068-.065-.138-.098-.208-.03-.065-.062-.128-.089-.195-.018-.045-.032-.092-.049-.138-.033-.091-.068-.181-.094-.274-.007-.022-.011-.045-.017-.067a4.398 4.398 0 01-.085-.35c-.002-.014-.003-.028-.006-.04a4.198 4.198 0 01-.054-.382c-.004-.042-.004-.083-.006-.125-.006-.099-.013-.199-.013-.297 0-.1.007-.2.013-.298.003-.042.002-.084.006-.125a4.37 4.37 0 01.054-.381c.003-.013.004-.028.006-.04a4.61 4.61 0 01.085-.351c.006-.023.01-.045.017-.068.026-.092.06-.182.094-.273.017-.046.03-.093.05-.138.026-.067.058-.13.088-.195.033-.07.062-.14.098-.208.024-.044.052-.087.077-.13a3.51 3.51 0 01.153-.255c.022-.034.05-.067.073-.1.062-.089.125-.176.195-.26l.014-.02c16.705-20.186 17.414-52.476 2.152-73.71z"/><glyph glyph-name="thin-bowler-hat" unicode="" horiz-adv-x="300" d="M283.354 95.985h-30.692v60.605c0 44.507-36.21 80.718-80.717 80.718h-36.832c-44.507 0-80.717-36.21-80.717-80.718V95.985h-37.75C7.468 95.985 0 88.517 0 79.338c0-9.178 7.468-16.646 16.646-16.646h266.707c9.179 0 16.647 7.468 16.647 16.646 0 9.18-7.467 16.647-16.646 16.647zM63.364 156.59c0 39.562 32.187 71.75 71.75 71.75h36.83c39.563 0 71.75-32.187 71.75-71.75v-3.642H63.364v3.642zm0-12.61h180.33v-25.225H63.364v25.224zm0-34.193h180.33V95.985H63.364v13.802zm219.99-38.126H16.646c-4.234 0-7.677 3.445-7.677 7.678 0 4.234 3.444 7.678 7.677 7.678h266.707c4.234 0 7.678-3.444 7.678-7.678s-3.444-7.678-7.677-7.678z"/><glyph glyph-name="thin-box" unicode="" horiz-adv-x="300" d="M290.625 241.875s-1.875 1.875-1.875 3.75c0 0-31.875 13.125-69.375 28.125-60 22.5-67.5 26.25-69.375 26.25s-13.125-3.75-69.375-28.125c-37.5-15-67.5-28.125-69.375-28.125 0 0-1.875-1.875-1.875-3.75C7.5 240 7.5 240 7.5 150s0-90 1.875-91.875c0-1.875 1.875-1.875 1.875-3.75 0 0 31.875-13.125 69.375-28.125C136.875 3.75 148.125 0 150 0s13.125 3.75 69.375 28.125c37.5 15 67.5 28.125 69.375 28.125 0 0 1.875 1.875 1.875 3.75 1.875 1.875 1.875 1.875 1.875 91.875 0 88.125 0 88.125-1.875 90zm-195 16.875C125.625 270 150 279.375 150 279.375s7.5-3.75 15-5.625c7.5-3.75 15-5.625 15-7.5l-15-7.5c-7.5-1.875-31.875-13.125-52.5-20.625L76.875 221.25 60 228.75c-9.375 3.75-16.875 7.5-16.875 7.5s24.375 9.375 52.5 22.5zm45-234.375C136.875 26.25 112.5 35.625 82.5 48.75l-54.375 22.5v150l3.75-1.875c1.875 0 9.375-3.75 16.875-7.5 5.625-1.875 13.125-5.625 15-5.625l3.75-1.875v-52.5c3.75-7.5 15-7.5 16.875 0v45l26.25-11.25L135 176.25V24.375zM127.5 200.625c-13.125 5.625-24.375 9.375-24.375 11.25l103.125 45s11.25-3.75 24.375-9.375 24.375-9.375 26.25-9.375c0 0-16.875-7.5-52.5-22.5L150 191.25l-22.5 9.375zm146.25-54.375v-75l-33.75-15c-18.75-7.5-43.125-18.75-56.25-22.5l-22.5-9.375v150l112.5 46.875v-75z"/><glyph glyph-name="thin-boxers" unicode="" horiz-adv-x="300" d="M299.993 64.787l-9.127 170.788c-.066 10.954-9 19.844-19.968 19.844H29.102c-10.97 0-19.902-8.89-19.97-19.844L.006 64.787A3.99 3.99 0 010 64.55c0-11.01 8.958-19.969 19.97-19.969h99.876c9.466 0 17.63 6.665 19.551 15.901l10.429 29.508 9.492-29.189a19.93 19.93 0 0119.615-16.22H280.03c11.01 0 19.969 8.959 19.969 19.97 0 .079-.003.157-.007.236zM18.014 235.213c.005.08.006.158.006.238 0 6.11 4.972 11.08 11.082 11.08h241.795c6.11 0 11.081-4.97 11.081-11.08 0-.08.003-.159.007-.238l.882-16.501H17.132l.882 16.501zm112.897-172.07a4.461 4.461 0 01-.177-.654 11.091 11.091 0 00-10.888-9.02H19.969c-6.074 0-11.022 4.912-11.08 10.973l.28 5.24h124.053l-2.311-6.539zm31.974 15.428l-7.386 22.708c15.805 1.062 30.519 7.721 41.826 19.028a4.443 4.443 0 11-6.285 6.285c-10.691-10.692-24.905-16.58-40.026-16.58-15.12 0-29.334 5.888-40.025 16.58a4.444 4.444 0 01-6.284-6.285c10.808-10.81 24.73-17.374 39.744-18.859l-8.084-22.878H9.643l7.015 131.254h266.684l7.013-131.253h-127.47zm117.144-25.102H178.931a11.06 11.06 0 00-10.917 9.184 4.524 4.524 0 01-.153.614l-2.087 6.416H290.83l.28-5.24c-.057-6.061-5.006-10.974-11.08-10.974z"/><glyph glyph-name="thin-bra-2" unicode="" horiz-adv-x="300" d="M294.375 120.234c-43.125 10.782-58.594 40.313-58.594 46.875v83.907h-12.187v-83.907c0-10.78-9.844-16.875-25.781-25.78-4.688-2.813-9.844-5.626-14.532-8.438-10.312-7.032-22.5-19.688-33.281-35.625-10.781 15.937-22.969 28.593-33.281 35.625-4.688 3.28-9.375 5.625-14.531 8.437-15.938 8.906-25.782 15-25.782 25.781v83.907H64.22v-83.907c0-6.562-15.469-35.625-58.594-46.875L0 118.828l.938-5.625c1.406-7.969 9.843-52.969 9.843-53.437l.938-5.157h56.25c7.969-3.75 16.875-5.625 26.719-5.625 19.687 0 32.812 7.97 41.25 15.938h28.125c7.968-7.5 21.562-15.938 41.25-15.938 9.843 0 18.75 1.875 26.718 5.625h56.25l.938 5.157c0 .468 8.437 45.468 9.844 53.437l.937 5.625-5.625 1.406zm-145.313-37.03h1.876c.937-1.876 1.875-3.75 3.28-5.626h-7.968l2.813 5.625zm-135 26.718c6.094 1.875 11.25 3.75 16.407 6.094.937-8.438 3.281-20.625 8.906-31.875 3.281-6.563 7.031-12.188 11.25-16.875H22.5c-1.875 9.843-6.094 31.406-8.438 42.656zM94.689 61.64c-20.626 0-35.157 9.375-44.063 27.656-6.094 12.656-7.969 26.25-8.438 32.812 7.97 5.157 13.594 10.313 17.813 14.532 3.281 3.75 7.031 7.968 9.844 12.187 6.562-8.437 16.875-14.062 26.25-19.219 4.687-2.343 9.375-5.156 13.594-7.968 8.906-6.094 19.218-16.875 29.062-30.938-1.875-6.094-13.594-29.062-44.063-29.062zm66.562 30c9.844 14.062 20.156 24.843 29.063 30.937 4.218 2.813 8.906 5.156 13.593 7.969 9.375 5.156 20.156 10.781 26.25 19.219 2.813-4.688 6.094-8.907 9.844-12.188 4.219-4.687 10.313-9.844 17.813-14.531-.47-7.031-2.344-20.625-8.438-32.813-8.906-18.28-23.906-27.656-44.063-27.656-30.468-.937-42.187 22.5-44.062 29.063zM277.5 67.266h-28.594c4.219 4.687 8.438 10.312 11.25 16.875 5.625 11.718 7.969 23.437 8.906 31.875 4.688-2.344 10.313-4.22 16.407-6.094-1.875-11.25-6.094-32.813-7.969-42.656z"/><glyph glyph-name="thin-bra" unicode="" horiz-adv-x="300" d="M290.837 98.203c0 .938-.468 1.406-1.406 2.344-2.344 3.75-5.156 7.031-7.969 9.844-1.875 1.875-3.75 3.28-5.625 4.687v4.688c0 1.406-22.5 118.593-.468 172.5 1.406 1.875.937 3.28.468 4.687-.937 1.406-2.343 1.875-3.75 1.875h-27.656c-1.875 0-3.281-.937-4.219-2.812-9.843-23.907-12.656-60.938-8.906-110.625 1.875-22.97 4.688-43.594 6.563-55.782h-.47c-4.687 1.407-9.843 1.407-14.53-.937-4.688-2.344-7.97-6.094-9.844-11.25-.469-1.406-.938-3.281-.938-4.688-1.875.47-3.281.47-5.156.47-5.156 0-9.844-1.876-13.594-5.626-3.75-3.75-5.625-8.437-5.625-13.594 0-2.812.469-5.625 1.875-7.968-7.968.937-15.468-2.813-19.218-9.844h-40.313c-3.75 7.031-11.719 11.25-19.687 9.844 3.28 7.03 1.875 15.937-3.75 21.562-3.75 3.75-8.438 5.625-13.594 5.625-1.875 0-3.281-.469-5.156-.469-.47 6.563-4.22 12.657-10.782 15.938-4.687 2.344-9.843 2.812-14.531.937h-.469c1.875 12.188 4.688 32.344 6.563 55.782 4.219 49.687 1.406 86.718-8.438 110.625-.468 1.875-2.343 2.812-4.218 2.812H28.337c-1.406 0-2.812-.937-3.75-1.875-.468-1.406-.937-2.812 0-4.219 22.032-53.906 0-171.562-.468-172.5v-4.687c-1.875-1.406-3.75-3.281-5.625-4.688-2.813-2.812-5.625-6.093-7.97-9.843-.468-.938-.937-1.875-.937-2.813C3.494 87.891.212 75.703.212 63.047c0-17.813 6.094-34.219 16.407-45C26.93 7.734 43.337 1.64 61.149 1.64h.47c12.656 0 24.843 3.28 35.156 9.375.937 0 1.406.468 2.344 1.406 3.75 2.344 7.03 5.156 9.843 7.969 1.407 1.406 2.344 2.812 3.75 3.75.469-.47.938-.47 1.407-.938 1.875-.469 3.28-.469 4.687-.469 8.438 0 16.406 5.625 18.281 14.063.469 1.406.469 2.812.469 4.219h24.375c0-1.407.469-2.813.469-4.22 1.406-5.155 4.687-8.905 8.906-11.718 2.813-1.875 6.094-2.812 9.375-2.812 1.875 0 3.281 0 5.156.468.469 0 .938.47 1.407.938.937-1.406 2.343-2.813 3.75-3.75 2.812-2.813 6.093-5.625 9.843-7.969.469-.469 1.407-.937 2.344-1.406 10.313-6.094 22.5-9.375 35.156-9.375h.469c17.813 0 34.219 6.094 44.531 16.406 10.782 10.781 16.407 27.188 16.407 45 .468 13.125-2.813 25.781-8.907 35.625zm-23.906 22.5c-6.094 2.344-12.187 3.281-18.281 2.344.937 1.406 1.875 2.344 3.281 3.281 2.344 1.406 5.156 1.875 7.969.938 3.75-.47 6.094-3.282 7.031-6.563zm-19.687 169.219h18.28c-7.968-23.906-10.312-59.063-6.562-104.531 1.407-19.688 3.75-37.97 5.625-50.157-.937.47-1.875.47-2.343.938-5.157 1.406-10.313.469-14.532-1.875-.468-.469-.937-.469-1.406-.938-4.687 31.875-15 112.5.938 156.563zm-25.782-174.844c.938 2.813 2.813 4.688 5.157 6.094 2.343 1.406 5.156 1.406 7.968.469l2.813-1.407c-5.156-2.343-10.313-5.156-16.406-9.843 0 1.406 0 3.28.468 4.687zM199.9 101.953c3.281 3.281 8.906 3.75 12.656 1.406-2.344-2.343-4.687-4.218-7.031-7.03l-7.031-7.032c-.938 1.875-1.875 3.75-1.875 5.625.468 2.812 1.406 5.156 3.28 7.031zm-106.406 2.813c2.812 0 5.156-.938 7.03-2.813 3.282-3.281 3.75-8.906 1.407-12.656-2.344 2.344-4.219 4.687-7.031 7.031l-7.031 7.031c1.406.938 3.28 1.407 5.625 1.407zM65.837 121.64c2.813.937 5.157.468 7.969-.47 4.219-1.874 6.094-6.562 5.625-10.78-5.625 4.218-11.25 7.5-16.406 9.843.937.47 1.875.938 2.812 1.407zM53.181 289.92c15.938-43.593 6.094-124.687.938-156.562-.47.47-.938.47-1.407.938-4.218 2.344-9.375 3.281-14.531 1.875-.937-.469-1.875-.469-2.344-.938 1.875 12.188 4.219 30.47 5.625 50.157 3.75 45.468 1.407 80.625-6.562 104.53h18.28zM40.525 127.735c2.812.47 5.625.47 7.969-.937 1.406-.938 2.812-1.875 3.28-3.281-6.562.937-12.655 0-18.28-2.344.937 2.812 3.28 5.625 7.03 6.562zm52.031-108.75c-8.906-5.156-19.687-7.968-30.937-7.968-15.47 0-30 5.156-38.438 14.062-8.906 8.906-14.062 23.438-14.062 38.438 0 11.25 2.812 22.03 7.968 30.937 15 7.969 30.938 1.406 53.907-21.562 22.968-22.97 29.53-39.375 21.562-53.907zm12.188 9.375c1.406 18.75-13.125 36.563-27.188 50.625-14.062 14.063-31.406 28.594-50.625 27.188 6.563 5.625 13.125 8.437 20.156 8.437 2.813 0 5.625-.468 8.438-1.406 9.375-2.812 20.156-10.312 33.281-23.437 13.125-13.125 20.625-23.438 23.438-33.282 2.812-9.843.468-19.218-7.5-28.125zm6.093 49.22c4.688.937 9.375-.938 11.25-5.626 1.407-2.344 1.407-5.156.469-7.969-.469-1.406-1.406-3.28-2.812-4.218-1.407 6.093-4.22 11.718-8.907 17.812zm18.283-38.44c-1.407-5.157-6.094-7.97-11.25-7.5 3.28 6.093 4.687 12.656 4.218 19.218.469 0 .469.47.938.47 1.875-.938 3.75-2.345 5.156-4.22.938-2.343 1.406-5.156.938-7.968zm35.156 10.78H136.15c0 .47-.469.938-.938 1.407-1.406 2.813-3.75 4.688-6.093 6.563.937 1.406 1.406 2.343 1.875 3.75.468 1.875.937 4.218.937 6.093h35.625c0-1.875.469-4.218.938-6.093.468-1.407.937-2.813 1.875-3.75-2.344-1.875-4.688-4.688-6.094-7.97zm12.187-16.874c-2.343 1.406-4.218 3.75-4.687 6.094-.469 2.812-.469 5.625.937 7.968.938 1.875 2.813 3.282 5.157 4.22.468 0 .468-.47.937-.47-.469-6.562.938-13.125 4.219-19.218-2.344 0-4.688.468-6.563 1.406zm3.75 27.187c-1.406.938-2.343 2.813-2.812 4.22-.938 2.812-.469 5.155.469 7.968 2.343 4.219 7.03 6.562 11.25 5.625-4.22-6.563-7.032-12.188-8.907-17.813zm15.469-31.875c-15.469 16.875-10.781 35.157 15.938 61.407 26.718 26.718 44.53 31.406 61.406 15.937-18.75 1.406-36.563-13.125-50.625-27.187-13.594-13.594-28.125-31.407-26.719-50.157zm81.563-3.75c-8.907-8.906-22.97-14.062-38.438-14.062-11.25 0-22.031 2.812-30.937 7.969-7.97 15-1.407 30.937 21.562 53.906 22.969 22.969 38.906 29.062 53.906 21.562 5.157-8.906 7.969-19.687 7.969-30.937 0-15.469-5.156-30-14.062-38.438z"/><glyph glyph-name="thin-bracelet" unicode="" horiz-adv-x="300" d="M215.549 156.106l-18.281 10.781c-1.407.938-3.282 1.406-5.157 1.406h-21.093c-1.875 0-3.75-.468-5.157-1.406l-18.281-10.781c-1.406-.938-2.812-2.344-3.75-3.75l-10.781-18.281c-.938-1.407-1.406-3.282-1.406-5.157v-21.093c0-1.875.468-3.75 1.406-5.157l10.781-18.28c.938-1.407 2.344-2.813 3.75-3.75l18.281-10.782c1.407-.938 3.282-1.406 5.157-1.406h21.093c1.875 0 3.75.468 5.157 1.406l18.28 10.781c1.407.938 2.813 2.344 3.75 3.75l10.782 18.281c.938 1.407 1.406 3.282 1.406 5.157v21.093c0 1.875-.468 3.75-1.406 5.157l-10.781 18.28c-.938 1.876-2.344 3.282-3.75 3.75zm-19.219.937l11.25-6.562-6.562-6.563-7.032 4.22 2.344 8.905zm-8.437 2.344l-2.344-8.906h-8.438l-1.875 8.906h12.657zm-21.563-2.344l2.344-8.906-7.031-4.219-6.563 6.563 11.25 6.562zm-17.344-12.656l6.563-6.562-4.219-7.032-8.906 2.344 6.562 11.25zM140.55 124.7l8.906-2.344v-8.438l-8.906-1.875V124.7zm2.344-21.094l8.906 2.344 4.219-7.032-6.563-6.562-6.562 11.25zM166.33 79.7l-11.25 6.562 6.563 6.563 7.03-4.22-2.343-8.905zm8.906-2.344l2.344 8.906h8.438l2.343-8.906h-13.125zm13.125 17.812h-13.593l-10.313 5.625c-.469 0-.469.47-.469.47l-5.625 10.312v13.593l5.625 10.313c0 .469.469.469.469.469l10.313 5.625h13.592l10.313-5.625c.469 0 .469-.47.469-.47l5.625-10.312v-13.593l-5.625-10.313c0-.469-.47-.469-.47-.469l-10.312-5.625zM196.33 79.7l-2.344 8.906 7.032 4.219 6.562-6.563-11.25-6.562zm17.344 12.656l-6.094 6.094 4.219 7.03 8.906-2.343-7.031-10.781zm8.906 19.687l-8.906 2.344v8.438l8.906 2.343v-13.125zm-11.25 18.75l-4.219 7.032 6.563 6.562 6.562-11.25-8.906-2.344zm82.5 99.375l-64.219 64.22c-10.312 10.312-31.406 7.03-61.406-9.376-2.344-1.406-2.812-3.75-1.875-6.094 1.406-2.343 3.75-2.812 6.094-1.875 24.844 13.594 43.594 17.813 50.625 10.782 8.437-8.438-.938-30.938-6.094-41.72-9.844-20.155-25.312-41.25-39.375-58.593-7.031-.469-14.062-1.875-20.625-4.219l-38.437 38.438c-2.344 2.344-3.75 5.625-3.75 8.906 0 3.281 1.875 6.563 4.218 8.906 12.188 10.313 23.907 19.22 35.625 26.72 1.875 1.405 2.344 4.218 1.407 6.093-1.407 1.875-4.22 2.344-6.094 1.406-11.719-7.969-23.906-16.875-36.563-27.656-4.687-3.75-7.031-9.375-7.5-15-.468-5.625 1.875-11.719 6.094-15.469l36.094-36.094c-6.094-3.28-11.25-7.03-16.406-12.187-5.157-5.156-8.907-10.313-12.188-16.406l-35.156 36.093c-4.219 4.22-9.844 6.563-15.469 6.094-5.625-.469-11.25-2.812-15-7.5-20.625-24.375-37.031-48.75-45.937-68.906C-1.951 94.7-2.42 78.293 6.018 69.856L70.236 5.637c10.782-10.781 30.938-4.687 45 1.406 19.219 8.438 41.719 22.97 65.157 42.188 21.562-.469 41.718 8.906 55.312 25.781 1.406 1.875 1.406 4.688-.469 6.094-1.875 1.406-4.687 1.406-6.093-.469-23.907-29.531-67.97-30-92.813-1.406-20.156 23.437-19.219 59.531 3.281 81.562 25.313 25.313 67.5 23.438 90-5.625 12.657-16.406 16.407-38.437 8.907-58.125-.938-2.343.468-4.687 2.812-5.625 2.344-.937 4.688.47 5.625 2.813 3.281 8.437 4.688 16.875 4.219 25.781 19.219 23.438 33.75 45.938 42.187 65.156 8.438 21.094 8.907 36.563.469 45zM12.111 75.95c-5.625 5.625-4.218 19.218 3.75 37.03 8.438 19.22 24.375 43.126 44.532 67.032 2.343 2.813 5.156 4.219 8.906 4.219h.469c3.28 0 6.093-1.406 8.437-3.75l38.438-38.438c-2.344-6.562-3.75-13.593-4.22-20.625-18.28-15-83.437-62.343-100.312-45.468zm12.657-12.657l-.938.938c27.656 1.406 67.031 29.531 88.594 46.875.469-3.75.937-7.031 1.875-10.313C93.205 84.387 73.518 72.2 57.11 65.637c-8.437-4.219-25.312-9.375-32.343-2.344zm131.718-9.375c3.75-1.406 7.5-2.343 11.25-3.28-47.812-37.5-82.031-48.282-91.875-38.438l-.937.937c6.562.469 14.062 2.344 22.969 5.625 17.343 6.563 37.5 18.75 58.593 35.156zm-8.906 4.22c-45.937-34.688-75.937-41.72-84.375-33.282l-26.25 26.25c21.563.937 52.969 19.219 80.625 40.312 6.094-14.062 16.875-25.78 30-33.28zm52.031 127.03c-3.281.938-7.031 1.407-10.312 1.875 17.344 21.563 45.469 61.407 46.875 88.594l.937-.937c5.157-5.157 4.219-16.407-1.875-32.344-7.031-16.406-19.218-36.094-35.625-57.188zm42.188-32.812c-7.031 13.125-19.219 23.906-33.281 30 21.093 27.656 39.375 59.062 40.312 80.625l26.25-26.25c8.438-8.438 1.406-38.438-33.281-84.375zm7.5-20.156c-.938 3.75-1.875 7.5-3.281 11.25 16.406 21.093 28.593 41.25 35.156 58.125 3.281 8.906 5.156 16.406 5.625 22.968l.937-.937c9.844-9.375-.937-43.594-38.437-91.406z"/><glyph glyph-name="thin-budget" unicode="" horiz-adv-x="300" d="M289.688 147.188l-41.25 40.78c-.938.938-2.813 1.876-4.22 1.876h-37.5l-2.812 56.719c-.937 17.812-5.625 31.406-14.531 40.312-7.969 8.906-20.156 13.125-35.156 13.125h-12.656c-2.813 0-5.157-1.875-5.625-4.219-3.75-15-15-25.312-27.188-25.312-12.188 0-23.438 10.312-27.188 25.312-.468 2.344-2.812 4.219-5.624 4.219H63.28c-15 0-26.718-4.219-35.156-13.125-8.906-9.375-14.063-22.5-15-40.313l-4.688-98.906c0-1.406.47-3.281 1.407-4.219.937-.937 2.812-1.875 4.219-1.875H44.53c-1.875-8.906-2.812-17.343-2.812-25.78-.469-7.5 0-15 .468-22.5v-.938c.938-10.313 3.282-20.625 6.563-30.938.938-2.343 2.813-4.218 5.625-4.218h68.906V6.093c0-3.282 2.813-6.094 6.094-6.094h156.094c3.281 0 6.094 2.813 6.094 6.094v136.875c0 1.406-.938 2.812-1.875 4.219zm-39.375 22.5l21.093-21.094h-21.093v21.094zM63.28 288.28h8.438c6.094-17.812 20.625-29.531 37.031-29.531s30.938 11.719 37.031 29.531h8.438c24.375 0 37.031-14.062 38.437-42.187l2.813-56.25H161.25c-2.813 17.812-.469 30.937 4.219 46.406.937 3.281-.938 6.563-3.75 7.5-3.281.938-6.563-.938-7.5-3.75-4.688-15.938-7.5-30.469-5.156-49.688h-19.688c-3.281 0-6.094-2.812-6.094-6.093V99.844H53.906c-1.406 22.969 2.344 44.531 9.375 67.5 8.907 30.937 6.563 50.625 0 72.656-.937 3.281-4.218 4.688-7.5 3.75-3.281-.938-4.687-4.219-3.75-7.5 4.219-14.063 7.5-28.594 3.75-50.625h-33.75l2.813 60.938c1.406 27.656 14.062 41.718 38.437 41.718zm-42.656-135l.938 20.156h31.406c-.469-.937-.469-2.343-.938-3.28-1.875-6.095-3.281-11.72-4.687-16.876H20.625zM59.53 68.905c-1.875 6.563-3.281 12.656-4.218 18.75h68.437v-18.75H59.531zm75.94-57.185v166.406h102.656V142.97c0-3.281 2.813-6.094 6.094-6.094h35.156V11.719H135.469zm16.406 80.156c4.688-3.281 8.438-4.688 12.656-4.688v-2.812c0-3.281 2.813-6.094 6.094-6.094s6.094 2.813 6.094 6.094v3.281c8.905 2.343 14.53 10.313 15.936 17.813 1.875 9.844-3.75 18.75-13.594 22.5-5.625 1.875-11.718 4.219-15 7.031-.937.938-1.406 2.813-1.406 5.156.469 2.344 1.875 4.688 4.688 5.625 7.031 1.875 10.312-.937 11.25-1.406a5.941 5.941 0 018.437 0 5.941 5.941 0 010 8.438c-2.344 2.343-6.094 4.218-10.312 5.156v4.687c0 3.281-2.813 6.094-6.094 6.094s-6.094-2.813-6.094-6.094v-5.625h-.469c-6.562-1.875-11.25-7.5-12.656-14.531-1.406-6.563.938-12.656 5.625-16.406 4.688-3.75 11.719-6.563 18.281-8.906 6.094-2.344 6.094-7.032 5.625-9.376-.468-4.218-4.218-8.906-10.312-8.906-6.094 0-7.5.469-12.188 3.281-2.812 1.876-6.562.938-7.968-1.874-2.344-2.813-1.406-6.563 1.406-8.438zm108.75 26.25h-47.813c-3.28 0-6.093-2.813-6.093-6.094s2.812-6.094 6.094-6.094h47.812c3.281 0 6.094 2.813 6.094 6.094s-2.813 6.094-6.094 6.094zm0-27.188h-47.813c-3.28 0-6.093-2.812-6.093-6.093s2.812-6.094 6.094-6.094h47.812c3.281 0 6.094 2.813 6.094 6.094s-2.813 6.094-6.094 6.094zm0-27.187H202.97c-3.281 0-6.094-2.813-6.094-6.094s2.813-6.093 6.094-6.093h57.656c3.281 0 6.094 2.812 6.094 6.093 0 3.282-2.813 6.094-6.094 6.094zm-106.407-11.72h19.687c3.282 0 6.094 2.813 6.094 6.094s-2.813 6.094-6.094 6.094H154.22c-3.281 0-6.094-2.813-6.094-6.094 0-3.75 2.813-6.094 6.094-6.094zm57.656-15.468h-57.656c-3.281 0-6.094-2.813-6.094-6.094 0-3.282 2.813-6.094 6.094-6.094h57.656c3.281 0 6.094 2.813 6.094 6.094s-2.813 6.093-6.094 6.093zm48.75 0h-19.687c-3.282 0-6.094-2.813-6.094-6.094 0-3.282 2.812-6.094 6.094-6.094h19.687c3.281 0 6.094 2.813 6.094 6.094s-2.813 6.093-6.094 6.093z"/><glyph glyph-name="thin-bum-bag" unicode="" horiz-adv-x="300" d="M229.922 139.219h10.781c5.156 0 9.844 4.219 9.844 9.844v46.406c0 5.156-4.219 9.844-9.844 9.844H58.828c-5.156 0-9.844-4.22-9.844-9.844v-46.406c0-5.157 4.22-9.844 9.844-9.844h1.875a4.201 4.201 0 014.219 4.219 4.201 4.201 0 01-4.219 4.218h-1.875c-.469 0-.937.469-.937.938V195c0 .469.468.938.937.938h181.406c.47 0 .938-.47.938-.938v-46.406c0-.469-.469-.938-.938-.938h-10.78a4.201 4.201 0 01-4.22-4.219c0-1.875 2.344-4.218 4.688-4.218zm-14.531 4.687a4.201 4.201 0 01-4.22 4.219H114.61a4.201 4.201 0 01-4.218-4.219 4.201 4.201 0 014.218-4.218h96.563c2.344-.47 4.219 1.875 4.219 4.218zm5.156 17.813a4.201 4.201 0 014.219 4.219v1.875h5.156a4.201 4.201 0 014.219 4.218 4.201 4.201 0 01-4.22 4.219h-5.155v1.875c0 2.344-1.875 4.219-4.22 4.219s-4.218-1.875-4.218-4.219v-1.875h-11.25v1.875a4.201 4.201 0 01-4.219 4.219 4.201 4.201 0 01-4.218-4.219v-1.875h-11.25v1.875c0 2.344-1.875 4.219-4.22 4.219s-4.218-1.875-4.218-4.219v-1.875h-13.125v1.875a4.201 4.201 0 01-4.219 4.219 4.201 4.201 0 01-4.218-4.219v-1.875h-11.25v1.875c0 2.344-1.875 4.219-4.22 4.219s-4.218-1.875-4.218-4.219v-1.875h-12.187v1.875a4.201 4.201 0 01-4.22 4.219 4.201 4.201 0 01-4.218-4.219v-1.875h-45a4.201 4.201 0 01-4.219-4.219 4.201 4.201 0 014.22-4.218h4.687c-.47-1.407-.938-2.813-.938-4.22v-27.187c0-5.156 4.219-8.906 8.906-8.906h8.907c5.156 0 8.906 4.219 8.906 8.906v27.188c0 1.406-.469 2.812-.938 4.219h13.125v-1.875a4.201 4.201 0 014.22-4.22 4.201 4.201 0 014.218 4.22v1.875h12.187v-1.875a4.201 4.201 0 014.22-4.22 4.201 4.201 0 014.218 4.22v1.875h11.25v-1.875a4.201 4.201 0 014.219-4.22 4.201 4.201 0 014.218 4.22v1.875h11.25v-1.875c0-2.344 1.875-4.22 4.22-4.22s4.218 1.876 4.218 4.22v1.875h11.25v-1.875a4.201 4.201 0 014.219-4.22 4.201 4.201 0 014.218 4.22v1.875h11.25v-1.875c3.75-2.344 6.094-4.22 8.438-4.22zm-127.969 1.875v-27.188h-8.906v27.188a4.201 4.201 0 004.219 4.219h.468a4.201 4.201 0 004.22-4.22zm24.844-36.094a8.402 8.402 0 01-8.438-8.437V98.906a8.402 8.402 0 018.438-8.437h64.687a8.402 8.402 0 018.438 8.437v20.157a8.402 8.402 0 01-8.438 8.437h-64.687zm63.75-28.125H117.89v19.219h63.75V99.375zm110.156 101.25H272.11v2.813c0 15.468-12.656 28.593-28.593 28.593h-10.782a4.201 4.201 0 01-4.218-4.219 4.201 4.201 0 014.218-4.218h10.782c10.78 0 19.687-8.906 19.687-19.688V97.5c0-10.781-8.906-19.688-19.687-19.688h-187.5c-10.782 0-19.688 8.907-19.688 19.688v105.469c0 10.781 8.906 19.687 19.688 19.687h157.968a4.201 4.201 0 014.22 4.219 4.201 4.201 0 01-4.22 4.219H56.016c-15.47 0-28.594-12.656-28.594-28.594v-2.813H8.203c-4.687.938-8.437-2.812-8.437-7.5v-17.812a4.201 4.201 0 014.218-4.219 4.201 4.201 0 014.22 4.219v17.344h18.75v-72.656l-18.75 10.78v25.782a4.201 4.201 0 01-4.22 4.219 4.201 4.201 0 01-4.218-4.219v-26.25c0-2.813 1.406-5.625 4.218-7.5l23.438-13.125V96.562c0-15.468 12.656-28.593 28.594-28.593h187.968c15.47 0 28.594 12.656 28.594 28.594v12.187l23.438 13.125c2.812 1.406 4.218 4.219 4.218 7.5v62.813c-.468 4.687-4.218 8.437-8.906 8.437zm-.469-71.25l-18.75-10.781v73.125h18.75v-62.344z"/><glyph glyph-name="thin-button-2" unicode="" horiz-adv-x="300" d="M255.938 255.938C227.813 284.53 189.844 300 150 300s-77.813-15.469-105.938-44.063C15.47 227.813 0 189.844 0 150S15.469 72.187 44.063 44.062C72.186 15.939 110.156 0 150 0s77.813 15.469 105.938 44.063C284.063 72.186 300 110.156 300 150s-15.469 77.813-44.063 105.938zM243.75 56.25C218.906 31.406 185.625 17.344 150 17.344S81.562 31.406 56.25 56.25C31.406 81.094 17.344 114.375 17.344 150s14.062 68.438 38.906 93.75c24.844 24.844 58.125 38.906 93.75 38.906s68.438-14.062 93.75-38.906c24.844-24.844 38.906-58.125 38.906-93.75s-14.062-68.438-38.906-93.75zM150 264.844C86.719 264.844 35.156 213.28 35.156 150S86.72 35.156 150 35.156 264.844 86.72 264.844 150 213.28 264.844 150 264.844zm0-211.875c-53.438 0-97.031 43.593-97.031 97.031S96.562 247.031 150 247.031s97.031-43.594 97.031-97.031S203.437 52.969 150 52.969zm46.406 123.281c-11.719 0-21.094-7.5-24.844-17.813h-12.656v12.657c10.313 3.75 17.813 13.594 17.813 24.844 0 14.53-11.719 26.25-26.25 26.25s-26.25-11.72-26.25-26.25c0-11.72 7.5-21.094 17.812-24.844v-12.656h-12.656c-3.75 10.312-13.594 17.812-24.844 17.812-14.531 0-26.25-11.719-26.25-26.25s11.719-26.25 26.25-26.25c11.719 0 21.094 7.5 24.844 17.813h12.656v-12.657c-10.312-3.75-17.812-13.594-17.812-24.844 0-14.53 11.719-26.25 26.25-26.25s26.25 11.72 26.25 26.25c0 11.72-7.5 21.094-17.813 24.844v12.656h12.656c3.75-10.312 13.594-17.812 24.844-17.812 14.531 0 26.25 11.719 26.25 26.25.469 14.531-11.719 26.25-26.25 26.25zM150 205.313c4.688 0 8.906-3.75 8.906-8.907 0-4.687-3.75-8.906-8.906-8.906-4.688 0-8.906 3.75-8.906 8.906 0 5.156 4.219 8.906 8.906 8.906zm-46.406-64.22c-4.688 0-8.906 3.75-8.906 8.907 0 4.688 3.75 8.906 8.906 8.906 4.687 0 8.906-3.75 8.906-8.906 0-4.688-4.219-8.906-8.906-8.906zM150 94.689c-4.688 0-8.906 3.75-8.906 8.906 0 4.687 3.75 8.906 8.906 8.906 4.688 0 8.906-3.75 8.906-8.906 0-5.156-4.219-8.906-8.906-8.906zm46.406 46.406c-4.687 0-8.906 3.75-8.906 8.906 0 4.688 3.75 8.906 8.906 8.906 4.688 0 8.906-3.75 8.906-8.906 0-4.688-3.75-8.906-8.906-8.906z"/><glyph glyph-name="thin-button" unicode="" horiz-adv-x="300" d="M26.865 26.865c78.281-35.625 168.281-35.625 246.094 0 36.094 78.75 35.625 168.281 0 246.094-78.75 36.094-167.813 35.625-246.094 0-35.625-78.281-35.625-167.813 0-246.094zM40.46 259.834c70.781 30 149.062 30 219.375 0 30-70.313 30-149.063 0-219.375-70.313-30-149.531-30-219.375 0-30.469 70.312-30.469 149.062 0 219.375zM54.053 54.053c60.937-24.375 131.718-24.375 192.187 0 24.844 60.937 24.375 131.718 0 192.187-60.937 24.844-131.719 24.375-192.187 0-24.844-60.469-24.375-131.719 0-192.187zm13.593 178.593c52.5 19.22 112.5 19.22 165 0 19.22-52.5 19.22-112.968 0-165-52.5-19.218-112.968-19.218-165 0-19.218 52.032-19.218 112.97 0 165zm22.97-49.687c0-14.531 11.718-26.25 26.25-26.25 11.718 0 21.093 7.5 24.843 17.812h15.937c3.75-10.312 13.594-17.812 24.844-17.812 14.531 0 26.25 11.719 26.25 26.25s-11.719 26.25-26.25 26.25c-11.719 0-21.094-7.5-24.844-17.813H141.71c-3.75 10.313-13.594 17.813-24.844 17.813-14.062 0-26.25-11.719-26.25-26.25zm83.437 0c0 4.687 3.75 8.906 8.906 8.906 4.687 0 8.906-3.75 8.906-8.906s-3.75-8.906-8.906-8.906c-4.688 0-8.906 4.218-8.906 8.906zm-65.625 0c0 4.687 3.75 8.906 8.906 8.906s8.906-3.75 8.906-8.906-4.219-8.906-8.906-8.906-8.906 4.218-8.906 8.906zm-17.813-65.625c0-14.531 11.719-26.25 26.25-26.25 11.719 0 21.094 7.5 24.844 17.812h15.937c3.75-10.312 13.594-17.812 24.844-17.812 14.531 0 26.25 11.719 26.25 26.25s-11.719 26.25-26.25 26.25c-11.719 0-21.094-7.5-24.844-17.813H141.71c-3.75 10.313-13.594 17.813-24.844 17.813-14.062 0-26.25-11.719-26.25-26.25zm83.438 0c0 4.687 3.75 8.906 8.906 8.906 4.687 0 8.906-3.75 8.906-8.906s-3.75-8.906-8.906-8.906c-4.688 0-8.906 3.75-8.906 8.906zm-65.625 0c0 4.687 3.75 8.906 8.906 8.906s8.906-3.75 8.906-8.906-4.219-8.906-8.906-8.906-8.906 3.75-8.906 8.906z"/><glyph glyph-name="thin-buttons" unicode="" horiz-adv-x="300" d="M145.781 233.206c-14.531 0-26.25-11.719-26.25-26.25s11.719-26.25 26.25-26.25 26.25 11.719 26.25 26.25-11.719 26.25-26.25 26.25zm0-40.312c-7.969 0-14.531 6.562-14.531 14.53 0 7.97 6.563 14.532 14.531 14.532 7.969 0 14.531-6.562 14.531-14.531s-6.562-14.531-14.53-14.531zm0-66.094c-14.531 0-26.25-11.719-26.25-26.25s11.719-26.25 26.25-26.25 26.25 11.719 26.25 26.25-11.719 26.25-26.25 26.25zm0-40.313c-7.969 0-14.531 6.563-14.531 14.532 0 7.968 6.563 14.53 14.531 14.53 7.969 0 14.531-6.562 14.531-14.53 0-8.438-6.562-14.532-14.53-14.532zM92.344 179.77c-14.531 0-26.25-11.72-26.25-26.25 0-14.532 11.719-26.25 26.25-26.25s26.25 11.718 26.25 26.25c0 14.53-11.719 26.25-26.25 26.25zm0-40.313c-7.969 0-14.531 6.563-14.531 14.531 0 7.97 6.562 14.532 14.53 14.532 7.97 0 14.532-6.563 14.532-14.532 0-7.968-6.563-14.53-14.531-14.53zM225 153.987c0 14.532-11.719 26.25-26.25 26.25s-26.25-11.718-26.25-26.25c0-14.53 11.719-26.25 26.25-26.25 15 0 26.25 11.72 26.25 26.25zm-40.313 0c0 7.97 6.563 14.532 14.532 14.532s14.531-6.563 14.531-14.532c0-7.968-6.563-14.53-14.531-14.53-7.969 0-14.531 6.562-14.531 14.53zm97.97-51.093c6.093 16.406 9.374 33.75 9.374 51.093 0 38.907-15 75.47-42.656 103.125-28.125 27.657-64.688 42.657-103.594 42.657-38.906 0-75.469-15-103.125-42.657S0 192.894 0 153.987C0 115.081 15 78.52 42.656 50.862 70.313 23.206 106.875 8.206 145.781 8.206c17.813 0 34.688 3.281 51.094 9.375C207.656 6.8 222.656.237 239.531.237 272.812-.23 300 26.957 300 60.237c0 16.407-6.563 31.407-17.344 42.657zM151.874 41.019c9.844.468 19.688 2.343 29.063 5.156 1.875-7.031 4.687-13.594 8.437-19.219-12.188-4.219-24.375-6.562-37.5-7.031v21.094zm27.188 19.218v-2.343c-36.563-12.657-77.344-3.282-105 23.906-39.376 39.375-39.376 104.062 0 143.437 39.374 39.375 104.062 39.375 143.437 0 27.656-27.656 37.031-68.437 23.906-105h-2.343c-32.813.47-60-26.718-60-60zm79.687 87.657h21.094a129.34 129.34 0 00-7.031-37.5c-5.625 3.75-12.188 6.562-19.22 8.437 3.282 9.844 4.688 19.688 5.157 29.063zm21.094 11.718H258.75c-1.406 27.657-12.656 53.907-32.813 74.063-20.625 20.625-47.343 31.406-74.062 32.812v21.563c68.906-3.281 125.156-59.063 127.969-128.438zM140.156 288.05v-21.094c-27.187-1.406-53.906-12.187-74.531-32.812C45 213.519 34.219 186.8 32.812 160.08H11.72C15 228.987 70.78 284.77 140.156 288.05zM11.72 147.894h21.093C34.22 120.706 45 94.456 65.626 73.83c20.155-20.155 46.874-31.405 74.062-32.81V19.925C70.78 22.737 15 78.987 11.718 147.894zM239.53 11.487c-26.719 0-48.75 22.032-48.75 48.75 0 26.72 22.031 48.75 48.75 48.75s48.75-22.03 48.75-48.75c0-26.718-22.031-48.75-48.75-48.75zM217.5 65.862c-3.281 0-5.625-2.812-5.625-6.093 0-3.282 2.813-5.625 5.625-5.625 3.281 0 5.625 2.812 5.625 5.625 0 3.75-2.344 6.093-5.625 6.093zm44.531 0c-3.281 0-5.625-2.812-5.625-6.093 0-3.282 2.813-5.625 5.625-5.625 3.281 0 5.625 2.812 5.625 5.625 0 3.75-2.812 6.093-5.625 6.093zm-22.5 22.5c-3.281 0-5.625-2.812-5.625-5.625 0-3.28 2.813-5.625 5.625-5.625 3.282 0 5.625 2.813 5.625 5.625.469 2.813-2.344 5.625-5.625 5.625zm0-44.53c-3.281 0-5.625-2.813-5.625-5.626 0-3.281 2.813-5.625 5.625-5.625 3.282 0 5.625 2.813 5.625 5.625.469 2.813-2.344 5.625-5.625 5.625z"/><glyph glyph-name="thin-calendar" unicode="" horiz-adv-x="300" d="M210 265v10c0 5-3.75 10-10 10s-10-5-10-10v-10h-80v10c0 5-3.75 10-10 10s-10-5-10-10v-10c-40-3.75-62.5-28.75-62.5-71.25V87.5C27.5 41.25 53.75 15 100 15h100c46.25 0 72.5 26.25 72.5 72.5v106.25c0 42.5-23.75 67.5-62.5 71.25zM90 246.25v-8.75c0-5 3.75-10 10-10s10 5 10 10v10h81.25v-10c0-5 3.75-10 10-10s10 3.75 10 10v8.75c28.75-2.5 43.75-18.75 43.75-50H47.5c0 31.25 15 47.5 42.5 50zM252.5 87.5C252.5 51.25 235 35 200 35H100c-36.25 0-52.5 17.5-52.5 52.5v90h206.25v-90zm-56.25 28.75c-7.5 0-12.5 5-12.5 12.5s5 12.5 12.5 12.5 12.5-5 12.5-12.5-5-12.5-12.5-12.5zm0-37.5c-7.5 0-12.5 5-12.5 12.5s5 12.5 12.5 12.5 12.5-5 12.5-12.5-5-12.5-12.5-12.5zM150 116.25c-7.5 0-12.5 5-12.5 12.5s5 12.5 12.5 12.5 12.5-5 12.5-12.5-5-12.5-12.5-12.5zm0-37.5c-7.5 0-12.5 5-12.5 12.5s5 12.5 12.5 12.5 12.5-5 12.5-12.5-5-12.5-12.5-12.5zm-46.25 37.5c-7.5 0-12.5 5-12.5 12.5s5 12.5 12.5 12.5 12.5-5 12.5-12.5-5-12.5-12.5-12.5zm0-37.5c-7.5 0-12.5 5-12.5 12.5s5 12.5 12.5 12.5 12.5-5 12.5-12.5-5-12.5-12.5-12.5z"/><glyph glyph-name="thin-caliper" unicode="" horiz-adv-x="300" d="M206.248 192.422h-21.093c-3.75 0-7.032-3.281-7.032-7.031v-48.75c0-3.75 3.282-7.032 7.032-7.032h21.093c3.75 0 7.032 3.282 7.032 7.032v48.75c.468 3.75-2.813 7.03-7.032 7.03zm-1.406-54.375H187.03v45.937h17.812v-45.937zM55.311 257.109c-1.875 1.875-4.688 1.875-6.094 0-1.875-1.875-1.875-4.687 0-6.093l8.438-8.438c1.875-1.875 4.687-1.875 6.093 0 1.875 1.875 1.875 4.688 0 6.094l-8.437 8.437zm1.875-30a4.201 4.201 0 01-4.219 4.22H41.248a4.201 4.201 0 01-4.218-4.22 4.201 4.201 0 014.218-4.218h11.72c2.343-.47 4.218 1.875 4.218 4.218zm0-15.468l-8.438-8.438c-1.875-1.875-1.875-4.687 0-6.094 1.875-1.875 4.688-1.875 6.094 0l8.438 8.438c1.875 1.875 1.875 4.687 0 6.094-1.407 1.406-4.219 1.406-6.094 0zm165 43.593h16.875c2.344 0 4.687.938 6.562 2.344l15 13.125c4.688 4.219 1.875 11.719-4.218 11.719h-23.438v8.437c0 4.688-3.75 8.907-8.906 8.907h-17.813c-2.343 0-4.687-1.875-4.687-4.22a4.201 4.201 0 014.219-4.218h18.281v-8.437c0-4.688 3.75-8.907 8.906-8.907h17.813l-10.782-9.375c-.468 0-.468-.468-.937-.468h-17.344c-5.625 0-10.312-4.688-10.312-10.313v-42.656H179.53v9.844h3.281a4.201 4.201 0 014.219 4.218 4.201 4.201 0 01-4.219 4.22h-3.281v9.374h3.281a4.201 4.201 0 014.219 4.219 4.201 4.201 0 01-4.219 4.219h-3.281v23.906c0 5.625-4.688 10.312-10.313 10.312H123.28l34.218 8.438c2.813.469 5.625.937 8.438.937h19.219a4.201 4.201 0 014.218 4.22 4.201 4.201 0 01-4.218 4.218h-19.219c-3.75 0-7.031-.469-10.313-1.406l-60.937-14.532c-4.688-.937-8.906-3.28-12.188-6.562-1.875-1.875-3.75-3.75-4.687-5.625l-3.281-5.156c-3.282-4.688.468-10.782 6.093-10.782h1.875l-14.062-23.906c-1.406-2.344-1.406-5.625 0-7.969l14.062-23.906h-2.812c-5.625 0-8.906-6.094-6.094-10.781l3.281-5.156c4.22-6.094 10.313-10.313 17.344-12.188 67.031-16.406 62.813-15.469 65.625-15.937v-25.782c0-2.812-1.406-5.625-4.219-7.03l-5.156-2.813c-5.156-2.813-8.437-8.907-8.437-15V90.703c0-7.969 6.562-14.531 14.531-14.531h14.062V10.078c0-5.156 4.22-9.844 9.844-9.844h30.469c5.156 0 9.844 4.22 9.844 9.844V32.11a4.201 4.201 0 01-4.219 4.22 4.201 4.201 0 01-4.219-4.22V10.08c0-.47-.469-.938-.937-.938h-30c-.469 0-.938.468-.938.937v10.313h3.281a4.201 4.201 0 014.22 4.218 4.201 4.201 0 01-4.22 4.22h-3.28v8.437h3.28a4.201 4.201 0 014.22 4.218 4.201 4.201 0 01-4.22 4.22h-3.28v8.905h3.28a4.201 4.201 0 014.22 4.22 4.201 4.201 0 01-4.22 4.218h-3.28v11.719h31.874V51.328a4.201 4.201 0 014.219-4.219 4.201 4.201 0 014.219 4.22v23.437c6.093 0 10.781 5.156 10.781 10.78v27.188h7.031c5.625 0 9.844 4.688 9.844 9.844v20.156c0 5.625-4.688 9.844-9.844 9.844h-7.031v46.406c0 6.094-4.688 10.782-10.781 10.782v6.562h35.625c6.093 0 8.906 7.5 4.218 11.719l-15 13.125c-1.875 1.406-4.218 2.344-6.562 2.344h-18.75v10.312c.469.469.937 1.406 1.875 1.406zm-61.875-55.312v-.938H134.53l14.062 23.907c1.406 2.343 1.406 5.625 0 7.968l-14.062 23.907h35.625c.468 0 .468-.47.468-.47v-43.124c-5.625-.469-10.312-5.156-10.312-11.25zm-58.594 15.937l-6.562 11.25 6.562 11.25h13.125l6.563-11.25-6.563-11.25h-13.125zm20.625-4.687l6.563 11.25h9.375l-11.25-19.219-4.688 7.969zm6.563 20.156l-6.563 11.25 4.688 7.969 11.25-19.219h-9.375zm-14.063 15.938h-13.125l-4.687 7.968h22.031l-4.219-7.968zm-20.625-4.688l-6.562-11.25H78.28l11.25 19.219 4.687-7.969zm-6.562-20.156l6.562-11.25-4.687-7.969-11.25 19.219h9.375zm14.062-15.469h13.125l4.688-7.969H97.498l4.22 7.97zm69.375 64.219v-7.5H82.967l1.406 2.344a43.435 43.435 0 006.563 6.562h78.281c1.406 0 1.875-.469 1.875-1.406zm-74.531-91.875c-5.156 1.406-9.375 4.219-12.188 8.437l-1.406 2.344h77.344v-26.25c-1.406 0 2.812-.937-63.75 15.469zm135.937-34.219h5.625c.47 0 1.407-.469 1.407-1.406v-20.156c0-.47-.469-1.407-1.407-1.407h-5.625c-.468 0-1.406.47-1.406 1.407v20.156c.469.937.938 1.406 1.406 1.406zm-9.843 54.844V86.016c0-1.407-.938-2.344-2.344-2.344H157.03c-3.282 0-5.625 2.344-5.625 5.625v14.062c0 2.813 1.406 5.625 4.218 7.032l5.157 2.812c5.156 2.813 8.437 8.906 8.437 15v71.25c0 1.406.938 2.344 2.344 2.344h48.75c1.406.469 2.344-.469 2.344-1.875zm16.406 36.562c.469 0 .469 0 .937-.468l10.782-9.375h-30v9.843h18.281z"/></font>
</defs>
</svg>
