<svg xmlns="http://www.w3.org/2000/svg" width="32" height="32" viewBox="0 0 32 32" fill="none"><path d="M29.2937 24.4403C29.2937 24.9203 29.187 25.4137 28.9603 25.8937C28.7337 26.3737 28.4403 26.827 28.0537 27.2537C27.4003 27.9737 26.6803 28.4937 25.867 28.827C25.067 29.1603 24.2003 29.3337 23.267 29.3337C21.907 29.3337 20.4537 29.0137 18.9203 28.3603C17.387 27.707 15.8537 26.827 14.3337 25.7203C12.8003 24.6003 11.347 23.3603 9.96032 21.987C8.58699 20.6003 7.34699 19.147 6.24033 17.627C5.14699 16.107 4.26699 14.587 3.62699 13.0803C2.98699 11.5603 2.66699 10.107 2.66699 8.72033C2.66699 7.81366 2.82699 6.94699 3.14699 6.14699C3.46699 5.33366 3.97366 4.58699 4.68033 3.92033C5.53366 3.08033 6.46699 2.66699 7.45366 2.66699C7.82699 2.66699 8.20033 2.74699 8.53366 2.90699C8.88033 3.06699 9.18699 3.30699 9.42699 3.65366L12.5203 8.01366C12.7603 8.34699 12.9337 8.65366 13.0537 8.94699C13.1737 9.22699 13.2403 9.50699 13.2403 9.76033C13.2403 10.0803 13.147 10.4003 12.9603 10.707C12.787 11.0137 12.5337 11.3337 12.2137 11.6537L11.2003 12.707C11.0537 12.8537 10.987 13.027 10.987 13.2403C10.987 13.347 11.0003 13.4403 11.027 13.547C11.067 13.6537 11.107 13.7337 11.1337 13.8137C11.3737 14.2537 11.787 14.827 12.3737 15.5203C12.9737 16.2137 13.6137 16.9203 14.307 17.627C15.027 18.3337 15.7203 18.987 16.427 19.587C17.1203 20.1737 17.6937 20.5737 18.147 20.8137C18.2137 20.8403 18.2937 20.8803 18.387 20.9203C18.4937 20.9603 18.6003 20.9737 18.7203 20.9737C18.947 20.9737 19.1203 20.8937 19.267 20.747L20.2803 19.747C20.6137 19.4137 20.9337 19.1603 21.2403 19.0003C21.547 18.8137 21.8537 18.7203 22.187 18.7203C22.4403 18.7203 22.707 18.7737 23.0003 18.8937C23.2937 19.0137 23.6003 19.187 23.9337 19.4137L28.347 22.547C28.6937 22.787 28.9337 23.067 29.0803 23.4003C29.2137 23.7337 29.2937 24.067 29.2937 24.4403Z" stroke="white" stroke-width="1.9" stroke-miterlimit="10"></path></svg>