<svg xmlns="http://www.w3.org/2000/svg" width="36" height="36" viewBox="0 0 36 36" fill="none"><path d="M3 15.0005H33" stroke="white" stroke-width="1.8" stroke-miterlimit="10" stroke-linecap="round" stroke-linejoin="round"></path><path d="M17.3224 30.7501H9.65744C4.33244 30.7501 2.98242 29.4301 2.98242 24.1651V11.8351C2.98242 7.06514 4.09247 5.53514 8.27747 5.29514C8.69747 5.28014 9.16244 5.26514 9.65744 5.26514H26.3224C31.6474 5.26514 32.9974 6.58514 32.9974 11.8501V18.4651" stroke="white" stroke-width="1.8" stroke-linecap="round" stroke-linejoin="round"></path><path d="M9 24.0005H15" stroke="white" stroke-width="1.8" stroke-miterlimit="10" stroke-linecap="round" stroke-linejoin="round"></path><path d="M33 27.0005C33 28.1255 32.685 29.1905 32.13 30.0905C31.095 31.8305 29.19 33.0005 27 33.0005C24.81 33.0005 22.905 31.8305 21.87 30.0905C21.315 29.1905 21 28.1255 21 27.0005C21 23.6855 23.685 21.0005 27 21.0005C30.315 21.0005 33 23.6855 33 27.0005Z" stroke="white" stroke-width="1.8" stroke-miterlimit="10" stroke-linecap="round" stroke-linejoin="round"></path><path d="M24.6621 26.9998L26.1471 28.4848L29.3421 25.5298" stroke="white" stroke-width="1.8" stroke-linecap="round" stroke-linejoin="round"></path></svg>