<svg xmlns="http://www.w3.org/2000/svg" width="33" height="33" viewBox="0 0 33 33" fill="none"><path d="M11.9238 19.704C11.9238 21.4778 13.2851 22.9078 14.9763 22.9078H18.4276C19.8988 22.9078 21.0951 21.6565 21.0951 20.1165C21.0951 18.439 20.3663 17.8478 19.2801 17.4628L13.7388 15.5378C12.6526 15.1528 11.9238 14.5615 11.9238 12.884C11.9238 11.344 13.1201 10.0928 14.5913 10.0928H18.0426C19.7338 10.0928 21.0951 11.5228 21.0951 13.2965" stroke="white" stroke-width="1.8" stroke-linecap="round" stroke-linejoin="round"></path><path d="M16.5 8.25049V24.7505" stroke="white" stroke-width="1.8" stroke-linecap="round" stroke-linejoin="round"></path><path d="M16.5 30.2505C24.0939 30.2505 30.25 24.0944 30.25 16.5005C30.25 8.90657 24.0939 2.75049 16.5 2.75049C8.90608 2.75049 2.75 8.90657 2.75 16.5005C2.75 24.0944 8.90608 30.2505 16.5 30.2505Z" stroke="white" stroke-width="1.8" stroke-linecap="round" stroke-linejoin="round"></path></svg>