<svg xmlns="http://www.w3.org/2000/svg" width="36" height="36" viewBox="0 0 36 36" fill="none"><path d="M17.9996 21.0005H19.4996C21.1496 21.0005 22.4996 19.6505 22.4996 18.0005V3.00049H8.99963C6.74963 3.00049 4.78465 4.24547 3.76465 6.07547" stroke="white" stroke-width="1.7" stroke-linecap="round" stroke-linejoin="round"></path><path d="M3 25.5005C3 27.9905 5.01 30.0005 7.5 30.0005H9C9 28.3505 10.35 27.0005 12 27.0005C13.65 27.0005 15 28.3505 15 30.0005H21C21 28.3505 22.35 27.0005 24 27.0005C25.65 27.0005 27 28.3505 27 30.0005H28.5C30.99 30.0005 33 27.9905 33 25.5005V21.0005H28.5C27.675 21.0005 27 20.3255 27 19.5005V15.0005C27 14.1755 27.675 13.5005 28.5 13.5005H30.435L27.87 9.0155C27.33 8.0855 26.34 7.50049 25.26 7.50049H22.5V18.0005C22.5 19.6505 21.15 21.0005 19.5 21.0005H18" stroke="white" stroke-width="1.7" stroke-linecap="round" stroke-linejoin="round"></path><path d="M12 33.0005C13.6569 33.0005 15 31.6573 15 30.0005C15 28.3436 13.6569 27.0005 12 27.0005C10.3431 27.0005 9 28.3436 9 30.0005C9 31.6573 10.3431 33.0005 12 33.0005Z" stroke="white" stroke-width="1.7" stroke-linecap="round" stroke-linejoin="round"></path><path d="M24 33.0005C25.6569 33.0005 27 31.6573 27 30.0005C27 28.3436 25.6569 27.0005 24 27.0005C22.3431 27.0005 21 28.3436 21 30.0005C21 31.6573 22.3431 33.0005 24 33.0005Z" stroke="white" stroke-width="1.7" stroke-linecap="round" stroke-linejoin="round"></path><path d="M33 18.0005V21.0005H28.5C27.675 21.0005 27 20.3255 27 19.5005V15.0005C27 14.1755 27.675 13.5005 28.5 13.5005H30.435L33 18.0005Z" stroke="white" stroke-width="1.7" stroke-linecap="round" stroke-linejoin="round"></path><path d="M3 12.0005H12" stroke="white" stroke-width="1.7" stroke-linecap="round" stroke-linejoin="round"></path><path d="M3 16.5005H9" stroke="white" stroke-width="1.7" stroke-linecap="round" stroke-linejoin="round"></path><path d="M3 21.0005H6" stroke="white" stroke-width="1.7" stroke-linecap="round" stroke-linejoin="round"></path></svg>