<svg xmlns="http://www.w3.org/2000/svg" width="28" height="28" viewBox="0 0 28 28" fill="none"><circle cx="14" cy="14" r="14" fill="white"></circle><path d="M14 19.0306C13.6224 19.0306 13.3164 18.7247 13.3164 18.3471V9.65283C13.3164 9.27521 13.6224 8.96924 14 8.96924C14.3776 8.96924 14.6836 9.27521 14.6836 9.65283V18.3471C14.6836 18.7247 14.3776 19.0306 14 19.0306Z" fill="#222222"></path><path d="M18.3475 14.6836H9.65332C9.2757 14.6836 8.96973 14.3776 8.96973 14C8.96973 13.6224 9.2757 13.3164 9.65332 13.3164H18.3475C18.7252 13.3164 19.0311 13.6224 19.0311 14C19.0311 14.3776 18.7252 14.6836 18.3475 14.6836Z" fill="#222222"></path></svg>