<svg xmlns="http://www.w3.org/2000/svg" width="66" height="66" viewBox="0 0 66 66" fill="none"><path d="M13.8567 4.60151C13.7149 4.62729 13.1349 4.7433 12.5677 4.84643C5.09111 6.27729 -0.426077 13.3929 0.0379853 20.9984C0.476267 28.2558 5.56806 34.1339 12.6579 35.5906C14.9138 36.0417 18.2911 35.8999 20.0958 35.2554C20.4052 35.1523 20.6888 35.0878 20.7145 35.1136C20.7919 35.1781 20.4438 36.9956 20.0958 38.3234C18.6005 44.2273 16.3962 49.5124 12.5677 56.3187C10.4794 60.0441 10.054 60.8562 10.054 61.2171C10.054 61.8101 10.8017 61.4105 14.1145 59.0644C16.7958 57.1566 17.711 56.4218 19.2579 54.9265C22.7384 51.5363 25.3938 47.4628 27.4435 42.3195C30.0087 35.887 31.3493 28.7972 31.3622 21.5269C31.3751 18.7425 31.3364 18.214 31.0915 17.0667C29.4931 9.65463 23.0735 4.44682 15.6099 4.52416C14.7849 4.53705 13.9985 4.56283 13.8567 4.60151Z" fill="#EBEDF4"></path><path d="M48.4037 4.58881C48.2619 4.62748 47.6818 4.7435 47.1146 4.84662C44.124 5.4267 41.4427 6.88335 39.1869 9.13921C36.1833 12.1556 34.6494 15.8166 34.6365 20.0447C34.6236 22.133 34.7783 23.2287 35.3326 24.9818C37.3822 31.4142 43.3634 35.8228 50.0794 35.8615C51.7681 35.8615 53.1474 35.6939 54.4623 35.3201C55.4677 35.0365 55.4419 34.8818 54.9263 37.1892C53.5986 43.1189 51.1494 49.1775 47.3724 55.8806C44.0595 61.7587 43.9306 62.1841 45.9544 60.9337C47.2306 60.1474 50.9302 57.4791 52.0775 56.5123C53.3408 55.4681 55.558 53.1865 56.5892 51.8845C60.2501 47.2697 63.0861 40.8244 64.633 33.6443C65.7158 28.6169 66.2572 21.9525 65.8705 18.4978C65.097 11.7302 60.2115 6.34194 53.4955 4.83373C52.5544 4.62748 48.9709 4.44701 48.4037 4.58881Z" fill="#EBEDF4"></path></svg>