<svg width="549" height="599" viewBox="0 0 549 599" fill="none" xmlns="http://www.w3.org/2000/svg">
<mask id="mask0_18_1890" style="mask-type:alpha" maskUnits="userSpaceOnUse" x="0" y="0" width="549" height="599">
<rect width="549" height="599" fill="url(#paint0_linear_18_1890)"/>
</mask>
<g mask="url(#mask0_18_1890)">
<path d="M523.443 347.764C499.892 406.962 571.833 534.369 389.287 544.241C267.589 550.845 182.64 528.747 134.44 517.947C42.7927 488.994 -24.6851 311.697 47.1777 226.195C119.066 140.661 26.5939 17.4933 204.213 58.2067C326.684 86.2656 358.475 -69.1339 490 37.9997C522.217 64.2365 583.001 198.161 523.443 347.764Z" fill="url(#paint1_linear_18_1890)"/>
<path d="M522.978 347.579L523.443 347.764L522.978 347.579C517.046 362.491 517.136 381.661 517.716 402.063C517.766 403.802 517.819 405.551 517.872 407.306C518.444 426.193 519.043 445.945 515.497 464.405C511.626 484.558 502.82 503.134 483.651 517.299C464.466 531.476 434.845 541.277 389.26 543.742C276.47 549.862 195.272 531.314 145.629 519.975C141.75 519.089 138.063 518.247 134.569 517.464C88.9746 503.047 49.2834 451.671 29.9673 393.12C10.6505 334.566 11.7891 269.077 47.5605 226.517C65.6091 205.042 73.3326 181.213 77.5565 158.227C79.5618 147.315 80.7797 136.584 81.9367 126.389C81.9979 125.85 82.0589 125.312 82.1199 124.776C83.3345 114.094 84.5236 104.035 86.5345 94.9662C90.5538 76.8408 97.8297 62.7813 115.042 55.7132C132.321 48.6179 159.712 48.5193 204.101 58.6941L204.213 58.2067L204.101 58.6941C256.295 70.6519 292.126 49.394 325.998 29.2988C332.018 25.7274 337.976 22.1927 343.953 18.8877C363.778 7.92566 383.811 -0.524389 407.061 0.405437C430.308 1.33509 456.855 11.646 489.684 38.3874C497.659 44.8815 507.46 58.0984 516.745 76.6548C526.024 95.1981 534.767 119.033 540.648 146.723C552.409 202.102 552.716 272.882 522.978 347.579Z" stroke="white" stroke-opacity="0.13"/>
<g style="mix-blend-mode:multiply" opacity="0.11">
<path d="M432.91 336.547H163.367C153.865 336.547 146.162 344.25 146.162 353.752V546.828C146.162 556.33 153.865 564.033 163.367 564.033H432.91C442.412 564.033 450.115 556.33 450.115 546.828V353.752C450.115 344.25 442.412 336.547 432.91 336.547Z" fill="#161616"/>
<path d="M432.91 336.547H163.367C153.865 336.547 146.162 344.25 146.162 353.752V546.828C146.162 556.33 153.865 564.033 163.367 564.033H432.91C442.412 564.033 450.115 556.33 450.115 546.828V353.752C450.115 344.25 442.412 336.547 432.91 336.547Z" stroke="#1E223B" stroke-miterlimit="10"/>
</g>
<g style="mix-blend-mode:multiply" opacity="0.11">
<path d="M443.424 323.166H152.853C149.158 323.166 146.162 326.161 146.162 329.856C146.162 333.552 149.158 336.547 152.853 336.547H443.424C447.119 336.547 450.115 333.552 450.115 329.856C450.115 326.161 447.119 323.166 443.424 323.166Z" fill="#161616"/>
<path d="M443.424 323.166H152.853C149.158 323.166 146.162 326.161 146.162 329.856C146.162 333.552 149.158 336.547 152.853 336.547H443.424C447.119 336.547 450.115 333.552 450.115 329.856C450.115 326.161 447.119 323.166 443.424 323.166Z" stroke="#1E223B" stroke-miterlimit="10"/>
</g>
<path d="M423.352 328.9H153.809C144.307 328.9 136.604 336.603 136.604 346.105V539.182C136.604 548.684 144.307 556.387 153.809 556.387H423.352C432.854 556.387 440.557 548.684 440.557 539.182V346.105C440.557 336.603 432.854 328.9 423.352 328.9Z" fill="#2F4584"/>
<path d="M423.352 328.9H153.809C144.307 328.9 136.604 336.603 136.604 346.105V533.447C136.604 542.949 144.307 550.652 153.809 550.652H423.352C432.854 550.652 440.557 542.949 440.557 533.447V346.105C440.557 336.603 432.854 328.9 423.352 328.9Z" fill="white"/>
<g style="mix-blend-mode:multiply" opacity="0.11">
<path d="M333.982 537.107H332.548C331.027 537.107 329.569 537.711 328.493 538.786C327.418 539.862 326.813 541.321 326.813 542.842V549.697C326.813 550.457 326.511 551.187 325.973 551.724C325.436 552.262 324.706 552.564 323.946 552.564C323.185 552.564 322.456 552.262 321.918 551.724C321.38 551.187 321.078 550.457 321.078 549.697V542.842C321.078 541.321 320.474 539.862 319.399 538.786C318.323 537.711 316.864 537.107 315.343 537.107H313.91C312.389 537.107 310.93 537.711 309.855 538.786C308.779 539.862 308.175 541.321 308.175 542.842V549.697C308.175 550.457 307.873 551.187 307.335 551.724C306.797 552.262 306.068 552.564 305.307 552.564C304.547 552.564 303.817 552.262 303.28 551.724C302.742 551.187 302.44 550.457 302.44 549.697V542.842C302.44 541.321 301.836 539.862 300.76 538.786C299.685 537.711 298.226 537.107 296.705 537.107H295.271C293.75 537.107 292.291 537.711 291.216 538.786C290.14 539.862 289.536 541.321 289.536 542.842V549.697C289.536 550.457 289.234 551.187 288.696 551.724C288.159 552.262 287.429 552.564 286.669 552.564C285.908 552.564 285.179 552.262 284.641 551.724C284.103 551.187 283.801 550.457 283.801 549.697V506.685C283.801 505.164 283.197 503.705 282.122 502.629C281.046 501.554 279.587 500.95 278.066 500.95H276.633C275.112 500.95 273.653 501.554 272.577 502.629C271.502 503.705 270.898 505.164 270.898 506.685V581.653L259.898 562.6C259.522 561.947 259.02 561.375 258.423 560.916C257.825 560.457 257.143 560.12 256.415 559.925C255.687 559.729 254.928 559.679 254.181 559.778C253.433 559.876 252.713 560.121 252.06 560.498L250.818 561.215C250.165 561.591 249.592 562.092 249.133 562.69C248.674 563.287 248.337 563.97 248.142 564.698C247.946 565.425 247.896 566.185 247.995 566.932C248.093 567.679 248.338 568.4 248.715 569.052L271.697 608.858C272.54 610.998 274.008 612.836 275.91 614.131C277.812 615.427 280.059 616.12 282.36 616.122H284.271V639.686H280.497V663.453H278.649C277.005 663.453 275.428 664.107 274.266 665.269C273.103 666.432 272.45 668.009 272.45 669.653V698.578H338.169V669.653C338.169 668.009 337.516 666.432 336.354 665.269C335.191 664.107 333.614 663.453 331.97 663.453H330.113V639.686H326.335V616.122H328.247C331.289 616.122 334.207 614.913 336.358 612.762C338.509 610.611 339.717 607.694 339.717 604.652V542.842C339.717 541.321 339.113 539.862 338.037 538.786C336.962 537.711 335.503 537.107 333.982 537.107Z" fill="#161616"/>
<path d="M333.982 537.107H332.548C331.027 537.107 329.569 537.711 328.493 538.786C327.418 539.862 326.813 541.321 326.813 542.842V549.697C326.813 550.457 326.511 551.187 325.973 551.724C325.436 552.262 324.706 552.564 323.946 552.564C323.185 552.564 322.456 552.262 321.918 551.724C321.38 551.187 321.078 550.457 321.078 549.697V542.842C321.078 541.321 320.474 539.862 319.399 538.786C318.323 537.711 316.864 537.107 315.343 537.107H313.91C312.389 537.107 310.93 537.711 309.855 538.786C308.779 539.862 308.175 541.321 308.175 542.842V549.697C308.175 550.457 307.873 551.187 307.335 551.724C306.797 552.262 306.068 552.564 305.307 552.564C304.547 552.564 303.817 552.262 303.28 551.724C302.742 551.187 302.44 550.457 302.44 549.697V542.842C302.44 541.321 301.836 539.862 300.76 538.786C299.685 537.711 298.226 537.107 296.705 537.107H295.271C293.75 537.107 292.291 537.711 291.216 538.786C290.14 539.862 289.536 541.321 289.536 542.842V549.697C289.536 550.457 289.234 551.187 288.696 551.724C288.159 552.262 287.429 552.564 286.669 552.564C285.908 552.564 285.179 552.262 284.641 551.724C284.103 551.187 283.801 550.457 283.801 549.697V506.685C283.801 505.164 283.197 503.705 282.122 502.629C281.046 501.554 279.587 500.95 278.066 500.95H276.633C275.112 500.95 273.653 501.554 272.577 502.629C271.502 503.705 270.898 505.164 270.898 506.685V581.653L259.898 562.6C259.522 561.947 259.02 561.375 258.423 560.916C257.825 560.457 257.143 560.12 256.415 559.925C255.687 559.729 254.928 559.679 254.181 559.778C253.433 559.876 252.713 560.121 252.06 560.498L250.818 561.215C250.165 561.591 249.592 562.092 249.133 562.69C248.674 563.287 248.337 563.97 248.142 564.698C247.946 565.425 247.896 566.185 247.995 566.932C248.093 567.679 248.338 568.4 248.715 569.052L271.697 608.858C272.54 610.998 274.008 612.836 275.91 614.131C277.812 615.427 280.059 616.12 282.36 616.122H284.271V639.686H280.497V663.453H278.649C277.005 663.453 275.428 664.107 274.266 665.269C273.103 666.432 272.45 668.009 272.45 669.653V698.578H338.169V669.653C338.169 668.009 337.516 666.432 336.354 665.269C335.191 664.107 333.614 663.453 331.97 663.453H330.113V639.686H326.335V616.122H328.247C331.289 616.122 334.207 614.913 336.358 612.762C338.509 610.611 339.717 607.694 339.717 604.652V542.842C339.717 541.321 339.113 539.862 338.037 538.786C336.962 537.711 335.503 537.107 333.982 537.107Z" stroke="#1E223B" stroke-miterlimit="10"/>
</g>
<g style="mix-blend-mode:multiply" opacity="0.11">
<path d="M224.123 533.447C226.987 533.446 229.748 532.373 231.861 530.44C233.974 528.506 235.287 525.852 235.543 523L256.686 486.377C257.063 485.725 257.308 485.004 257.406 484.257C257.505 483.51 257.455 482.751 257.26 482.023C257.064 481.295 256.727 480.612 256.268 480.015C255.809 479.417 255.237 478.916 254.584 478.54L253.341 477.823C252.688 477.446 251.968 477.201 251.221 477.103C250.474 477.004 249.714 477.054 248.986 477.25C248.258 477.445 247.576 477.782 246.978 478.241C246.381 478.7 245.88 479.272 245.503 479.925L235.587 497.103V424.009C235.587 422.488 234.982 421.029 233.907 419.954C232.831 418.878 231.373 418.274 229.852 418.274H228.418C226.897 418.274 225.438 418.878 224.363 419.954C223.287 421.029 222.683 422.488 222.683 424.009V467.021C222.683 467.781 222.381 468.511 221.843 469.048C221.305 469.586 220.576 469.888 219.815 469.888C219.055 469.888 218.326 469.586 217.788 469.048C217.25 468.511 216.948 467.781 216.948 467.021V415.699C216.948 414.178 216.344 412.719 215.268 411.644C214.193 410.568 212.734 409.964 211.213 409.964H209.779C208.258 409.964 206.8 410.568 205.724 411.644C204.649 412.719 204.044 414.178 204.044 415.699V467.022C204.044 467.782 203.742 468.512 203.205 469.049C202.667 469.587 201.937 469.889 201.177 469.889C200.416 469.889 199.687 469.587 199.149 469.049C198.612 468.512 198.309 467.782 198.309 467.022V424.01C198.309 422.489 197.705 421.03 196.63 419.955C195.554 418.879 194.095 418.275 192.574 418.275H191.141C189.62 418.275 188.161 418.879 187.086 419.955C186.01 421.03 185.406 422.489 185.406 424.01V467.022C185.406 467.782 185.104 468.512 184.566 469.049C184.028 469.587 183.299 469.889 182.538 469.889C181.778 469.889 181.048 469.587 180.511 469.049C179.973 468.512 179.671 467.782 179.671 467.022V437.63C179.671 436.109 179.067 434.651 177.991 433.575C176.916 432.5 175.457 431.895 173.936 431.895H172.502C170.981 431.895 169.522 432.5 168.447 433.575C167.371 434.651 166.767 436.109 166.767 437.63V521.977C166.767 525.019 167.976 527.936 170.127 530.087C172.278 532.238 175.195 533.447 178.237 533.447H180.703V557.011H176.374V580.777H174.517C172.873 580.777 171.295 581.431 170.133 582.593C168.97 583.756 168.317 585.333 168.317 586.978V698.578H234.037V586.978C234.037 585.333 233.384 583.756 232.221 582.593C231.058 581.431 229.481 580.777 227.837 580.777H225.98V557.011H222.759V533.447H224.123Z" fill="#161616"/>
<path d="M224.123 533.447C226.987 533.446 229.748 532.373 231.861 530.44C233.974 528.506 235.287 525.852 235.543 523L256.686 486.377C257.063 485.725 257.308 485.004 257.406 484.257C257.505 483.51 257.455 482.751 257.26 482.023C257.064 481.295 256.727 480.612 256.268 480.015C255.809 479.417 255.237 478.916 254.584 478.54L253.341 477.823C252.688 477.446 251.968 477.201 251.221 477.103C250.474 477.004 249.714 477.054 248.986 477.25C248.258 477.445 247.576 477.782 246.978 478.241C246.381 478.7 245.88 479.272 245.503 479.925L235.587 497.103V424.009C235.587 422.488 234.982 421.029 233.907 419.954C232.831 418.878 231.373 418.274 229.852 418.274H228.418C226.897 418.274 225.438 418.878 224.363 419.954C223.287 421.029 222.683 422.488 222.683 424.009V467.021C222.683 467.781 222.381 468.511 221.843 469.048C221.305 469.586 220.576 469.888 219.815 469.888C219.055 469.888 218.326 469.586 217.788 469.048C217.25 468.511 216.948 467.781 216.948 467.021V415.699C216.948 414.178 216.344 412.719 215.268 411.644C214.193 410.568 212.734 409.964 211.213 409.964H209.779C208.258 409.964 206.8 410.568 205.724 411.644C204.649 412.719 204.044 414.178 204.044 415.699V467.022C204.044 467.782 203.742 468.512 203.205 469.049C202.667 469.587 201.937 469.889 201.177 469.889C200.416 469.889 199.687 469.587 199.149 469.049C198.612 468.512 198.309 467.782 198.309 467.022V424.01C198.309 422.489 197.705 421.03 196.63 419.955C195.554 418.879 194.095 418.275 192.574 418.275H191.141C189.62 418.275 188.161 418.879 187.086 419.955C186.01 421.03 185.406 422.489 185.406 424.01V467.022C185.406 467.782 185.104 468.512 184.566 469.049C184.028 469.587 183.299 469.889 182.538 469.889C181.778 469.889 181.048 469.587 180.511 469.049C179.973 468.512 179.671 467.782 179.671 467.022V437.63C179.671 436.109 179.067 434.651 177.991 433.575C176.916 432.5 175.457 431.895 173.936 431.895H172.502C170.981 431.895 169.522 432.5 168.447 433.575C167.371 434.651 166.767 436.109 166.767 437.63V521.977C166.767 525.019 167.976 527.936 170.127 530.087C172.278 532.238 175.195 533.447 178.237 533.447H180.703V557.011H176.374V580.777H174.517C172.873 580.777 171.295 581.431 170.133 582.593C168.97 583.756 168.317 585.333 168.317 586.978V698.578H234.037V586.978C234.037 585.333 233.384 583.756 232.221 582.593C231.058 581.431 229.481 580.777 227.837 580.777H225.98V557.011H222.759V533.447H224.123Z" stroke="#1E223B" stroke-miterlimit="10"/>
</g>
<path opacity="0.15" d="M422.874 345.627H154.287C152.175 345.627 150.464 347.339 150.464 349.451V457.459C150.464 459.571 152.175 461.282 154.287 461.282H422.874C424.985 461.282 426.697 459.571 426.697 457.459V349.451C426.697 347.339 424.985 345.627 422.874 345.627Z" fill="#1E223B" stroke="#1E223B" stroke-width="2" stroke-miterlimit="11"/>
<path d="M423.352 328.9H153.809C144.307 328.9 136.604 336.603 136.604 346.105V533.447C136.604 542.949 144.307 550.652 153.809 550.652H423.352C432.854 550.652 440.557 542.949 440.557 533.447V346.105C440.557 336.603 432.854 328.9 423.352 328.9Z" stroke="#1E223B" stroke-width="2" stroke-linecap="round" stroke-linejoin="round"/>
<path d="M423.352 328.9H153.809C144.307 328.9 136.604 336.603 136.604 346.105V539.182C136.604 548.684 144.307 556.387 153.809 556.387H423.352C432.854 556.387 440.557 548.684 440.557 539.182V346.105C440.557 336.603 432.854 328.9 423.352 328.9Z" stroke="#1E223B" stroke-width="2" stroke-linecap="round" stroke-linejoin="round"/>
<path d="M423.352 107.149H153.809C144.307 107.149 136.604 114.852 136.604 124.354V311.695C136.604 321.197 144.307 328.9 153.809 328.9H423.352C432.854 328.9 440.557 321.197 440.557 311.695V124.354C440.557 114.852 432.854 107.149 423.352 107.149Z" fill="#2F4584"/>
<path d="M423.352 107.149H153.809C144.307 107.149 136.604 114.852 136.604 124.354V311.695C136.604 321.197 144.307 328.9 153.809 328.9H423.352C432.854 328.9 440.557 321.197 440.557 311.695V124.354C440.557 114.852 432.854 107.149 423.352 107.149Z" stroke="#1E223B" stroke-width="2" stroke-linecap="round" stroke-linejoin="round"/>
<path d="M434.823 311.695V124.354C434.823 118.019 429.687 112.884 423.353 112.884L153.81 112.884C147.475 112.884 142.34 118.019 142.34 124.354V311.695C142.34 318.03 147.475 323.165 153.81 323.165H423.353C429.687 323.165 434.823 318.03 434.823 311.695Z" fill="white"/>
<path d="M411.883 300.226V135.824L165.28 135.824V300.226H411.883Z" fill="#447FD3" stroke="#1E223B" stroke-miterlimit="10"/>
<path d="M434.823 311.695V124.354C434.823 118.019 429.687 112.884 423.353 112.884L153.81 112.884C147.475 112.884 142.34 118.019 142.34 124.354V311.695C142.34 318.03 147.475 323.165 153.81 323.165H423.353C429.687 323.165 434.823 318.03 434.823 311.695Z" stroke="#1E223B" stroke-width="2" stroke-linecap="round" stroke-linejoin="round"/>
<path d="M411.883 300.226V135.824L165.28 135.824V300.226H411.883Z" stroke="#1E223B" stroke-width="2" stroke-linecap="round" stroke-linejoin="round"/>
<g opacity="0.1">
<path d="M325.619 470.362H251.542C249.299 470.362 247.48 472.181 247.48 474.425V523.65C247.48 525.893 249.299 527.712 251.542 527.712H325.619C327.862 527.712 329.681 525.893 329.681 523.65V474.425C329.681 472.181 327.862 470.362 325.619 470.362Z" fill="#1E223B"/>
</g>
<path d="M325.619 470.362H251.542C249.299 470.362 247.48 472.181 247.48 474.425V523.65C247.48 525.893 249.299 527.712 251.542 527.712H325.619C327.862 527.712 329.681 525.893 329.681 523.65V474.425C329.681 472.181 327.862 470.362 325.619 470.362Z" stroke="#1E223B" stroke-width="2" stroke-linecap="round" stroke-linejoin="round"/>
<path d="M325.38 548.74H252.737V556.387H325.38V548.74Z" fill="#263C72"/>
<path d="M325.38 548.74H252.737V556.387H325.38V548.74Z" stroke="#1E223B" stroke-width="2" stroke-linecap="round" stroke-linejoin="round"/>
<g style="mix-blend-mode:multiply" opacity="0.11">
<path d="M385.119 84.209H205.424C202.256 84.209 199.689 86.7766 199.689 89.9439V292.579C199.689 295.746 202.256 298.314 205.424 298.314H385.119C388.286 298.314 390.854 295.746 390.854 292.579V89.9439C390.854 86.7766 388.286 84.209 385.119 84.209Z" fill="#161616"/>
<path d="M385.119 84.209H205.424C202.256 84.209 199.689 86.7766 199.689 89.9439V292.579C199.689 295.746 202.256 298.314 205.424 298.314H385.119C388.286 298.314 390.854 295.746 390.854 292.579V89.9439C390.854 86.7766 388.286 84.209 385.119 84.209Z" stroke="#1E223B" stroke-miterlimit="10"/>
</g>
<path d="M379.862 80.3857H200.167C196.999 80.3857 194.432 82.9534 194.432 86.1207V288.756C194.432 291.923 196.999 294.491 200.167 294.491H379.862C383.029 294.491 385.597 291.923 385.597 288.756V86.1207C385.597 82.9534 383.029 80.3857 379.862 80.3857Z" fill="#6C6CFE"/>
<rect x="195" y="106" width="190" height="65" fill="white"/>
<rect x="205" y="131" width="73" height="30" rx="5" fill="#EADEFC"/>
<rect x="286" y="139" width="50.8571" height="2" fill="#EADEFC"/>
<rect x="286" y="145" width="89" height="2" fill="#EADEFC"/>
<rect x="286" y="151" width="81.3714" height="2" fill="#EADEFC"/>
<rect x="205" y="116" width="29" height="5" rx="2.5" fill="#EADEFC"/>
<rect x="316" y="117" width="13" height="3" rx="1.5" fill="#EADEFC"/>
<rect x="339" y="117" width="13" height="3" rx="1.5" fill="#EADEFC"/>
<rect x="362" y="117" width="13" height="3" rx="1.5" fill="#EADEFC"/>
<rect x="293" y="117" width="13" height="3" rx="1.5" fill="#EADEFC"/>
<path d="M194.432 261.993H385.597V288.756C385.597 290.277 384.992 291.735 383.917 292.811C382.841 293.886 381.383 294.491 379.862 294.491H200.167C198.646 294.491 197.187 293.886 196.111 292.811C195.036 291.735 194.432 290.277 194.432 288.756V261.993Z" fill="#6C6CFE"/>
<path d="M379.862 80.3857H200.167C196.999 80.3857 194.432 82.9534 194.432 86.1207V288.756C194.432 291.923 196.999 294.491 200.167 294.491H379.862C383.029 294.491 385.597 291.923 385.597 288.756V86.1207C385.597 82.9534 383.029 80.3857 379.862 80.3857Z" stroke="#1E223B" stroke-width="2" stroke-linecap="round" stroke-linejoin="round"/>
<path d="M199.619 80.3857H380.409C381.091 80.3857 381.765 80.52 382.395 80.7807C383.024 81.0414 383.596 81.4236 384.078 81.9054C384.559 82.3872 384.941 82.9591 385.202 83.5886C385.463 84.218 385.597 84.8927 385.597 85.574V97.5916H194.432V85.574C194.432 84.8927 194.566 84.218 194.826 83.5886C195.087 82.9591 195.469 82.3872 195.951 81.9054C196.432 81.4236 197.004 81.0414 197.634 80.7807C198.263 80.52 198.938 80.3857 199.619 80.3857V80.3857Z" fill="#363D56"/>
<path d="M199.619 80.3857H380.409C381.091 80.3857 381.765 80.52 382.395 80.7807C383.024 81.0414 383.596 81.4236 384.078 81.9054C384.559 82.3872 384.941 82.9591 385.202 83.5886C385.463 84.218 385.597 84.8927 385.597 85.574V97.5916H194.432V85.574C194.432 84.8927 194.566 84.218 194.826 83.5886C195.087 82.9591 195.469 82.3872 195.951 81.9054C196.432 81.4236 197.004 81.0414 197.634 80.7807C198.263 80.52 198.938 80.3857 199.619 80.3857V80.3857Z" stroke="#1E223B" stroke-width="2" stroke-linecap="round" stroke-linejoin="round"/>
<path d="M385.597 97.5908H194.432V105.237H385.597V97.5908Z" fill="#424960"/>
<path d="M385.597 97.5908H194.432V105.237H385.597V97.5908Z" stroke="#1E223B" stroke-width="2" stroke-linecap="round" stroke-linejoin="round"/>
<path d="M205.105 91.856C206.689 91.856 207.973 90.5722 207.973 88.9886C207.973 87.4049 206.689 86.1211 205.105 86.1211C203.522 86.1211 202.238 87.4049 202.238 88.9886C202.238 90.5722 203.522 91.856 205.105 91.856Z" fill="#F73E39"/>
<path d="M205.105 91.856C206.689 91.856 207.973 90.5722 207.973 88.9886C207.973 87.4049 206.689 86.1211 205.105 86.1211C203.522 86.1211 202.238 87.4049 202.238 88.9886C202.238 90.5722 203.522 91.856 205.105 91.856Z" stroke="#1E223B" stroke-width="2" stroke-linecap="round" stroke-linejoin="round"/>
<path d="M216.831 91.856C218.415 91.856 219.699 90.5722 219.699 88.9886C219.699 87.4049 218.415 86.1211 216.831 86.1211C215.248 86.1211 213.964 87.4049 213.964 88.9886C213.964 90.5722 215.248 91.856 216.831 91.856Z" fill="#383838"/>
<path d="M216.831 91.856C218.415 91.856 219.699 90.5722 219.699 88.9886C219.699 87.4049 218.415 86.1211 216.831 86.1211C215.248 86.1211 213.964 87.4049 213.964 88.9886C213.964 90.5722 215.248 91.856 216.831 91.856Z" stroke="#1E223B" stroke-width="2" stroke-linecap="round" stroke-linejoin="round"/>
<path d="M227.562 91.856C229.146 91.856 230.43 90.5722 230.43 88.9886C230.43 87.4049 229.146 86.1211 227.562 86.1211C225.979 86.1211 224.695 87.4049 224.695 88.9886C224.695 90.5722 225.979 91.856 227.562 91.856Z" fill="#C6C6C6"/>
<path d="M227.562 91.856C229.146 91.856 230.43 90.5722 230.43 88.9886C230.43 87.4049 229.146 86.1211 227.562 86.1211C225.979 86.1211 224.695 87.4049 224.695 88.9886C224.695 90.5722 225.979 91.856 227.562 91.856Z" stroke="#1E223B" stroke-width="2" stroke-linecap="round" stroke-linejoin="round"/>
<path opacity="0.28" d="M302.918 86.1211H243.657C242.073 86.1211 240.789 87.4049 240.789 88.9886C240.789 90.5722 242.073 91.856 243.657 91.856H302.918C304.501 91.856 305.785 90.5722 305.785 88.9886C305.785 87.4049 304.501 86.1211 302.918 86.1211Z" fill="#8289A3"/>
<path d="M419.289 319.342H157.871C156.684 319.342 155.721 320.305 155.721 321.493V329.617C155.721 330.805 156.684 331.768 157.871 331.768H419.289C420.477 331.768 421.44 330.805 421.44 329.617V321.493C421.44 320.305 420.477 319.342 419.289 319.342Z" fill="#263C72"/>
<path d="M421.44 319.342H155.721V331.768H421.44V319.342Z" stroke="#1E223B" stroke-width="2" stroke-linecap="round" stroke-linejoin="round"/>
<path d="M418.573 349.929H403.279C401.696 349.929 400.412 351.213 400.412 352.796V358.531C400.412 360.115 401.696 361.399 403.279 361.399H418.573C420.156 361.399 421.44 360.115 421.44 358.531V352.796C421.44 351.213 420.156 349.929 418.573 349.929Z" fill="#363D56"/>
<path d="M387.986 349.929H372.693C371.109 349.929 369.825 351.213 369.825 352.796V358.531C369.825 360.115 371.109 361.399 372.693 361.399H387.986C389.57 361.399 390.854 360.115 390.854 358.531V352.796C390.854 351.213 389.57 349.929 387.986 349.929Z" fill="#363D56"/>
<path d="M357.4 349.929H342.107C340.523 349.929 339.239 351.213 339.239 352.796V358.531C339.239 360.115 340.523 361.399 342.107 361.399H357.4C358.983 361.399 360.267 360.115 360.267 358.531V352.796C360.267 351.213 358.983 349.929 357.4 349.929Z" fill="#363D56"/>
<path d="M326.813 349.929H311.52C309.937 349.929 308.653 351.213 308.653 352.796V358.531C308.653 360.115 309.937 361.399 311.52 361.399H326.813C328.397 361.399 329.681 360.115 329.681 358.531V352.796C329.681 351.213 328.397 349.929 326.813 349.929Z" fill="#363D56"/>
<path d="M296.227 349.929H280.934C279.35 349.929 278.066 351.213 278.066 352.796V358.531C278.066 360.115 279.35 361.399 280.934 361.399H296.227C297.811 361.399 299.094 360.115 299.094 358.531V352.796C299.094 351.213 297.811 349.929 296.227 349.929Z" fill="#363D56"/>
<path d="M265.641 349.929H250.347C248.764 349.929 247.48 351.213 247.48 352.796V358.531C247.48 360.115 248.764 361.399 250.347 361.399H265.641C267.224 361.399 268.508 360.115 268.508 358.531V352.796C268.508 351.213 267.224 349.929 265.641 349.929Z" fill="#363D56"/>
<path d="M235.054 349.929H219.761C218.177 349.929 216.894 351.213 216.894 352.796V358.531C216.894 360.115 218.177 361.399 219.761 361.399H235.054C236.638 361.399 237.922 360.115 237.922 358.531V352.796C237.922 351.213 236.638 349.929 235.054 349.929Z" fill="#363D56"/>
<path d="M204.468 349.929H189.175C187.591 349.929 186.307 351.213 186.307 352.796V358.531C186.307 360.115 187.591 361.399 189.175 361.399H204.468C206.051 361.399 207.335 360.115 207.335 358.531V352.796C207.335 351.213 206.051 349.929 204.468 349.929Z" fill="#363D56"/>
<path d="M173.881 349.929H158.588C157.005 349.929 155.721 351.213 155.721 352.796V358.531C155.721 360.115 157.005 361.399 158.588 361.399H173.881C175.465 361.399 176.749 360.115 176.749 358.531V352.796C176.749 351.213 175.465 349.929 173.881 349.929Z" fill="#363D56"/>
<path d="M357.4 374.28H342.107C340.523 374.28 339.239 375.564 339.239 377.148V392.441C339.239 394.025 340.523 395.308 342.107 395.308H357.4C358.983 395.308 360.267 394.025 360.267 392.441V377.148C360.267 375.564 358.983 374.28 357.4 374.28Z" fill="#363D56"/>
<path d="M326.813 374.28H311.52C309.937 374.28 308.653 375.564 308.653 377.148V392.441C308.653 394.025 309.937 395.308 311.52 395.308H326.813C328.397 395.308 329.681 394.025 329.681 392.441V377.148C329.681 375.564 328.397 374.28 326.813 374.28Z" fill="#363D56"/>
<path d="M296.227 374.28H280.934C279.35 374.28 278.066 375.564 278.066 377.148V392.441C278.066 394.025 279.35 395.308 280.934 395.308H296.227C297.811 395.308 299.094 394.025 299.094 392.441V377.148C299.094 375.564 297.811 374.28 296.227 374.28Z" fill="#363D56"/>
<path d="M265.641 374.28H250.347C248.764 374.28 247.48 375.564 247.48 377.148V392.441C247.48 394.025 248.764 395.308 250.347 395.308H265.641C267.224 395.308 268.508 394.025 268.508 392.441V377.148C268.508 375.564 267.224 374.28 265.641 374.28Z" fill="#363D56"/>
<path d="M235.054 374.28H219.761C218.177 374.28 216.894 375.564 216.894 377.148V392.441C216.894 394.025 218.177 395.308 219.761 395.308H235.054C236.638 395.308 237.922 394.025 237.922 392.441V377.148C237.922 375.564 236.638 374.28 235.054 374.28Z" fill="#363D56"/>
<path d="M204.468 374.28H189.175C187.591 374.28 186.307 375.564 186.307 377.148V392.441C186.307 394.025 187.591 395.308 189.175 395.308H204.468C206.051 395.308 207.335 394.025 207.335 392.441V377.148C207.335 375.564 206.051 374.28 204.468 374.28Z" fill="#363D56"/>
<path d="M173.881 374.28H158.588C157.005 374.28 155.721 375.564 155.721 377.148V392.441C155.721 394.025 157.005 395.308 158.588 395.308H173.881C175.465 395.308 176.749 394.025 176.749 392.441V377.148C176.749 375.564 175.465 374.28 173.881 374.28Z" fill="#363D56"/>
<path d="M418.573 374.28H403.279C401.696 374.28 400.412 375.564 400.412 377.148V422.561C400.412 424.145 401.696 425.428 403.279 425.428H418.573C420.156 425.428 421.44 424.145 421.44 422.561V377.148C421.44 375.564 420.156 374.28 418.573 374.28Z" fill="#363D56"/>
<path d="M387.986 374.28H372.693C371.932 374.28 371.203 374.582 370.665 375.12C370.128 375.658 369.825 376.387 369.825 377.148V401.533C369.825 402.293 369.523 403.023 368.986 403.56C368.448 404.098 367.718 404.4 366.958 404.4H342.107C341.346 404.4 340.617 404.702 340.079 405.24C339.541 405.778 339.239 406.507 339.239 407.268V422.561C339.239 423.321 339.541 424.051 340.079 424.588C340.617 425.126 341.346 425.428 342.107 425.428H387.986C388.747 425.428 389.476 425.126 390.014 424.588C390.552 424.051 390.854 423.321 390.854 422.561V377.148C390.854 376.387 390.552 375.658 390.014 375.12C389.476 374.582 388.747 374.28 387.986 374.28Z" fill="#363D56"/>
<path d="M326.813 404.4H311.52C309.937 404.4 308.653 405.684 308.653 407.268V422.561C308.653 424.145 309.937 425.429 311.52 425.429H326.813C328.397 425.429 329.681 424.145 329.681 422.561V407.268C329.681 405.684 328.397 404.4 326.813 404.4Z" fill="#363D56"/>
<path d="M296.227 404.4H280.934C279.35 404.4 278.066 405.684 278.066 407.268V422.561C278.066 424.145 279.35 425.429 280.934 425.429H296.227C297.811 425.429 299.094 424.145 299.094 422.561V407.268C299.094 405.684 297.811 404.4 296.227 404.4Z" fill="#363D56"/>
<path d="M265.641 404.4H250.347C248.764 404.4 247.48 405.684 247.48 407.268V422.561C247.48 424.145 248.764 425.429 250.347 425.429H265.641C267.224 425.429 268.508 424.145 268.508 422.561V407.268C268.508 405.684 267.224 404.4 265.641 404.4Z" fill="#363D56"/>
<path d="M235.054 404.4H219.761C218.177 404.4 216.894 405.684 216.894 407.268V422.561C216.894 424.145 218.177 425.429 219.761 425.429H235.054C236.638 425.429 237.922 424.145 237.922 422.561V407.268C237.922 405.684 236.638 404.4 235.054 404.4Z" fill="#363D56"/>
<path d="M204.468 404.4H158.588C157.005 404.4 155.721 405.684 155.721 407.268V422.561C155.721 424.145 157.005 425.429 158.588 425.429H204.468C206.051 425.429 207.335 424.145 207.335 422.561V407.268C207.335 405.684 206.051 404.4 204.468 404.4Z" fill="#363D56"/>
<path d="M418.573 434.519H403.279C401.696 434.519 400.412 435.803 400.412 437.387V452.68C400.412 454.263 401.696 455.547 403.279 455.547H418.573C420.156 455.547 421.44 454.263 421.44 452.68V437.387C421.44 435.803 420.156 434.519 418.573 434.519Z" fill="#363D56"/>
<path d="M387.986 434.519H372.693C371.109 434.519 369.825 435.803 369.825 437.387V452.68C369.825 454.263 371.109 455.547 372.693 455.547H387.986C389.57 455.547 390.854 454.263 390.854 452.68V437.387C390.854 435.803 389.57 434.519 387.986 434.519Z" fill="#363D56"/>
<path d="M357.4 434.519H342.107C340.523 434.519 339.239 435.803 339.239 437.387V452.68C339.239 454.263 340.523 455.547 342.107 455.547H357.4C358.983 455.547 360.267 454.263 360.267 452.68V437.387C360.267 435.803 358.983 434.519 357.4 434.519Z" fill="#363D56"/>
<path d="M326.813 434.519H250.347C248.764 434.519 247.48 435.803 247.48 437.387V452.68C247.48 454.263 248.764 455.547 250.347 455.547H326.813C328.397 455.547 329.681 454.263 329.681 452.68V437.387C329.681 435.803 328.397 434.519 326.813 434.519Z" fill="#363D56"/>
<path d="M235.054 434.519H219.761C218.177 434.519 216.894 435.803 216.894 437.387V452.68C216.894 454.263 218.177 455.547 219.761 455.547H235.054C236.638 455.547 237.922 454.263 237.922 452.68V437.387C237.922 435.803 236.638 434.519 235.054 434.519Z" fill="#363D56"/>
<path d="M204.468 434.519H189.175C187.591 434.519 186.307 435.803 186.307 437.387V452.68C186.307 454.263 187.591 455.547 189.175 455.547H204.468C206.051 455.547 207.335 454.263 207.335 452.68V437.387C207.335 435.803 206.051 434.519 204.468 434.519Z" fill="#363D56"/>
<path d="M173.881 434.519H158.588C157.005 434.519 155.721 435.803 155.721 437.387V452.68C155.721 454.263 157.005 455.547 158.588 455.547H173.881C175.465 455.547 176.749 454.263 176.749 452.68V437.387C176.749 435.803 175.465 434.519 173.881 434.519Z" fill="#363D56"/>
<path d="M418.573 349.929H403.279C401.696 349.929 400.412 351.213 400.412 352.796V358.531C400.412 360.115 401.696 361.399 403.279 361.399H418.573C420.156 361.399 421.44 360.115 421.44 358.531V352.796C421.44 351.213 420.156 349.929 418.573 349.929Z" stroke="#1E223B" stroke-width="2" stroke-linecap="round" stroke-linejoin="round"/>
<path d="M387.986 349.929H372.693C371.109 349.929 369.825 351.213 369.825 352.796V358.531C369.825 360.115 371.109 361.399 372.693 361.399H387.986C389.57 361.399 390.854 360.115 390.854 358.531V352.796C390.854 351.213 389.57 349.929 387.986 349.929Z" stroke="#1E223B" stroke-width="2" stroke-linecap="round" stroke-linejoin="round"/>
<path d="M357.4 349.929H342.107C340.523 349.929 339.239 351.213 339.239 352.796V358.531C339.239 360.115 340.523 361.399 342.107 361.399H357.4C358.983 361.399 360.267 360.115 360.267 358.531V352.796C360.267 351.213 358.983 349.929 357.4 349.929Z" stroke="#1E223B" stroke-width="2" stroke-linecap="round" stroke-linejoin="round"/>
<path d="M326.813 349.929H311.52C309.937 349.929 308.653 351.213 308.653 352.796V358.531C308.653 360.115 309.937 361.399 311.52 361.399H326.813C328.397 361.399 329.681 360.115 329.681 358.531V352.796C329.681 351.213 328.397 349.929 326.813 349.929Z" stroke="#1E223B" stroke-width="2" stroke-linecap="round" stroke-linejoin="round"/>
<path d="M296.227 349.929H280.934C279.35 349.929 278.066 351.213 278.066 352.796V358.531C278.066 360.115 279.35 361.399 280.934 361.399H296.227C297.811 361.399 299.094 360.115 299.094 358.531V352.796C299.094 351.213 297.811 349.929 296.227 349.929Z" stroke="#1E223B" stroke-width="2" stroke-linecap="round" stroke-linejoin="round"/>
<path d="M265.641 349.929H250.347C248.764 349.929 247.48 351.213 247.48 352.796V358.531C247.48 360.115 248.764 361.399 250.347 361.399H265.641C267.224 361.399 268.508 360.115 268.508 358.531V352.796C268.508 351.213 267.224 349.929 265.641 349.929Z" stroke="#1E223B" stroke-width="2" stroke-linecap="round" stroke-linejoin="round"/>
<path d="M235.054 349.929H219.761C218.177 349.929 216.894 351.213 216.894 352.796V358.531C216.894 360.115 218.177 361.399 219.761 361.399H235.054C236.638 361.399 237.922 360.115 237.922 358.531V352.796C237.922 351.213 236.638 349.929 235.054 349.929Z" stroke="#1E223B" stroke-width="2" stroke-linecap="round" stroke-linejoin="round"/>
<path d="M204.468 349.929H189.175C187.591 349.929 186.307 351.213 186.307 352.796V358.531C186.307 360.115 187.591 361.399 189.175 361.399H204.468C206.051 361.399 207.335 360.115 207.335 358.531V352.796C207.335 351.213 206.051 349.929 204.468 349.929Z" stroke="#1E223B" stroke-width="2" stroke-linecap="round" stroke-linejoin="round"/>
<path d="M173.881 349.929H158.588C157.005 349.929 155.721 351.213 155.721 352.796V358.531C155.721 360.115 157.005 361.399 158.588 361.399H173.881C175.465 361.399 176.749 360.115 176.749 358.531V352.796C176.749 351.213 175.465 349.929 173.881 349.929Z" stroke="#1E223B" stroke-width="2" stroke-linecap="round" stroke-linejoin="round"/>
<path d="M357.4 374.28H342.107C340.523 374.28 339.239 375.564 339.239 377.148V392.441C339.239 394.025 340.523 395.308 342.107 395.308H357.4C358.983 395.308 360.267 394.025 360.267 392.441V377.148C360.267 375.564 358.983 374.28 357.4 374.28Z" stroke="#1E223B" stroke-width="2" stroke-linecap="round" stroke-linejoin="round"/>
<path d="M326.813 374.28H311.52C309.937 374.28 308.653 375.564 308.653 377.148V392.441C308.653 394.025 309.937 395.308 311.52 395.308H326.813C328.397 395.308 329.681 394.025 329.681 392.441V377.148C329.681 375.564 328.397 374.28 326.813 374.28Z" stroke="#1E223B" stroke-width="2" stroke-linecap="round" stroke-linejoin="round"/>
<path d="M296.227 374.28H280.934C279.35 374.28 278.066 375.564 278.066 377.148V392.441C278.066 394.025 279.35 395.308 280.934 395.308H296.227C297.811 395.308 299.094 394.025 299.094 392.441V377.148C299.094 375.564 297.811 374.28 296.227 374.28Z" stroke="#1E223B" stroke-width="2" stroke-linecap="round" stroke-linejoin="round"/>
<path d="M265.641 374.28H250.347C248.764 374.28 247.48 375.564 247.48 377.148V392.441C247.48 394.025 248.764 395.308 250.347 395.308H265.641C267.224 395.308 268.508 394.025 268.508 392.441V377.148C268.508 375.564 267.224 374.28 265.641 374.28Z" stroke="#1E223B" stroke-width="2" stroke-linecap="round" stroke-linejoin="round"/>
<path d="M235.054 374.28H219.761C218.177 374.28 216.894 375.564 216.894 377.148V392.441C216.894 394.025 218.177 395.308 219.761 395.308H235.054C236.638 395.308 237.922 394.025 237.922 392.441V377.148C237.922 375.564 236.638 374.28 235.054 374.28Z" stroke="#1E223B" stroke-width="2" stroke-linecap="round" stroke-linejoin="round"/>
<path d="M204.468 374.28H189.175C187.591 374.28 186.307 375.564 186.307 377.148V392.441C186.307 394.025 187.591 395.308 189.175 395.308H204.468C206.051 395.308 207.335 394.025 207.335 392.441V377.148C207.335 375.564 206.051 374.28 204.468 374.28Z" stroke="#1E223B" stroke-width="2" stroke-linecap="round" stroke-linejoin="round"/>
<path d="M173.881 374.28H158.588C157.005 374.28 155.721 375.564 155.721 377.148V392.441C155.721 394.025 157.005 395.308 158.588 395.308H173.881C175.465 395.308 176.749 394.025 176.749 392.441V377.148C176.749 375.564 175.465 374.28 173.881 374.28Z" stroke="#1E223B" stroke-width="2" stroke-linecap="round" stroke-linejoin="round"/>
<path d="M418.573 374.28H403.279C401.696 374.28 400.412 375.564 400.412 377.148V422.561C400.412 424.145 401.696 425.428 403.279 425.428H418.573C420.156 425.428 421.44 424.145 421.44 422.561V377.148C421.44 375.564 420.156 374.28 418.573 374.28Z" stroke="#1E223B" stroke-width="2" stroke-linecap="round" stroke-linejoin="round"/>
<path d="M387.986 374.28H372.693C371.932 374.28 371.203 374.582 370.665 375.12C370.128 375.658 369.825 376.387 369.825 377.148V401.533C369.825 402.293 369.523 403.023 368.986 403.56C368.448 404.098 367.718 404.4 366.958 404.4H342.107C341.346 404.4 340.617 404.702 340.079 405.24C339.541 405.778 339.239 406.507 339.239 407.268V422.561C339.239 423.321 339.541 424.051 340.079 424.588C340.617 425.126 341.346 425.428 342.107 425.428H387.986C388.747 425.428 389.476 425.126 390.014 424.588C390.552 424.051 390.854 423.321 390.854 422.561V377.148C390.854 376.387 390.552 375.658 390.014 375.12C389.476 374.582 388.747 374.28 387.986 374.28Z" stroke="#1E223B" stroke-width="2" stroke-linecap="round" stroke-linejoin="round"/>
<path d="M326.813 404.4H311.52C309.937 404.4 308.653 405.684 308.653 407.268V422.561C308.653 424.145 309.937 425.429 311.52 425.429H326.813C328.397 425.429 329.681 424.145 329.681 422.561V407.268C329.681 405.684 328.397 404.4 326.813 404.4Z" stroke="#1E223B" stroke-width="2" stroke-linecap="round" stroke-linejoin="round"/>
<path d="M296.227 404.4H280.934C279.35 404.4 278.066 405.684 278.066 407.268V422.561C278.066 424.145 279.35 425.429 280.934 425.429H296.227C297.811 425.429 299.094 424.145 299.094 422.561V407.268C299.094 405.684 297.811 404.4 296.227 404.4Z" stroke="#1E223B" stroke-width="2" stroke-linecap="round" stroke-linejoin="round"/>
<path d="M265.641 404.4H250.347C248.764 404.4 247.48 405.684 247.48 407.268V422.561C247.48 424.145 248.764 425.429 250.347 425.429H265.641C267.224 425.429 268.508 424.145 268.508 422.561V407.268C268.508 405.684 267.224 404.4 265.641 404.4Z" stroke="#1E223B" stroke-width="2" stroke-linecap="round" stroke-linejoin="round"/>
<path d="M235.054 404.4H219.761C218.177 404.4 216.894 405.684 216.894 407.268V422.561C216.894 424.145 218.177 425.429 219.761 425.429H235.054C236.638 425.429 237.922 424.145 237.922 422.561V407.268C237.922 405.684 236.638 404.4 235.054 404.4Z" stroke="#1E223B" stroke-width="2" stroke-linecap="round" stroke-linejoin="round"/>
<path d="M204.468 404.4H158.588C157.005 404.4 155.721 405.684 155.721 407.268V422.561C155.721 424.145 157.005 425.429 158.588 425.429H204.468C206.051 425.429 207.335 424.145 207.335 422.561V407.268C207.335 405.684 206.051 404.4 204.468 404.4Z" stroke="#1E223B" stroke-width="2" stroke-linecap="round" stroke-linejoin="round"/>
<path d="M418.573 434.519H403.279C401.696 434.519 400.412 435.803 400.412 437.387V452.68C400.412 454.263 401.696 455.547 403.279 455.547H418.573C420.156 455.547 421.44 454.263 421.44 452.68V437.387C421.44 435.803 420.156 434.519 418.573 434.519Z" stroke="#1E223B" stroke-width="2" stroke-linecap="round" stroke-linejoin="round"/>
<path d="M387.986 434.519H372.693C371.109 434.519 369.825 435.803 369.825 437.387V452.68C369.825 454.263 371.109 455.547 372.693 455.547H387.986C389.57 455.547 390.854 454.263 390.854 452.68V437.387C390.854 435.803 389.57 434.519 387.986 434.519Z" stroke="#1E223B" stroke-width="2" stroke-linecap="round" stroke-linejoin="round"/>
<path d="M357.4 434.519H342.107C340.523 434.519 339.239 435.803 339.239 437.387V452.68C339.239 454.263 340.523 455.547 342.107 455.547H357.4C358.983 455.547 360.267 454.263 360.267 452.68V437.387C360.267 435.803 358.983 434.519 357.4 434.519Z" stroke="#1E223B" stroke-width="2" stroke-linecap="round" stroke-linejoin="round"/>
<path d="M326.813 434.519H250.347C248.764 434.519 247.48 435.803 247.48 437.387V452.68C247.48 454.263 248.764 455.547 250.347 455.547H326.813C328.397 455.547 329.681 454.263 329.681 452.68V437.387C329.681 435.803 328.397 434.519 326.813 434.519Z" stroke="#1E223B" stroke-width="2" stroke-linecap="round" stroke-linejoin="round"/>
<path d="M235.054 434.519H219.761C218.177 434.519 216.894 435.803 216.894 437.387V452.68C216.894 454.263 218.177 455.547 219.761 455.547H235.054C236.638 455.547 237.922 454.263 237.922 452.68V437.387C237.922 435.803 236.638 434.519 235.054 434.519Z" stroke="#1E223B" stroke-width="2" stroke-linecap="round" stroke-linejoin="round"/>
<path d="M204.468 434.519H189.175C187.591 434.519 186.307 435.803 186.307 437.387V452.68C186.307 454.263 187.591 455.547 189.175 455.547H204.468C206.051 455.547 207.335 454.263 207.335 452.68V437.387C207.335 435.803 206.051 434.519 204.468 434.519Z" stroke="#1E223B" stroke-width="2" stroke-linecap="round" stroke-linejoin="round"/>
<path d="M173.881 434.519H158.588C157.005 434.519 155.721 435.803 155.721 437.387V452.68C155.721 454.263 157.005 455.547 158.588 455.547H173.881C175.465 455.547 176.749 454.263 176.749 452.68V437.387C176.749 435.803 175.465 434.519 173.881 434.519Z" stroke="#1E223B" stroke-width="2" stroke-linecap="round" stroke-linejoin="round"/>
<path d="M217.987 523.762H175.931V561.995H217.987V523.762Z" fill="#F2A197"/>
<path d="M217.987 523.762H175.931V561.995H217.987V523.762Z" stroke="#1E223B" stroke-width="2" stroke-linecap="round" stroke-linejoin="round"/>
<path d="M221.207 553.393H171.602V577.779H221.207V553.393Z" fill="white"/>
<path d="M221.207 553.393H171.602V577.779H221.207V553.393Z" stroke="#1E223B" stroke-width="2" stroke-linecap="round" stroke-linejoin="round"/>
<path d="M169.745 577.16H223.064C224.709 577.16 226.286 577.813 227.449 578.976C228.611 580.139 229.265 581.716 229.265 583.36V694.959H163.544V583.359C163.544 581.715 164.198 580.138 165.36 578.975C166.523 577.813 168.1 577.16 169.745 577.16V577.16Z" fill="#1E223B"/>
<path d="M169.745 577.16H223.064C224.709 577.16 226.286 577.813 227.449 578.976C228.611 580.139 229.265 581.716 229.265 583.36V694.959H163.544V583.359C163.544 581.715 164.198 580.138 165.36 578.975C166.523 577.813 168.1 577.16 169.745 577.16V577.16Z" stroke="#1E223B" stroke-width="2" stroke-linecap="round" stroke-linejoin="round"/>
<path opacity="0.2" d="M212.348 570.339C214.973 570.339 217.101 568.211 217.101 565.585C217.101 562.96 214.973 560.832 212.348 560.832C209.722 560.832 207.594 562.96 207.594 565.585C207.594 568.211 209.722 570.339 212.348 570.339Z" fill="#1E223B"/>
<path d="M212.348 570.339C214.973 570.339 217.101 568.211 217.101 565.585C217.101 562.96 214.973 560.832 212.348 560.832C209.722 560.832 207.594 562.96 207.594 565.585C207.594 568.211 209.722 570.339 212.348 570.339Z" stroke="#1E223B" stroke-width="2" stroke-linecap="round" stroke-linejoin="round"/>
<path d="M248.567 474.207L249.809 474.924C251.126 475.684 252.087 476.937 252.481 478.406C252.874 479.875 252.668 481.441 251.908 482.758L227.534 524.974L216.359 518.522L240.733 476.306C241.493 474.989 242.746 474.028 244.215 473.634C245.684 473.24 247.25 473.446 248.567 474.207V474.207Z" fill="#F2A197"/>
<path d="M248.567 474.207L249.809 474.924C251.126 475.684 252.087 476.937 252.481 478.406C252.874 479.875 252.668 481.441 251.908 482.758L227.534 524.974L216.359 518.522L240.733 476.306C241.493 474.989 242.746 474.028 244.215 473.634C245.684 473.24 247.25 473.446 248.567 474.207V474.207Z" stroke="#1E223B" stroke-width="2" stroke-linecap="round" stroke-linejoin="round"/>
<path d="M225.08 414.655H223.646C222.125 414.655 220.667 415.259 219.591 416.335C218.516 417.41 217.911 418.869 217.911 420.39V463.402C217.911 464.163 217.609 464.892 217.072 465.43C216.534 465.967 215.804 466.27 215.044 466.27V466.27C214.283 466.27 213.554 465.967 213.016 465.43C212.479 464.892 212.176 464.163 212.176 463.402V412.074C212.176 410.553 211.572 409.095 210.497 408.019C209.421 406.944 207.963 406.339 206.442 406.339H205.008C203.487 406.339 202.028 406.944 200.953 408.019C199.877 409.095 199.273 410.553 199.273 412.074V463.402C199.273 464.163 198.971 464.892 198.433 465.43C197.895 465.967 197.166 466.27 196.405 466.27V466.27C195.645 466.27 194.915 465.967 194.378 465.43C193.84 464.892 193.538 464.163 193.538 463.402V420.39C193.538 418.869 192.934 417.41 191.858 416.335C190.783 415.259 189.324 414.655 187.803 414.655H186.369C184.848 414.655 183.389 415.259 182.314 416.335C181.238 417.41 180.634 418.869 180.634 420.39V463.402C180.634 464.163 180.332 464.892 179.794 465.43C179.257 465.967 178.527 466.27 177.767 466.27V466.27C177.006 466.27 176.277 465.967 175.739 465.43C175.201 464.892 174.899 464.163 174.899 463.402V434.01C174.899 432.489 174.295 431.031 173.22 429.955C172.144 428.88 170.685 428.276 169.164 428.276H167.731C166.21 428.276 164.751 428.88 163.675 429.955C162.6 431.031 161.996 432.489 161.996 434.01V518.357C161.996 521.399 163.204 524.317 165.355 526.468C167.506 528.619 170.424 529.827 173.466 529.827H219.345C222.387 529.827 225.305 528.619 227.456 526.468C229.607 524.317 230.815 521.399 230.815 518.357V420.391C230.815 419.638 230.667 418.892 230.379 418.196C230.091 417.5 229.668 416.868 229.136 416.335C228.603 415.802 227.971 415.38 227.275 415.092C226.579 414.803 225.833 414.655 225.08 414.655V414.655Z" fill="#FDB3A6"/>
<path d="M225.08 414.655H223.646C222.125 414.655 220.667 415.259 219.591 416.335C218.516 417.41 217.911 418.869 217.911 420.39V463.402C217.911 464.163 217.609 464.892 217.072 465.43C216.534 465.967 215.804 466.27 215.044 466.27V466.27C214.283 466.27 213.554 465.967 213.016 465.43C212.479 464.892 212.176 464.163 212.176 463.402V412.074C212.176 410.553 211.572 409.095 210.497 408.019C209.421 406.944 207.963 406.339 206.442 406.339H205.008C203.487 406.339 202.028 406.944 200.953 408.019C199.877 409.095 199.273 410.553 199.273 412.074V463.402C199.273 464.163 198.971 464.892 198.433 465.43C197.895 465.967 197.166 466.27 196.405 466.27V466.27C195.645 466.27 194.915 465.967 194.378 465.43C193.84 464.892 193.538 464.163 193.538 463.402V420.39C193.538 418.869 192.934 417.41 191.858 416.335C190.783 415.259 189.324 414.655 187.803 414.655H186.369C184.848 414.655 183.389 415.259 182.314 416.335C181.238 417.41 180.634 418.869 180.634 420.39V463.402C180.634 464.163 180.332 464.892 179.794 465.43C179.257 465.967 178.527 466.27 177.767 466.27V466.27C177.006 466.27 176.277 465.967 175.739 465.43C175.201 464.892 174.899 464.163 174.899 463.402V434.01C174.899 432.489 174.295 431.031 173.22 429.955C172.144 428.88 170.685 428.276 169.164 428.276H167.731C166.21 428.276 164.751 428.88 163.675 429.955C162.6 431.031 161.996 432.489 161.996 434.01V518.357C161.996 521.399 163.204 524.317 165.355 526.468C167.506 528.619 170.424 529.827 173.466 529.827H219.345C222.387 529.827 225.305 528.619 227.456 526.468C229.607 524.317 230.815 521.399 230.815 518.357V420.391C230.815 419.638 230.667 418.892 230.379 418.196C230.091 417.5 229.668 416.868 229.136 416.335C228.603 415.802 227.971 415.38 227.275 415.092C226.579 414.803 225.833 414.655 225.08 414.655V414.655Z" stroke="#1E223B" stroke-width="2" stroke-linecap="round" stroke-linejoin="round"/>
<path d="M279.493 602.905L268.318 609.357L243.945 567.14C243.184 565.823 242.978 564.258 243.372 562.789C243.765 561.319 244.727 560.067 246.044 559.306L247.286 558.589C248.603 557.829 250.168 557.623 251.637 558.016C253.106 558.41 254.359 559.371 255.12 560.689L279.493 602.905Z" fill="#F2A197"/>
<path d="M279.493 602.905L268.318 609.357L243.945 567.14C243.184 565.823 242.978 564.258 243.372 562.789C243.765 561.319 244.727 560.067 246.044 559.306L247.286 558.589C248.603 557.829 250.168 557.623 251.637 558.016C253.106 558.41 254.359 559.371 255.12 560.689L279.493 602.905Z" stroke="#1E223B" stroke-width="2" stroke-linecap="round" stroke-linejoin="round"/>
<path d="M271.853 499.037H273.287C274.808 499.037 276.267 499.641 277.342 500.717C278.418 501.792 279.022 503.251 279.022 504.772V547.784C279.022 548.545 279.324 549.274 279.862 549.812C280.4 550.35 281.129 550.652 281.89 550.652C282.65 550.652 283.379 550.35 283.917 549.812C284.455 549.274 284.757 548.545 284.757 547.784V540.929C284.757 539.408 285.361 537.949 286.437 536.874C287.512 535.798 288.971 535.194 290.492 535.194H291.926C293.447 535.194 294.905 535.798 295.981 536.874C297.057 537.949 297.661 539.408 297.661 540.929V547.784C297.661 548.545 297.963 549.274 298.501 549.812C299.038 550.35 299.768 550.652 300.528 550.652C301.289 550.652 302.018 550.35 302.556 549.812C303.094 549.274 303.396 548.545 303.396 547.784V540.929C303.396 539.408 304 537.949 305.075 536.874C306.151 535.798 307.61 535.194 309.131 535.194H310.564C312.085 535.194 313.544 535.798 314.62 536.874C315.695 537.949 316.299 539.408 316.299 540.929V547.784C316.299 548.545 316.601 549.274 317.139 549.812C317.677 550.35 318.406 550.652 319.167 550.652C319.927 550.652 320.657 550.35 321.194 549.812C321.732 549.274 322.034 548.545 322.034 547.784V540.929C322.034 539.408 322.639 537.949 323.714 536.874C324.79 535.798 326.248 535.194 327.769 535.194H329.203C330.724 535.194 332.183 535.798 333.258 536.874C334.334 537.949 334.938 539.408 334.938 540.929V602.739C334.938 605.781 333.729 608.699 331.578 610.85C329.427 613.001 326.51 614.209 323.468 614.209H277.588C274.546 614.209 271.629 613.001 269.478 610.85C267.327 608.699 266.119 605.781 266.119 602.739V504.773C266.118 504.02 266.267 503.274 266.555 502.578C266.843 501.882 267.265 501.25 267.798 500.717C268.33 500.185 268.963 499.762 269.659 499.474C270.354 499.186 271.1 499.037 271.853 499.037Z" fill="#FDB3A6"/>
<path d="M271.853 499.037H273.287C274.808 499.037 276.267 499.641 277.342 500.717C278.418 501.792 279.022 503.251 279.022 504.772V547.784C279.022 548.545 279.324 549.274 279.862 549.812C280.4 550.35 281.129 550.652 281.89 550.652C282.65 550.652 283.379 550.35 283.917 549.812C284.455 549.274 284.757 548.545 284.757 547.784V540.929C284.757 539.408 285.361 537.949 286.437 536.874C287.512 535.798 288.971 535.194 290.492 535.194H291.926C293.447 535.194 294.905 535.798 295.981 536.874C297.057 537.949 297.661 539.408 297.661 540.929V547.784C297.661 548.545 297.963 549.274 298.501 549.812C299.038 550.35 299.768 550.652 300.528 550.652C301.289 550.652 302.018 550.35 302.556 549.812C303.094 549.274 303.396 548.545 303.396 547.784V540.929C303.396 539.408 304 537.949 305.075 536.874C306.151 535.798 307.61 535.194 309.131 535.194H310.564C312.085 535.194 313.544 535.798 314.62 536.874C315.695 537.949 316.299 539.408 316.299 540.929V547.784C316.299 548.545 316.601 549.274 317.139 549.812C317.677 550.35 318.406 550.652 319.167 550.652C319.927 550.652 320.657 550.35 321.194 549.812C321.732 549.274 322.034 548.545 322.034 547.784V540.929C322.034 539.408 322.639 537.949 323.714 536.874C324.79 535.798 326.248 535.194 327.769 535.194H329.203C330.724 535.194 332.183 535.798 333.258 536.874C334.334 537.949 334.938 539.408 334.938 540.929V602.739C334.938 605.781 333.729 608.699 331.578 610.85C329.427 613.001 326.51 614.209 323.468 614.209H277.588C274.546 614.209 271.629 613.001 269.478 610.85C267.327 608.699 266.119 605.781 266.119 602.739V504.773C266.118 504.02 266.267 503.274 266.555 502.578C266.843 501.882 267.265 501.25 267.798 500.717C268.33 500.185 268.963 499.762 269.659 499.474C270.354 499.186 271.1 499.037 271.853 499.037Z" stroke="#1E223B" stroke-width="2" stroke-linecap="round" stroke-linejoin="round"/>
<path d="M297.183 77.5186V80.386" stroke="#1E223B" stroke-width="2" stroke-linecap="round" stroke-linejoin="round"/>
<path d="M12 404.4H37.0904C48.5266 404.4 59.4944 399.857 67.581 391.77C75.6675 383.684 80.2105 372.716 80.2105 361.28V343.125C80.2105 331.747 84.7302 320.836 92.7751 312.791C100.82 304.746 111.731 300.226 123.109 300.226H136.604" stroke="#1E223B" stroke-width="2" stroke-linecap="round" stroke-linejoin="round"/>
<rect x="205" y="197" width="65" height="76" rx="5" fill="white"/>
<path d="M254.58 245.39H219.58C219.182 245.39 218.8 245.285 218.519 245.097C218.238 244.91 218.08 244.655 218.08 244.39C218.08 244.125 218.238 243.871 218.519 243.683C218.8 243.495 219.182 243.39 219.58 243.39H254.58C254.978 243.39 255.359 243.495 255.64 243.683C255.922 243.871 256.08 244.125 256.08 244.39C256.08 244.655 255.922 244.91 255.64 245.097C255.359 245.285 254.978 245.39 254.58 245.39V245.39Z" fill="#1E223B"/>
<path d="M243.61 252.32H219.61C219.212 252.32 218.831 252.215 218.549 252.027C218.268 251.84 218.11 251.586 218.11 251.32C218.11 251.055 218.268 250.801 218.549 250.613C218.831 250.426 219.212 250.32 219.61 250.32H243.61C244.008 250.32 244.389 250.426 244.671 250.613C244.952 250.801 245.11 251.055 245.11 251.32C245.11 251.586 244.952 251.84 244.671 252.027C244.389 252.215 244.008 252.32 243.61 252.32V252.32Z" fill="#1E223B"/>
<path d="M234.1 259.24H219.57C219.172 259.24 218.79 259.135 218.509 258.947C218.228 258.76 218.07 258.505 218.07 258.24C218.07 257.975 218.228 257.721 218.509 257.533C218.79 257.346 219.172 257.24 219.57 257.24H234.1C234.498 257.24 234.879 257.346 235.16 257.533C235.442 257.721 235.6 257.975 235.6 258.24C235.6 258.505 235.442 258.76 235.16 258.947C234.879 259.135 234.498 259.24 234.1 259.24V259.24Z" fill="#1E223B"/>
<path d="M232.43 209.7L239.45 221.86L246.47 234.02H232.43H218.39L225.41 221.86L232.43 209.7Z" fill="#FBB42F"/>
<path d="M248.6 220.8C251.356 220.8 253.59 218.566 253.59 215.81C253.59 213.054 251.356 210.82 248.6 210.82C245.844 210.82 243.61 213.054 243.61 215.81C243.61 218.566 245.844 220.8 248.6 220.8Z" fill="#FBB42F"/>
<rect x="315" y="181" width="65" height="76" rx="5" fill="white"/>
<path d="M364.58 229.39H329.58C329.182 229.39 328.8 229.285 328.519 229.097C328.238 228.91 328.08 228.655 328.08 228.39C328.08 228.125 328.238 227.871 328.519 227.683C328.8 227.495 329.182 227.39 329.58 227.39H364.58C364.978 227.39 365.359 227.495 365.64 227.683C365.922 227.871 366.08 228.125 366.08 228.39C366.08 228.655 365.922 228.91 365.64 229.097C365.359 229.285 364.978 229.39 364.58 229.39V229.39Z" fill="#1E223B"/>
<path d="M353.61 236.32H329.61C329.212 236.32 328.831 236.215 328.549 236.027C328.268 235.84 328.11 235.586 328.11 235.32C328.11 235.055 328.268 234.801 328.549 234.613C328.831 234.426 329.212 234.32 329.61 234.32H353.61C354.008 234.32 354.389 234.426 354.671 234.613C354.952 234.801 355.11 235.055 355.11 235.32C355.11 235.586 354.952 235.84 354.671 236.027C354.389 236.215 354.008 236.32 353.61 236.32V236.32Z" fill="#1E223B"/>
<path d="M344.1 243.24H329.57C329.172 243.24 328.79 243.135 328.509 242.947C328.228 242.76 328.07 242.505 328.07 242.24C328.07 241.975 328.228 241.721 328.509 241.533C328.79 241.346 329.172 241.24 329.57 241.24H344.1C344.498 241.24 344.879 241.346 345.16 241.533C345.442 241.721 345.6 241.975 345.6 242.24C345.6 242.505 345.442 242.76 345.16 242.947C344.879 243.135 344.498 243.24 344.1 243.24V243.24Z" fill="#1E223B"/>
<path d="M342.43 193.7L349.45 205.86L356.47 218.02H342.43H328.39L335.41 205.86L342.43 193.7Z" fill="#FBB42F"/>
<path d="M358.6 204.8C361.356 204.8 363.59 202.566 363.59 199.81C363.59 197.054 361.356 194.82 358.6 194.82C355.844 194.82 353.61 197.054 353.61 199.81C353.61 202.566 355.844 204.8 358.6 204.8Z" fill="#FBB42F"/>
<path d="M440.557 180.743H490.768C495.132 180.743 499.453 179.884 503.485 178.215C507.517 176.545 511.18 174.097 514.266 171.012C517.352 167.926 519.8 164.263 521.47 160.231C523.14 156.2 524 151.878 524 147.515V59.5347" stroke="#1E223B" stroke-width="2" stroke-linecap="round" stroke-linejoin="round"/>
<path d="M385 289C385 291.761 382.761 294 380 294H200C197.239 294 195 291.761 195 289V106H385V289Z" fill="#FBFBFD"/>
<path d="M249.339 229H203.661C203.296 229 203 229.22 203 229.491V232.509C203 232.78 203.296 233 203.661 233H249.339C249.704 233 250 232.78 250 232.509V229.491C250 229.22 249.704 229 249.339 229Z" fill="#C2D3E9"/>
<path d="M376.344 263H203.655C203.293 263 203 263.22 203 263.491V266.509C203 266.78 203.293 267 203.655 267H376.344C376.706 267 377 266.78 377 266.509V263.491C377 263.22 376.706 263 376.344 263Z" fill="#C2D3E9"/>
<path d="M302.339 229H256.661C256.296 229 256 229.22 256 229.491V232.509C256 232.78 256.296 233 256.661 233H302.339C302.704 233 303 232.78 303 232.509V229.491C303 229.22 302.704 229 302.339 229Z" fill="#C2D3E9"/>
<path d="M353.353 229H308.647C308.289 229 308 229.22 308 229.491V232.509C308 232.78 308.289 233 308.647 233H353.353C353.71 233 354 232.78 354 232.509V229.491C354 229.22 353.71 229 353.353 229Z" fill="#C2D3E9"/>
<path d="M352.787 242H204.213C203.543 242 203 242.403 203 242.901V255.099C203 255.597 203.543 256 204.213 256H352.787C353.457 256 354 255.597 354 255.099V242.901C354 242.403 353.457 242 352.787 242Z" fill="#C2D3E9"/>
<path d="M376.733 165.244H330.883V120.164H376.733V165.244Z" fill="#C2D3E9"/>
<path d="M376.733 209.08H330.883V164H376.733V209.08Z" fill="#C2D3E9"/>
<path d="M355.9 147L362.354 158.172L368.8 169.344H355.9H343L349.446 158.172L355.9 147Z" fill="#447FD3"/>
<path d="M362.74 158.66C365.278 158.66 367.334 156.604 367.334 154.066C367.334 151.529 365.278 149.472 362.74 149.472C360.203 149.472 358.146 151.529 358.146 154.066C358.146 156.604 360.203 158.66 362.74 158.66Z" fill="#447FD3"/>
<path d="M363.762 133.65H355.156V120.164H363.762V133.65Z" fill="#447FD3"/>
<path d="M211.647 139.236C216.222 139.236 219.931 135.527 219.931 130.952C219.931 126.377 216.222 122.668 211.647 122.668C207.072 122.668 203.363 126.377 203.363 130.952C203.363 135.527 207.072 139.236 211.647 139.236Z" fill="#C2D3E9"/>
<path d="M226.271 123.011H317.225" stroke="#C2D3E9" stroke-width="4.37249" stroke-linecap="round" stroke-linejoin="round"/>
<path d="M226.271 129.311H271.945" stroke="#C2D3E9" stroke-width="4.37249" stroke-linecap="round" stroke-linejoin="round"/>
<path d="M226.271 137.579H317.225" stroke="#C2D3E9" stroke-width="4.37249" stroke-linecap="round" stroke-linejoin="round"/>
<path d="M211.647 171.858C216.222 171.858 219.931 168.149 219.931 163.574C219.931 158.999 216.222 155.29 211.647 155.29C207.072 155.29 203.363 158.999 203.363 163.574C203.363 168.149 207.072 171.858 211.647 171.858Z" fill="#C2D3E9"/>
<path d="M211.647 205.858C216.222 205.858 219.931 202.149 219.931 197.574C219.931 192.999 216.222 189.29 211.647 189.29C207.072 189.29 203.363 192.999 203.363 197.574C203.363 202.149 207.072 205.858 211.647 205.858Z" fill="#C2D3E9"/>
<path d="M226.271 157.659H308.562" stroke="#C2D3E9" stroke-width="4.37249" stroke-linecap="round" stroke-linejoin="round"/>
<path d="M226.271 163.959H267.22" stroke="#C2D3E9" stroke-width="4.37249" stroke-linecap="round" stroke-linejoin="round"/>
<path d="M226.271 170.259H308.562" stroke="#C2D3E9" stroke-width="4.37249" stroke-linecap="round" stroke-linejoin="round"/>
<path d="M226.271 190.339H308.562" stroke="#C2D3E9" stroke-width="4.37249" stroke-linecap="round" stroke-linejoin="round"/>
<path d="M226.271 196.64H267.22" stroke="#C2D3E9" stroke-width="4.37249" stroke-linecap="round" stroke-linejoin="round"/>
<path d="M226.271 202.939H308.562" stroke="#C2D3E9" stroke-width="4.37249" stroke-linecap="round" stroke-linejoin="round"/>
<path d="M359.716 185.073V180.385C359.716 179.999 359.266 179.614 358.688 179.614L353.744 179.678C352.588 179.678 351.689 178.908 351.689 178.009V176.403C351.689 175.44 352.588 174.669 353.679 174.669H356.633V175.44H353.679C353.037 175.44 352.459 175.89 352.459 176.403V178.009C352.459 178.522 353.037 178.908 353.679 178.908L358.688 178.844C359.652 178.844 360.486 179.55 360.486 180.385L360.551 185.073H359.716Z" fill="#FBFBFD"/>
<path d="M363.248 177.238L355.799 177.303C354.643 177.303 353.679 176.339 353.679 175.183C353.679 174.027 354.643 173.064 355.799 173.064L363.248 173C364.404 173 365.367 173.963 365.367 175.119C365.367 176.275 364.404 177.238 363.248 177.238Z" fill="#2D61BB"/>
<path d="M360.872 194.191H359.395C359.009 194.191 358.688 193.87 358.688 193.421L358.881 184.752C358.881 184.302 359.202 183.981 359.652 183.981H360.486C360.872 183.981 361.257 184.302 361.257 184.752L361.578 193.421C361.578 193.806 361.257 194.191 360.872 194.191V194.191Z" fill="#2F282F"/>
<path d="M363.183 188.411C363.954 189.696 363.505 191.365 362.22 192.072C360.936 192.842 359.266 192.393 358.56 191.108C357.789 189.824 358.239 188.154 359.523 187.384C360.807 186.677 362.477 187.127 363.183 188.411Z" fill="#FE9764"/>
<path d="M332.809 202.154H327.736V195.412H332.809V202.154Z" fill="#FE9764"/>
<path d="M323.498 288.526H326.901V291.929H323.498V288.526Z" fill="#FE9764"/>
<path d="M321.378 287.113H328.442V289.681H321.378V287.113Z" fill="#1C181C"/>
<path d="M337.497 291.929H334.158V288.526H337.497V291.929Z" fill="#FE9764"/>
<path d="M340.258 228.033L338.524 287.112H333.194L332.424 238.372H328.635L327.8 287.112H322.47L320.8 228.033H330.048H331.011H340.258Z" fill="#2F282F"/>
<path d="M339.616 289.681H332.552V287.113H339.616V289.681Z" fill="#1C181C"/>
<path d="M323.562 192.972C324.484 192.972 325.231 192.224 325.231 191.302C325.231 190.38 324.484 189.632 323.562 189.632C322.64 189.632 321.892 190.38 321.892 191.302C321.892 192.224 322.64 192.972 323.562 192.972Z" fill="#FE9764"/>
<path d="M337.047 192.972C337.969 192.972 338.717 192.224 338.717 191.302C338.717 190.38 337.969 189.632 337.047 189.632C336.125 189.632 335.378 190.38 335.378 191.302C335.378 192.224 336.125 192.972 337.047 192.972Z" fill="#FE9764"/>
<path d="M330.305 196.76C334.135 196.76 337.24 193.655 337.24 189.825C337.24 185.994 334.135 182.889 330.305 182.889C326.474 182.889 323.369 185.994 323.369 189.825C323.369 193.655 326.474 196.76 330.305 196.76Z" fill="#2F282F"/>
<path d="M340.258 228.034H320.8L320.03 206.521C320.03 202.925 322.406 200.035 326.002 200.035H334.992C338.588 200.035 340.965 202.925 340.965 206.521L340.258 228.034Z" fill="#2D61BB"/>
<path d="M325.745 206.97L313.801 220.905L314.379 219.878C314.443 219.621 314.443 219.236 314.315 218.979C314.186 218.722 314.058 218.593 313.929 218.529C313.737 218.337 313.544 218.337 313.351 218.401L313.865 218.272L323.819 216.924C325.424 216.667 326.965 217.759 327.158 219.428C327.415 221.034 326.259 222.511 324.654 222.703L314.636 224.116L315.085 223.988C313.608 224.501 311.874 224.244 310.526 223.281C309.819 222.767 309.242 222.061 308.856 221.162C308.471 220.263 308.407 219.107 308.728 218.208C308.813 217.823 308.985 217.502 309.242 217.245V217.181L320.993 202.411C322.149 200.934 323.754 200.934 325.231 202.09C326.708 203.246 326.965 205.365 325.809 206.842C325.809 206.885 325.788 206.927 325.745 206.97V206.97Z" fill="#2D61BB"/>
<path fill-rule="evenodd" clip-rule="evenodd" d="M352.652 210.566C352.138 208.319 350.212 208.961 349.891 206.713L351.624 202.989L353.294 199.264C354.193 197.209 355.734 193.741 356.89 191.173C357.019 190.787 357.532 190.595 357.918 190.787L362.028 192.393C362.477 192.586 362.67 193.099 362.477 193.485C361.321 196.053 359.716 199.585 358.753 201.704L357.147 205.429L356.377 207.291L356.312 207.42V207.484L356.248 207.612C356.162 207.783 356.055 207.955 355.927 208.126C355.756 208.468 355.52 208.79 355.221 209.089C354.643 209.667 353.936 210.117 353.23 210.374C353.016 210.459 352.823 210.523 352.652 210.566V210.566ZM351.946 204.658H352.01C352.01 204.658 351.988 204.658 351.946 204.658Z" fill="#2D61BB"/>
<path fill-rule="evenodd" clip-rule="evenodd" d="M354.322 209.86C353.23 210.759 351.817 211.144 350.404 211.016C350.19 210.973 349.976 210.93 349.762 210.887L349.441 210.823L348.992 210.694L347.964 210.438L344.047 209.474C341.435 208.875 338.824 208.276 336.212 207.676C334.414 207.291 333.13 205.621 333.323 203.823C333.58 201.704 335.313 200.035 337.304 200.548C337.433 200.548 343.084 202.411 345.717 203.181L349.634 204.337L350.212 204.465L351.753 204.915C353.037 206.842 352.909 208.062 354.322 209.86V209.86ZM350.212 205.621V205.557C350.212 205.6 350.212 205.621 350.212 205.621C350.212 205.664 350.212 205.664 350.212 205.621Z" fill="#2D61BB"/>
<path d="M332.745 230.923H338.01V234.391L335.378 236.253L332.745 234.455V230.923Z" stroke="#545054" stroke-width="0.582999"/>
<path d="M323.048 230.923H328.314V234.391L325.681 236.253L323.048 234.455V230.923Z" stroke="#545054" stroke-width="0.582999"/>
<path d="M338.588 290.837L338.653 294.433C344.475 296.06 347.429 296.873 347.515 296.873C347.579 296.873 348.863 297.323 348.863 298.093C338.289 298.136 333.023 298.136 333.066 298.093C333.109 298.05 333.066 296.809 332.937 294.369C332.638 291.5 334.521 290.323 338.588 290.837V290.837Z" fill="white"/>
<path d="M339.873 296.488C339.68 296.424 339.488 296.231 339.488 296.039V294.626C339.552 294.369 339.744 294.241 339.937 294.241C340.194 294.241 340.322 294.433 340.322 294.69V296.103C340.322 296.296 340.13 296.488 339.937 296.488C339.894 296.488 339.873 296.488 339.873 296.488V296.488Z" fill="white"/>
<path d="M341.542 296.809C341.286 296.809 341.157 296.617 341.157 296.36V294.947C341.157 294.754 341.414 294.562 341.607 294.626C341.799 294.626 341.992 294.819 341.992 295.011V296.424C341.928 296.681 341.799 296.809 341.542 296.809Z" fill="white"/>
<path d="M343.148 297.258C342.955 297.258 342.763 297.066 342.827 296.809V295.396C342.827 295.204 343.019 295.011 343.212 295.075C343.469 295.075 343.597 295.268 343.597 295.525V296.937C343.597 297.13 343.405 297.258 343.212 297.258C343.212 297.258 343.191 297.258 343.148 297.258Z" fill="white"/>
<path d="M348.863 298.094L348.414 298.607C348.093 299.057 347.579 299.25 347.065 299.25H334.928C334.479 299.25 334.029 299.057 333.708 298.736L333.066 298.094H348.863Z" fill="#2F282F"/>
<path d="M327.8 294.369C327.715 296.809 327.672 298.05 327.672 298.093C327.715 298.136 322.47 298.136 311.939 298.093C311.939 297.323 313.159 296.873 313.287 296.873C313.373 296.873 316.305 296.06 322.085 294.433L322.213 290.837C326.238 290.323 328.1 291.5 327.8 294.369Z" fill="white"/>
<path d="M320.865 296.488C320.672 296.488 320.479 296.296 320.479 296.103V294.69C320.415 294.433 320.608 294.241 320.8 294.241C321.057 294.241 321.25 294.369 321.25 294.626V296.039C321.25 296.231 321.122 296.424 320.865 296.488V296.488Z" fill="white"/>
<path d="M319.195 296.809C319.002 296.809 318.81 296.681 318.81 296.424V295.011C318.81 294.819 318.938 294.626 319.195 294.626C319.388 294.562 319.58 294.754 319.58 294.947V296.36C319.645 296.617 319.452 296.809 319.259 296.809C319.216 296.809 319.195 296.809 319.195 296.809Z" fill="white"/>
<path d="M317.59 297.258C317.333 297.258 317.204 297.13 317.14 296.937V295.525C317.14 295.268 317.333 295.075 317.525 295.075C317.718 295.011 317.975 295.204 317.975 295.396V296.809C317.975 297.066 317.846 297.258 317.59 297.258Z" fill="white"/>
<path d="M327.672 298.094L327.029 298.736C326.773 299.057 326.323 299.25 325.874 299.25H313.672C313.159 299.25 312.645 299.057 312.324 298.607L311.939 298.094H327.672Z" fill="#2F282F"/>
<circle cx="32.5" cy="400.5" r="32.5" fill="#FDB3A6"/>
<circle cx="32.5" cy="400.5" r="32" stroke="white" stroke-opacity="0.3"/>
<mask id="mask1_18_1890" style="mask-type:alpha" maskUnits="userSpaceOnUse" x="0" y="368" width="65" height="65">
<circle cx="32.5" cy="400.5" r="32.5" fill="#1E223B"/>
</mask>
<g mask="url(#mask1_18_1890)">
<path d="M16.7341 470.69H-40.4648C-40.9895 470.689 -41.4924 470.48 -41.8634 470.11C-42.2344 469.738 -42.4431 469.236 -42.4437 468.711V387.712C-42.4431 387.187 -42.2344 386.684 -41.8634 386.313C-41.4924 385.942 -40.9895 385.734 -40.4648 385.733H16.7341C17.2589 385.734 17.761 385.942 18.1325 386.313C18.5041 386.684 18.7127 387.187 18.7127 387.712V468.698C18.7141 468.959 18.6629 469.217 18.5646 469.458C18.465 469.699 18.3196 469.919 18.1366 470.103C17.9521 470.289 17.7341 470.436 17.4931 470.537C17.2535 470.637 16.9949 470.689 16.7341 470.69Z" fill="#4D61FC"/>
<path opacity="0.5" d="M16.7341 470.69H-40.4648C-40.9895 470.689 -41.4924 470.48 -41.8634 470.11C-42.2344 469.738 -42.4431 469.236 -42.4437 468.711V387.712C-42.4431 387.187 -42.2344 386.684 -41.8634 386.313C-41.4924 385.942 -40.9895 385.734 -40.4648 385.733H16.7341C17.2589 385.734 17.761 385.942 18.1325 386.313C18.5041 386.684 18.7127 387.187 18.7127 387.712V468.698C18.7141 468.959 18.6629 469.217 18.5646 469.458C18.465 469.699 18.3196 469.919 18.1366 470.103C17.9521 470.289 17.7341 470.436 17.4931 470.537C17.2535 470.637 16.9949 470.689 16.7341 470.69Z" fill="white"/>
<path d="M15.0109 470.69H-42.1881C-42.7127 470.689 -43.2157 470.48 -43.5867 470.11C-43.9575 469.738 -44.1663 469.236 -44.167 468.711V387.712C-44.1663 387.187 -43.9575 386.684 -43.5867 386.313C-43.2157 385.942 -42.7127 385.734 -42.1881 385.733H15.0109C15.5355 385.734 16.0384 385.942 16.4093 386.313C16.7803 386.684 16.9889 387.187 16.9897 387.712V468.698C16.9905 468.959 16.9401 469.217 16.8411 469.458C16.7422 469.699 16.5966 469.919 16.4129 470.103C16.2291 470.289 16.0108 470.436 15.7702 470.537C15.5297 470.637 15.2716 470.689 15.0109 470.69Z" fill="#4D61FC"/>
<path opacity="0.7" d="M15.0109 470.69H-42.1881C-42.7127 470.689 -43.2157 470.48 -43.5867 470.11C-43.9575 469.738 -44.1663 469.236 -44.167 468.711V387.712C-44.1663 387.187 -43.9575 386.684 -43.5867 386.313C-43.2157 385.942 -42.7127 385.734 -42.1881 385.733H15.0109C15.5355 385.734 16.0384 385.942 16.4093 386.313C16.7803 386.684 16.9889 387.187 16.9897 387.712V468.698C16.9905 468.959 16.9401 469.217 16.8411 469.458C16.7422 469.699 16.5966 469.919 16.4129 470.103C16.2291 470.289 16.0108 470.436 15.7702 470.537C15.5297 470.637 15.2716 470.689 15.0109 470.69Z" fill="white"/>
<path d="M6.20688 400.272H-12.1549C-12.4335 400.272 -12.7005 400.161 -12.8975 399.964C-13.0943 399.767 -13.205 399.5 -13.205 399.222C-13.205 398.944 -13.0943 398.676 -12.8975 398.479C-12.7005 398.283 -12.4335 398.172 -12.1549 398.172H6.20688C6.48527 398.172 6.75235 398.283 6.9493 398.479C7.14624 398.676 7.2569 398.944 7.2569 399.222C7.2569 399.5 7.14624 399.767 6.9493 399.964C6.75235 400.161 6.48527 400.272 6.20688 400.272Z" fill="white"/>
<path d="M6.69151 405.253H-12.653C-12.7995 405.253 -12.9398 405.195 -13.0433 405.091C-13.1468 404.988 -13.205 404.847 -13.205 404.701C-13.205 404.554 -13.1468 404.414 -13.0433 404.311C-12.9398 404.207 -12.7995 404.149 -12.653 404.149H6.69151C6.83783 404.149 6.97824 404.207 7.08176 404.311C7.18528 404.414 7.24343 404.554 7.24343 404.701C7.24343 404.847 7.18528 404.988 7.08176 405.091C6.97824 405.195 6.83783 405.253 6.69151 405.253Z" fill="white"/>
<path d="M6.20688 427.868H-12.1549C-12.4335 427.868 -12.7005 427.758 -12.8975 427.561C-13.0943 427.364 -13.205 427.097 -13.205 426.818C-13.205 426.54 -13.0943 426.273 -12.8975 426.076C-12.7005 425.879 -12.4335 425.768 -12.1549 425.768H6.20688C6.48527 425.768 6.75235 425.879 6.9493 426.076C7.14624 426.273 7.2569 426.54 7.2569 426.818C7.2569 427.097 7.14624 427.364 6.9493 427.561C6.75235 427.758 6.48527 427.868 6.20688 427.868Z" fill="white"/>
<path d="M6.69151 432.863H-12.653C-12.7995 432.863 -12.9398 432.805 -13.0433 432.702C-13.1468 432.598 -13.205 432.458 -13.205 432.311C-13.205 432.165 -13.1468 432.024 -13.0433 431.921C-12.9398 431.817 -12.7995 431.759 -12.653 431.759H6.69151C6.7642 431.759 6.83622 431.772 6.90353 431.8C6.97084 431.827 7.03196 431.868 7.08338 431.919C7.1348 431.971 7.17532 432.032 7.20292 432.099C7.23038 432.166 7.24411 432.239 7.24344 432.311C7.24276 432.457 7.18434 432.597 7.08096 432.701C6.97757 432.804 6.8377 432.862 6.69151 432.863Z" fill="white"/>
<path d="M52.8921 455.465L38.6092 438.476L38.7842 423.372L38.9457 414.716L30.6667 414.703L31.5687 440.132C31.5727 440.67 31.6858 441.201 31.8998 441.694C32.1152 442.187 32.4289 442.631 32.8206 442.999L49.7959 458.561L52.8921 455.465Z" fill="#4D61FC"/>
<path opacity="0.2" d="M52.8921 455.465L38.6092 438.476L38.9053 414.73L30.6667 414.716L31.5687 440.146C31.5727 440.683 31.6858 441.215 31.8998 441.708C32.1152 442.2 32.4289 442.644 32.8206 443.013L49.7959 458.575L52.8921 455.465Z" fill="white"/>
<path d="M47.4266 414.729L47.6689 464.578H43.4689L39.6861 423.17C39.6847 423.052 39.6363 422.94 39.5515 422.858C39.4667 422.776 39.3536 422.731 39.2351 422.732C39.118 422.734 39.0049 422.783 38.9228 422.867C38.8407 422.952 38.7963 423.066 38.7976 423.183L38.6899 427.007L37.6803 414.729H47.4266Z" fill="#4D61FC"/>
<path opacity="0.2" d="M47.4266 414.729L47.6689 464.578H43.4689L39.6861 423.17C39.6847 423.052 39.6363 422.94 39.5515 422.858C39.4667 422.776 39.3536 422.731 39.2351 422.732C39.118 422.734 39.0049 422.783 38.9228 422.867C38.8407 422.952 38.7963 423.066 38.7976 423.183L38.6899 427.007L37.6803 414.729H47.4266Z" fill="white"/>
<path opacity="0.4" d="M30.936 416.251H47.4401L47.4266 414.729H30.6667L30.936 416.251Z" fill="black"/>
<path d="M42.719 416.374H43.2575V414.731H42.719V416.374Z" fill="#3F4249"/>
<path d="M35.3514 416.374H35.8898V414.731H35.3514V416.374Z" fill="#3F4249"/>
<path d="M34.0187 414.757C35.2438 398.656 36.5899 388.789 36.5899 388.789L36.7111 388.749C36.7111 388.749 39.04 391.858 42.0554 389.435L42.4593 388.937L42.8093 389.031H42.7958C42.7958 389.031 42.9439 402.547 44.3035 414.743L34.0187 414.757Z" fill="white"/>
<path d="M53.6998 401.012L48.194 402.305L47.6959 400.622L47.4805 422.242H44.2631C43.971 422.242 43.691 422.133 43.4756 421.936C43.2616 421.739 43.1296 421.468 43.1054 421.178C41.6785 404.189 42.7958 389.045 42.7958 389.045L45.1381 389.651L49.4459 390.755C50.084 390.915 50.6642 391.251 51.1205 391.725C51.5769 392.198 51.8932 392.79 52.0306 393.433L53.6998 401.012Z" fill="#21252B"/>
<path d="M36.563 383.001L36.6034 389.274C36.6047 389.409 36.6464 389.54 36.7245 389.651L36.7784 389.731C38.3265 391.28 40.7631 391.158 42.5669 389.664C42.6571 389.59 42.7258 389.494 42.7689 389.386C42.8106 389.278 42.8254 389.16 42.8092 389.045L41.84 382.57L36.563 383.001Z" fill="#FC9D9D"/>
<path d="M42.392 380.335C42.392 380.335 43.4689 387.403 39.565 387.685C35.7553 387.968 35.6476 380.82 35.6476 380.82L35.5399 378.774L40.44 377.912L41.6785 378.545L42.392 380.335Z" fill="#FC9D9D"/>
<path opacity="0.15" d="M42.4862 387.093L42.2035 385.154C41.8535 386.406 41.1131 387.443 39.8342 387.658H39.8477L39.565 387.699C38.5419 387.779 37.7072 387.308 37.0611 386.299C37.049 386.279 37.0288 386.265 37.0059 386.26C36.983 386.255 36.9601 386.259 36.9399 386.272C36.9211 386.284 36.9063 386.304 36.9022 386.327C36.8969 386.349 36.9009 386.373 36.913 386.393C37.5861 387.456 38.488 387.954 39.5784 387.874C39.8073 387.861 40.0334 387.82 40.2515 387.752C41.0538 387.834 41.8575 387.597 42.4862 387.093Z" fill="black"/>
<path d="M41.4765 378.747C41.4765 378.747 42.715 377.925 43.3073 379.325C43.7919 380.51 42.9708 381.802 42.9708 381.802L42.2573 381.735C41.9611 381.722 41.7457 381.587 41.7188 381.291L41.4765 378.747Z" fill="#21252B"/>
<path d="M42.365 377.899C42.4727 379.245 41.315 379.595 40.8438 379.635L36.9937 379.958C36.8443 379.97 36.7057 380.04 36.606 380.153C36.5078 380.267 36.4593 380.414 36.4688 380.564L36.5361 381.789C36.5414 381.869 36.5159 381.947 36.4661 382.009C36.4163 382.071 36.3449 382.113 36.2668 382.126L36.0245 382.153L35.7553 382.489C34.2476 382.126 33.6148 377.845 36.388 376.97C36.6841 376.875 36.9318 376.667 37.0745 376.391C37.4784 375.556 39.1342 375.341 39.9688 376.27C40.0482 376.367 40.1492 376.443 40.2636 376.492C40.3794 376.541 40.5046 376.562 40.6284 376.552C41.6515 376.526 42.2977 377.158 42.365 377.899Z" fill="#21252B"/>
<path d="M36.0245 382.584C36.0137 382.471 35.972 382.362 35.9047 382.271C35.8374 382.179 35.7458 382.108 35.6408 382.064C35.5358 382.02 35.4214 382.004 35.3083 382.02C35.1966 382.036 35.0902 382.082 35.0014 382.153L34.9879 382.166C34.3283 382.732 34.7456 384.549 36.213 384.374L36.0245 382.584Z" fill="#FC9D9D"/>
<path d="M43.2939 381.628C43.2898 381.628 43.2871 381.626 43.2844 381.624C43.2817 381.621 43.2804 381.618 43.2804 381.614C43.1821 381.557 43.0704 381.528 42.9573 381.529C42.8429 381.53 42.7325 381.562 42.6356 381.622C42.5387 381.681 42.4606 381.766 42.4081 381.866C42.3556 381.967 42.3313 382.08 42.3381 382.193L42.4188 383.916C43.8727 383.862 44.0208 382.099 43.2939 381.628Z" fill="#FC9D9D"/>
<path d="M36.213 382.812C36.2265 382.893 36.1457 382.974 36.0514 382.987C36.007 382.993 35.9626 382.983 35.9249 382.958C35.8872 382.934 35.8603 382.896 35.8495 382.853L35.688 381.695L36.1591 381.708L36.213 382.812Z" fill="#21252B"/>
<path d="M42.6343 382.327C42.6477 382.408 42.567 382.489 42.4727 382.502C42.4283 382.509 42.3825 382.499 42.3462 382.474C42.3085 382.449 42.2816 382.411 42.2708 382.368L42.1093 381.21L42.5804 381.223L42.6343 382.327Z" fill="#21252B"/>
<path d="M40.8573 379.811C40.79 379.818 40.7227 379.818 40.6554 379.811C40.6339 379.811 40.6137 379.802 40.5989 379.787C40.5827 379.772 40.5746 379.751 40.5746 379.73C40.5746 379.708 40.5827 379.688 40.5989 379.673C40.6137 379.657 40.6339 379.649 40.6554 379.649C40.6689 379.649 41.4362 379.689 41.7593 379.178C41.77 379.16 41.7875 379.147 41.8077 379.142C41.8279 379.137 41.8495 379.14 41.867 379.151C41.8845 379.162 41.8979 379.179 41.9033 379.199C41.9074 379.219 41.9047 379.241 41.8939 379.259C41.6516 379.689 41.14 379.784 40.8573 379.811Z" fill="#FC9D9D"/>
<path d="M37.9764 383.58C38.0424 383.58 38.1084 383.56 38.1636 383.523C38.2187 383.486 38.2618 383.434 38.2874 383.372C38.313 383.311 38.3197 383.243 38.3062 383.178C38.2941 383.112 38.2618 383.052 38.2147 383.005C38.1676 382.958 38.107 382.926 38.0424 382.913C37.9764 382.9 37.9091 382.907 37.8472 382.932C37.7866 382.958 37.7341 383.001 37.6964 383.056C37.6601 383.112 37.6399 383.177 37.6399 383.243C37.6399 383.333 37.6749 383.418 37.7382 383.481C37.8014 383.544 37.8876 383.58 37.9764 383.58Z" fill="#21252B"/>
<path d="M37.8155 383.285C37.8291 383.285 37.8426 383.281 37.8535 383.273C37.8643 383.266 37.8725 383.255 37.8779 383.243C37.8833 383.23 37.8847 383.217 37.882 383.204C37.8792 383.19 37.8725 383.178 37.863 383.169C37.8535 383.159 37.8426 383.153 37.8291 383.15C37.8155 383.148 37.8019 383.149 37.7897 383.154C37.7775 383.159 37.7667 383.168 37.7599 383.179C37.7517 383.19 37.7477 383.203 37.7477 383.217C37.7477 383.235 37.7544 383.252 37.768 383.265C37.7802 383.277 37.7979 383.285 37.8155 383.285Z" fill="white"/>
<path d="M40.5746 383.391C40.6419 383.391 40.7065 383.372 40.7617 383.335C40.8169 383.298 40.86 383.245 40.8855 383.184C40.9111 383.122 40.9178 383.054 40.9044 382.989C40.8923 382.924 40.86 382.864 40.8128 382.817C40.7657 382.77 40.7052 382.738 40.6405 382.725C40.5746 382.712 40.5073 382.718 40.4453 382.744C40.3848 382.769 40.3323 382.813 40.2946 382.868C40.2582 382.923 40.238 382.988 40.238 383.055C40.238 383.144 40.273 383.23 40.3363 383.293C40.3996 383.356 40.4857 383.391 40.5746 383.391Z" fill="#21252B"/>
<path d="M40.4135 383.082C40.4271 383.082 40.4406 383.078 40.4515 383.071C40.4623 383.064 40.4718 383.053 40.4759 383.041C40.4813 383.028 40.4827 383.015 40.48 383.001C40.4773 382.988 40.4718 382.976 40.4623 382.967C40.4528 382.957 40.4406 382.951 40.4271 382.948C40.4135 382.945 40.4 382.947 40.3878 382.952C40.3755 382.957 40.3647 382.966 40.3579 382.977C40.3498 382.988 40.3457 383.001 40.3457 383.015C40.3457 383.033 40.3525 383.05 40.3661 383.063C40.3783 383.075 40.3959 383.082 40.4135 383.082Z" fill="white"/>
<g opacity="0.3">
<path opacity="0.3" d="M39.4438 384.845L39.7131 384.818C39.74 384.816 39.7642 384.804 39.7817 384.784C39.8006 384.764 39.8086 384.737 39.8073 384.71C39.8059 384.684 39.7925 384.659 39.7723 384.641C39.7521 384.623 39.7265 384.614 39.6996 384.616L39.4304 384.643C39.4034 384.645 39.3765 384.642 39.3509 384.634C39.3267 384.625 39.3025 384.612 39.2823 384.595C39.2621 384.577 39.2459 384.555 39.2338 384.532C39.223 384.507 39.2163 384.481 39.215 384.455C39.2109 384.428 39.2136 384.401 39.2217 384.375C39.2298 384.349 39.2432 384.325 39.2607 384.305C39.2782 384.284 39.2998 384.268 39.3254 384.257C39.3496 384.245 39.3765 384.239 39.4034 384.239C39.4304 384.238 39.4546 384.225 39.4721 384.205C39.4909 384.185 39.499 384.158 39.4977 384.132C39.4963 384.105 39.4829 384.08 39.4627 384.062C39.4425 384.044 39.4169 384.036 39.39 384.037C39.3361 384.041 39.285 384.055 39.2365 384.078C39.1894 384.102 39.1463 384.134 39.1113 384.174C39.0763 384.214 39.0494 384.261 39.0332 384.311C39.0157 384.362 39.009 384.415 39.013 384.468C39.0157 384.521 39.0305 384.573 39.0534 384.621C39.0777 384.668 39.11 384.711 39.1503 384.746C39.1894 384.781 39.2365 384.808 39.2863 384.825C39.3375 384.842 39.39 384.849 39.4438 384.845Z" fill="black"/>
</g>
<path d="M41.5168 382.153L40.0495 382.233L39.8476 382.247L38.5552 382.314H38.5418L36.886 382.408C36.8227 382.412 36.7594 382.427 36.7016 382.455C36.645 382.482 36.5925 382.521 36.5508 382.569C36.5077 382.616 36.4754 382.672 36.4539 382.732C36.4337 382.792 36.4242 382.856 36.4283 382.92L36.4552 383.297C36.4592 383.475 36.4996 383.65 36.5737 383.812C36.6464 383.974 36.7514 384.12 36.8819 384.24C37.0139 384.361 37.1673 384.454 37.3343 384.514C37.5025 384.574 37.6802 384.6 37.8579 384.59C38.0356 384.58 38.2093 384.535 38.3681 384.456C38.5283 384.378 38.671 384.268 38.7868 384.134C38.9039 383.999 38.9927 383.843 39.0466 383.674C39.1018 383.504 39.122 383.326 39.1072 383.149L39.0802 382.772C39.0762 382.666 39.0331 382.565 38.9591 382.489L39.4706 382.462C39.4101 382.548 39.3804 382.653 39.3899 382.758L39.4168 383.135C39.4208 383.313 39.4612 383.488 39.5353 383.65C39.6079 383.812 39.713 383.958 39.8435 384.079C39.9755 384.199 40.1289 384.292 40.2958 384.352C40.4641 384.413 40.6418 384.438 40.8195 384.429C40.9972 384.419 41.1709 384.373 41.3297 384.295C41.4899 384.216 41.6326 384.107 41.7484 383.972C41.8655 383.838 41.9543 383.681 42.0082 383.512C42.0634 383.343 42.0836 383.164 42.0688 382.987L42.0418 382.61C42.0378 382.545 42.0216 382.482 41.9934 382.424C41.9651 382.365 41.9247 382.313 41.8763 382.271C41.8264 382.228 41.7699 382.195 41.708 382.175C41.6461 382.155 41.5815 382.147 41.5168 382.153ZM38.8918 382.785L38.9187 383.162C38.9349 383.46 38.8312 383.753 38.632 383.975C38.4327 384.197 38.1527 384.331 37.8552 384.347C37.5564 384.363 37.2643 384.26 37.0422 384.06C36.82 383.861 36.6868 383.581 36.6706 383.283L36.6437 382.906C36.641 382.828 36.6679 382.752 36.7218 382.694C36.7743 382.636 36.8483 382.601 36.9264 382.597L38.5822 382.503H38.5956C38.671 382.505 38.7437 382.535 38.7976 382.587C38.8527 382.639 38.8864 382.71 38.8918 382.785ZM41.8668 382.987C41.883 383.285 41.7793 383.578 41.5801 383.8C41.3809 384.022 41.1009 384.156 40.8034 384.172C40.5045 384.188 40.2124 384.085 39.9903 383.885C39.7681 383.686 39.6349 383.406 39.6187 383.108L39.5918 382.731C39.5891 382.653 39.616 382.577 39.6699 382.519C39.7224 382.461 39.7964 382.426 39.8745 382.422L40.0764 382.408L41.5438 382.328C41.6218 382.325 41.6986 382.353 41.7564 382.405C41.8143 382.458 41.8493 382.532 41.8534 382.61L41.8668 382.987Z" fill="#21252B"/>
<path d="M38.6091 385.383L40.2649 385.262C40.2743 385.262 40.2851 385.264 40.2945 385.268C40.3039 385.272 40.312 385.279 40.3174 385.286C40.3241 385.294 40.3295 385.303 40.3309 385.313C40.3335 385.323 40.3336 385.333 40.3322 385.343C40.281 385.529 40.1747 385.695 40.0253 385.819C39.8772 385.942 39.6941 386.017 39.5016 386.033C39.3105 386.049 39.1166 386.006 38.9497 385.909C38.7828 385.812 38.6495 385.666 38.5687 385.491V385.478C38.562 385.469 38.5579 385.459 38.5579 385.449C38.5566 385.439 38.5579 385.428 38.562 385.419C38.566 385.409 38.5728 385.401 38.5808 385.395C38.5889 385.389 38.5983 385.385 38.6091 385.383Z" fill="white"/>
<g opacity="0.3">
<path opacity="0.3" d="M35.661 383.512C35.6368 383.514 35.6126 383.507 35.5924 383.492C35.5722 383.477 35.5587 383.456 35.5533 383.431L35.5264 383.23C35.4995 383.014 35.4456 382.853 35.3379 382.772C35.3164 382.752 35.2908 382.737 35.2625 382.728C35.2356 382.719 35.206 382.715 35.1764 382.718C35.1643 382.721 35.1508 382.721 35.1374 382.719C35.1239 382.716 35.1118 382.711 35.101 382.704C35.0902 382.696 35.0808 382.687 35.0741 382.675C35.066 382.664 35.062 382.652 35.0606 382.638C35.0579 382.625 35.0593 382.612 35.062 382.599C35.066 382.586 35.0727 382.574 35.0808 382.564C35.0889 382.554 35.0996 382.546 35.1118 382.54C35.1239 382.534 35.136 382.53 35.1495 382.529C35.2598 382.516 35.3702 382.545 35.4591 382.61C35.6072 382.718 35.6879 382.92 35.7283 383.203L35.7552 383.405C35.7566 383.431 35.7472 383.457 35.7297 383.477C35.7122 383.497 35.6879 383.51 35.661 383.512Z" fill="black"/>
</g>
<g opacity="0.3">
<path opacity="0.3" d="M42.8361 382.987C42.8482 382.988 42.8604 382.985 42.8725 382.981C42.8846 382.976 42.8954 382.969 42.9034 382.961C42.9129 382.952 42.9196 382.941 42.9236 382.93C42.929 382.918 42.9304 382.906 42.9304 382.893V382.678C42.9169 382.462 42.9573 382.287 43.0515 382.206C43.1188 382.139 43.1996 382.126 43.1996 382.139C43.2252 382.139 43.2481 382.129 43.2656 382.112C43.2844 382.094 43.2938 382.07 43.2938 382.045C43.2938 382.02 43.2844 381.996 43.2656 381.978C43.2481 381.961 43.2252 381.951 43.1996 381.951C43.0865 381.955 42.9815 382.004 42.9034 382.085C42.7688 382.22 42.715 382.422 42.7284 382.705V382.906C42.7284 382.947 42.7688 382.987 42.8361 382.987Z" fill="black"/>
</g>
<g opacity="0.3">
<path opacity="0.3" d="M50.5497 393.541L52.2459 401.363L53.7132 401.013L52.192 394.053C51.8959 392.168 50.9939 391.28 49.6747 390.795L48.0054 390.364C49.5401 391.051 50.2266 392.141 50.5497 393.541Z" fill="black"/>
</g>
<path opacity="0.3" d="M47.6959 400.622L47.4805 422.242H45.7843L46.0131 396.57C46.0158 396.525 46.0333 396.482 46.063 396.449C46.0939 396.416 46.1343 396.394 46.1787 396.388C46.2245 396.381 46.2689 396.391 46.308 396.414C46.347 396.438 46.3753 396.474 46.3901 396.516L47.6959 400.622Z" fill="black"/>
<path d="M42.7015 388.426L43.6573 389.247L44.9362 393.918L42.7015 392.855L42.7958 389.099L42.7015 388.426Z" fill="#21252B"/>
<path opacity="0.3" d="M43.8323 389.287L43.6439 389.233L44.9362 393.918L42.7015 392.855L42.6746 393.837L45.1247 394.093L43.8323 389.287Z" fill="black"/>
<path opacity="0.15" d="M37.6399 414.757H35.8091L36.5899 389.328C36.5899 389.328 38.3399 402.062 37.6399 414.757Z" fill="black"/>
<path opacity="0.15" d="M37.5995 414.729H31.6898L31.8379 422.228H35.836C36.1833 422.228 36.5185 422.098 36.7757 421.864C37.0314 421.63 37.1916 421.308 37.2226 420.962C37.3841 419.024 37.5053 416.924 37.5995 414.729Z" fill="black"/>
<path d="M10.8643 409.789L24.3128 408.336C24.9172 408.268 25.4947 408.05 25.9928 407.702C26.4909 407.354 26.8947 406.887 27.1666 406.343L29.9128 400.824L26.7359 393.797L22.1723 403.812L10.4739 407.057L10.8643 409.789Z" fill="#FC9D9D"/>
<path opacity="0.15" d="M28.3648 401.08L25.6186 406.599C25.1905 407.451 24.4461 408.103 23.5455 408.416L24.3128 408.335C24.9172 408.268 25.4947 408.05 25.9928 407.702C26.4922 407.354 26.8947 406.887 27.1667 406.343L29.9129 400.824L28.3648 401.08Z" fill="black"/>
<path d="M34.8399 422.228H30.8418L30.3706 398.886L28.4995 401.43L26.4398 394.093C26.7764 392.882 27.0321 392.276 27.7052 391.657C28.1494 391.264 28.6731 390.97 29.2399 390.795L36.59 388.803C36.59 388.803 37.2765 408.551 36.2265 420.963C36.1969 421.31 36.038 421.633 35.7809 421.867C35.5238 422.102 35.1886 422.231 34.8399 422.228Z" fill="#21252B"/>
<path d="M23.7609 400.151L28.7283 403.234L31.0437 398.805L27.4494 392.653L26.8167 392.976L23.7609 400.151Z" fill="#21252B"/>
<path d="M36.5899 388.277L35.7418 389.031L34.463 393.716L36.6976 392.652L36.5899 388.277Z" fill="#21252B"/>
<path opacity="0.3" d="M35.5669 389.086L35.7553 389.032L34.463 393.716L36.6977 392.653L36.7246 393.636L34.2745 393.891L35.5669 389.086Z" fill="black"/>
<path d="M54.8171 406.101L53.7132 400.999L48.2074 402.291L49.3112 405.522L40.1034 407.568L39.5919 407.676C39.4169 407.716 39.2688 407.729 39.1476 407.608L38.9457 407.406C38.7613 407.262 38.5513 407.153 38.3264 407.083C37.7839 406.92 37.3262 406.553 37.0476 406.06L36.6034 405.279C36.5993 405.27 36.5926 405.262 36.5845 405.255C36.5764 405.248 36.5656 405.244 36.5562 405.241C36.5455 405.238 36.5347 405.238 36.5253 405.24C36.5145 405.242 36.5051 405.246 36.4957 405.252L36.4283 405.279C36.2735 405.34 36.147 405.457 36.0743 405.607C36.003 405.756 35.9895 405.928 36.0379 406.087L36.3745 407.164C36.3933 407.219 36.3893 407.28 36.3637 407.332C36.3395 407.385 36.2951 407.426 36.2399 407.447L34.0725 408.335C33.6148 408.51 33.7764 409.129 34.1937 409.035C34.4225 408.981 34.4629 408.968 34.4629 408.968L34.0321 409.183C33.5475 409.412 33.7764 410.072 34.1937 409.978C34.611 409.883 35.1495 409.735 35.1495 409.735L34.611 409.951C34.5289 410 34.467 410.077 34.436 410.168C34.405 410.259 34.4077 410.358 34.4441 410.447C34.4791 410.536 34.5464 410.61 34.6312 410.654C34.716 410.699 34.8143 410.712 34.9072 410.691C35.2168 410.61 35.7149 410.462 35.7149 410.462L35.3918 410.624C34.9745 410.758 35.1225 411.404 35.5129 411.324C35.8495 411.256 39.0399 410.476 40.6823 410.179L52.8786 408.86C53.1936 408.819 53.4952 408.713 53.7671 408.549C54.0377 408.385 54.2719 408.166 54.455 407.907C54.6367 407.647 54.7632 407.352 54.8252 407.042C54.8884 406.731 54.8857 406.41 54.8171 406.101Z" fill="#FC9D9D"/>
<g opacity="0.2">
<path opacity="0.2" d="M41.3823 441.788L38.6091 438.49L38.7976 423.184C38.8017 423.072 38.8501 422.967 38.9295 422.889C39.0103 422.812 39.1167 422.768 39.2284 422.767C38.7115 422.771 38.2188 422.979 37.8539 423.344C37.4891 423.709 37.2818 424.202 37.2764 424.719L37.1284 439.271L41.6246 444.427L41.3823 441.788Z" fill="black"/>
</g>
<path opacity="0.15" d="M52.8517 408.86L40.6554 410.179C39.013 410.476 35.8226 411.256 35.4861 411.324C35.439 411.329 35.3905 411.325 35.3447 411.311C35.2989 411.296 35.2572 411.273 35.2209 411.241C35.1859 411.209 35.1576 411.17 35.1374 411.126C35.1186 411.082 35.1091 411.035 35.1091 410.987C35.1468 411.038 35.2007 411.074 35.2626 411.089C35.3245 411.104 35.3891 411.096 35.4457 411.068C35.5803 411.028 37.5323 410.314 38.7707 409.843C39.4384 409.593 40.1277 409.408 40.8304 409.291C43.4958 408.847 50.4151 407.676 52.2729 407.258C52.8113 407.137 53.4036 406.733 53.269 406.02L52.2325 401.349L53.6998 400.999L54.8037 406.087C54.875 406.399 54.8804 406.722 54.8185 407.036C54.7566 407.35 54.63 407.647 54.4456 407.909C54.2625 408.171 54.0242 408.39 53.7496 408.554C53.475 408.718 53.1694 408.822 52.8517 408.86Z" fill="black"/>
<path d="M40.09 407.582L40.5611 410.193L41.3823 410.112L40.9111 407.393L40.09 407.582Z" fill="#001B34"/>
<path d="M40.7765 409.762C40.9394 409.762 41.0982 409.714 41.2328 409.624C41.3675 409.534 41.4725 409.406 41.5344 409.255C41.5977 409.106 41.6138 408.94 41.5815 408.781C41.5506 408.622 41.4725 408.476 41.3567 408.361C41.2423 408.246 41.0955 408.168 40.9367 408.136C40.7778 408.104 40.6123 408.12 40.4615 408.183C40.3121 408.245 40.1842 408.35 40.094 408.485C40.0038 408.62 39.9553 408.779 39.9553 408.941C39.9553 409.159 40.0415 409.368 40.1963 409.522C40.3498 409.676 40.5584 409.762 40.7765 409.762Z" fill="#4D61FC"/>
<path d="M40.7765 409.628C40.9125 409.628 41.0444 409.588 41.1575 409.512C41.2706 409.437 41.3594 409.33 41.4106 409.204C41.4631 409.079 41.4765 408.941 41.4496 408.808C41.4227 408.674 41.3581 408.552 41.2625 408.456C41.1656 408.36 41.0431 408.295 40.9098 408.268C40.7765 408.242 40.6392 408.255 40.514 408.307C40.3888 408.359 40.2811 408.447 40.2058 408.56C40.1304 408.673 40.09 408.806 40.09 408.941C40.09 409.123 40.1627 409.298 40.2905 409.427C40.4198 409.556 40.5948 409.628 40.7765 409.628Z" fill="white"/>
<path d="M41.2342 409.009L40.763 408.982L40.4265 408.739C40.413 408.726 40.3996 408.699 40.413 408.686C40.4265 408.672 40.4534 408.659 40.4669 408.672L40.79 408.901L41.2342 408.928C41.2396 408.927 41.245 408.928 41.2504 408.93C41.2557 408.931 41.2598 408.934 41.2638 408.938C41.2679 408.942 41.2706 408.947 41.2733 408.952C41.2746 408.957 41.2746 408.963 41.2746 408.968C41.2746 408.979 41.2692 408.989 41.2625 408.996C41.2544 409.004 41.245 409.008 41.2342 409.009Z" fill="#001B34"/>
<path opacity="0.3" d="M30.3975 400.03L30.3167 397.701C30.3235 397.665 30.3167 397.628 30.2965 397.598C30.2764 397.568 30.2454 397.547 30.2091 397.539C30.1741 397.532 30.1364 397.54 30.1067 397.56C30.0758 397.58 30.0542 397.611 30.0475 397.647L27.6244 402.561L28.7148 403.234L30.3975 400.03Z" fill="black"/>
<path opacity="0.2" d="M45.7978 422.228L46.1343 464.579H47.6824L47.4805 422.228H45.7978Z" fill="black"/>
<path d="M9.54555 392.289L7.18974 389.933L4.83394 392.289C4.79651 392.332 4.74644 392.362 4.69084 392.375C4.63524 392.388 4.57709 392.382 4.52472 392.36C4.47235 392.337 4.42846 392.299 4.39939 392.25C4.37018 392.201 4.35739 392.144 4.36277 392.087V385.787H10.0302V392.087C10.0296 392.143 10.0128 392.198 9.98158 392.244C9.95034 392.291 9.90619 392.327 9.85449 392.348C9.80293 392.37 9.74612 392.376 9.6912 392.365C9.63614 392.355 9.58553 392.328 9.54555 392.289Z" fill="#3F4249"/>
<path d="M16.6797 381.156L11.4431 389.394L20.0588 390.458L16.6797 381.156Z" fill="#B2B6BB"/>
<path d="M6.12626 456.583L3.25891 456.219L11.4437 389.395L14.311 389.745L6.12626 456.583Z" fill="#4D61FC"/>
<path d="M11.8606 456.959L8.99323 456.609L17.1645 389.785L20.0589 390.135L11.8606 456.959Z" fill="#4D61FC"/>
<path d="M8.99302 456.609L6.12567 456.259L14.3104 389.422L17.1643 389.785L8.99302 456.609Z" fill="#4D61FC"/>
<path opacity="0.3" d="M8.99302 456.933L6.12567 456.583L14.3104 389.745L17.1643 390.109L8.99302 456.933Z" fill="black"/>
<path d="M15.2934 383.337L16.68 381.156L17.5684 383.619L15.2934 383.337Z" fill="#21252B"/>
<path d="M8.57612 405.563C8.74749 405.563 8.91185 405.631 9.03301 405.752C9.1543 405.873 9.22228 406.037 9.22228 406.209V407.084L11.3492 407.299C11.4293 407.308 11.5034 407.346 11.5578 407.405C11.6123 407.465 11.6434 407.542 11.6454 407.622C11.6457 407.704 11.6154 407.782 11.5605 407.842C11.5057 407.902 11.4303 407.939 11.3492 407.945L9.30305 408.08C9.28717 408.082 9.27263 408.09 9.26254 408.103C9.25244 408.115 9.24773 408.131 9.24921 408.147C9.25177 408.162 9.25809 408.176 9.26751 408.188C9.27694 408.2 9.28919 408.209 9.30305 408.215L11.3223 408.349C11.4098 408.358 11.4907 408.4 11.549 408.466C11.6073 408.532 11.6387 408.617 11.6369 408.705C11.6353 408.793 11.6006 408.878 11.5399 408.941C11.4791 409.005 11.3968 409.043 11.3089 409.049L9.27613 409.116L11.255 409.049C11.3529 409.05 11.4464 409.089 11.517 409.157C11.5875 409.224 11.6295 409.316 11.6348 409.414C11.6399 409.512 11.6077 409.608 11.5446 409.682C11.4816 409.757 11.3926 409.805 11.2954 409.816L9.27613 410.005L10.7838 409.87C10.8284 409.867 10.8732 409.873 10.9154 409.888C10.9575 409.902 10.9963 409.926 11.0291 409.956C11.062 409.986 11.0882 410.023 11.1061 410.064C11.1242 410.105 11.1336 410.149 11.1339 410.193C11.1336 410.27 11.1067 410.344 11.0574 410.403C11.0083 410.462 10.9401 410.502 10.8646 410.516L9.58575 410.772C9.42152 410.804 9.25163 410.793 9.09332 410.738C8.93514 410.684 8.7938 410.589 8.68381 410.463C8.24779 409.963 7.97411 409.342 7.89967 408.684C7.82509 408.025 7.95311 407.358 8.2665 406.774L8.49535 405.643C8.49494 405.633 8.49683 405.622 8.50074 405.612C8.50464 405.602 8.51056 405.593 8.51824 405.585C8.52578 405.578 8.53479 405.572 8.54475 405.568C8.55471 405.564 8.56549 405.562 8.57612 405.563Z" fill="#FC9D9D"/>
<g opacity="0.15">
<path opacity="0.15" d="M11.1111 408.934L9.23987 408.996L9.2466 409.184L11.1164 409.122L11.1111 408.934Z" fill="black"/>
</g>
<g opacity="0.15">
<path opacity="0.15" d="M10.8873 409.759L9.38495 409.884L9.39975 410.071L10.9034 409.946L10.8873 409.759Z" fill="black"/>
</g>
<path opacity="0.2" d="M9.2219 407.07V406.195L8.71036 406.734C8.68626 406.758 8.66983 406.789 8.66324 406.822C8.65651 406.856 8.65987 406.89 8.67279 406.922C8.68572 406.954 8.70767 406.981 8.73594 407C8.76421 407.019 8.79745 407.03 8.83151 407.03L9.2219 407.07Z" fill="black"/>
</g>
<circle cx="516.5" cy="60.5" r="32.5" fill="#FDB3A6"/>
<circle cx="516.5" cy="60.5" r="32" stroke="white" stroke-opacity="0.3"/>
<path d="M513.847 59.8745C513.534 59.8745 513.279 60.1288 513.279 60.4426C513.279 60.7564 513.534 61.0107 513.847 61.0107C514.161 61.0107 514.415 60.7564 514.415 60.4426C514.415 60.1288 514.161 59.8745 513.847 59.8745Z" fill="#1E223B"/>
<path d="M517.589 64.745C522.08 64.745 525.721 61.1045 525.721 56.6136C525.721 52.1227 524.704 46.9575 524.704 46.9575H510.474C510.474 46.9575 509.458 52.1227 509.458 56.6136C509.458 61.1045 513.098 64.745 517.589 64.745V64.745Z" fill="#1E223B" stroke="#1E223B" stroke-width="2.03284" stroke-linejoin="round"/>
<path d="M509.966 50.0068H503.359C503.359 57.1218 506.409 60.6794 510.576 60.6794M525.213 50.0068H531.819C531.819 57.1218 528.77 60.6794 524.603 60.6794" stroke="#1E223B" stroke-width="2.03284" stroke-linejoin="round"/>
<path d="M525.749 73.4116C519.456 72.954 515.897 72.9507 509.491 73.4116M517.589 64.7451V72.8766" stroke="#1E223B" stroke-width="2.03284"/>
<path d="M523.82 55.8445C523.82 52.4204 521.044 49.6445 517.62 49.6445C514.196 49.6445 511.42 52.4204 511.42 55.8445C511.42 59.2687 514.196 62.0445 517.62 62.0445C521.044 62.0445 523.82 59.2687 523.82 55.8445Z" fill="white"/>
<path d="M520.169 54.4673L516.94 57.4984L515.002 55.6797" stroke="#1E223B" stroke-width="1.37778" stroke-linecap="round" stroke-linejoin="round"/>
</g>
<defs>
<linearGradient id="paint0_linear_18_1890" x1="549" y1="299.497" x2="-1.27477e-06" y2="299.497" gradientUnits="userSpaceOnUse">
<stop stop-color="#919B9F"/>
<stop offset="1" stop-color="#6D7CA0"/>
</linearGradient>
<linearGradient id="paint1_linear_18_1890" x1="2684.41" y1="761550" x2="-9649.27" y2="-327205" gradientUnits="userSpaceOnUse">
<stop stop-color="#064AF3"/>
<stop offset="1" stop-color="#08A3EE"/>
</linearGradient>
</defs>
</svg>
