<svg width="50" height="50" viewBox="0 0 50 50" fill="none" xmlns="http://www.w3.org/2000/svg">
<circle cx="25" cy="25" r="25" fill="url(#paint0_linear_47_1531)"/>
<path d="M14 17.5556C14 16.146 15.146 15 16.5556 15H22.9444V20.1111C22.9444 20.8179 23.5155 21.3889 24.2222 21.3889H29.3333V26.4082L25.8674 29.8741C25.4561 30.2854 25.1686 30.7965 25.0288 31.3595L24.2821 34.3503C24.1903 34.7177 24.2102 35.101 24.334 35.4484H16.5556C15.146 35.4484 14 34.3024 14 32.8929V17.5556ZM29.3333 20.1111H24.2222V15L29.3333 20.1111ZM35.9538 24.4116L36.5288 24.9866C37.1517 25.6095 37.1517 26.6198 36.5288 27.2467L35.3549 28.4207L32.5198 25.5856L33.6938 24.4116C34.3167 23.7887 35.3269 23.7887 35.9538 24.4116ZM26.4543 31.651L31.6134 26.492L34.4484 29.3271L29.2894 34.4821C29.1257 34.6458 28.922 34.7616 28.6944 34.8175L26.2946 35.4165C26.075 35.4724 25.8474 35.4085 25.6877 35.2488C25.528 35.0891 25.4641 34.8615 25.52 34.6418L26.1189 32.242C26.1748 32.0184 26.2906 31.8108 26.4543 31.647V31.651Z" fill="white"/>
<defs>
<linearGradient id="paint0_linear_47_1531" x1="25" y1="0" x2="25" y2="50" gradientUnits="userSpaceOnUse">
<stop stop-color="#064AF3"/>
<stop offset="1" stop-color="#08A3EE"/>
</linearGradient>
</defs>
</svg>
