<svg xmlns="http://www.w3.org/2000/svg" width="40" height="36" fill="none" viewBox="0 0 40 36"><g clip-path="url(#a)"><path fill="#064AF3" d="M37.575.668c-.386-.86-1.486-.894-1.947-.083-2.133 3.708-5.95 6.02-10.312 6.02h-5.504c-7.292 0-13.208 5.916-13.208 13.208 0 .482.055.943.103 1.41 4.39-3.144 10.725-5.813 19.71-5.813.605 0 1.1.495 1.1 1.1 0 .606-.495 1.102-1.1 1.102-17.295 0-24.628 10.6-26.252 14.584a2.204 2.204 0 0 0 4.08 1.672c.103-.248 1.437-3.296 4.946-6.233 2.229 3.02 6.466 5.902 12.032 5.31 10.8-.784 18.402-10.47 18.402-22.33 0-3.453-.743-7.03-2.05-9.947z"/></g><defs><clipPath id="a"><path fill="#fff" d="M0 0h39.62v35.22H0z"/></clipPath></defs></svg>