<svg width="50" height="50" viewBox="0 0 50 50" fill="none" xmlns="http://www.w3.org/2000/svg">
<circle cx="25" cy="24.9999" r="25" fill="url(#paint0_linear_47_1516)"/>
<path d="M16.1922 14.575C15.4 14.7859 14.7812 15.4188 14.5703 16.2203C14.5141 16.4266 14.5 16.7828 14.5 17.7438V19H25H35.5V17.7438C35.5 16.7688 35.4859 16.4266 35.4297 16.2109C35.2188 15.4047 34.5906 14.7813 33.7797 14.5703C33.3813 14.4672 16.5813 14.4719 16.1922 14.575ZM28.2953 16.0656C28.7781 16.2672 28.8953 16.8953 28.5203 17.2703C27.9953 17.8 27.1328 17.3266 27.2688 16.5859C27.3531 16.1453 27.8688 15.8828 28.2953 16.0656ZM30.5453 16.0656C31.0281 16.2672 31.1453 16.8953 30.7703 17.2703C30.2453 17.8 29.3828 17.3266 29.5188 16.5859C29.6031 16.1453 30.1188 15.8828 30.5453 16.0656ZM32.7953 16.0656C33.2781 16.2672 33.3953 16.8953 33.0203 17.2703C32.4953 17.8 31.6328 17.3266 31.7688 16.5859C31.8531 16.1453 32.3688 15.8828 32.7953 16.0656Z" fill="white"/>
<path d="M14.5 27.0062C14.5 34.1641 14.4859 33.7656 14.7859 34.3328C14.964 34.6609 15.3765 35.0687 15.7094 35.2375C16.239 35.5047 16.1547 35.5 20.3687 35.5H24.25V28V20.5H19.375H14.5V27.0062ZM21.6531 23.6219C21.9015 23.8047 21.9765 23.9547 21.9765 24.25C21.9765 24.5453 21.9015 24.6953 21.6531 24.8781C21.5265 24.9719 21.4609 24.9766 19.4781 24.9906C18.1187 25 17.3734 24.9906 17.2562 24.9531C16.7828 24.8172 16.6 24.1656 16.9234 23.7766C17.1578 23.5 17.139 23.5 19.4312 23.5141C21.4656 23.5234 21.5265 23.5281 21.6531 23.6219ZM21.6531 26.6219C21.9015 26.8047 21.9765 26.9547 21.9765 27.25C21.9765 27.5453 21.9015 27.6953 21.6531 27.8781C21.5265 27.9719 21.4609 27.9766 19.4781 27.9906C18.1187 28 17.3734 27.9906 17.2562 27.9531C16.7828 27.8172 16.6 27.1656 16.9234 26.7766C17.1578 26.5 17.139 26.5 19.4312 26.5141C21.4656 26.5234 21.5265 26.5281 21.6531 26.6219ZM21.6531 29.6219C21.9015 29.8047 21.9765 29.9547 21.9765 30.25C21.9765 30.5453 21.9015 30.6953 21.6531 30.8781C21.5265 30.9719 21.4609 30.9766 19.4781 30.9906C18.1187 31 17.3734 30.9906 17.2562 30.9531C16.7828 30.8172 16.6 30.1656 16.9234 29.7766C17.1578 29.5 17.139 29.5 19.4312 29.5141C21.4656 29.5234 21.5265 29.5281 21.6531 29.6219Z" fill="white"/>
<path d="M25.75 23.5V26.5H30.625H35.5V23.5V20.5H30.625H25.75V23.5Z" fill="white"/>
<path d="M25.75 31.75V35.5H29.6313C33.8453 35.5 33.7609 35.5047 34.2906 35.2375C34.6234 35.0687 35.0359 34.6609 35.2141 34.3328C35.5 33.7937 35.5 33.7844 35.5 30.7562V28H30.625H25.75V31.75Z" fill="white"/>
<defs>
<linearGradient id="paint0_linear_47_1516" x1="25" y1="-0.00012207" x2="25" y2="49.9999" gradientUnits="userSpaceOnUse">
<stop stop-color="#064AF3"/>
<stop offset="1" stop-color="#08A3EE"/>
</linearGradient>
</defs>
</svg>
