<svg xmlns="http://www.w3.org/2000/svg" width="37" height="39" fill="none" viewBox="0 0 37 39"><path fill="#064AF3" d="M18.5.597C8.28.597 0 8.877 0 19.097s8.28 18.5 18.5 18.5 18.5-8.28 18.5-18.5S28.72.597 18.5.597zm-8.355 14.92a2.384 2.384 0 0 1 2.387-2.388 2.385 2.385 0 0 1 2.387 2.387 2.385 2.385 0 0 1-2.387 2.387 2.385 2.385 0 0 1-2.387-2.387zM18.5 31.031a4.779 4.779 0 0 1-4.774-4.774 4.779 4.779 0 0 1 4.774-4.774 4.779 4.779 0 0 1 4.774 4.774 4.779 4.779 0 0 1-4.774 4.774zm5.968-13.129a2.385 2.385 0 0 1-2.387-2.387 2.385 2.385 0 0 1 2.387-2.387 2.384 2.384 0 0 1 2.387 2.387 2.385 2.385 0 0 1-2.387 2.387z"/></svg>