<svg width="50" height="50" viewBox="0 0 50 50" fill="none" xmlns="http://www.w3.org/2000/svg">
<circle cx="25" cy="25" r="25" fill="url(#paint0_linear_47_1541)"/>
<path d="M23.065 28.7851L21.7976 27.5178C21.449 27.1692 21.326 26.6647 21.4818 26.1971C21.6049 25.8321 21.7689 25.3564 21.9658 24.8109H17.6266C17.2739 24.8109 16.9458 24.6222 16.7694 24.3146C16.593 24.007 16.5971 23.6297 16.7776 23.3262L18.9308 19.6965C19.464 18.7983 20.4278 18.2487 21.4695 18.2487H24.8449C24.9434 18.0847 25.0418 17.9329 25.1402 17.7853C28.4993 12.8308 33.5029 12.6668 36.4887 13.2164C36.9644 13.3025 37.3336 13.6757 37.4238 14.1515C37.9734 17.1414 37.8052 22.1409 32.8549 25.4999C32.7113 25.5983 32.5555 25.6968 32.3914 25.7952V29.1706C32.3914 30.2124 31.8419 31.1803 30.9437 31.7094L27.314 33.8626C27.0105 34.043 26.6331 34.0471 26.3255 33.8708C26.0179 33.6944 25.8293 33.3704 25.8293 33.0136V28.6169C25.251 28.8179 24.7465 28.982 24.3651 29.105C23.9057 29.2526 23.4054 29.1255 23.0609 28.7851H23.065ZM32.3914 19.8893C33.2978 19.8893 34.032 19.1551 34.032 18.2487C34.032 17.3423 33.2978 16.6082 32.3914 16.6082C31.485 16.6082 30.7509 17.3423 30.7509 18.2487C30.7509 19.1551 31.485 19.8893 32.3914 19.8893Z" fill="white"/>
<rect x="13" y="32.9772" width="9" height="1" transform="rotate(-46 13 32.9772)" fill="white"/>
<rect x="18" y="35.9772" width="9" height="1" transform="rotate(-46 18 35.9772)" fill="white"/>
<rect x="17" y="32.9772" width="9" height="1" transform="rotate(-46 17 32.9772)" fill="white" fill-opacity="0.93"/>
<defs>
<linearGradient id="paint0_linear_47_1541" x1="25" y1="0" x2="25" y2="50" gradientUnits="userSpaceOnUse">
<stop stop-color="#064AF3"/>
<stop offset="1" stop-color="#08A3EE"/>
</linearGradient>
</defs>
</svg>
