<svg width="33" height="33" viewBox="0 0 33 33" fill="none" xmlns="http://www.w3.org/2000/svg">
<rect width="33" height="33" rx="10" fill="#0748EA"/>
<path d="M23.875 12.113C23.2954 12.3704 22.6726 12.5432 22.0192 12.6224C22.687 12.2228 23.1982 11.5892 23.4394 10.835C22.8148 11.2058 22.1218 11.474 21.3874 11.6198C20.7988 10.9916 19.9582 10.5992 19.0294 10.5992C17.2438 10.5992 15.7966 12.0446 15.7966 13.8303C15.7966 14.0841 15.8254 14.3307 15.8794 14.5665C13.1938 14.4315 10.8124 13.1463 9.2194 11.1896C8.9422 11.6666 8.782 12.2228 8.782 12.815C8.782 13.9365 9.3526 14.9247 10.2184 15.5043C9.6892 15.4881 9.1906 15.3423 8.755 15.0993V15.1407C8.755 16.7067 9.8692 18.0117 11.347 18.3087C11.077 18.3825 10.7908 18.4221 10.4956 18.4221C10.2868 18.4221 10.0852 18.4023 9.889 18.3645C10.2994 19.6479 11.4928 20.5821 12.9058 20.6091C11.8006 21.4749 10.4092 21.9915 8.8936 21.9915C8.6326 21.9915 8.377 21.9771 8.1232 21.9465C9.5542 22.8627 11.2516 23.3973 13.0768 23.3973C19.0204 23.3973 22.2712 18.4743 22.2712 14.2047C22.2712 14.0643 22.2676 13.9257 22.2622 13.7871C22.894 13.3299 23.443 12.761 23.875 12.113Z" fill="white"/>
</svg>
