<svg width="33" height="33" viewBox="0 0 33 33" fill="none" xmlns="http://www.w3.org/2000/svg">
<rect width="33" height="33" rx="10" fill="#0748EA"/>
<path d="M23.9984 15.8656H23.9712C23.9712 15.7088 23.9744 15.5536 23.9696 15.3968C23.9648 15.2432 23.9536 15.0896 23.9424 14.936C23.928 14.7456 23.9088 14.5552 23.8912 14.3648C23.8736 14.1744 23.8704 13.9808 23.832 13.7952C23.7744 13.5152 23.7024 13.2384 23.6192 12.9664C23.544 12.7216 23.432 12.4896 23.2624 12.2944C22.8896 11.864 22.4096 11.6352 21.848 11.576C21.552 11.5456 21.2528 11.5264 20.9552 11.5088C20.6816 11.4912 20.408 11.4784 20.1328 11.4688C19.72 11.4528 19.3072 11.4384 18.8944 11.4272C18.4896 11.416 18.0848 11.4048 17.6816 11.4016C16.888 11.3968 16.0944 11.3888 15.3008 11.3952C14.496 11.4016 13.6928 11.4224 12.888 11.4384C12.5488 11.4448 12.2096 11.456 11.8704 11.4656C11.7632 11.4688 11.656 11.4736 11.5488 11.48C11.1968 11.5008 10.8448 11.5168 10.4944 11.5472C10.2592 11.568 10.0192 11.5888 9.7904 11.6448C9.2864 11.7664 8.88 12.0432 8.6 12.4832C8.3968 12.8064 8.2848 13.168 8.216 13.5392C8.16 13.8416 8.1264 14.1488 8.0944 14.456C8.0624 14.7664 8.0448 15.0784 8.0272 15.3888C8.0112 15.6432 8 15.8976 8 16.152C8 16.8736 8.0048 17.5968 8.0128 18.3184C8.0144 18.4992 8.0272 18.68 8.04 18.8592C8.0592 19.1168 8.0816 19.3744 8.104 19.6304C8.12 19.8208 8.1312 20.0128 8.1616 20.2016C8.2128 20.5264 8.2992 20.8416 8.416 21.1488C8.6304 21.7168 9.032 22.0896 9.6032 22.2816C9.9664 22.4032 10.3456 22.4368 10.7216 22.472C11.0256 22.5008 11.3312 22.5104 11.6368 22.5248C11.888 22.536 12.1408 22.5456 12.3936 22.552C12.7888 22.5632 13.184 22.5728 13.5792 22.5792C13.9456 22.5856 14.312 22.5936 14.6784 22.5968C15.3216 22.6032 15.9664 22.6144 16.608 22.6096C17.4144 22.6032 18.2208 22.5824 19.0272 22.5664C19.3584 22.56 19.688 22.5488 20.0192 22.5392C20.128 22.536 20.2384 22.5312 20.3472 22.5248C20.7104 22.504 21.0736 22.4864 21.4352 22.4576C21.6624 22.44 21.8928 22.424 22.1152 22.376C22.8208 22.224 23.32 21.8176 23.584 21.1344C23.7648 20.6688 23.8496 20.184 23.8896 19.6896C23.912 19.4096 23.9392 19.1296 23.9536 18.8512C23.9728 18.4928 23.9904 18.1328 23.9936 17.7744C24.0032 17.1392 23.9984 16.5024 23.9984 15.8656ZM14.3456 19.0784V14.5872C15.7872 15.3376 17.2208 16.0848 18.6672 16.84C17.224 17.5872 15.7904 18.3296 14.3456 19.0784Z" fill="white"/>
</svg>
