<svg width="375" height="294" viewBox="0 0 375 294" fill="none" xmlns="http://www.w3.org/2000/svg">
    <g filter="url(#filter0_f_269_3213)">
        <ellipse cx="26.5" cy="265.079" rx="24.5" ry="14.5" fill="url(#paint0_linear_269_3213)"/>
    </g>
    <g clip-path="url(#clip0_269_3213)">
        <path d="M26.7957 238.995C26.7957 238.995 23.3881 197.795 29.5062 188.424C35.1596 179.751 50.4934 184.01 47.4731 198.027C45.537 207.166 36.7084 237.911 36.7084 237.911L26.7957 238.995Z" fill="url(#paint1_linear_269_3213)"/>
        <path d="M32.8363 189.354C35.0821 186.024 38.722 184.552 42.1295 184.939C37.9475 182.926 32.449 183.933 29.5062 188.424C23.3881 197.795 26.7957 238.995 26.7957 238.995L30.0483 238.608C29.5836 231.638 27.4152 197.718 32.8363 189.354Z" fill="#ADE68F"/>
        <path d="M32.7587 186.488L31.0549 183.081" stroke="#88BD6D" stroke-width="1.00677" stroke-linecap="round" stroke-linejoin="round"/>
        <path d="M39.1865 185.327L39.5737 181.609" stroke="#88BD6D" stroke-width="1.00677" stroke-linecap="round" stroke-linejoin="round"/>
        <path d="M44.2979 188.192L46.0016 184.785" stroke="#88BD6D" stroke-width="1.00677" stroke-linecap="round" stroke-linejoin="round"/>
        <path d="M46.6212 192.684L49.2543 190.051" stroke="#88BD6D" stroke-width="1.00677" stroke-linecap="round" stroke-linejoin="round"/>
        <path d="M43.2909 206.159L46.9307 207.243" stroke="#88BD6D" stroke-width="1.00677" stroke-linecap="round" stroke-linejoin="round"/>
        <path d="M42.1293 212.587L45.6917 211.348" stroke="#88BD6D" stroke-width="1.00677" stroke-linecap="round" stroke-linejoin="round"/>
        <path d="M41.1227 216.769L43.6783 217.079" stroke="#88BD6D" stroke-width="1.00677" stroke-linecap="round" stroke-linejoin="round"/>
        <path d="M46.3887 197.331L49.3315 195.859" stroke="#88BD6D" stroke-width="1.00677" stroke-linecap="round" stroke-linejoin="round"/>
        <path d="M44.7622 202.054L48.0923 201.977" stroke="#88BD6D" stroke-width="1.00677" stroke-linecap="round" stroke-linejoin="round"/>
        <path d="M30.8999 190.361L27.8021 188.192" stroke="#88BD6D" stroke-width="1.00677" stroke-linecap="round" stroke-linejoin="round"/>
        <path d="M15.8758 233.574C15.8758 233.574 -0.464777 189.044 3.48485 176.885C7.1247 165.501 25.3239 165.579 26.2533 181.997C26.8728 192.684 26.4082 229.392 26.4082 229.392L15.8758 233.574Z" fill="url(#paint2_linear_269_3213)"/>
        <path d="M7.43447 176.885C8.82846 172.471 12.4683 169.76 16.4179 169.063C11.1518 168.134 5.34349 171 3.48485 176.885C-0.464777 189.044 15.8758 233.574 15.8758 233.574L19.3608 232.18C16.6503 224.591 3.94951 187.805 7.43447 176.885Z" fill="#ADE68F"/>
        <path d="M5.73062 193.381H2.16821" stroke="#88BD6D" stroke-width="1.16165" stroke-linecap="round" stroke-linejoin="round"/>
        <path d="M7.20244 200.893L2.8656 201.203" stroke="#88BD6D" stroke-width="1.16165" stroke-linecap="round" stroke-linejoin="round"/>
        <path d="M9.21584 207.785L5.11133 209.334" stroke="#88BD6D" stroke-width="1.16165" stroke-linecap="round" stroke-linejoin="round"/>
        <path d="M6.50536 173.633L3.5625 170.458" stroke="#88BD6D" stroke-width="1.16165" stroke-linecap="round" stroke-linejoin="round"/>
        <path d="M13.2429 170.458L12.4685 166.198" stroke="#88BD6D" stroke-width="1.16165" stroke-linecap="round" stroke-linejoin="round"/>
        <path d="M19.7482 172.084L20.6 167.824" stroke="#88BD6D" stroke-width="1.16165" stroke-linecap="round" stroke-linejoin="round"/>
        <path d="M23.6979 176.343L25.8663 172.626" stroke="#88BD6D" stroke-width="1.16165" stroke-linecap="round" stroke-linejoin="round"/>
        <path d="M24.1626 192.297H28.4994" stroke="#88BD6D" stroke-width="1.16165" stroke-linecap="round" stroke-linejoin="round"/>
        <path d="M24.782 199.731L28.4218 197.331" stroke="#88BD6D" stroke-width="1.16165" stroke-linecap="round" stroke-linejoin="round"/>
        <path d="M24.937 204.61L27.8799 204.301" stroke="#88BD6D" stroke-width="1.16165" stroke-linecap="round" stroke-linejoin="round"/>
        <path d="M24.937 181.609L27.725 179.054" stroke="#88BD6D" stroke-width="1.16165" stroke-linecap="round" stroke-linejoin="round"/>
        <path d="M24.4723 187.263L28.1121 186.179" stroke="#88BD6D" stroke-width="1.16165" stroke-linecap="round" stroke-linejoin="round"/>
        <path d="M5.57582 178.512L1.47131 177.118" stroke="#88BD6D" stroke-width="1.16165" stroke-linecap="round" stroke-linejoin="round"/>
        <path d="M5.03374 184.165L0.696899 184.552" stroke="#88BD6D" stroke-width="1.16165" stroke-linecap="round" stroke-linejoin="round"/>
        <path d="M10.7646 178.434C10.7646 178.821 10.3774 179.209 9.99013 179.209C9.52547 179.209 9.2157 178.821 9.2157 178.434C9.2157 177.969 9.52547 177.582 9.99013 177.582C10.3774 177.582 10.7646 177.969 10.7646 178.434Z" fill="#88BD6D"/>
        <path d="M17.7346 182.074C17.7346 182.849 17.1925 183.391 16.4181 183.391C15.7211 183.391 15.1016 182.849 15.1016 182.074C15.1016 181.377 15.7211 180.758 16.4181 180.758C17.1925 180.758 17.7346 181.377 17.7346 182.074Z" fill="#88BD6D"/>
        <path d="M22.6909 196.169C21.839 197.33 20.2127 197.563 19.051 196.711C17.9668 195.859 17.657 194.233 18.5089 193.071C19.3608 191.987 20.9871 191.677 22.1488 192.529C23.3104 193.381 23.5427 195.007 22.6909 196.169Z" fill="#88BD6D"/>
        <path d="M17.967 206.314C17.3475 207.166 16.4182 207.398 15.7212 206.933C15.1016 206.469 15.1016 205.462 15.6437 204.61C16.2633 203.836 17.27 203.526 17.8896 203.991C18.5091 204.455 18.5866 205.539 17.967 206.314Z" fill="#88BD6D"/>
        <path d="M14.7144 187.263C14.7144 187.882 14.2497 188.425 13.6302 188.425C13.0106 188.425 12.4685 187.882 12.4685 187.263C12.4685 186.643 13.0106 186.179 13.6302 186.179C14.2497 186.179 14.7144 186.643 14.7144 187.263Z" fill="#88BD6D"/>
        <path d="M2.8656 225.83L6.66034 268.501H12.3137L11.9265 266.255H22.2265L22.3814 268.501H31.21L31.6746 266.255H39.7288L39.6513 268.501H44.7626L48.5573 225.83H2.8656Z" fill="#A87C56"/>
        <path d="M10.61 225.83H2.8656L6.66034 268.501H12.3137L11.9265 266.255H14.8694L10.61 225.83Z" fill="#BA8A60"/>
        <path d="M3.25282 230.322L47.9378 233.032L48.5573 225.83H2.8656L3.25282 230.322Z" fill="url(#paint3_linear_269_3213)"/>
        <path d="M49.254 229.47L49.951 221.725H1.47131L2.16831 229.47H49.254Z" fill="#D68E4F"/>
        <path d="M9.13823 221.725H1.47131L2.16831 229.47H10.0676L9.13823 221.725Z" fill="#E3A874"/>
    </g>
    <g clip-path="url(#clip1_269_3213)">
        <path d="M158.624 17.7807C234.455 8.30174 290.562 42.3822 305.52 106.872C313.082 132.679 308.753 162.212 293.357 190.32C274.563 224.62 242.619 251.632 209.525 261.276C182.184 271.357 152.706 270.207 126.296 258.098C94.0789 243.359 68.3267 213.771 55.5603 177.006L54.9027 174.869C45.9169 143.857 48.8209 113.338 63.2859 86.5444C79.8878 55.6967 111.174 31.8622 151.336 19.3697L158.624 17.7807Z" fill="#DEE2FF"/>
        <g filter="url(#filter1_d_269_3213)">
            <path d="M163.624 13.143C239.455 3.66404 295.562 37.7445 310.52 102.235C318.082 128.041 313.753 157.574 298.357 185.682C279.563 219.982 247.619 246.995 214.525 256.638C187.184 266.72 157.706 265.569 131.296 253.46C99.0789 238.721 73.3267 209.133 60.5603 172.368L59.9027 170.231C50.9169 139.219 53.8209 108.7 68.2859 81.9068C84.8878 51.059 116.174 27.2245 156.336 14.732L163.624 13.143Z" fill="url(#paint4_linear_269_3213)"/>
        </g>
        <path opacity="0.2" fill-rule="evenodd" clip-rule="evenodd" d="M141.959 142.223C141.959 145.149 139.718 147.39 136.792 147.39C133.865 147.39 131.625 145.149 131.625 142.223V135.089H101.949C100.806 135.089 99.6624 134.769 98.7479 133.946C96.3701 132.163 96.0958 128.962 97.8791 126.676L132.768 83.3738C132.859 83.3738 132.859 83.2824 132.951 83.1909C133.042 83.0995 133.133 82.9623 133.225 82.7794C133.499 82.688 133.591 82.5965 133.682 82.5051C133.774 82.4136 133.957 82.3222 134.048 82.2307C134.231 82.1393 134.368 82.0478 134.642 82.0478C134.734 81.8649 134.825 81.7734 135.008 81.7734C135.1 81.682 135.283 81.682 135.557 81.5905C135.648 81.5905 135.831 81.5905 135.968 81.4534C136.151 81.4534 136.426 81.4534 136.609 81.4534C136.609 81.4534 136.7 81.4534 136.792 81.4534C136.883 81.4534 136.883 81.4534 136.974 81.4534C137.157 81.4534 137.432 81.4534 137.569 81.4534C137.752 81.5905 137.843 81.5905 138.026 81.5905C138.118 81.682 138.392 81.682 138.575 81.7734C138.666 81.7734 138.849 81.8649 138.941 81.8649C139.169 82.0478 139.352 82.1393 139.444 82.2307C139.627 82.3222 139.718 82.4136 139.901 82.5051C139.901 82.5051 139.992 82.5051 139.992 82.5965C140.084 82.5965 140.267 82.688 140.267 82.7794C140.45 82.9623 140.541 83.0995 140.678 83.1909C140.77 83.2824 140.861 83.4653 140.953 83.5567C141.044 83.6482 141.135 83.7396 141.318 84.014C141.318 84.1055 141.41 84.2884 141.501 84.3798C141.593 84.5627 141.593 84.6999 141.684 84.9742C141.684 85.0657 141.776 85.2486 141.776 85.34C141.867 85.5229 141.867 85.6144 141.867 85.8887C141.867 86.0716 141.959 86.1631 141.959 86.3917C141.959 86.4832 141.959 124.618 141.959 124.71H142.919C145.845 124.71 148.177 127.087 148.177 129.877C148.177 132.803 145.845 135.089 142.919 135.089H141.959V142.223ZM131.625 101.435L112.877 124.664H131.625V101.435Z" fill="black"/>
        <path opacity="0.2" fill-rule="evenodd" clip-rule="evenodd" d="M166.742 136.964C162.627 130.928 160.432 123.018 160.341 114.421C160.432 105.779 162.627 97.9603 166.742 91.9245C170.72 85.8887 176.848 81.4534 184.255 81.4534C191.526 81.4534 197.744 85.8887 201.677 91.9245C205.746 97.9603 207.987 105.779 207.987 114.421C207.987 123.018 205.746 130.928 201.677 136.964C197.744 142.909 191.526 147.39 184.255 147.39C176.848 147.39 170.72 142.909 166.742 136.964ZM170.812 114.421C170.812 121.143 172.687 127.179 175.339 131.111C178.128 135.181 181.329 136.964 184.255 136.964C187.182 136.964 190.291 135.181 193.034 131.111C195.687 127.179 197.561 121.143 197.561 114.421C197.561 107.654 195.687 101.71 193.034 97.6859C190.291 93.7078 187.182 91.8331 184.255 91.9245C181.329 91.8331 178.128 93.7078 175.339 97.6859C172.687 101.71 170.812 107.654 170.812 114.421Z" fill="black"/>
        <path opacity="0.2" fill-rule="evenodd" clip-rule="evenodd" d="M274.791 129.877C274.791 132.803 272.414 135.089 269.487 135.089H268.573V142.223C268.573 145.149 266.286 147.39 263.36 147.39C260.434 147.39 258.193 145.149 258.193 142.223V135.089H228.517C227.374 135.089 226.277 134.769 225.316 133.946C222.984 132.163 222.664 128.962 224.448 126.676L259.336 83.3738C259.428 83.3738 259.428 83.2824 259.519 83.1909C259.61 83.0995 259.702 82.9623 259.793 82.7794C260.068 82.688 260.159 82.5965 260.251 82.5051C260.342 82.4136 260.525 82.3222 260.616 82.2307C260.845 82.1393 260.937 82.0478 261.211 82.0478C261.302 81.8649 261.394 81.7734 261.577 81.7734C261.668 81.682 261.851 81.682 262.125 81.5905C262.263 81.5905 262.445 81.5905 262.537 81.4534C262.72 81.4534 262.994 81.4534 263.177 81.4534C263.177 81.4534 263.269 81.4534 263.36 81.4534C263.451 81.4534 263.451 81.4534 263.543 81.4534C263.726 81.4534 264.046 81.4534 264.137 81.4534C264.32 81.5905 264.412 81.5905 264.595 81.5905C264.686 81.682 264.96 81.682 265.143 81.7734C265.235 81.7734 265.463 81.8649 265.555 81.8649C265.738 82.0478 265.921 82.1393 266.012 82.2307C266.195 82.3222 266.286 82.4136 266.469 82.5051C266.469 82.5051 266.561 82.5051 266.561 82.5965C266.652 82.5965 266.835 82.688 266.835 82.7794C267.064 82.9623 267.155 83.0995 267.247 83.1909C267.338 83.2824 267.43 83.4653 267.521 83.5567C267.612 83.6482 267.704 83.7396 267.887 84.014C267.887 84.1055 267.978 84.2884 268.07 84.3798C268.161 84.5627 268.161 84.6999 268.253 84.9742C268.253 85.0657 268.344 85.2486 268.344 85.34C268.436 85.5229 268.436 85.6144 268.436 85.8887C268.436 86.0716 268.573 86.1631 268.573 86.3917C268.573 86.4832 268.573 124.618 268.573 124.71H269.487C272.414 124.71 274.791 127.087 274.791 129.877ZM258.193 101.435L239.446 124.71H258.193V101.435Z" fill="black"/>
        <path fill-rule="evenodd" clip-rule="evenodd" d="M144.245 128.002C144.245 130.928 141.913 133.169 138.987 133.169H138.026V140.348C138.026 143.274 135.786 145.515 132.859 145.515C129.933 145.515 127.692 143.274 127.692 140.348V133.169H98.0165C96.8734 133.169 95.7302 132.895 94.8157 132.026C92.438 130.243 92.1637 127.042 93.947 124.801L128.79 81.4534C128.881 81.4534 128.881 81.3619 128.973 81.2705C129.064 81.179 129.156 81.0876 129.293 80.9047C129.567 80.8132 129.659 80.7217 129.75 80.6303C129.842 80.5388 130.024 80.4474 130.116 80.3559C130.299 80.2188 130.39 80.1273 130.665 80.1273C130.802 79.9444 130.893 79.853 131.076 79.853C131.168 79.7615 131.35 79.7615 131.625 79.6701C131.716 79.6701 131.899 79.6701 131.991 79.5786C132.174 79.5786 132.494 79.5786 132.676 79.5786C132.676 79.5786 132.768 79.5786 132.859 79.5786C132.951 79.5786 132.951 79.5786 133.042 79.5786C133.225 79.5786 133.5 79.5786 133.591 79.5786C133.774 79.6701 133.865 79.6701 134.094 79.6701C134.185 79.7615 134.46 79.7615 134.643 79.853C134.734 79.853 134.917 79.9444 135.008 79.9444C135.191 80.1273 135.374 80.2188 135.511 80.3559C135.694 80.4474 135.786 80.5388 135.969 80.6303C135.969 80.6303 136.06 80.6303 136.06 80.7218C136.152 80.7218 136.335 80.8132 136.335 80.9047C136.517 81.0876 136.609 81.179 136.7 81.2705C136.792 81.3619 136.883 81.5448 136.975 81.6363C137.112 81.7277 137.203 81.8192 137.386 82.1392C137.386 82.2307 137.478 82.4136 137.569 82.505C137.661 82.6879 137.661 82.7794 137.752 83.0538C137.752 83.1452 137.843 83.3281 137.843 83.4653C137.935 83.6482 137.935 83.7396 137.935 84.014C137.935 84.1969 138.026 84.2883 138.026 84.4712C138.026 84.5627 138.026 84.6541 138.026 84.7456V122.835H138.987C141.913 122.835 144.245 125.167 144.245 128.002ZM127.692 99.5607L108.945 122.835H127.692V99.5607Z" fill="#0021DB"/>
        <path fill-rule="evenodd" clip-rule="evenodd" d="M156.408 112.547C156.5 103.905 158.649 96.0855 162.81 90.0498C166.742 84.014 172.869 79.5786 180.323 79.5786C187.593 79.5786 193.812 84.014 197.744 90.0498C201.814 96.0855 204.054 103.905 204.054 112.547C204.054 121.143 201.814 129.054 197.744 135.044C193.812 140.988 187.593 145.515 180.323 145.515C172.869 145.515 166.742 140.988 162.81 135.044C158.649 129.054 156.5 121.143 156.408 112.547ZM193.629 112.547C193.629 105.779 191.708 99.835 189.102 95.7655C186.358 91.8331 183.249 89.9583 180.323 90.0498C177.396 89.9583 174.195 91.8331 171.36 95.7655C168.754 99.835 166.834 105.779 166.834 112.547C166.834 119.223 168.754 125.258 171.36 129.237C174.195 133.26 177.396 135.044 180.323 135.044C183.249 135.044 186.358 133.26 189.102 129.237C191.708 125.258 193.629 119.223 193.629 112.547Z" fill="#0021DB"/>
        <path fill-rule="evenodd" clip-rule="evenodd" d="M270.814 128.002C270.814 130.928 268.482 133.169 265.555 133.169H264.595V140.348C264.595 143.274 262.354 145.515 259.428 145.515C256.502 145.515 254.261 143.274 254.261 140.348V133.169H224.585C223.442 133.169 222.299 132.895 221.384 132.026C219.007 130.243 218.732 127.042 220.516 124.801L255.358 81.4534C255.45 81.4534 255.45 81.3619 255.587 81.2705C255.679 81.179 255.77 81.0876 255.861 80.9047C256.136 80.8132 256.227 80.7217 256.319 80.6303C256.41 80.5388 256.593 80.4474 256.684 80.3559C256.867 80.2188 256.959 80.1273 257.279 80.1273C257.37 79.9444 257.462 79.853 257.645 79.853C257.736 79.7615 257.919 79.7615 258.193 79.6701C258.285 79.6701 258.468 79.6701 258.559 79.5786C258.788 79.5786 259.062 79.5786 259.245 79.5786C259.245 79.5786 259.337 79.5786 259.428 79.5786C259.519 79.5786 259.519 79.5786 259.611 79.5786C259.794 79.5786 260.068 79.5786 260.16 79.5786C260.388 79.6701 260.48 79.6701 260.663 79.6701C260.754 79.7615 261.028 79.7615 261.211 79.853C261.303 79.853 261.486 79.9444 261.577 79.9444C261.76 80.1273 261.989 80.2188 262.08 80.3559C262.263 80.4474 262.354 80.5388 262.537 80.6303C262.537 80.6303 262.629 80.6303 262.629 80.7218C262.72 80.7218 262.903 80.8132 262.903 80.9047C263.086 81.0876 263.177 81.179 263.269 81.2705C263.406 81.3619 263.498 81.5448 263.589 81.6363C263.68 81.7277 263.772 81.8192 263.955 82.1392C263.955 82.2307 264.046 82.4136 264.138 82.505C264.229 82.6879 264.229 82.7794 264.321 83.0538C264.321 83.1452 264.412 83.3281 264.412 83.4653C264.504 83.6482 264.504 83.7396 264.504 84.014C264.504 84.1969 264.595 84.2883 264.595 84.4712C264.595 84.5627 264.595 84.6541 264.595 84.7456V122.835H265.555C268.482 122.835 270.814 125.167 270.814 128.002ZM254.261 99.5607L235.514 122.835H254.261V99.5607Z" fill="#0021DB"/>
        <path opacity="0.2" d="M217.04 160.056H154.442C146.623 160.056 140.267 166.457 140.267 174.276V182.004C140.267 189.869 146.623 196.225 154.442 196.225H217.04C224.905 196.225 231.261 189.869 231.261 182.004V174.276C231.261 166.457 224.905 160.056 217.04 160.056Z" fill="black"/>
        <path d="M227.329 180.129C227.329 187.994 220.927 194.35 213.108 194.35H150.51C142.691 194.35 136.289 187.994 136.289 180.129V172.402C136.289 164.537 142.691 158.181 150.51 158.181H213.108C220.927 158.181 227.329 164.537 227.329 172.402V180.129Z" fill="#0021DB"/>
        <path d="M147.172 182.415V168.972C147.172 168.286 147.72 167.738 148.452 167.738C148.452 167.738 148.452 167.738 148.498 167.738H155.86C156.545 167.738 157.14 168.286 157.14 168.972C157.14 169.704 156.545 170.252 155.86 170.252H149.732V174.413H155.037C155.677 174.413 156.271 175.008 156.271 175.694C156.271 176.38 155.677 176.928 155.037 176.928H149.732V181.135H155.86C156.545 181.135 157.14 181.684 157.14 182.415C157.14 183.101 156.545 183.65 155.86 183.65H148.498C148.452 183.65 148.452 183.65 148.452 183.65C147.72 183.65 147.172 183.101 147.172 182.415Z" fill="white"/>
        <path fill-rule="evenodd" clip-rule="evenodd" d="M171.681 181.775C171.909 182.415 171.543 183.147 170.857 183.376C170.766 183.376 170.583 183.421 170.354 183.421C170.126 183.421 169.76 183.376 169.44 183.193C169.166 183.01 168.891 182.69 168.708 182.37C168.434 181.73 168.251 180.907 168.251 179.672C168.251 179.215 168.16 178.94 167.977 178.666C167.84 178.437 167.565 178.209 167.291 178.026C166.834 177.706 166.239 177.523 166.011 177.477H163.358V182.415C163.358 183.101 162.764 183.65 162.078 183.65C161.347 183.65 160.798 183.101 160.798 182.415V168.972C160.798 168.286 161.347 167.738 162.078 167.738H166.148C168.846 167.738 170.995 169.932 170.995 172.63C170.995 174.139 170.309 175.465 169.211 176.38C169.531 176.608 169.806 176.837 170.034 177.203C170.492 177.843 170.766 178.712 170.766 179.672C170.766 180.358 170.812 180.769 170.857 180.998C171.223 181.135 171.543 181.409 171.681 181.775ZM168.48 172.63C168.48 171.304 167.428 170.252 166.148 170.252H163.358V174.962H166.148C167.428 174.962 168.48 173.91 168.48 172.63Z" fill="white"/>
        <path fill-rule="evenodd" clip-rule="evenodd" d="M185.901 181.775C186.13 182.415 185.764 183.147 185.078 183.376C184.987 183.376 184.804 183.421 184.575 183.421C184.346 183.421 183.981 183.376 183.661 183.193C183.386 183.01 183.112 182.69 182.929 182.37C182.609 181.73 182.472 180.907 182.472 179.672C182.426 179.215 182.335 178.94 182.197 178.666C182.06 178.437 181.786 178.209 181.511 178.026C181.054 177.706 180.46 177.523 180.231 177.477H177.533V182.415C177.533 183.101 176.985 183.65 176.299 183.65C175.567 183.65 175.018 183.101 175.018 182.415V168.972C175.018 168.286 175.567 167.738 176.299 167.738C176.268 167.738 176.268 167.738 176.299 167.738H180.368C183.066 167.738 185.215 169.932 185.215 172.63C185.215 174.139 184.529 175.465 183.432 176.38C183.752 176.608 184.026 176.837 184.255 177.203C184.712 177.843 184.987 178.712 184.987 179.672C184.987 180.358 185.032 180.769 185.078 180.998C185.444 181.135 185.764 181.409 185.901 181.775ZM182.7 172.63C182.7 171.304 181.649 170.252 180.368 170.252H177.533V174.962H180.368C181.649 174.962 182.7 173.91 182.7 172.63Z" fill="white"/>
        <path fill-rule="evenodd" clip-rule="evenodd" d="M201.722 169.704C203.14 171.213 204.054 173.225 204.054 175.465C204.054 177.706 203.14 179.763 201.722 181.227C200.396 182.69 198.384 183.65 196.281 183.65C194.132 183.65 192.12 182.69 190.703 181.227C189.331 179.763 188.462 177.706 188.462 175.465C188.462 173.225 189.331 171.213 190.703 169.704C192.12 168.195 194.132 167.28 196.281 167.28C198.384 167.28 200.396 168.195 201.722 169.704ZM201.448 175.465C201.448 173.91 200.808 172.493 199.893 171.487C198.933 170.481 197.653 169.887 196.281 169.887C194.864 169.887 193.583 170.481 192.623 171.487C191.663 172.493 191.068 173.91 191.068 175.465C191.068 177.02 191.663 178.437 192.623 179.443C193.583 180.449 194.864 181.089 196.281 181.089C197.653 181.089 198.933 180.449 199.893 179.443C200.808 178.437 201.448 177.02 201.448 175.465Z" fill="white"/>
        <path fill-rule="evenodd" clip-rule="evenodd" d="M219.052 181.775C219.281 182.415 218.915 183.147 218.229 183.376C218.138 183.376 217.955 183.421 217.772 183.421C217.772 183.421 217.757 183.421 217.726 183.421C217.498 183.421 217.178 183.376 216.857 183.193C216.537 183.01 216.309 182.69 216.126 182.37C215.806 181.73 215.623 180.907 215.623 179.672C215.623 179.215 215.531 178.94 215.349 178.666C215.211 178.437 214.937 178.209 214.663 178.026C214.205 177.706 213.611 177.523 213.382 177.477H210.73V182.415C210.73 183.101 210.136 183.65 209.45 183.65C208.718 183.65 208.215 183.101 208.215 182.415V168.972C208.215 168.286 208.718 167.738 209.45 167.738H213.52C216.217 167.738 218.366 169.932 218.366 172.63C218.366 174.139 217.726 175.465 216.629 176.38C216.903 176.608 217.178 176.837 217.406 177.203C217.863 177.843 218.138 178.712 218.138 179.672C218.138 180.358 218.184 180.769 218.229 180.998C218.595 181.135 218.915 181.409 219.052 181.775ZM215.852 172.63C215.852 171.304 214.8 170.252 213.52 170.252H210.73V174.962H213.52C214.8 174.962 215.852 173.91 215.852 172.63Z" fill="white"/>
    </g>
    <g clip-path="url(#clip2_269_3213)">
        <path d="M339.024 25.1673C283.06 7.50594 281.584 17.393 277.347 25.4887C273.089 33.5416 285.843 42.0774 290.992 43.9577C288.241 48.4687 283.023 46.7768 286.193 48.7172C288.584 50.1597 292.616 50.4222 296.208 46.8233C305.035 51.0074 323.206 56.7892 332.641 58.5268C341.135 59.9205 356.214 61.0148 363.712 53.5404C372.047 45.2332 361.827 32.3917 339.024 25.1673Z" fill="#222222"/>
        <path d="M284.205 18.3271C277.063 18.8856 267.132 26.3967 272.316 34.1255C274.294 37.0895 277.741 38.9532 280.817 40.468C283.999 41.9858 287.307 43.1583 290.661 44.2052C290.787 44.251 290.855 44.0627 290.73 44.0168C285.013 41.6445 278.676 39.8997 274.096 35.4872C271.595 33.0793 270.565 29.8567 272.012 26.5776C273.98 22.0655 279.624 19.1804 284.274 18.5299C284.379 18.5329 284.342 18.3415 284.205 18.3271Z" fill="#222222"/>
        <path d="M280.879 20.0302C276.547 22.1489 273.451 28.7755 276.215 33.0942C279.578 38.3075 286.235 41.8061 292.033 43.5674C292.127 43.6018 292.184 43.4448 292.101 43.379C286.941 41.1389 281.565 38.7128 277.764 34.407C275.828 32.2056 275.12 29.9543 275.941 27.1227C276.758 24.3966 278.444 21.6318 280.959 20.2017C281.087 20.1419 281.008 19.9704 280.879 20.0302Z" fill="#222222"/>
        <path d="M281.554 19.3517C276.642 21.7923 271.078 28.5497 274.355 34.1941C276.09 37.1406 279.074 39.2978 281.91 41.0808C285.029 42.9669 288.561 44.7908 292.113 45.5895C292.238 45.6353 292.339 45.4584 292.182 45.4011C286.434 42.6261 280.286 40.5588 275.955 35.5613C273.785 33.0253 273.415 30.4348 274.593 27.3066C275.808 23.9785 278.47 21.0723 281.594 19.4374C281.668 19.4289 281.608 19.3003 281.554 19.3517Z" fill="#222222"/>
        <path d="M279.927 21.1771C277.311 23.1753 275.217 25.7911 274.584 29.0828C274.087 31.7122 274.908 34.4319 276.196 36.7524C279.344 42.4566 285.504 45.9517 291.057 48.8692C299.393 53.2297 308.596 56.0922 317.909 57.2871C322.123 57.8297 326.409 58.0783 330.667 57.8185C333.315 57.6822 336.607 57.5325 338.854 55.8621C338.963 55.7595 338.832 55.5337 338.692 55.6249C336.24 57.0779 332.896 57.1733 330.143 57.3066C326.267 57.4927 322.341 57.2332 318.484 56.7853C309.978 55.8142 301.654 53.2728 293.901 49.6584C287.993 46.9318 281.661 43.5163 277.71 38.1595C276.071 35.9241 274.93 33.3011 274.914 30.5197C274.905 26.7445 277.39 23.738 280.081 21.3401C280.178 21.2688 280.024 21.1058 279.927 21.1771Z" fill="#222222"/>
        <path d="M288.847 44.397C290.533 45.7244 292.548 46.6381 294.457 47.5488C297.462 48.9664 300.47 50.2784 303.533 51.539C308.017 53.3899 312.48 55.1979 317.193 56.4208C322.851 57.8821 328.647 58.9665 334.495 59.3229C337.344 59.5095 340.211 59.4535 343.036 59.0261C345.236 58.655 347.898 57.9904 349.468 56.322C349.577 56.2194 349.477 56.005 349.337 56.0962C344.53 58.9311 339.215 59.1608 333.739 58.7621C328.039 58.3889 322.372 57.2446 316.809 55.8178C312.421 54.6781 308.271 52.9847 304.059 51.2685C301.122 50.0537 298.196 48.8075 295.306 47.4671C293.208 46.4876 290.908 45.5764 288.979 44.2316C288.865 44.1543 288.765 44.3312 288.847 44.397Z" fill="#222222"/>
        <path d="M275.171 28.1582C275.099 16.1758 289.421 13.3996 298.813 13.3068C316.593 13.1454 334.057 20.3768 348.882 29.6693C350.503 30.6882 352.092 31.6955 353.701 32.7457C353.815 32.823 353.915 32.6461 353.833 32.5803C346.102 26.6614 337.158 22.1144 328.099 18.6639C320.504 15.7836 312.503 13.8223 304.359 13.1259C298.326 12.5951 292.006 12.8492 286.158 14.7345C282.081 16.0568 278.154 18.4302 276.099 22.3054C275.16 24.0975 274.806 26.1388 274.928 28.1408C274.945 28.2893 275.168 28.2639 275.171 28.1582Z" fill="#222222"/>
        <path d="M300.061 17.3922C309.751 17.2655 319.278 19.1432 328.758 21.1465C333.309 22.1322 337.753 23.5061 342.129 25.0684C345.625 26.3097 349.316 27.4084 352.652 29.0892C357.458 31.5202 361.891 35.1672 365.066 39.5293C367.6 43.0166 369.543 47.9253 366.497 51.6877C364.887 53.6616 362.341 54.6891 359.984 55.394C356.047 56.6252 351.852 56.9079 347.757 57.0137C347.608 57.0306 347.579 57.3047 347.759 57.2992C353.85 57.2818 361.975 57.153 366.57 52.4617C369.401 49.5814 368.936 45.4971 367.318 42.131C365.171 37.6818 361.235 34.0384 357.275 31.2401C351.615 27.2516 344.776 25.3233 338.279 23.2356C332.045 21.2081 325.679 20.1286 319.252 18.9205C312.92 17.7467 306.499 16.7185 300.025 17.2009C299.95 17.2093 299.956 17.3892 300.061 17.3922Z" fill="#222222"/>
        <path d="M321.35 55.2694C323.873 56.1552 326.405 56.724 329.015 57.1788C332.024 57.7083 335.018 58.3749 338.005 58.9672C343.389 60.0083 348.46 60.1522 353.81 59.0458C357.629 58.2344 362.494 57.093 364.709 53.5608C366.626 50.4537 363.912 45.5127 361.636 43.3651C361.533 43.2564 361.382 43.379 361.484 43.4876C364.133 46.6609 366.528 51.6986 362.839 54.9775C359.846 57.6206 355.162 58.3652 351.366 59.1139C346.378 60.1037 341.262 59.3029 336.364 58.2968C331.402 57.2677 326.214 56.7609 321.419 55.081C321.293 55.0351 321.225 55.2235 321.35 55.2694Z" fill="#222222"/>
        <path d="M289.689 43.0674C289.732 44.8978 288.412 45.5899 287.208 46.6448C286.991 46.8501 285.759 47.3967 285.904 47.8766C286.333 49.5277 288.783 49.6395 290.032 48.8503C290.118 48.8104 290.027 48.6703 289.941 48.7102C288.996 48.8631 288.03 48.9732 287.097 48.7035C285.45 48.2444 286.922 47.4297 287.433 46.905C288.674 45.6502 289.98 45.0952 289.9 43.0734C289.872 42.9563 289.703 42.9304 289.689 43.0674Z" fill="#222222"/>
        <path d="M285.645 47.7105C285.082 47.7897 284.016 48.0767 284.618 48.8656C285.627 50.1948 287.411 50.6684 288.967 50.9874C292.983 51.7782 297.198 50.0792 299.863 47.0674C299.929 46.9847 299.826 46.876 299.729 46.9473C297.656 48.8234 295.387 50.1652 292.614 50.6469C291.106 50.879 289.587 50.7513 288.117 50.3923C287.529 50.2488 286.964 50.0424 286.398 49.836C286.002 49.6556 283.651 48.2989 285.693 47.8705C285.81 47.8421 285.762 47.6821 285.645 47.7105Z" fill="#222222"/>
        <path d="M291.794 46.754C295.94 49.3354 300.581 51.2436 305.03 53.1887C308.874 54.8416 312.807 56.349 316.798 57.6995C322.432 59.6147 328.224 61.1961 334.163 62.0837C343.427 63.5099 353.346 62.7552 361.79 58.4376C364.719 56.9452 367.575 54.6789 368.231 51.3244C369.065 46.8964 365.01 42.9958 361.983 40.4672C361.818 40.3357 361.695 40.5754 361.797 40.684C364.424 43.1377 367.558 46.346 367.65 50.187C367.7 52.8743 365.759 54.9762 363.698 56.4298C358.861 59.9299 352.257 61.2545 346.445 61.872C336.689 62.8639 326.592 60.2087 317.458 57.1578C313.519 55.8617 309.617 54.3657 305.781 52.787C301.121 50.836 296.601 48.4025 291.906 46.5457C291.812 46.5113 291.711 46.6882 291.794 46.754Z" fill="#222222"/>
        <path d="M300.754 35.7276C299.226 35.1715 298.228 34.3559 297.76 33.2808C297.296 32.1958 297.371 30.8095 297.985 29.1219C298.624 27.3644 299.467 26.2294 300.513 25.7167C301.559 25.2041 302.846 25.2258 304.374 25.7819C305.912 26.3416 306.912 27.1521 307.374 28.2136C307.845 29.2787 307.761 30.69 307.122 32.4474C306.507 34.135 305.674 35.2451 304.62 35.7777C303.581 36.304 302.292 36.2873 300.754 35.7276ZM301.256 34.3495C302.264 34.7166 303.103 34.711 303.772 34.3326C304.455 33.9478 305.027 33.1214 305.489 31.8532C305.976 30.5151 306.076 29.4942 305.79 28.7905C305.516 28.0805 304.876 27.5419 303.867 27.1749C302.869 26.8114 302.031 26.8121 301.356 27.1768C300.694 27.5353 300.119 28.3835 299.632 29.7216C299.171 30.9898 299.073 31.9889 299.339 32.7189C299.618 33.4425 300.257 33.9861 301.256 34.3495ZM310.315 39.2073C309.037 38.7421 308.214 38.0809 307.848 37.2238C307.491 36.3703 307.529 35.3494 307.962 34.1611C308.394 32.9728 309.026 32.1681 309.858 31.7471C310.69 31.3261 311.74 31.3464 313.008 31.808C314.286 32.2732 315.108 32.9344 315.475 33.7915C315.842 34.6487 315.809 35.6714 315.376 36.8597C314.944 38.048 314.311 38.8526 313.48 39.2736C312.658 39.6983 311.603 39.6762 310.315 39.2073ZM310.816 37.8293C311.565 38.1019 312.16 38.1148 312.6 37.868C313.054 37.6148 313.43 37.0788 313.728 36.26C314.026 35.4412 314.081 34.7939 313.892 34.3181C313.714 33.8459 313.25 33.4736 312.501 33.201C311.762 32.932 311.167 32.9191 310.717 33.1623C310.277 33.4091 309.907 33.9419 309.609 34.7608C309.311 35.5796 309.25 36.2301 309.425 36.7122C309.614 37.188 310.077 37.5604 310.816 37.8293ZM319.018 42.3751C317.74 41.9099 316.918 41.2487 316.551 40.3915C316.195 39.538 316.232 38.5171 316.665 37.3288C317.097 36.1405 317.73 35.3359 318.561 34.9149C319.393 34.4939 320.443 34.5141 321.711 34.9757C322.989 35.4409 323.812 36.1021 324.178 36.9593C324.545 37.8164 324.512 38.8391 324.079 40.0274C323.647 41.2157 323.015 42.0204 322.183 42.4414C321.361 42.866 320.306 42.8439 319.018 42.3751ZM319.52 40.9971C320.269 41.2696 320.863 41.2825 321.304 41.0357C321.758 40.7826 322.134 40.2466 322.432 39.4277C322.73 38.6089 322.784 37.9616 322.596 37.4858C322.417 37.0137 321.953 36.6413 321.204 36.3687C320.465 36.0998 319.871 36.0869 319.42 36.3301C318.98 36.5769 318.611 37.1097 318.313 37.9285C318.015 38.7473 317.953 39.3978 318.128 39.88C318.317 40.3557 318.781 40.7281 319.52 40.9971ZM323.198 47.3909L326.96 37.0557L328.368 37.5682L328.202 38.3049C328.626 38.1316 329.054 38.0441 329.484 38.0424C329.915 38.0407 330.39 38.1344 330.909 38.3234C331.927 38.6941 332.619 39.2626 332.985 40.029C333.354 40.7854 333.306 41.8026 332.841 43.0808C332.376 44.359 331.733 45.2104 330.911 45.635C330.093 46.0497 329.174 46.0716 328.156 45.7009C327.297 45.3884 326.636 44.9215 326.172 44.3004L324.831 47.9851L323.198 47.3909ZM328.183 44.32C329.561 44.8216 330.567 44.2036 331.199 42.4661C331.504 41.6273 331.566 40.9769 331.383 40.5147C331.205 40.0425 330.751 39.6738 330.022 39.4085C329.293 39.1432 328.593 39.1711 327.922 39.4923L326.63 43.0422C326.791 43.3155 326.989 43.563 327.225 43.7846C327.474 43.9998 327.794 44.1783 328.183 44.32ZM335.333 48.3131C334.843 48.135 334.387 47.9293 333.963 47.6958C333.549 47.466 333.215 47.2484 332.962 47.0432L333.464 45.6652C333.756 45.9186 334.094 46.1547 334.478 46.3736C334.862 46.5925 335.239 46.7692 335.608 46.9037C336.167 47.1072 336.585 47.2027 336.861 47.1901C337.137 47.1774 337.328 47.0263 337.433 46.7367C337.509 46.527 337.495 46.335 337.388 46.1607C337.292 45.99 337.117 45.802 336.864 45.5967C336.621 45.3951 336.305 45.1444 335.917 44.8447C335.548 44.5523 335.238 44.2698 334.987 43.9974C334.739 43.715 334.577 43.413 334.502 43.0916C334.427 42.7702 334.466 42.3998 334.618 41.9804C334.854 41.3313 335.271 40.9175 335.867 40.7388C336.468 40.5501 337.287 40.6448 338.325 41.0228C338.735 41.1718 339.113 41.3435 339.461 41.5379C339.809 41.7323 340.096 41.9217 340.323 42.106L339.827 43.4691C339.587 43.2575 339.309 43.0599 338.991 42.8764C338.683 42.6966 338.384 42.5539 338.095 42.4485C337.576 42.2595 337.165 42.1609 336.862 42.1527C336.57 42.148 336.375 42.2805 336.277 42.5501C336.175 42.8297 336.237 43.0785 336.463 43.2965C336.703 43.5081 337.091 43.8246 337.627 44.246C338.125 44.6193 338.504 44.9608 338.764 45.2704C339.025 45.5801 339.176 45.8952 339.217 46.2157C339.273 46.5298 339.224 46.8966 339.071 47.316C338.817 48.015 338.371 48.4466 337.735 48.6107C337.102 48.7648 336.301 48.6657 335.333 48.3131ZM339.669 49.7218L340.132 48.4486L341.51 48.9502L341.047 50.2234L339.669 49.7218ZM342.346 50.6961L342.809 49.4229L344.187 49.9245L343.724 51.1976L342.346 50.6961ZM345.023 51.6704L345.486 50.3972L346.864 50.8987L346.401 52.1719L345.023 51.6704Z" fill="white"/>
    </g>
    <defs>
        <filter id="filter0_f_269_3213" x="1" y="249.579" width="51" height="31" filterUnits="userSpaceOnUse" color-interpolation-filters="sRGB">
            <feFlood flood-opacity="0" result="BackgroundImageFix"/>
            <feBlend mode="normal" in="SourceGraphic" in2="BackgroundImageFix" result="shape"/>
            <feGaussianBlur stdDeviation="0.5" result="effect1_foregroundBlur_269_3213"/>
        </filter>
        <filter id="filter1_d_269_3213" x="43.7915" y="0.578613" width="279.362" height="271.871" filterUnits="userSpaceOnUse" color-interpolation-filters="sRGB">
            <feFlood flood-opacity="0" result="BackgroundImageFix"/>
            <feColorMatrix in="SourceAlpha" type="matrix" values="0 0 0 0 0 0 0 0 0 0 0 0 0 0 0 0 0 0 127 0" result="hardAlpha"/>
            <feOffset dx="-1" dy="-1"/>
            <feGaussianBlur stdDeviation="5"/>
            <feComposite in2="hardAlpha" operator="out"/>
            <feColorMatrix type="matrix" values="0 0 0 0 0 0 0 0 0 0 0 0 0 0 0 0 0 0 0.09 0"/>
            <feBlend mode="normal" in2="BackgroundImageFix" result="effect1_dropShadow_269_3213"/>
            <feBlend mode="normal" in="SourceGraphic" in2="effect1_dropShadow_269_3213" result="shape"/>
        </filter>
        <linearGradient id="paint0_linear_269_3213" x1="26.5" y1="250.579" x2="26.5" y2="279.579" gradientUnits="userSpaceOnUse">
            <stop stop-color="#EDEDED" stop-opacity="0"/>
            <stop offset="1" stop-color="#EDEDED"/>
        </linearGradient>
        <linearGradient id="paint1_linear_269_3213" x1="3345.51" y1="2160.63" x2="2127.74" y2="4967.29" gradientUnits="userSpaceOnUse">
            <stop stop-color="#A1D685"/>
            <stop offset="1" stop-color="#71C782"/>
        </linearGradient>
        <linearGradient id="paint2_linear_269_3213" x1="3170.05" y1="1022.31" x2="4002.68" y2="4203.69" gradientUnits="userSpaceOnUse">
            <stop offset="0.11" stop-color="#A1D685"/>
            <stop offset="1" stop-color="#71C782"/>
        </linearGradient>
        <linearGradient id="paint3_linear_269_3213" x1="171.925" y1="786.165" x2="2867.74" y2="786.165" gradientUnits="userSpaceOnUse">
            <stop stop-color="#805E41"/>
            <stop offset="1" stop-color="#A87C56"/>
        </linearGradient>
        <linearGradient id="paint4_linear_269_3213" x1="184.473" y1="11.5786" x2="184.473" y2="263.45" gradientUnits="userSpaceOnUse">
            <stop stop-color="#D2D9FF"/>
            <stop offset="1" stop-color="#CFE9FF"/>
        </linearGradient>
        <clipPath id="clip0_269_3213">
            <rect width="50.3383" height="103" fill="white" transform="translate(0 165.579)"/>
        </clipPath>
        <clipPath id="clip1_269_3213">
            <rect width="295.583" height="286.852" fill="white" transform="translate(42 6.72632)"/>
        </clipPath>
        <clipPath id="clip2_269_3213">
            <rect width="99.9883" height="45.379" fill="white" transform="translate(280.187) rotate(20)"/>
        </clipPath>
    </defs>
</svg>
