<svg xmlns="http://www.w3.org/2000/svg" width="13" height="10" viewBox="0 0 13 10" fill="none"><path d="M8.20894 9.58437C8.07541 9.58437 7.94187 9.53517 7.83645 9.42975C7.63264 9.22594 7.63264 8.8886 7.83645 8.68479V8.68479C9.98678 6.53446 9.98678 3.04809 7.83645 0.897765V0.897765C7.63264 0.693954 7.63264 0.35661 7.83645 0.152798C8.04026 -0.051014 8.37761 -0.051014 8.58142 0.152798L12.8474 4.41879C13.0512 4.6226 13.0512 4.95995 12.8474 5.16376L8.58142 9.42975C8.476 9.53517 8.34247 9.58437 8.20894 9.58437Z" fill="white"></path><path d="M12.3552 5.31857H0.5271C0.238952 5.31857 0 5.07962 0 4.79147C0 4.50333 0.238952 4.26437 0.5271 4.26437H12.3552C12.6434 4.26437 12.8823 4.50333 12.8823 4.79147C12.8823 5.07962 12.6434 5.31857 12.3552 5.31857Z" fill="white"></path></svg>