<svg xmlns="http://www.w3.org/2000/svg" width="152" height="35" viewBox="0 0 152 35" fill="none"><path d="M42.452 26.378C41.354 26.378 40.292 26.279 39.266 26.081C38.24 25.883 37.322 25.595 36.512 25.217V19.925C36.8 19.871 37.088 19.871 37.376 19.925C37.52 21.005 37.835 21.95 38.321 22.76C38.825 23.552 39.455 24.173 40.211 24.623C40.985 25.073 41.831 25.298 42.749 25.298C44.045 25.298 45.035 25.01 45.719 24.434C46.403 23.84 46.745 23.093 46.745 22.193C46.745 21.491 46.565 20.915 46.205 20.465C45.845 20.015 45.368 19.637 44.774 19.331C44.198 19.007 43.559 18.71 42.857 18.44C42.155 18.17 41.444 17.873 40.724 17.549C40.022 17.225 39.374 16.829 38.78 16.361C38.204 15.893 37.736 15.308 37.376 14.606C37.016 13.886 36.836 13.004 36.836 11.96C36.836 10.826 37.115 9.872 37.673 9.098C38.249 8.306 39.041 7.712 40.049 7.316C41.075 6.92 42.254 6.722 43.586 6.722C44.684 6.722 45.647 6.821 46.475 7.019C47.321 7.217 48.077 7.496 48.743 7.856V12.77C48.455 12.824 48.167 12.824 47.879 12.77C47.681 11.222 47.213 10.007 46.475 9.125C45.755 8.243 44.738 7.802 43.424 7.802C42.344 7.802 41.489 8.036 40.859 8.504C40.247 8.954 39.941 9.656 39.941 10.61C39.941 11.204 40.121 11.699 40.481 12.095C40.859 12.491 41.345 12.833 41.939 13.121C42.551 13.409 43.217 13.688 43.937 13.958C44.675 14.21 45.404 14.498 46.124 14.822C46.844 15.146 47.501 15.551 48.095 16.037C48.707 16.505 49.193 17.09 49.553 17.792C49.931 18.494 50.12 19.367 50.12 20.411C50.12 21.599 49.805 22.643 49.175 23.543C48.563 24.425 47.681 25.118 46.529 25.622C45.395 26.126 44.036 26.378 42.452 26.378ZM51.8375 31.724C51.7655 31.382 51.7655 31.049 51.8375 30.725H53.2415C53.3315 30.113 53.3945 29.465 53.4305 28.781C53.4845 28.097 53.5115 27.35 53.5115 26.54V18.71C53.5115 17.108 53.4215 15.731 53.2415 14.579H51.9725C51.9005 14.237 51.9005 13.904 51.9725 13.58C53.0165 13.58 53.9075 13.553 54.6455 13.499C55.3835 13.427 56.1755 13.319 57.0215 13.175C56.9495 13.409 56.8955 13.733 56.8595 14.147C56.8235 14.543 56.7875 14.939 56.7515 15.335L57.0215 16.55V26.54C57.0215 27.35 57.0395 28.097 57.0755 28.781C57.1295 29.465 57.2015 30.113 57.2915 30.725H59.2355C59.3075 31.049 59.3075 31.382 59.2355 31.724C58.6235 31.688 57.9305 31.67 57.1565 31.67C56.3825 31.67 55.7525 31.67 55.2665 31.67C54.7805 31.67 54.2405 31.67 53.6465 31.67C53.0705 31.67 52.4675 31.688 51.8375 31.724ZM60.8015 13.175C61.8635 13.175 62.8085 13.409 63.6365 13.877C64.4645 14.327 65.1215 15.029 65.6075 15.983C66.0935 16.937 66.3365 18.143 66.3365 19.601C66.3365 21.095 66.0485 22.346 65.4725 23.354C64.9145 24.362 64.1405 25.127 63.1505 25.649C62.1605 26.153 61.0085 26.405 59.6945 26.405C58.3985 26.405 57.3545 26.216 56.5625 25.838C55.7705 25.442 55.0505 24.938 54.4025 24.326L57.0215 21.896C57.0215 22.832 57.1655 23.552 57.4535 24.056C57.7415 24.542 58.0835 24.875 58.4795 25.055C58.8755 25.235 59.2175 25.325 59.5055 25.325C60.3695 25.325 61.0715 24.866 61.6115 23.948C62.1515 23.012 62.4215 21.608 62.4215 19.736C62.4215 18.044 62.1965 16.757 61.7465 15.875C61.3145 14.975 60.6755 14.525 59.8295 14.525C59.3255 14.525 58.8395 14.696 58.3715 15.038C57.9215 15.38 57.4715 15.893 57.0215 16.577L56.7515 15.335C57.1475 14.705 57.6875 14.192 58.3715 13.796C59.0555 13.382 59.8655 13.175 60.8015 13.175ZM68.2956 26.054C68.2236 25.712 68.2236 25.379 68.2956 25.055H69.6996C69.7896 24.443 69.8526 23.795 69.8886 23.111C69.9426 22.427 69.9696 21.68 69.9696 20.87V18.71C69.9696 17.108 69.8796 15.731 69.6996 14.579H68.4306C68.3586 14.237 68.3586 13.904 68.4306 13.58C69.4746 13.58 70.3656 13.553 71.1036 13.499C71.8416 13.427 72.6336 13.319 73.4796 13.175C73.4076 13.409 73.3536 13.751 73.3176 14.201C73.2816 14.633 73.2456 15.146 73.2096 15.74L73.4796 17.225V20.87C73.4796 21.68 73.4976 22.427 73.5336 23.111C73.5876 23.795 73.6596 24.443 73.7496 25.055H75.9636C76.0356 25.379 76.0356 25.712 75.9636 26.054C74.9376 26.018 74.0916 26 73.4256 26C72.7776 26 72.2106 26 71.7246 26C71.2386 26 70.6986 26 70.1046 26C69.5286 26 68.9256 26.018 68.2956 26.054ZM76.4226 17.36C76.4946 16.622 76.4586 16.055 76.3146 15.659C76.1886 15.263 75.9276 15.065 75.5316 15.065C75.1896 15.065 74.8476 15.227 74.5056 15.551C74.1816 15.857 73.8396 16.415 73.4796 17.225L73.2096 15.74C73.6416 14.912 74.1546 14.282 74.7486 13.85C75.3606 13.4 76.1346 13.175 77.0706 13.175C77.9706 13.175 78.6366 13.382 79.0686 13.796C79.5006 14.192 79.7706 14.705 79.8786 15.335C79.9866 15.965 80.0046 16.64 79.9326 17.36H76.4226ZM88.3423 25.055C88.4143 25.379 88.4143 25.712 88.3423 26.054C87.7303 26.018 87.1003 26 86.4523 26C85.8223 26 85.2643 26 84.7783 26C84.2923 26 83.7343 26 83.1043 26C82.4743 26 81.8443 26.018 81.2143 26.054C81.1423 25.712 81.1423 25.379 81.2143 25.055H82.7533C82.8433 24.443 82.9063 23.795 82.9423 23.111C82.9963 22.427 83.0233 21.68 83.0233 20.87V18.71C83.0233 17.108 82.9333 15.731 82.7533 14.579H81.3493C81.2773 14.237 81.2773 13.904 81.3493 13.58C82.3933 13.58 83.3743 13.553 84.2923 13.499C85.2103 13.427 86.0923 13.319 86.9383 13.175C86.8303 13.571 86.7493 14.102 86.6953 14.768C86.6413 15.434 86.5963 16.127 86.5603 16.847C86.5423 17.549 86.5333 18.17 86.5333 18.71V20.87C86.5333 21.68 86.5513 22.427 86.5873 23.111C86.6413 23.795 86.7133 24.443 86.8033 25.055H88.3423ZM84.7783 7.397L86.6683 8.396V10.583L84.7783 11.582L82.8883 10.583V8.396L84.7783 7.397ZM89.864 26.054C89.792 25.712 89.792 25.379 89.864 25.055H91.268C91.358 24.443 91.421 23.795 91.457 23.111C91.511 22.427 91.538 21.68 91.538 20.87V18.71C91.538 17.108 91.448 15.731 91.268 14.579H89.999C89.927 14.237 89.927 13.904 89.999 13.58C91.043 13.58 91.934 13.553 92.672 13.499C93.41 13.427 94.202 13.319 95.048 13.175C94.976 13.409 94.922 13.733 94.886 14.147C94.85 14.543 94.814 14.939 94.778 15.335L95.048 16.55V20.87C95.048 21.68 95.066 22.427 95.102 23.111C95.156 23.795 95.228 24.443 95.318 25.055H96.722C96.794 25.379 96.794 25.712 96.722 26.054C96.11 26.018 95.507 26 94.913 26C94.319 26 93.779 26 93.293 26C92.807 26 92.267 26 91.673 26C91.097 26 90.494 26.018 89.864 26.054ZM98.234 26.054C98.162 25.712 98.162 25.379 98.234 25.055H99.638C99.728 24.443 99.791 23.795 99.827 23.111C99.881 22.427 99.908 21.68 99.908 20.87V17.414C99.908 16.676 99.764 16.055 99.476 15.551C99.188 15.047 98.675 14.795 97.937 14.795C97.307 14.795 96.767 14.957 96.317 15.281C95.885 15.587 95.462 16.01 95.048 16.55L94.778 15.335C95.174 14.777 95.759 14.282 96.533 13.85C97.307 13.4 98.288 13.175 99.476 13.175C100.592 13.175 101.474 13.4 102.122 13.85C102.77 14.3 103.247 14.966 103.553 15.848C103.499 16.118 103.463 16.433 103.445 16.793C103.427 17.153 103.418 17.468 103.418 17.738V20.87C103.418 21.68 103.436 22.427 103.472 23.111C103.526 23.795 103.598 24.443 103.688 25.055H105.092C105.164 25.379 105.164 25.712 105.092 26.054C104.48 26.018 103.877 26 103.283 26C102.689 26 102.149 26 101.663 26C101.177 26 100.637 26 100.043 26C99.467 26 98.864 26.018 98.234 26.054ZM113.086 22.139C113.86 22.139 114.445 21.806 114.841 21.14C115.255 20.474 115.462 19.493 115.462 18.197C115.462 16.901 115.255 15.911 114.841 15.227C114.445 14.525 113.86 14.174 113.086 14.174C112.312 14.174 111.718 14.525 111.304 15.227C110.908 15.911 110.71 16.901 110.71 18.197C110.71 19.493 110.908 20.474 111.304 21.14C111.718 21.806 112.312 22.139 113.086 22.139ZM106.39 28.16C106.39 27.836 106.408 27.557 106.444 27.323C106.498 27.089 106.561 26.909 106.633 26.783H111.412C111.484 27.107 111.484 27.44 111.412 27.782C111.196 27.764 110.998 27.755 110.818 27.755C110.656 27.755 110.485 27.755 110.305 27.755C110.269 27.827 110.233 27.953 110.197 28.133C110.161 28.313 110.143 28.529 110.143 28.781C110.143 29.645 110.413 30.23 110.953 30.536C111.511 30.842 112.33 30.995 113.41 30.995C114.49 30.995 115.327 30.797 115.921 30.401C116.515 30.005 116.812 29.339 116.812 28.403C116.812 27.827 116.704 27.377 116.488 27.053C116.272 26.729 115.912 26.477 115.408 26.297C114.922 26.117 114.247 25.973 113.383 25.865C112.537 25.757 111.727 25.604 110.953 25.406C110.179 25.208 109.486 24.884 108.874 24.434C108.28 23.984 107.803 23.336 107.443 22.49C107.101 21.644 106.93 20.528 106.93 19.142C106.93 17.09 107.497 15.587 108.631 14.633C109.783 13.661 111.286 13.175 113.14 13.175C113.896 13.175 114.724 13.247 115.624 13.391C116.524 13.517 117.334 13.58 118.054 13.58C118.594 13.58 119.071 13.553 119.485 13.499C119.917 13.445 120.241 13.382 120.457 13.31C120.529 14.03 120.529 14.813 120.457 15.659C120.061 15.299 119.674 15.047 119.296 14.903C118.918 14.759 118.414 14.651 117.784 14.579C118.252 15.011 118.612 15.542 118.864 16.172C119.116 16.802 119.242 17.486 119.242 18.224C119.242 19.214 118.99 20.078 118.486 20.816C117.982 21.554 117.298 22.13 116.434 22.544C115.57 22.94 114.598 23.138 113.518 23.138C112.6 23.138 111.898 23.003 111.412 22.733C110.926 22.463 110.476 21.995 110.062 21.329C110.062 22.085 110.152 22.697 110.332 23.165C110.512 23.633 110.863 23.984 111.385 24.218C111.907 24.452 112.672 24.632 113.68 24.758C114.598 24.866 115.471 24.965 116.299 25.055C117.145 25.145 117.901 25.298 118.567 25.514C119.233 25.712 119.755 26.009 120.133 26.405C120.529 26.819 120.727 27.395 120.727 28.133C120.727 28.961 120.439 29.663 119.863 30.239C119.305 30.833 118.486 31.283 117.406 31.589C116.326 31.913 115.021 32.075 113.491 32.075C111.205 32.075 109.45 31.769 108.226 31.157C107.002 30.545 106.39 29.546 106.39 28.16ZM128.623 14.255C127.957 14.255 127.435 14.48 127.057 14.93C126.697 15.362 126.436 15.965 126.274 16.739C126.13 17.495 126.058 18.377 126.058 19.385C126.058 20.411 126.139 21.383 126.301 22.301C126.463 23.201 126.742 23.93 127.138 24.488C127.552 25.046 128.137 25.325 128.893 25.325L128.758 26.405C127.498 26.405 126.364 26.153 125.356 25.649C124.366 25.145 123.583 24.398 123.007 23.408C122.431 22.418 122.143 21.212 122.143 19.79C122.143 18.404 122.431 17.225 123.007 16.253C123.583 15.263 124.366 14.507 125.356 13.985C126.364 13.445 127.498 13.175 128.758 13.175L128.623 14.255ZM128.893 25.325C129.559 25.325 130.072 25.109 130.432 24.677C130.81 24.227 131.071 23.615 131.215 22.841C131.377 22.067 131.458 21.185 131.458 20.195C131.458 19.151 131.377 18.179 131.215 17.279C131.053 16.379 130.765 15.65 130.351 15.092C129.955 14.534 129.379 14.255 128.623 14.255L128.758 13.175C130.018 13.175 131.143 13.427 132.133 13.931C133.141 14.435 133.933 15.182 134.509 16.172C135.085 17.144 135.373 18.35 135.373 19.79C135.373 21.158 135.085 22.337 134.509 23.327C133.933 24.317 133.141 25.082 132.133 25.622C131.143 26.144 130.018 26.405 128.758 26.405L128.893 25.325ZM144.021 14.255C143.355 14.255 142.833 14.48 142.455 14.93C142.095 15.362 141.834 15.965 141.672 16.739C141.528 17.495 141.456 18.377 141.456 19.385C141.456 20.411 141.537 21.383 141.699 22.301C141.861 23.201 142.14 23.93 142.536 24.488C142.95 25.046 143.535 25.325 144.291 25.325L144.156 26.405C142.896 26.405 141.762 26.153 140.754 25.649C139.764 25.145 138.981 24.398 138.405 23.408C137.829 22.418 137.541 21.212 137.541 19.79C137.541 18.404 137.829 17.225 138.405 16.253C138.981 15.263 139.764 14.507 140.754 13.985C141.762 13.445 142.896 13.175 144.156 13.175L144.021 14.255ZM144.291 25.325C144.957 25.325 145.47 25.109 145.83 24.677C146.208 24.227 146.469 23.615 146.613 22.841C146.775 22.067 146.856 21.185 146.856 20.195C146.856 19.151 146.775 18.179 146.613 17.279C146.451 16.379 146.163 15.65 145.749 15.092C145.353 14.534 144.777 14.255 144.021 14.255L144.156 13.175C145.416 13.175 146.541 13.427 147.531 13.931C148.539 14.435 149.331 15.182 149.907 16.172C150.483 17.144 150.771 18.35 150.771 19.79C150.771 21.158 150.483 22.337 149.907 23.327C149.331 24.317 148.539 25.082 147.531 25.622C146.541 26.144 145.416 26.405 144.156 26.405L144.291 25.325Z" fill="#222222"></path><g clip-path="url(#clip0_319_2196)"><path d="M23.1987 0C15.9735 5.93614 9.82492 0 9.82492 0L0.0214844 4.40563L2.26896 10.3442L5.95762 9.44374L5.95762 22.8972C5.98418 23.4211 6.41629 23.8363 6.94738 23.8363H7.8623V28.1526C7.8623 28.7247 8.3258 29.1882 8.89552 29.1882C9.46764 29.1882 9.93114 28.7247 9.93114 28.1526V23.8363V17.2701C9.93114 16.8211 10.3126 16.459 10.7833 16.459C11.2516 16.459 11.633 16.8211 11.633 17.2701V23.8363H11.6403V30.2214C11.6403 30.7936 12.1038 31.2571 12.6735 31.2571C13.2456 31.2571 13.7091 30.7936 13.7091 30.2214V13.4004C13.7091 13.3279 13.7011 13.2571 13.685 13.1879V12.3213C13.685 11.8747 14.093 11.5126 14.5951 11.5126C15.0948 11.5126 15.5028 11.8747 15.5028 12.3213V23.8363H15.5076V24.4663C15.5076 25.0361 15.9711 25.4996 16.5408 25.4996C17.1129 25.4996 17.5764 25.0361 17.5764 24.4663V19.112C17.6633 18.7523 18.0085 18.4843 18.4189 18.4843C18.8969 18.4843 19.2856 18.8465 19.2856 19.293V23.8363V28.0633C19.2856 28.6354 19.7491 29.0965 20.3188 29.0965C20.8909 29.0965 21.3544 28.6354 21.3544 28.0633V23.8363V15.4692C21.3544 15.0226 21.7575 14.6605 22.2548 14.6605C22.7497 14.6605 23.1529 15.0226 23.1529 15.4692V23.8363V30.8515C23.1529 31.4236 23.6164 31.8871 24.1885 31.8871C24.7582 31.8871 25.2217 31.4236 25.2217 30.8515V23.8363H26.0739C26.6218 23.8363 27.066 23.3921 27.066 22.8465V9.44374L30.7547 10.3442L33.0022 4.40563L23.1987 0Z" fill="url(#paint0_linear_319_2196)"></path><path d="M25.282 33.9293C25.282 34.5063 24.8136 34.9746 24.2367 34.9746C23.6597 34.9746 23.1914 34.5063 23.1914 33.9293C23.1914 33.3524 23.6597 32.884 24.2367 32.884C24.8136 32.884 25.282 33.3524 25.282 33.9293Z" fill="url(#paint1_linear_319_2196)"></path><path d="M17.6228 27.6891C17.6228 28.266 17.1545 28.7344 16.5775 28.7344C16.0006 28.7344 15.5322 28.266 15.5322 27.6891C15.5322 27.1121 16.0006 26.6438 16.5775 26.6438C17.1545 26.6438 17.6228 27.1121 17.6228 27.6891Z" fill="url(#paint2_linear_319_2196)"></path><path d="M9.97487 31.3148C9.97487 31.8918 9.50896 32.3601 8.932 32.3601C8.35504 32.3601 7.88672 31.8918 7.88672 31.3148C7.88672 30.7379 8.35504 30.2695 8.932 30.2695C9.50896 30.2695 9.97487 30.7379 9.97487 31.3148Z" fill="url(#paint3_linear_319_2196)"></path></g><defs><linearGradient id="paint0_linear_319_2196" x1="16.5118" y1="0" x2="16.5118" y2="31.8871" gradientUnits="userSpaceOnUse"><stop stop-color="#0021DB"></stop><stop offset="1" stop-color="#007AE4"></stop></linearGradient><linearGradient id="paint1_linear_319_2196" x1="24.2367" y1="32.884" x2="24.2367" y2="34.9746" gradientUnits="userSpaceOnUse"><stop stop-color="#0021DB"></stop><stop offset="1" stop-color="#007AE4"></stop></linearGradient><linearGradient id="paint2_linear_319_2196" x1="16.5775" y1="26.6438" x2="16.5775" y2="28.7344" gradientUnits="userSpaceOnUse"><stop stop-color="#0021DB"></stop><stop offset="1" stop-color="#007AE4"></stop></linearGradient><linearGradient id="paint3_linear_319_2196" x1="8.93079" y1="30.2695" x2="8.93079" y2="32.3601" gradientUnits="userSpaceOnUse"><stop stop-color="#0021DB"></stop><stop offset="1" stop-color="#007AE4"></stop></linearGradient><clipPath id="clip0_319_2196"><rect width="33" height="34.9795" fill="white"></rect></clipPath></defs></svg>