<svg xmlns="http://www.w3.org/2000/svg" width="13" height="10" viewBox="0 0 13 10" fill="none"><path d="M7.89283 9.21577C7.76444 9.21577 7.63604 9.16847 7.53467 9.0671C7.3387 8.87113 7.3387 8.54676 7.53467 8.35079C9.60229 6.28317 9.60229 2.93091 7.53467 0.863292C7.3387 0.66732 7.3387 0.342952 7.53467 0.146979C7.73065 -0.0489931 8.05502 -0.0489931 8.25099 0.146979L12.3529 4.24889C12.5489 4.44486 12.5489 4.76923 12.3529 4.9652L8.25099 9.0671C8.14962 9.16847 8.02123 9.21577 7.89283 9.21577Z" fill="#222222"></path><path d="M11.88 5.11387H0.506825C0.229761 5.11387 0 4.88411 0 4.60704C0 4.32998 0.229761 4.10022 0.506825 4.10022H11.88C12.157 4.10022 12.3868 4.32998 12.3868 4.60704C12.3868 4.88411 12.157 5.11387 11.88 5.11387Z" fill="#222222"></path></svg>