<svg xmlns="http://www.w3.org/2000/svg" width="36" height="36" viewBox="0 0 36 36" fill="none"><path d="M3 15H33" stroke="#222222" stroke-width="1.8" stroke-miterlimit="10" stroke-linecap="round" stroke-linejoin="round"></path><path d="M17.3224 30.7497H9.65744C4.33244 30.7497 2.98242 29.4297 2.98242 24.1647V11.8347C2.98242 7.06466 4.09247 5.53465 8.27747 5.29465C8.69747 5.27965 9.16244 5.26465 9.65744 5.26465H26.3224C31.6474 5.26465 32.9974 6.58465 32.9974 11.8496V18.4647" stroke="#222222" stroke-width="1.8" stroke-linecap="round" stroke-linejoin="round"></path><path d="M9 24H15" stroke="#222222" stroke-width="1.8" stroke-miterlimit="10" stroke-linecap="round" stroke-linejoin="round"></path><path d="M33 27C33 28.125 32.685 29.19 32.13 30.09C31.095 31.83 29.19 33 27 33C24.81 33 22.905 31.83 21.87 30.09C21.315 29.19 21 28.125 21 27C21 23.685 23.685 21 27 21C30.315 21 33 23.685 33 27Z" stroke="#222222" stroke-width="1.8" stroke-miterlimit="10" stroke-linecap="round" stroke-linejoin="round"></path><path d="M24.6621 26.9993L26.1471 28.4843L29.3421 25.5293" stroke="#222222" stroke-width="1.8" stroke-linecap="round" stroke-linejoin="round"></path></svg>