<svg xmlns="http://www.w3.org/2000/svg" width="33" height="33" viewBox="0 0 33 33" fill="none"><path d="M11.9238 19.7035C11.9238 21.4773 13.2851 22.9073 14.9763 22.9073H18.4276C19.8988 22.9073 21.0951 21.656 21.0951 20.116C21.0951 18.4385 20.3663 17.8473 19.2801 17.4623L13.7388 15.5373C12.6526 15.1523 11.9238 14.561 11.9238 12.8835C11.9238 11.3435 13.1201 10.0923 14.5913 10.0923H18.0426C19.7338 10.0923 21.0951 11.5223 21.0951 13.296" stroke="#222222" stroke-width="1.8" stroke-linecap="round" stroke-linejoin="round"></path><path d="M16.5 8.25V24.75" stroke="#222222" stroke-width="1.8" stroke-linecap="round" stroke-linejoin="round"></path><path d="M16.5 30.25C24.0939 30.25 30.25 24.0939 30.25 16.5C30.25 8.90608 24.0939 2.75 16.5 2.75C8.90608 2.75 2.75 8.90608 2.75 16.5C2.75 24.0939 8.90608 30.25 16.5 30.25Z" stroke="#222222" stroke-width="1.8" stroke-linecap="round" stroke-linejoin="round"></path></svg>