<svg xmlns="http://www.w3.org/2000/svg" width="26" height="26" viewBox="0 0 26 26" fill="none"><path d="M13.0001 15.3488C10.6926 15.3488 8.80762 13.4746 8.80762 11.1563C8.80762 8.83794 10.6926 6.97461 13.0001 6.97461C15.3076 6.97461 17.1926 8.84878 17.1926 11.1671C17.1926 13.4854 15.3076 15.3488 13.0001 15.3488ZM13.0001 8.59961C11.5918 8.59961 10.4326 9.74794 10.4326 11.1671C10.4326 12.5863 11.581 13.7346 13.0001 13.7346C14.4193 13.7346 15.5676 12.5863 15.5676 11.1671C15.5676 9.74794 14.4085 8.59961 13.0001 8.59961Z" fill="#10143E"></path><path d="M13.0003 24.658C11.397 24.658 9.78281 24.0513 8.52615 22.8488C5.33031 19.7721 1.79865 14.8646 3.13115 9.02547C4.33365 3.72797 8.95948 1.35547 13.0003 1.35547C13.0003 1.35547 13.0003 1.35547 13.0111 1.35547C17.052 1.35547 21.6778 3.72797 22.8803 9.0363C24.202 14.8755 20.6703 19.7721 17.4745 22.8488C16.2178 24.0513 14.6036 24.658 13.0003 24.658ZM13.0003 2.98047C9.84781 2.98047 5.79615 4.65963 4.72365 9.38297C3.55365 14.4855 6.76031 18.8838 9.66365 21.668C11.5378 23.4771 14.4736 23.4771 16.3478 21.668C19.2403 18.8838 22.447 14.4855 21.2986 9.38297C20.2153 4.65963 16.1528 2.98047 13.0003 2.98047Z" fill="#10143E"></path></svg>