<?xml version="1.0" encoding="UTF-8"?> <svg xmlns="http://www.w3.org/2000/svg" width="152" height="35" viewBox="0 0 152 35" fill="none"><path d="M42.452 27.378C41.354 27.378 40.292 27.279 39.266 27.081C38.24 26.883 37.322 26.595 36.512 26.217V20.925C36.8 20.871 37.088 20.871 37.376 20.925C37.52 22.005 37.835 22.95 38.321 23.76C38.825 24.552 39.455 25.173 40.211 25.623C40.985 26.073 41.831 26.298 42.749 26.298C44.045 26.298 45.035 26.01 45.719 25.434C46.403 24.84 46.745 24.093 46.745 23.193C46.745 22.491 46.565 21.915 46.205 21.465C45.845 21.015 45.368 20.637 44.774 20.331C44.198 20.007 43.559 19.71 42.857 19.44C42.155 19.17 41.444 18.873 40.724 18.549C40.022 18.225 39.374 17.829 38.78 17.361C38.204 16.893 37.736 16.308 37.376 15.606C37.016 14.886 36.836 14.004 36.836 12.96C36.836 11.826 37.115 10.872 37.673 10.098C38.249 9.306 39.041 8.712 40.049 8.316C41.075 7.92 42.254 7.722 43.586 7.722C44.684 7.722 45.647 7.821 46.475 8.019C47.321 8.217 48.077 8.496 48.743 8.856V13.77C48.455 13.824 48.167 13.824 47.879 13.77C47.681 12.222 47.213 11.007 46.475 10.125C45.755 9.243 44.738 8.802 43.424 8.802C42.344 8.802 41.489 9.036 40.859 9.504C40.247 9.954 39.941 10.656 39.941 11.61C39.941 12.204 40.121 12.699 40.481 13.095C40.859 13.491 41.345 13.833 41.939 14.121C42.551 14.409 43.217 14.688 43.937 14.958C44.675 15.21 45.404 15.498 46.124 15.822C46.844 16.146 47.501 16.551 48.095 17.037C48.707 17.505 49.193 18.09 49.553 18.792C49.931 19.494 50.12 20.367 50.12 21.411C50.12 22.599 49.805 23.643 49.175 24.543C48.563 25.425 47.681 26.118 46.529 26.622C45.395 27.126 44.036 27.378 42.452 27.378ZM51.8375 32.724C51.7655 32.382 51.7655 32.049 51.8375 31.725H53.2415C53.3315 31.113 53.3945 30.465 53.4305 29.781C53.4845 29.097 53.5115 28.35 53.5115 27.54V19.71C53.5115 18.108 53.4215 16.731 53.2415 15.579H51.9725C51.9005 15.237 51.9005 14.904 51.9725 14.58C53.0165 14.58 53.9075 14.553 54.6455 14.499C55.3835 14.427 56.1755 14.319 57.0215 14.175C56.9495 14.409 56.8955 14.733 56.8595 15.147C56.8235 15.543 56.7875 15.939 56.7515 16.335L57.0215 17.55V27.54C57.0215 28.35 57.0395 29.097 57.0755 29.781C57.1295 30.465 57.2015 31.113 57.2915 31.725H59.2355C59.3075 32.049 59.3075 32.382 59.2355 32.724C58.6235 32.688 57.9305 32.67 57.1565 32.67C56.3825 32.67 55.7525 32.67 55.2665 32.67C54.7805 32.67 54.2405 32.67 53.6465 32.67C53.0705 32.67 52.4675 32.688 51.8375 32.724ZM60.8015 14.175C61.8635 14.175 62.8085 14.409 63.6365 14.877C64.4645 15.327 65.1215 16.029 65.6075 16.983C66.0935 17.937 66.3365 19.143 66.3365 20.601C66.3365 22.095 66.0485 23.346 65.4725 24.354C64.9145 25.362 64.1405 26.127 63.1505 26.649C62.1605 27.153 61.0085 27.405 59.6945 27.405C58.3985 27.405 57.3545 27.216 56.5625 26.838C55.7705 26.442 55.0505 25.938 54.4025 25.326L57.0215 22.896C57.0215 23.832 57.1655 24.552 57.4535 25.056C57.7415 25.542 58.0835 25.875 58.4795 26.055C58.8755 26.235 59.2175 26.325 59.5055 26.325C60.3695 26.325 61.0715 25.866 61.6115 24.948C62.1515 24.012 62.4215 22.608 62.4215 20.736C62.4215 19.044 62.1965 17.757 61.7465 16.875C61.3145 15.975 60.6755 15.525 59.8295 15.525C59.3255 15.525 58.8395 15.696 58.3715 16.038C57.9215 16.38 57.4715 16.893 57.0215 17.577L56.7515 16.335C57.1475 15.705 57.6875 15.192 58.3715 14.796C59.0555 14.382 59.8655 14.175 60.8015 14.175ZM68.2956 27.054C68.2236 26.712 68.2236 26.379 68.2956 26.055H69.6996C69.7896 25.443 69.8526 24.795 69.8886 24.111C69.9426 23.427 69.9696 22.68 69.9696 21.87V19.71C69.9696 18.108 69.8796 16.731 69.6996 15.579H68.4306C68.3586 15.237 68.3586 14.904 68.4306 14.58C69.4746 14.58 70.3656 14.553 71.1036 14.499C71.8416 14.427 72.6336 14.319 73.4796 14.175C73.4076 14.409 73.3536 14.751 73.3176 15.201C73.2816 15.633 73.2456 16.146 73.2096 16.74L73.4796 18.225V21.87C73.4796 22.68 73.4976 23.427 73.5336 24.111C73.5876 24.795 73.6596 25.443 73.7496 26.055H75.9636C76.0356 26.379 76.0356 26.712 75.9636 27.054C74.9376 27.018 74.0916 27 73.4256 27C72.7776 27 72.2106 27 71.7246 27C71.2386 27 70.6986 27 70.1046 27C69.5286 27 68.9256 27.018 68.2956 27.054ZM76.4226 18.36C76.4946 17.622 76.4586 17.055 76.3146 16.659C76.1886 16.263 75.9276 16.065 75.5316 16.065C75.1896 16.065 74.8476 16.227 74.5056 16.551C74.1816 16.857 73.8396 17.415 73.4796 18.225L73.2096 16.74C73.6416 15.912 74.1546 15.282 74.7486 14.85C75.3606 14.4 76.1346 14.175 77.0706 14.175C77.9706 14.175 78.6366 14.382 79.0686 14.796C79.5006 15.192 79.7706 15.705 79.8786 16.335C79.9866 16.965 80.0046 17.64 79.9326 18.36H76.4226ZM88.3423 26.055C88.4143 26.379 88.4143 26.712 88.3423 27.054C87.7303 27.018 87.1003 27 86.4523 27C85.8223 27 85.2643 27 84.7783 27C84.2923 27 83.7343 27 83.1043 27C82.4743 27 81.8443 27.018 81.2143 27.054C81.1423 26.712 81.1423 26.379 81.2143 26.055H82.7533C82.8433 25.443 82.9063 24.795 82.9423 24.111C82.9963 23.427 83.0233 22.68 83.0233 21.87V19.71C83.0233 18.108 82.9333 16.731 82.7533 15.579H81.3493C81.2773 15.237 81.2773 14.904 81.3493 14.58C82.3933 14.58 83.3743 14.553 84.2923 14.499C85.2103 14.427 86.0923 14.319 86.9383 14.175C86.8303 14.571 86.7493 15.102 86.6953 15.768C86.6413 16.434 86.5963 17.127 86.5603 17.847C86.5423 18.549 86.5333 19.17 86.5333 19.71V21.87C86.5333 22.68 86.5513 23.427 86.5873 24.111C86.6413 24.795 86.7133 25.443 86.8033 26.055H88.3423ZM84.7783 8.397L86.6683 9.396V11.583L84.7783 12.582L82.8883 11.583V9.396L84.7783 8.397ZM89.864 27.054C89.792 26.712 89.792 26.379 89.864 26.055H91.268C91.358 25.443 91.421 24.795 91.457 24.111C91.511 23.427 91.538 22.68 91.538 21.87V19.71C91.538 18.108 91.448 16.731 91.268 15.579H89.999C89.927 15.237 89.927 14.904 89.999 14.58C91.043 14.58 91.934 14.553 92.672 14.499C93.41 14.427 94.202 14.319 95.048 14.175C94.976 14.409 94.922 14.733 94.886 15.147C94.85 15.543 94.814 15.939 94.778 16.335L95.048 17.55V21.87C95.048 22.68 95.066 23.427 95.102 24.111C95.156 24.795 95.228 25.443 95.318 26.055H96.722C96.794 26.379 96.794 26.712 96.722 27.054C96.11 27.018 95.507 27 94.913 27C94.319 27 93.779 27 93.293 27C92.807 27 92.267 27 91.673 27C91.097 27 90.494 27.018 89.864 27.054ZM98.234 27.054C98.162 26.712 98.162 26.379 98.234 26.055H99.638C99.728 25.443 99.791 24.795 99.827 24.111C99.881 23.427 99.908 22.68 99.908 21.87V18.414C99.908 17.676 99.764 17.055 99.476 16.551C99.188 16.047 98.675 15.795 97.937 15.795C97.307 15.795 96.767 15.957 96.317 16.281C95.885 16.587 95.462 17.01 95.048 17.55L94.778 16.335C95.174 15.777 95.759 15.282 96.533 14.85C97.307 14.4 98.288 14.175 99.476 14.175C100.592 14.175 101.474 14.4 102.122 14.85C102.77 15.3 103.247 15.966 103.553 16.848C103.499 17.118 103.463 17.433 103.445 17.793C103.427 18.153 103.418 18.468 103.418 18.738V21.87C103.418 22.68 103.436 23.427 103.472 24.111C103.526 24.795 103.598 25.443 103.688 26.055H105.092C105.164 26.379 105.164 26.712 105.092 27.054C104.48 27.018 103.877 27 103.283 27C102.689 27 102.149 27 101.663 27C101.177 27 100.637 27 100.043 27C99.467 27 98.864 27.018 98.234 27.054ZM113.086 23.139C113.86 23.139 114.445 22.806 114.841 22.14C115.255 21.474 115.462 20.493 115.462 19.197C115.462 17.901 115.255 16.911 114.841 16.227C114.445 15.525 113.86 15.174 113.086 15.174C112.312 15.174 111.718 15.525 111.304 16.227C110.908 16.911 110.71 17.901 110.71 19.197C110.71 20.493 110.908 21.474 111.304 22.14C111.718 22.806 112.312 23.139 113.086 23.139ZM106.39 29.16C106.39 28.836 106.408 28.557 106.444 28.323C106.498 28.089 106.561 27.909 106.633 27.783H111.412C111.484 28.107 111.484 28.44 111.412 28.782C111.196 28.764 110.998 28.755 110.818 28.755C110.656 28.755 110.485 28.755 110.305 28.755C110.269 28.827 110.233 28.953 110.197 29.133C110.161 29.313 110.143 29.529 110.143 29.781C110.143 30.645 110.413 31.23 110.953 31.536C111.511 31.842 112.33 31.995 113.41 31.995C114.49 31.995 115.327 31.797 115.921 31.401C116.515 31.005 116.812 30.339 116.812 29.403C116.812 28.827 116.704 28.377 116.488 28.053C116.272 27.729 115.912 27.477 115.408 27.297C114.922 27.117 114.247 26.973 113.383 26.865C112.537 26.757 111.727 26.604 110.953 26.406C110.179 26.208 109.486 25.884 108.874 25.434C108.28 24.984 107.803 24.336 107.443 23.49C107.101 22.644 106.93 21.528 106.93 20.142C106.93 18.09 107.497 16.587 108.631 15.633C109.783 14.661 111.286 14.175 113.14 14.175C113.896 14.175 114.724 14.247 115.624 14.391C116.524 14.517 117.334 14.58 118.054 14.58C118.594 14.58 119.071 14.553 119.485 14.499C119.917 14.445 120.241 14.382 120.457 14.31C120.529 15.03 120.529 15.813 120.457 16.659C120.061 16.299 119.674 16.047 119.296 15.903C118.918 15.759 118.414 15.651 117.784 15.579C118.252 16.011 118.612 16.542 118.864 17.172C119.116 17.802 119.242 18.486 119.242 19.224C119.242 20.214 118.99 21.078 118.486 21.816C117.982 22.554 117.298 23.13 116.434 23.544C115.57 23.94 114.598 24.138 113.518 24.138C112.6 24.138 111.898 24.003 111.412 23.733C110.926 23.463 110.476 22.995 110.062 22.329C110.062 23.085 110.152 23.697 110.332 24.165C110.512 24.633 110.863 24.984 111.385 25.218C111.907 25.452 112.672 25.632 113.68 25.758C114.598 25.866 115.471 25.965 116.299 26.055C117.145 26.145 117.901 26.298 118.567 26.514C119.233 26.712 119.755 27.009 120.133 27.405C120.529 27.819 120.727 28.395 120.727 29.133C120.727 29.961 120.439 30.663 119.863 31.239C119.305 31.833 118.486 32.283 117.406 32.589C116.326 32.913 115.021 33.075 113.491 33.075C111.205 33.075 109.45 32.769 108.226 32.157C107.002 31.545 106.39 30.546 106.39 29.16ZM128.623 15.255C127.957 15.255 127.435 15.48 127.057 15.93C126.697 16.362 126.436 16.965 126.274 17.739C126.13 18.495 126.058 19.377 126.058 20.385C126.058 21.411 126.139 22.383 126.301 23.301C126.463 24.201 126.742 24.93 127.138 25.488C127.552 26.046 128.137 26.325 128.893 26.325L128.758 27.405C127.498 27.405 126.364 27.153 125.356 26.649C124.366 26.145 123.583 25.398 123.007 24.408C122.431 23.418 122.143 22.212 122.143 20.79C122.143 19.404 122.431 18.225 123.007 17.253C123.583 16.263 124.366 15.507 125.356 14.985C126.364 14.445 127.498 14.175 128.758 14.175L128.623 15.255ZM128.893 26.325C129.559 26.325 130.072 26.109 130.432 25.677C130.81 25.227 131.071 24.615 131.215 23.841C131.377 23.067 131.458 22.185 131.458 21.195C131.458 20.151 131.377 19.179 131.215 18.279C131.053 17.379 130.765 16.65 130.351 16.092C129.955 15.534 129.379 15.255 128.623 15.255L128.758 14.175C130.018 14.175 131.143 14.427 132.133 14.931C133.141 15.435 133.933 16.182 134.509 17.172C135.085 18.144 135.373 19.35 135.373 20.79C135.373 22.158 135.085 23.337 134.509 24.327C133.933 25.317 133.141 26.082 132.133 26.622C131.143 27.144 130.018 27.405 128.758 27.405L128.893 26.325ZM144.021 15.255C143.355 15.255 142.833 15.48 142.455 15.93C142.095 16.362 141.834 16.965 141.672 17.739C141.528 18.495 141.456 19.377 141.456 20.385C141.456 21.411 141.537 22.383 141.699 23.301C141.861 24.201 142.14 24.93 142.536 25.488C142.95 26.046 143.535 26.325 144.291 26.325L144.156 27.405C142.896 27.405 141.762 27.153 140.754 26.649C139.764 26.145 138.981 25.398 138.405 24.408C137.829 23.418 137.541 22.212 137.541 20.79C137.541 19.404 137.829 18.225 138.405 17.253C138.981 16.263 139.764 15.507 140.754 14.985C141.762 14.445 142.896 14.175 144.156 14.175L144.021 15.255ZM144.291 26.325C144.957 26.325 145.47 26.109 145.83 25.677C146.208 25.227 146.469 24.615 146.613 23.841C146.775 23.067 146.856 22.185 146.856 21.195C146.856 20.151 146.775 19.179 146.613 18.279C146.451 17.379 146.163 16.65 145.749 16.092C145.353 15.534 144.777 15.255 144.021 15.255L144.156 14.175C145.416 14.175 146.541 14.427 147.531 14.931C148.539 15.435 149.331 16.182 149.907 17.172C150.483 18.144 150.771 19.35 150.771 20.79C150.771 22.158 150.483 23.337 149.907 24.327C149.331 25.317 148.539 26.082 147.531 26.622C146.541 27.144 145.416 27.405 144.156 27.405L144.291 26.325Z" fill="#222222"></path><g clip-path="url(#clip0_226_817)"><path d="M23.1997 0C15.9745 5.93614 9.8259 0 9.8259 0L0.0224609 4.40563L2.26994 10.3442L5.9586 9.44374L5.9586 22.8972C5.98515 23.4211 6.41727 23.8363 6.94836 23.8363H7.86328V28.1526C7.86328 28.7247 8.32678 29.1882 8.89649 29.1882C9.46862 29.1882 9.93212 28.7247 9.93212 28.1526V23.8363V17.2701C9.93212 16.8211 10.3135 16.459 10.7843 16.459C11.2526 16.459 11.634 16.8211 11.634 17.2701V23.8363H11.6413V30.2214C11.6413 30.7936 12.1048 31.2571 12.6745 31.2571C13.2466 31.2571 13.7101 30.7936 13.7101 30.2214V13.4004C13.7101 13.3279 13.7021 13.2571 13.686 13.1879V12.3213C13.686 11.8747 14.0939 11.5126 14.5961 11.5126C15.0958 11.5126 15.5037 11.8747 15.5037 12.3213V23.8363H15.5086V24.4663C15.5086 25.0361 15.9721 25.4996 16.5418 25.4996C17.1139 25.4996 17.5774 25.0361 17.5774 24.4663V19.112C17.6643 18.7523 18.0095 18.4843 18.4199 18.4843C18.8979 18.4843 19.2865 18.8465 19.2865 19.293V23.8363V28.0633C19.2865 28.6354 19.75 29.0965 20.3198 29.0965C20.8919 29.0965 21.3554 28.6354 21.3554 28.0633V23.8363V15.4692C21.3554 15.0226 21.7585 14.6605 22.2558 14.6605C22.7507 14.6605 23.1538 15.0226 23.1538 15.4692V23.8363V30.8515C23.1538 31.4236 23.6173 31.8871 24.1895 31.8871C24.7592 31.8871 25.2227 31.4236 25.2227 30.8515V23.8363H26.0748C26.6228 23.8363 27.067 23.3921 27.067 22.8465V9.44374L30.7557 10.3442L33.0031 4.40563L23.1997 0Z" fill="url(#paint0_linear_226_817)"></path><path d="M25.2829 33.9293C25.2829 34.5063 24.8146 34.9746 24.2377 34.9746C23.6607 34.9746 23.1924 34.5063 23.1924 33.9293C23.1924 33.3524 23.6607 32.884 24.2377 32.884C24.8146 32.884 25.2829 33.3524 25.2829 33.9293Z" fill="url(#paint1_linear_226_817)"></path><path d="M17.6228 27.6891C17.6228 28.266 17.1545 28.7344 16.5775 28.7344C16.0006 28.7344 15.5322 28.266 15.5322 27.6891C15.5322 27.1121 16.0006 26.6438 16.5775 26.6438C17.1545 26.6438 17.6228 27.1121 17.6228 27.6891Z" fill="url(#paint2_linear_226_817)"></path><path d="M9.97536 31.3148C9.97536 31.8918 9.50945 32.3601 8.93249 32.3601C8.35553 32.3601 7.88721 31.8918 7.88721 31.3148C7.88721 30.7379 8.35553 30.2695 8.93249 30.2695C9.50945 30.2695 9.97536 30.7379 9.97536 31.3148Z" fill="url(#paint3_linear_226_817)"></path></g><defs><linearGradient id="paint0_linear_226_817" x1="16.5128" y1="0" x2="16.5128" y2="31.8871" gradientUnits="userSpaceOnUse"><stop stop-color="#0021DB"></stop><stop offset="1" stop-color="#007AE4"></stop></linearGradient><linearGradient id="paint1_linear_226_817" x1="24.2377" y1="32.884" x2="24.2377" y2="34.9746" gradientUnits="userSpaceOnUse"><stop stop-color="#0021DB"></stop><stop offset="1" stop-color="#007AE4"></stop></linearGradient><linearGradient id="paint2_linear_226_817" x1="16.5775" y1="26.6438" x2="16.5775" y2="28.7344" gradientUnits="userSpaceOnUse"><stop stop-color="#0021DB"></stop><stop offset="1" stop-color="#007AE4"></stop></linearGradient><linearGradient id="paint3_linear_226_817" x1="8.93128" y1="30.2695" x2="8.93128" y2="32.3601" gradientUnits="userSpaceOnUse"><stop stop-color="#0021DB"></stop><stop offset="1" stop-color="#007AE4"></stop></linearGradient><clipPath id="clip0_226_817"><rect width="33" height="34.9795" fill="white" transform="translate(0.000488281)"></rect></clipPath></defs></svg> 