<svg xmlns="http://www.w3.org/2000/svg" width="26" height="26" viewBox="0 0 26 26" fill="none"><path d="M18.4165 23.0202H7.58317C3.629 23.0202 1.354 20.7452 1.354 16.791V9.20768C1.354 5.25352 3.629 2.97852 7.58317 2.97852H18.4165C22.3707 2.97852 24.6457 5.25352 24.6457 9.20768V16.791C24.6457 20.7452 22.3707 23.0202 18.4165 23.0202ZM7.58317 4.60352C4.48484 4.60352 2.979 6.10935 2.979 9.20768V16.791C2.979 19.8893 4.48484 21.3952 7.58317 21.3952H18.4165C21.5148 21.3952 23.0207 19.8893 23.0207 16.791V9.20768C23.0207 6.10935 21.5148 4.60352 18.4165 4.60352H7.58317Z" fill="#10143E"></path><path d="M12.9997 13.943C12.0897 13.943 11.1688 13.6613 10.4647 13.0871L7.07384 10.3788C6.72718 10.0971 6.66218 9.58795 6.94385 9.24129C7.22552 8.89462 7.73469 8.82963 8.08135 9.11129L11.4722 11.8196C12.2955 12.4805 13.693 12.4805 14.5163 11.8196L17.9072 9.11129C18.2538 8.82963 18.7738 8.88379 19.0447 9.24129C19.3263 9.58795 19.2722 10.108 18.9147 10.3788L15.5238 13.0871C14.8305 13.6613 13.9097 13.943 12.9997 13.943Z" fill="#10143E"></path></svg>