<svg xmlns="http://www.w3.org/2000/svg" width="13" height="10" viewBox="0 0 13 10" fill="none"><path d="M8.20845 9.58443C8.07492 9.58443 7.94138 9.53523 7.83596 9.42981C7.63215 9.226 7.63215 8.88866 7.83596 8.68485C9.98629 6.53452 9.98629 3.04815 7.83596 0.897826C7.63215 0.694015 7.63215 0.356671 7.83596 0.152859C8.03978 -0.050953 8.37712 -0.050953 8.58093 0.152859L12.8469 4.41885C13.0507 4.62266 13.0507 4.96001 12.8469 5.16382L8.58093 9.42981C8.47551 9.53523 8.34198 9.58443 8.20845 9.58443Z" fill="white"></path><path d="M12.3552 5.31863H0.5271C0.238952 5.31863 0 5.07968 0 4.79153C0 4.50339 0.238952 4.26443 0.5271 4.26443H12.3552C12.6434 4.26443 12.8823 4.50339 12.8823 4.79153C12.8823 5.07968 12.6434 5.31863 12.3552 5.31863Z" fill="white"></path></svg>