<svg width="19" height="19" viewBox="0 0 19 19" fill="none" xmlns="http://www.w3.org/2000/svg">
<path fill-rule="evenodd" clip-rule="evenodd" d="M9.03304 15.0554C12.359 15.0554 15.0552 12.3592 15.0552 9.03328C15.0552 5.70735 12.359 3.01115 9.03304 3.01115C5.7071 3.01115 3.0109 5.70735 3.0109 9.03328C3.0109 12.3592 5.7071 15.0554 9.03304 15.0554ZM9.03304 16.5609C13.1904 16.5609 16.5607 13.1907 16.5607 9.03328C16.5607 4.87586 13.1904 1.50562 9.03304 1.50562C4.87562 1.50562 1.50537 4.87586 1.50537 9.03328C1.50537 13.1907 4.87562 16.5609 9.03304 16.5609Z" fill="#494C51"/>
<path d="M9.03304 7.52759C9.03304 7.11185 9.37005 6.77482 9.78581 6.77482H10.5386C10.9543 6.77482 11.2913 6.4378 11.2913 6.02205C11.2913 5.60632 10.9543 5.26929 10.5386 5.26929H9.78581C8.53855 5.26929 7.52751 6.28037 7.52751 7.52759V9.03312H6.77474C6.359 9.03312 6.02197 9.37013 6.02197 9.78589C6.02197 10.2016 6.35899 10.5387 6.77474 10.5387H7.52751V15.0553C7.52751 15.471 7.86452 15.808 8.28027 15.808C8.69603 15.808 9.03304 15.471 9.03304 15.0553V10.5387H10.5386C10.9543 10.5387 11.2913 10.2016 11.2913 9.78589C11.2913 9.37013 10.9543 9.03312 10.5386 9.03312H9.03304V7.52759Z" fill="#494C51"/>
</svg>
