<svg width="19" height="19" viewBox="0 0 19 19" fill="none" xmlns="http://www.w3.org/2000/svg">
<path fill-rule="evenodd" clip-rule="evenodd" d="M12.0832 3.01115H6.06103C4.39807 3.01115 3.04997 4.35925 3.04997 6.02221V12.0443C3.04997 13.7073 4.39807 15.0554 6.06103 15.0554H12.0832C13.7461 15.0554 15.0942 13.7073 15.0942 12.0443V6.02221C15.0942 4.35925 13.7461 3.01115 12.0832 3.01115ZM6.06103 1.50562C3.56658 1.50562 1.54443 3.52776 1.54443 6.02221V12.0443C1.54443 14.5388 3.56658 16.5609 6.06103 16.5609H12.0832C14.5776 16.5609 16.5998 14.5388 16.5998 12.0443V6.02221C16.5998 3.52776 14.5776 1.50562 12.0832 1.50562H6.06103Z" fill="#494C51"/>
<path d="M12.8363 6.02213C13.252 6.02213 13.589 5.68511 13.589 5.26937C13.589 4.85363 13.252 4.5166 12.8363 4.5166C12.4205 4.5166 12.0835 4.85363 12.0835 5.26937C12.0835 5.68511 12.4205 6.02213 12.8363 6.02213Z" fill="#494C51"/>
<path fill-rule="evenodd" clip-rule="evenodd" d="M12.8363 9.03312C12.8363 11.1118 11.1511 12.797 9.07243 12.797C6.99372 12.797 5.30859 11.1118 5.30859 9.03312C5.30859 6.95442 6.99372 5.26929 9.07243 5.26929C11.1511 5.26929 12.8363 6.95442 12.8363 9.03312ZM11.3307 9.03312C11.3307 10.2804 10.3197 11.2914 9.07243 11.2914C7.82517 11.2914 6.81413 10.2804 6.81413 9.03312C6.81413 7.78586 7.82517 6.77482 9.07243 6.77482C10.3197 6.77482 11.3307 7.78586 11.3307 9.03312Z" fill="#494C51"/>
</svg>
