<svg width="11" height="15" viewBox="0 0 11 15" fill="none" xmlns="http://www.w3.org/2000/svg">
<path d="M5.97211 0.258789C3.10577 0.258789 0.273438 2.16893 0.273438 5.26167C0.273438 7.22809 1.37915 8.34588 2.04986 8.34588C2.32651 8.34588 2.48653 7.5747 2.48653 7.35677C2.48653 7.09707 1.82381 6.54352 1.82381 5.46236C1.82381 3.21648 3.5335 1.62502 5.74606 1.62502C7.64868 1.62502 9.05632 2.70541 9.05632 4.69158C9.05632 6.17472 8.46084 8.95677 6.53338 8.95677C5.83783 8.95677 5.24324 8.45429 5.24324 7.73389C5.24324 6.67814 5.91919 5.65551 5.91919 4.56588C5.91919 2.71633 3.35765 3.05188 3.35765 5.28703C3.35765 5.7562 3.41614 6.2755 3.6256 6.70288C3.24056 8.36217 2.53174 11.0068 2.53174 12.7169C2.53174 13.2448 2.6072 13.7642 2.65744 14.2927C2.75229 14.3988 2.70532 14.3876 2.85041 14.3346C4.25846 12.4071 4.12783 11.8575 4.76467 9.33499C5.1085 9.98877 5.99696 10.3406 6.70099 10.3406C9.66783 10.3406 11.0004 7.44929 11.0004 4.84265C11.0004 2.0689 8.6036 0.258789 5.97211 0.258789Z" fill="#494C51"/>
</svg>
