<svg width="19" height="19" viewBox="0 0 19 19" fill="none" xmlns="http://www.w3.org/2000/svg">
<g clip-path="url(#clip0_477_1608)">
<path fill-rule="evenodd" clip-rule="evenodd" d="M2.46871 10.5386C1.22384 10.5421 0.420251 11.9603 1.18717 13.0347C2.28547 14.5733 4.2771 15.8081 7.60208 15.8081C12.7548 15.8081 16.891 11.6089 16.312 6.64776L17.1603 4.95117C17.7485 3.77458 16.7263 2.43612 15.4363 2.69411L14.3156 2.91824C14.0185 2.76147 13.711 2.64317 13.4482 2.55746C12.936 2.39043 12.3161 2.2583 11.7423 2.2583C10.7115 2.2583 9.82192 2.52276 9.11492 3.05317C8.41598 3.57763 8.02228 4.26687 7.80623 4.8998C7.70664 5.19154 7.64033 5.48416 7.59777 5.76501C7.19785 5.63915 6.79007 5.4698 6.39085 5.26301C5.48512 4.79386 4.75271 4.1991 4.33956 3.67765C3.64639 2.80278 2.17741 2.86764 1.66193 4.00488C0.935404 5.60771 1.1347 7.50769 1.78775 9.04291C2.00664 9.55743 2.29138 10.0661 2.63924 10.5375C2.57969 10.5381 2.52272 10.5384 2.46871 10.5386ZM7.60201 14.3026C4.69382 14.3026 3.19004 13.2492 2.41247 12.16C2.37753 12.111 2.41276 12.0443 2.47288 12.0441C3.26392 12.0419 4.88764 12.0044 5.95852 11.3777C6.01391 11.3452 6.00172 11.2636 5.94089 11.2432C3.44459 10.4038 2.02561 6.84911 3.03309 4.62643C3.0562 4.57547 3.1247 4.56874 3.15945 4.61261C4.31033 6.06518 6.82668 7.48792 9.01601 7.52685C9.06351 7.52767 9.09941 7.48453 9.09219 7.43758C9.00396 6.86563 8.6671 3.76383 11.7422 3.76383C12.4765 3.76383 13.5691 4.12202 13.9715 4.48897C13.9901 4.50593 14.0154 4.51363 14.04 4.5087L15.7315 4.1704C15.7929 4.15812 15.8416 4.22185 15.8136 4.27788L14.7645 6.37608C14.7572 6.39064 14.7549 6.40736 14.7577 6.4234C15.4925 10.5538 12.1096 14.3026 7.60201 14.3026Z" fill="#494C51"/>
</g>
<defs>
<clipPath id="clip0_477_1608">
<rect width="18.0664" height="18.0664" fill="white" transform="translate(0.0742188)"/>
</clipPath>
</defs>
</svg>
