<svg width="19" height="19" viewBox="0 0 19 19" fill="none" xmlns="http://www.w3.org/2000/svg"><path fill-rule="evenodd" clip-rule="evenodd" d="M9.033 15.055a6.022 6.022 0 100-12.044 6.022 6.022 0 000 12.044zm0 1.506a7.528 7.528 0 100-15.055 7.528 7.528 0 000 15.055z" fill="#494C51"/><path d="M9.033 7.528c0-.416.337-.753.753-.753h.753a.753.753 0 000-1.506h-.753a2.258 2.258 0 00-2.258 2.259v1.505h-.753a.753.753 0 100 1.506h.753v4.516a.753.753 0 001.505 0V10.54h1.506a.753.753 0 000-1.506H9.033V7.528z" fill="#494C51"/></svg>