<svg width="11" height="15" viewBox="0 0 11 15" fill="none" xmlns="http://www.w3.org/2000/svg"><path d="M5.972.259C3.106.259.273 2.169.273 5.262c0 1.966 1.106 3.084 1.777 3.084.277 0 .437-.771.437-.99 0-.259-.663-.812-.663-1.894 0-2.246 1.71-3.837 3.922-3.837 1.903 0 3.31 1.08 3.31 3.067 0 1.483-.595 4.265-2.523 4.265-.695 0-1.29-.503-1.29-1.223 0-1.056.676-2.078.676-3.168 0-1.85-2.561-1.514-2.561.721 0 .47.058.989.268 1.416-.385 1.66-1.094 4.304-1.094 6.014 0 .528.075 1.047.125 1.576.095.106.048.095.193.042 1.408-1.928 1.278-2.478 1.915-5 .344.654 1.232 1.006 1.936 1.006 2.967 0 4.3-2.892 4.3-5.498C11 2.069 8.603.259 5.971.259z" fill="#494C51"/></svg>