<svg width="19" height="19" viewBox="0 0 19 19" fill="none" xmlns="http://www.w3.org/2000/svg"><g clip-path="url(#clip0_477_1608)"><path fill-rule="evenodd" clip-rule="evenodd" d="M2.469 10.539c-1.245.003-2.049 1.421-1.282 2.496 1.098 1.538 3.09 2.773 6.415 2.773 5.153 0 9.289-4.2 8.71-9.16l.848-1.697c.588-1.176-.434-2.515-1.724-2.257l-1.12.224a5.607 5.607 0 00-.868-.36c-.512-.168-1.132-.3-1.706-.3-1.03 0-1.92.265-2.627.795-.699.525-1.093 1.214-1.309 1.847a5 5 0 00-.208.865 7.607 7.607 0 01-1.207-.502c-.906-.47-1.638-1.064-2.051-1.585-.694-.875-2.163-.81-2.678.327-.727 1.603-.527 3.503.126 5.038.219.514.503 1.023.851 1.495h-.17zm5.133 3.764c-2.908 0-4.412-1.054-5.19-2.143a.073.073 0 01.06-.116c.792-.002 2.416-.04 3.487-.666.055-.033.043-.114-.018-.135-2.496-.84-3.915-4.394-2.908-6.617a.074.074 0 01.126-.013C4.31 6.065 6.827 7.488 9.016 7.527a.077.077 0 00.076-.09c-.088-.571-.425-3.673 2.65-3.673.734 0 1.827.358 2.23.725a.079.079 0 00.068.02l1.692-.339a.075.075 0 01.082.108l-1.05 2.098a.077.077 0 00-.006.047c.735 4.13-2.648 7.88-7.156 7.88z" fill="#494C51"/></g><defs><clipPath id="clip0_477_1608"><path fill="#fff" transform="translate(.074)" d="M0 0h18.066v18.066H0z"/></clipPath></defs></svg>