<svg width="549" height="599" viewBox="0 0 549 599" fill="none" xmlns="http://www.w3.org/2000/svg"><mask id="a" style="mask-type:alpha" maskUnits="userSpaceOnUse" x="0" y="0" width="549" height="599"><path fill="url(#paint0_linear_18_1890)" d="M0 0h549v599H0z"/></mask><g mask="url(#a)"><path d="M523.443 347.764c-23.551 59.198 48.39 186.605-134.156 196.477-121.698 6.604-206.647-15.494-254.847-26.294-91.647-28.953-159.125-206.25-87.262-291.752 71.888-85.534-20.584-208.702 157.035-167.988C326.684 86.266 358.475-69.133 490 38c32.217 26.237 93.001 160.161 33.443 309.764z" fill="url(#paint1_linear_18_1890)"/><path d="M522.978 347.579l.465.185-.465-.185c-5.932 14.912-5.842 34.082-5.262 54.484.05 1.739.103 3.488.156 5.243.572 18.887 1.171 38.639-2.375 57.099-3.871 20.153-12.677 38.729-31.846 52.894-19.185 14.177-48.806 23.978-94.391 26.443-112.79 6.12-193.988-12.428-243.631-23.767-3.879-.886-7.566-1.728-11.06-2.511-45.594-14.417-85.286-65.793-104.602-124.344C10.651 334.566 11.79 269.077 47.56 226.517c18.05-21.475 25.773-45.304 29.996-68.29 2.006-10.912 3.224-21.643 4.38-31.838l.184-1.613c1.215-10.682 2.404-20.741 4.414-29.81 4.02-18.125 11.296-32.185 28.508-39.253 17.279-7.095 44.67-7.194 89.059 2.981l.112-.487-.112.487c52.194 11.958 88.025-9.3 121.897-29.395 6.02-3.572 11.978-7.106 17.955-10.411C363.778 7.926 383.811-.524 407.061.405c23.247.93 49.794 11.241 82.623 37.982 7.975 6.495 17.776 19.711 27.061 38.268 9.279 18.543 18.022 42.378 23.903 70.068 11.761 55.379 12.068 126.159-17.67 200.856z" stroke="#fff" stroke-opacity=".13"/><g style="mix-blend-mode:multiply" opacity=".11"><path d="M432.91 336.547H163.367c-9.502 0-17.205 7.703-17.205 17.205v193.076c0 9.502 7.703 17.205 17.205 17.205H432.91c9.502 0 17.205-7.703 17.205-17.205V353.752c0-9.502-7.703-17.205-17.205-17.205z" fill="#161616"/><path d="M432.91 336.547H163.367c-9.502 0-17.205 7.703-17.205 17.205v193.076c0 9.502 7.703 17.205 17.205 17.205H432.91c9.502 0 17.205-7.703 17.205-17.205V353.752c0-9.502-7.703-17.205-17.205-17.205z" stroke="#1E223B" stroke-miterlimit="10"/></g><g style="mix-blend-mode:multiply" opacity=".11"><path d="M443.424 323.166H152.853a6.69 6.69 0 100 13.381h290.571a6.69 6.69 0 100-13.381z" fill="#161616"/><path d="M443.424 323.166H152.853a6.69 6.69 0 100 13.381h290.571a6.69 6.69 0 100-13.381z" stroke="#1E223B" stroke-miterlimit="10"/></g><path d="M423.352 328.9H153.809c-9.502 0-17.205 7.703-17.205 17.205v193.077c0 9.502 7.703 17.205 17.205 17.205h269.543c9.502 0 17.205-7.703 17.205-17.205V346.105c0-9.502-7.703-17.205-17.205-17.205z" fill="#2F4584"/><path d="M423.352 328.9H153.809c-9.502 0-17.205 7.703-17.205 17.205v187.342c0 9.502 7.703 17.205 17.205 17.205h269.543c9.502 0 17.205-7.703 17.205-17.205V346.105c0-9.502-7.703-17.205-17.205-17.205z" fill="#fff"/><g style="mix-blend-mode:multiply" opacity=".11"><path d="M333.982 537.107h-1.434a5.737 5.737 0 00-5.735 5.735v6.855a2.865 2.865 0 01-2.867 2.867 2.867 2.867 0 01-2.868-2.867v-6.855a5.74 5.74 0 00-1.679-4.056 5.74 5.74 0 00-4.056-1.679h-1.433a5.735 5.735 0 00-5.735 5.735v6.855a2.865 2.865 0 01-2.868 2.867 2.865 2.865 0 01-2.867-2.867v-6.855a5.736 5.736 0 00-5.735-5.735h-1.434a5.735 5.735 0 00-5.735 5.735v6.855a2.865 2.865 0 01-2.867 2.867 2.867 2.867 0 01-2.868-2.867v-43.012a5.74 5.74 0 00-1.679-4.056 5.74 5.74 0 00-4.056-1.679h-1.433a5.74 5.74 0 00-4.056 1.679 5.74 5.74 0 00-1.679 4.056v74.968l-11-19.053a5.736 5.736 0 00-7.838-2.102l-1.242.717a5.725 5.725 0 00-2.676 3.483 5.725 5.725 0 00.573 4.354l22.982 39.806a11.47 11.47 0 0010.663 7.264h1.911v23.564h-3.774v23.767h-1.848a6.2 6.2 0 00-6.199 6.2v28.925h65.719v-28.925a6.203 6.203 0 00-1.815-4.384 6.204 6.204 0 00-4.384-1.816h-1.857v-23.767h-3.778v-23.564h1.912a11.472 11.472 0 0011.47-11.47v-61.81a5.736 5.736 0 00-5.735-5.735z" fill="#161616"/><path d="M333.982 537.107h-1.434a5.737 5.737 0 00-5.735 5.735v6.855a2.865 2.865 0 01-2.867 2.867 2.867 2.867 0 01-2.868-2.867v-6.855a5.74 5.74 0 00-1.679-4.056 5.74 5.74 0 00-4.056-1.679h-1.433a5.735 5.735 0 00-5.735 5.735v6.855a2.865 2.865 0 01-2.868 2.867 2.865 2.865 0 01-2.867-2.867v-6.855a5.736 5.736 0 00-5.735-5.735h-1.434a5.735 5.735 0 00-5.735 5.735v6.855a2.865 2.865 0 01-2.867 2.867 2.867 2.867 0 01-2.868-2.867v-43.012a5.74 5.74 0 00-1.679-4.056 5.74 5.74 0 00-4.056-1.679h-1.433a5.74 5.74 0 00-4.056 1.679 5.74 5.74 0 00-1.679 4.056v74.968l-11-19.053a5.736 5.736 0 00-7.838-2.102l-1.242.717a5.725 5.725 0 00-2.676 3.483 5.725 5.725 0 00.573 4.354l22.982 39.806a11.47 11.47 0 0010.663 7.264h1.911v23.564h-3.774v23.767h-1.848a6.2 6.2 0 00-6.199 6.2v28.925h65.719v-28.925a6.203 6.203 0 00-1.815-4.384 6.204 6.204 0 00-4.384-1.816h-1.857v-23.767h-3.778v-23.564h1.912a11.472 11.472 0 0011.47-11.47v-61.81a5.736 5.736 0 00-5.735-5.735z" stroke="#1E223B" stroke-miterlimit="10"/></g><g style="mix-blend-mode:multiply" opacity=".11"><path d="M224.123 533.447A11.472 11.472 0 00235.543 523l21.143-36.623a5.725 5.725 0 00.574-4.354 5.746 5.746 0 00-2.676-3.483l-1.243-.717a5.73 5.73 0 00-6.363.418 5.75 5.75 0 00-1.475 1.684l-9.916 17.178v-73.094a5.736 5.736 0 00-5.735-5.735h-1.434a5.732 5.732 0 00-5.735 5.735v43.012a2.865 2.865 0 01-2.868 2.867 2.866 2.866 0 01-2.867-2.867v-51.322a5.732 5.732 0 00-5.735-5.735h-1.434a5.733 5.733 0 00-5.735 5.735v51.323a2.868 2.868 0 11-5.735 0V424.01a5.735 5.735 0 00-5.735-5.735h-1.433a5.732 5.732 0 00-5.735 5.735v43.012a2.865 2.865 0 01-2.868 2.867 2.865 2.865 0 01-2.867-2.867V437.63a5.733 5.733 0 00-5.735-5.735h-1.434a5.736 5.736 0 00-5.735 5.735v84.347a11.47 11.47 0 0011.47 11.47h2.466v23.564h-4.329v23.766h-1.857a6.202 6.202 0 00-6.2 6.201v111.6h65.72v-111.6a6.2 6.2 0 00-6.2-6.201h-1.857v-23.766h-3.221v-23.564h1.364z" fill="#161616"/><path d="M224.123 533.447A11.472 11.472 0 00235.543 523l21.143-36.623a5.725 5.725 0 00.574-4.354 5.746 5.746 0 00-2.676-3.483l-1.243-.717a5.73 5.73 0 00-6.363.418 5.75 5.75 0 00-1.475 1.684l-9.916 17.178v-73.094a5.736 5.736 0 00-5.735-5.735h-1.434a5.732 5.732 0 00-5.735 5.735v43.012a2.865 2.865 0 01-2.868 2.867 2.866 2.866 0 01-2.867-2.867v-51.322a5.732 5.732 0 00-5.735-5.735h-1.434a5.733 5.733 0 00-5.735 5.735v51.323a2.868 2.868 0 11-5.735 0V424.01a5.735 5.735 0 00-5.735-5.735h-1.433a5.732 5.732 0 00-5.735 5.735v43.012a2.865 2.865 0 01-2.868 2.867 2.865 2.865 0 01-2.867-2.867V437.63a5.733 5.733 0 00-5.735-5.735h-1.434a5.736 5.736 0 00-5.735 5.735v84.347a11.47 11.47 0 0011.47 11.47h2.466v23.564h-4.329v23.766h-1.857a6.202 6.202 0 00-6.2 6.201v111.6h65.72v-111.6a6.2 6.2 0 00-6.2-6.201h-1.857v-23.766h-3.221v-23.564h1.364z" stroke="#1E223B" stroke-miterlimit="10"/></g><path opacity=".15" d="M422.874 345.627H154.287a3.823 3.823 0 00-3.823 3.824v108.008a3.822 3.822 0 003.823 3.823h268.587a3.823 3.823 0 003.823-3.823V349.451a3.824 3.824 0 00-3.823-3.824z" fill="#1E223B" stroke="#1E223B" stroke-width="2" stroke-miterlimit="11"/><path d="M423.352 328.9H153.809c-9.502 0-17.205 7.703-17.205 17.205v187.342c0 9.502 7.703 17.205 17.205 17.205h269.543c9.502 0 17.205-7.703 17.205-17.205V346.105c0-9.502-7.703-17.205-17.205-17.205z" stroke="#1E223B" stroke-width="2" stroke-linecap="round" stroke-linejoin="round"/><path d="M423.352 328.9H153.809c-9.502 0-17.205 7.703-17.205 17.205v193.077c0 9.502 7.703 17.205 17.205 17.205h269.543c9.502 0 17.205-7.703 17.205-17.205V346.105c0-9.502-7.703-17.205-17.205-17.205z" stroke="#1E223B" stroke-width="2" stroke-linecap="round" stroke-linejoin="round"/><path d="M423.352 107.149H153.809c-9.502 0-17.205 7.703-17.205 17.205v187.341c0 9.502 7.703 17.205 17.205 17.205h269.543c9.502 0 17.205-7.703 17.205-17.205V124.354c0-9.502-7.703-17.205-17.205-17.205z" fill="#2F4584"/><path d="M423.352 107.149H153.809c-9.502 0-17.205 7.703-17.205 17.205v187.341c0 9.502 7.703 17.205 17.205 17.205h269.543c9.502 0 17.205-7.703 17.205-17.205V124.354c0-9.502-7.703-17.205-17.205-17.205z" stroke="#1E223B" stroke-width="2" stroke-linecap="round" stroke-linejoin="round"/><path d="M434.823 311.695V124.354c0-6.335-5.136-11.47-11.47-11.47H153.81c-6.335 0-11.47 5.135-11.47 11.47v187.341c0 6.335 5.135 11.47 11.47 11.47h269.543c6.334 0 11.47-5.135 11.47-11.47z" fill="#fff"/><path d="M411.883 300.226V135.824H165.28v164.402h246.603z" fill="#447FD3" stroke="#1E223B" stroke-miterlimit="10"/><path d="M434.823 311.695V124.354c0-6.335-5.136-11.47-11.47-11.47H153.81c-6.335 0-11.47 5.135-11.47 11.47v187.341c0 6.335 5.135 11.47 11.47 11.47h269.543c6.334 0 11.47-5.135 11.47-11.47z" stroke="#1E223B" stroke-width="2" stroke-linecap="round" stroke-linejoin="round"/><path d="M411.883 300.226V135.824H165.28v164.402h246.603z" stroke="#1E223B" stroke-width="2" stroke-linecap="round" stroke-linejoin="round"/><path d="M325.619 470.362h-74.077a4.063 4.063 0 00-4.062 4.063v49.225a4.062 4.062 0 004.062 4.062h74.077a4.062 4.062 0 004.062-4.062v-49.225a4.063 4.063 0 00-4.062-4.063z" fill="#1E223B" opacity=".1"/><path d="M325.619 470.362h-74.077a4.063 4.063 0 00-4.062 4.063v49.225a4.062 4.062 0 004.062 4.062h74.077a4.062 4.062 0 004.062-4.062v-49.225a4.063 4.063 0 00-4.062-4.063z" stroke="#1E223B" stroke-width="2" stroke-linecap="round" stroke-linejoin="round"/><path d="M325.38 548.74h-72.643v7.647h72.643v-7.647z" fill="#263C72"/><path d="M325.38 548.74h-72.643v7.647h72.643v-7.647z" stroke="#1E223B" stroke-width="2" stroke-linecap="round" stroke-linejoin="round"/><g style="mix-blend-mode:multiply" opacity=".11"><path d="M385.119 84.209H205.424a5.735 5.735 0 00-5.735 5.735v202.635a5.735 5.735 0 005.735 5.735h179.695a5.735 5.735 0 005.735-5.735V89.944a5.735 5.735 0 00-5.735-5.735z" fill="#161616"/><path d="M385.119 84.209H205.424a5.735 5.735 0 00-5.735 5.735v202.635a5.735 5.735 0 005.735 5.735h179.695a5.735 5.735 0 005.735-5.735V89.944a5.735 5.735 0 00-5.735-5.735z" stroke="#1E223B" stroke-miterlimit="10"/></g><path d="M379.862 80.386H200.167a5.735 5.735 0 00-5.735 5.735v202.635a5.735 5.735 0 005.735 5.735h179.695a5.735 5.735 0 005.735-5.735V86.121a5.735 5.735 0 00-5.735-5.735z" fill="#6C6CFE"/><path fill="#fff" d="M195 106h190v65H195z"/><rect x="205" y="131" width="73" height="30" rx="5" fill="#EADEFC"/><path fill="#EADEFC" d="M286 139h50.857v2H286zm0 6h89v2h-89zm0 6h81.371v2H286z"/><rect x="205" y="116" width="29" height="5" rx="2.5" fill="#EADEFC"/><rect x="316" y="117" width="13" height="3" rx="1.5" fill="#EADEFC"/><rect x="339" y="117" width="13" height="3" rx="1.5" fill="#EADEFC"/><rect x="362" y="117" width="13" height="3" rx="1.5" fill="#EADEFC"/><rect x="293" y="117" width="13" height="3" rx="1.5" fill="#EADEFC"/><path d="M194.432 261.993h191.165v26.763a5.738 5.738 0 01-5.735 5.735H200.167a5.737 5.737 0 01-5.735-5.735v-26.763z" fill="#6C6CFE"/><path d="M379.862 80.386H200.167a5.735 5.735 0 00-5.735 5.735v202.635a5.735 5.735 0 005.735 5.735h179.695a5.735 5.735 0 005.735-5.735V86.121a5.735 5.735 0 00-5.735-5.735z" stroke="#1E223B" stroke-width="2" stroke-linecap="round" stroke-linejoin="round"/><path d="M199.619 80.386h180.79a5.191 5.191 0 014.793 3.203 5.18 5.18 0 01.395 1.985v12.018H194.432V85.574a5.19 5.19 0 015.187-5.188z" fill="#363D56"/><path d="M199.619 80.386h180.79a5.191 5.191 0 014.793 3.203 5.18 5.18 0 01.395 1.985v12.018H194.432V85.574a5.19 5.19 0 015.187-5.188v0z" stroke="#1E223B" stroke-width="2" stroke-linecap="round" stroke-linejoin="round"/><path d="M385.597 97.59H194.432v7.647h191.165v-7.646z" fill="#424960"/><path d="M385.597 97.59H194.432v7.647h191.165v-7.646z" stroke="#1E223B" stroke-width="2" stroke-linecap="round" stroke-linejoin="round"/><path d="M205.105 91.856a2.868 2.868 0 100-5.735 2.868 2.868 0 000 5.735z" fill="#F73E39"/><path d="M205.105 91.856a2.868 2.868 0 100-5.735 2.868 2.868 0 000 5.735z" stroke="#1E223B" stroke-width="2" stroke-linecap="round" stroke-linejoin="round"/><path d="M216.831 91.856a2.868 2.868 0 100-5.735 2.868 2.868 0 000 5.735z" fill="#383838"/><path d="M216.831 91.856a2.868 2.868 0 100-5.735 2.868 2.868 0 000 5.735z" stroke="#1E223B" stroke-width="2" stroke-linecap="round" stroke-linejoin="round"/><path d="M227.562 91.856a2.868 2.868 0 100-5.735 2.868 2.868 0 000 5.735z" fill="#C6C6C6"/><path d="M227.562 91.856a2.868 2.868 0 100-5.735 2.868 2.868 0 000 5.735z" stroke="#1E223B" stroke-width="2" stroke-linecap="round" stroke-linejoin="round"/><path opacity=".28" d="M302.918 86.121h-59.261a2.868 2.868 0 100 5.735h59.261a2.867 2.867 0 000-5.735z" fill="#8289A3"/><path d="M419.289 319.342H157.871a2.15 2.15 0 00-2.15 2.151v8.124a2.15 2.15 0 002.15 2.151h261.418a2.151 2.151 0 002.151-2.151v-8.124a2.151 2.151 0 00-2.151-2.151z" fill="#263C72"/><path d="M421.44 319.342H155.721v12.426H421.44v-12.426z" stroke="#1E223B" stroke-width="2" stroke-linecap="round" stroke-linejoin="round"/><path d="M418.573 349.929h-15.294a2.868 2.868 0 00-2.867 2.867v5.735a2.868 2.868 0 002.867 2.868h15.294a2.868 2.868 0 002.867-2.868v-5.735a2.868 2.868 0 00-2.867-2.867zm-30.587 0h-15.293a2.868 2.868 0 00-2.868 2.867v5.735a2.868 2.868 0 002.868 2.868h15.293a2.868 2.868 0 002.868-2.868v-5.735a2.868 2.868 0 00-2.868-2.867zm-30.586 0h-15.293a2.868 2.868 0 00-2.868 2.867v5.735a2.868 2.868 0 002.868 2.868H357.4a2.868 2.868 0 002.867-2.868v-5.735a2.868 2.868 0 00-2.867-2.867zm-30.587 0H311.52a2.868 2.868 0 00-2.867 2.867v5.735a2.868 2.868 0 002.867 2.868h15.293a2.868 2.868 0 002.868-2.868v-5.735a2.868 2.868 0 00-2.868-2.867zm-30.586 0h-15.293a2.868 2.868 0 00-2.868 2.867v5.735a2.868 2.868 0 002.868 2.868h15.293a2.867 2.867 0 002.867-2.868v-5.735a2.867 2.867 0 00-2.867-2.867zm-30.586 0h-15.294a2.868 2.868 0 00-2.867 2.867v5.735a2.868 2.868 0 002.867 2.868h15.294a2.868 2.868 0 002.867-2.868v-5.735a2.868 2.868 0 00-2.867-2.867zm-30.587 0h-15.293a2.867 2.867 0 00-2.867 2.867v5.735a2.867 2.867 0 002.867 2.868h15.293a2.868 2.868 0 002.868-2.868v-5.735a2.868 2.868 0 00-2.868-2.867zm-30.586 0h-15.293a2.868 2.868 0 00-2.868 2.867v5.735a2.868 2.868 0 002.868 2.868h15.293a2.868 2.868 0 002.867-2.868v-5.735a2.868 2.868 0 00-2.867-2.867zm-30.587 0h-15.293a2.868 2.868 0 00-2.867 2.867v5.735a2.868 2.868 0 002.867 2.868h15.293a2.868 2.868 0 002.868-2.868v-5.735a2.868 2.868 0 00-2.868-2.867zM357.4 374.28h-15.293a2.868 2.868 0 00-2.868 2.868v15.293a2.867 2.867 0 002.868 2.867H357.4a2.867 2.867 0 002.867-2.867v-15.293a2.868 2.868 0 00-2.867-2.868zm-30.587 0H311.52a2.868 2.868 0 00-2.867 2.868v15.293a2.867 2.867 0 002.867 2.867h15.293a2.867 2.867 0 002.868-2.867v-15.293a2.868 2.868 0 00-2.868-2.868zm-30.586 0h-15.293a2.868 2.868 0 00-2.868 2.868v15.293a2.867 2.867 0 002.868 2.867h15.293a2.866 2.866 0 002.867-2.867v-15.293a2.867 2.867 0 00-2.867-2.868zm-30.586 0h-15.294a2.868 2.868 0 00-2.867 2.868v15.293a2.867 2.867 0 002.867 2.867h15.294a2.867 2.867 0 002.867-2.867v-15.293a2.868 2.868 0 00-2.867-2.868zm-30.587 0h-15.293a2.867 2.867 0 00-2.867 2.868v15.293a2.866 2.866 0 002.867 2.867h15.293a2.867 2.867 0 002.868-2.867v-15.293a2.868 2.868 0 00-2.868-2.868zm-30.586 0h-15.293a2.868 2.868 0 00-2.868 2.868v15.293a2.867 2.867 0 002.868 2.867h15.293a2.867 2.867 0 002.867-2.867v-15.293a2.868 2.868 0 00-2.867-2.868zm-30.587 0h-15.293a2.868 2.868 0 00-2.867 2.868v15.293a2.867 2.867 0 002.867 2.867h15.293a2.867 2.867 0 002.868-2.867v-15.293a2.868 2.868 0 00-2.868-2.868zm244.692 0h-15.294a2.868 2.868 0 00-2.867 2.868v45.413a2.867 2.867 0 002.867 2.867h15.294a2.867 2.867 0 002.867-2.867v-45.413a2.868 2.868 0 00-2.867-2.868z" fill="#363D56"/><path d="M387.986 374.28h-15.293a2.867 2.867 0 00-2.868 2.868v24.385a2.868 2.868 0 01-2.867 2.867h-24.851a2.867 2.867 0 00-2.868 2.868v15.293a2.865 2.865 0 002.868 2.867h45.879a2.867 2.867 0 002.868-2.867v-45.413a2.867 2.867 0 00-2.868-2.868zm-61.173 30.12H311.52a2.868 2.868 0 00-2.867 2.868v15.293a2.868 2.868 0 002.867 2.868h15.293a2.868 2.868 0 002.868-2.868v-15.293a2.868 2.868 0 00-2.868-2.868zm-30.586 0h-15.293a2.868 2.868 0 00-2.868 2.868v15.293a2.868 2.868 0 002.868 2.868h15.293a2.867 2.867 0 002.867-2.868v-15.293a2.867 2.867 0 00-2.867-2.868zm-30.586 0h-15.294a2.868 2.868 0 00-2.867 2.868v15.293a2.868 2.868 0 002.867 2.868h15.294a2.868 2.868 0 002.867-2.868v-15.293a2.868 2.868 0 00-2.867-2.868zm-30.587 0h-15.293a2.867 2.867 0 00-2.867 2.868v15.293a2.867 2.867 0 002.867 2.868h15.293a2.868 2.868 0 002.868-2.868v-15.293a2.868 2.868 0 00-2.868-2.868zm-30.586 0h-45.88a2.868 2.868 0 00-2.867 2.868v15.293a2.868 2.868 0 002.867 2.868h45.88a2.868 2.868 0 002.867-2.868v-15.293a2.868 2.868 0 00-2.867-2.868zm214.105 30.119h-15.294a2.868 2.868 0 00-2.867 2.868v15.293a2.868 2.868 0 002.867 2.867h15.294a2.868 2.868 0 002.867-2.867v-15.293a2.868 2.868 0 00-2.867-2.868zm-30.587 0h-15.293a2.868 2.868 0 00-2.868 2.868v15.293a2.868 2.868 0 002.868 2.867h15.293a2.868 2.868 0 002.868-2.867v-15.293a2.868 2.868 0 00-2.868-2.868zm-30.586 0h-15.293a2.868 2.868 0 00-2.868 2.868v15.293a2.868 2.868 0 002.868 2.867H357.4a2.868 2.868 0 002.867-2.867v-15.293a2.868 2.868 0 00-2.867-2.868zm-30.587 0h-76.466a2.868 2.868 0 00-2.867 2.868v15.293a2.868 2.868 0 002.867 2.867h76.466a2.868 2.868 0 002.868-2.867v-15.293a2.868 2.868 0 00-2.868-2.868zm-91.759 0h-15.293a2.867 2.867 0 00-2.867 2.868v15.293a2.867 2.867 0 002.867 2.867h15.293a2.868 2.868 0 002.868-2.867v-15.293a2.868 2.868 0 00-2.868-2.868zm-30.586 0h-15.293a2.868 2.868 0 00-2.868 2.868v15.293a2.868 2.868 0 002.868 2.867h15.293a2.868 2.868 0 002.867-2.867v-15.293a2.868 2.868 0 00-2.867-2.868zm-30.587 0h-15.293a2.868 2.868 0 00-2.867 2.868v15.293a2.868 2.868 0 002.867 2.867h15.293a2.868 2.868 0 002.868-2.867v-15.293a2.868 2.868 0 00-2.868-2.868z" fill="#363D56"/><path d="M418.573 349.929h-15.294a2.868 2.868 0 00-2.867 2.867v5.735a2.868 2.868 0 002.867 2.868h15.294a2.868 2.868 0 002.867-2.868v-5.735a2.868 2.868 0 00-2.867-2.867zm-30.587 0h-15.293a2.868 2.868 0 00-2.868 2.867v5.735a2.868 2.868 0 002.868 2.868h15.293a2.868 2.868 0 002.868-2.868v-5.735a2.868 2.868 0 00-2.868-2.867zm-30.586 0h-15.293a2.868 2.868 0 00-2.868 2.867v5.735a2.868 2.868 0 002.868 2.868H357.4a2.868 2.868 0 002.867-2.868v-5.735a2.868 2.868 0 00-2.867-2.867zm-30.587 0H311.52a2.868 2.868 0 00-2.867 2.867v5.735a2.868 2.868 0 002.867 2.868h15.293a2.868 2.868 0 002.868-2.868v-5.735a2.868 2.868 0 00-2.868-2.867zm-30.586 0h-15.293a2.868 2.868 0 00-2.868 2.867v5.735a2.868 2.868 0 002.868 2.868h15.293a2.867 2.867 0 002.867-2.868v-5.735a2.867 2.867 0 00-2.867-2.867zm-30.586 0h-15.294a2.868 2.868 0 00-2.867 2.867v5.735a2.868 2.868 0 002.867 2.868h15.294a2.868 2.868 0 002.867-2.868v-5.735a2.868 2.868 0 00-2.867-2.867zm-30.587 0h-15.293a2.867 2.867 0 00-2.867 2.867v5.735a2.867 2.867 0 002.867 2.868h15.293a2.868 2.868 0 002.868-2.868v-5.735a2.868 2.868 0 00-2.868-2.867zm-30.586 0h-15.293a2.868 2.868 0 00-2.868 2.867v5.735a2.868 2.868 0 002.868 2.868h15.293a2.868 2.868 0 002.867-2.868v-5.735a2.868 2.868 0 00-2.867-2.867zm-30.587 0h-15.293a2.868 2.868 0 00-2.867 2.867v5.735a2.868 2.868 0 002.867 2.868h15.293a2.868 2.868 0 002.868-2.868v-5.735a2.868 2.868 0 00-2.868-2.867zM357.4 374.28h-15.293a2.868 2.868 0 00-2.868 2.868v15.293a2.867 2.867 0 002.868 2.867H357.4a2.867 2.867 0 002.867-2.867v-15.293a2.868 2.868 0 00-2.867-2.868zm-30.587 0H311.52a2.868 2.868 0 00-2.867 2.868v15.293a2.867 2.867 0 002.867 2.867h15.293a2.867 2.867 0 002.868-2.867v-15.293a2.868 2.868 0 00-2.868-2.868zm-30.586 0h-15.293a2.868 2.868 0 00-2.868 2.868v15.293a2.867 2.867 0 002.868 2.867h15.293a2.866 2.866 0 002.867-2.867v-15.293a2.867 2.867 0 00-2.867-2.868zm-30.586 0h-15.294a2.868 2.868 0 00-2.867 2.868v15.293a2.867 2.867 0 002.867 2.867h15.294a2.867 2.867 0 002.867-2.867v-15.293a2.868 2.868 0 00-2.867-2.868zm-30.587 0h-15.293a2.867 2.867 0 00-2.867 2.868v15.293a2.866 2.866 0 002.867 2.867h15.293a2.867 2.867 0 002.868-2.867v-15.293a2.868 2.868 0 00-2.868-2.868zm-30.586 0h-15.293a2.868 2.868 0 00-2.868 2.868v15.293a2.867 2.867 0 002.868 2.867h15.293a2.867 2.867 0 002.867-2.867v-15.293a2.868 2.868 0 00-2.867-2.868zm-30.587 0h-15.293a2.868 2.868 0 00-2.867 2.868v15.293a2.867 2.867 0 002.867 2.867h15.293a2.867 2.867 0 002.868-2.867v-15.293a2.868 2.868 0 00-2.868-2.868zm244.692 0h-15.294a2.868 2.868 0 00-2.867 2.868v45.413a2.867 2.867 0 002.867 2.867h15.294a2.867 2.867 0 002.867-2.867v-45.413a2.868 2.868 0 00-2.867-2.868z" stroke="#1E223B" stroke-width="2" stroke-linecap="round" stroke-linejoin="round"/><path d="M387.986 374.28h-15.293a2.867 2.867 0 00-2.868 2.868v24.385a2.868 2.868 0 01-2.867 2.867h-24.851a2.867 2.867 0 00-2.868 2.868v15.293a2.865 2.865 0 002.868 2.867h45.879a2.867 2.867 0 002.868-2.867v-45.413a2.867 2.867 0 00-2.868-2.868zm-61.173 30.12H311.52a2.868 2.868 0 00-2.867 2.868v15.293a2.868 2.868 0 002.867 2.868h15.293a2.868 2.868 0 002.868-2.868v-15.293a2.868 2.868 0 00-2.868-2.868zm-30.586 0h-15.293a2.868 2.868 0 00-2.868 2.868v15.293a2.868 2.868 0 002.868 2.868h15.293a2.867 2.867 0 002.867-2.868v-15.293a2.867 2.867 0 00-2.867-2.868zm-30.586 0h-15.294a2.868 2.868 0 00-2.867 2.868v15.293a2.868 2.868 0 002.867 2.868h15.294a2.868 2.868 0 002.867-2.868v-15.293a2.868 2.868 0 00-2.867-2.868zm-30.587 0h-15.293a2.867 2.867 0 00-2.867 2.868v15.293a2.867 2.867 0 002.867 2.868h15.293a2.868 2.868 0 002.868-2.868v-15.293a2.868 2.868 0 00-2.868-2.868zm-30.586 0h-45.88a2.868 2.868 0 00-2.867 2.868v15.293a2.868 2.868 0 002.867 2.868h45.88a2.868 2.868 0 002.867-2.868v-15.293a2.868 2.868 0 00-2.867-2.868zm214.105 30.119h-15.294a2.868 2.868 0 00-2.867 2.868v15.293a2.868 2.868 0 002.867 2.867h15.294a2.868 2.868 0 002.867-2.867v-15.293a2.868 2.868 0 00-2.867-2.868zm-30.587 0h-15.293a2.868 2.868 0 00-2.868 2.868v15.293a2.868 2.868 0 002.868 2.867h15.293a2.868 2.868 0 002.868-2.867v-15.293a2.868 2.868 0 00-2.868-2.868zm-30.586 0h-15.293a2.868 2.868 0 00-2.868 2.868v15.293a2.868 2.868 0 002.868 2.867H357.4a2.868 2.868 0 002.867-2.867v-15.293a2.868 2.868 0 00-2.867-2.868zm-30.587 0h-76.466a2.868 2.868 0 00-2.867 2.868v15.293a2.868 2.868 0 002.867 2.867h76.466a2.868 2.868 0 002.868-2.867v-15.293a2.868 2.868 0 00-2.868-2.868zm-91.759 0h-15.293a2.867 2.867 0 00-2.867 2.868v15.293a2.867 2.867 0 002.867 2.867h15.293a2.868 2.868 0 002.868-2.867v-15.293a2.868 2.868 0 00-2.868-2.868zm-30.586 0h-15.293a2.868 2.868 0 00-2.868 2.868v15.293a2.868 2.868 0 002.868 2.867h15.293a2.868 2.868 0 002.867-2.867v-15.293a2.868 2.868 0 00-2.867-2.868zm-30.587 0h-15.293a2.868 2.868 0 00-2.867 2.868v15.293a2.868 2.868 0 002.867 2.867h15.293a2.868 2.868 0 002.868-2.867v-15.293a2.868 2.868 0 00-2.868-2.868z" stroke="#1E223B" stroke-width="2" stroke-linecap="round" stroke-linejoin="round"/><path d="M217.987 523.762h-42.056v38.233h42.056v-38.233z" fill="#F2A197"/><path d="M217.987 523.762h-42.056v38.233h42.056v-38.233z" stroke="#1E223B" stroke-width="2" stroke-linecap="round" stroke-linejoin="round"/><path d="M221.207 553.393h-49.605v24.386h49.605v-24.386z" fill="#fff"/><path d="M221.207 553.393h-49.605v24.386h49.605v-24.386z" stroke="#1E223B" stroke-width="2" stroke-linecap="round" stroke-linejoin="round"/><path d="M169.745 577.16h53.319a6.2 6.2 0 016.201 6.2v111.599h-65.721v-111.6c0-1.644.654-3.221 1.816-4.384a6.204 6.204 0 014.385-1.815z" fill="#1E223B"/><path d="M169.745 577.16h53.319a6.2 6.2 0 016.201 6.2v111.599h-65.721v-111.6c0-1.644.654-3.221 1.816-4.384a6.204 6.204 0 014.385-1.815v0z" stroke="#1E223B" stroke-width="2" stroke-linecap="round" stroke-linejoin="round"/><path opacity=".2" d="M212.348 570.339a4.753 4.753 0 100-9.506 4.753 4.753 0 000 9.506z" fill="#1E223B"/><path d="M212.348 570.339a4.753 4.753 0 100-9.506 4.753 4.753 0 000 9.506z" stroke="#1E223B" stroke-width="2" stroke-linecap="round" stroke-linejoin="round"/><path d="M248.567 474.207l1.242.717a5.735 5.735 0 012.099 7.834l-24.374 42.216-11.175-6.452 24.374-42.216a5.735 5.735 0 017.834-2.099z" fill="#F2A197"/><path d="M248.567 474.207l1.242.717a5.735 5.735 0 012.099 7.834l-24.374 42.216-11.175-6.452 24.374-42.216a5.735 5.735 0 017.834-2.099v0z" stroke="#1E223B" stroke-width="2" stroke-linecap="round" stroke-linejoin="round"/><path d="M225.08 414.655h-1.434a5.733 5.733 0 00-5.735 5.735v43.012a2.87 2.87 0 01-2.867 2.868 2.871 2.871 0 01-2.868-2.868v-51.328a5.737 5.737 0 00-5.734-5.735h-1.434a5.736 5.736 0 00-5.735 5.735v51.328a2.867 2.867 0 01-2.868 2.868 2.869 2.869 0 01-2.867-2.868V420.39a5.732 5.732 0 00-5.735-5.735h-1.434a5.732 5.732 0 00-5.735 5.735v43.012a2.867 2.867 0 01-2.867 2.868 2.871 2.871 0 01-2.868-2.868V434.01a5.737 5.737 0 00-1.679-4.055 5.74 5.74 0 00-4.056-1.679h-1.433a5.74 5.74 0 00-4.056 1.679 5.737 5.737 0 00-1.679 4.055v84.347a11.47 11.47 0 0011.47 11.47h45.879a11.47 11.47 0 0011.47-11.47v-97.966a5.741 5.741 0 00-1.679-4.056 5.728 5.728 0 00-4.056-1.68z" fill="#FDB3A6"/><path d="M225.08 414.655h-1.434a5.733 5.733 0 00-5.735 5.735v43.012a2.87 2.87 0 01-2.867 2.868v0a2.871 2.871 0 01-2.868-2.868v-51.328a5.737 5.737 0 00-5.734-5.735h-1.434a5.736 5.736 0 00-5.735 5.735v51.328a2.867 2.867 0 01-2.868 2.868v0a2.869 2.869 0 01-2.867-2.868V420.39a5.732 5.732 0 00-5.735-5.735h-1.434a5.732 5.732 0 00-5.735 5.735v43.012a2.867 2.867 0 01-2.867 2.868v0a2.871 2.871 0 01-2.868-2.868V434.01a5.737 5.737 0 00-1.679-4.055 5.74 5.74 0 00-4.056-1.679h-1.433a5.74 5.74 0 00-4.056 1.679 5.737 5.737 0 00-1.679 4.055v84.347a11.47 11.47 0 0011.47 11.47h45.879a11.47 11.47 0 0011.47-11.47v-97.966a5.741 5.741 0 00-1.679-4.056 5.728 5.728 0 00-4.056-1.68v0z" stroke="#1E223B" stroke-width="2" stroke-linecap="round" stroke-linejoin="round"/><path d="M279.493 602.905l-11.175 6.452-24.373-42.217a5.734 5.734 0 012.099-7.834l1.242-.717a5.738 5.738 0 017.834 2.1l24.373 42.216z" fill="#F2A197"/><path d="M279.493 602.905l-11.175 6.452-24.373-42.217a5.734 5.734 0 012.099-7.834l1.242-.717a5.738 5.738 0 017.834 2.1l24.373 42.216z" stroke="#1E223B" stroke-width="2" stroke-linecap="round" stroke-linejoin="round"/><path d="M271.853 499.037h1.434a5.732 5.732 0 015.735 5.735v43.012a2.867 2.867 0 105.735 0v-6.855a5.732 5.732 0 015.735-5.735h1.434a5.733 5.733 0 015.735 5.735v6.855a2.867 2.867 0 105.735 0v-6.855a5.735 5.735 0 015.735-5.735h1.433a5.736 5.736 0 015.735 5.735v6.855a2.867 2.867 0 105.735 0v-6.855a5.736 5.736 0 015.735-5.735h1.434a5.732 5.732 0 015.735 5.735v61.81a11.472 11.472 0 01-11.47 11.47h-45.88a11.468 11.468 0 01-11.469-11.47v-97.966a5.722 5.722 0 011.679-4.056 5.734 5.734 0 014.055-1.68z" fill="#FDB3A6"/><path d="M271.853 499.037h1.434a5.732 5.732 0 015.735 5.735v43.012a2.867 2.867 0 105.735 0v-6.855a5.732 5.732 0 015.735-5.735h1.434a5.733 5.733 0 015.735 5.735v6.855a2.867 2.867 0 105.735 0v-6.855a5.735 5.735 0 015.735-5.735h1.433a5.736 5.736 0 015.735 5.735v6.855a2.867 2.867 0 105.735 0v-6.855a5.736 5.736 0 015.735-5.735h1.434a5.732 5.732 0 015.735 5.735v61.81a11.472 11.472 0 01-11.47 11.47h-45.88a11.468 11.468 0 01-11.469-11.47v-97.966a5.722 5.722 0 011.679-4.056 5.734 5.734 0 014.055-1.68zm25.33-421.518v2.867M12 404.4h25.09a43.119 43.119 0 0043.12-43.12v-18.155a42.898 42.898 0 0142.899-42.899h13.495" stroke="#1E223B" stroke-width="2" stroke-linecap="round" stroke-linejoin="round"/><rect x="205" y="197" width="65" height="76" rx="5" fill="#fff"/><path d="M254.58 245.39h-35c-.398 0-.78-.105-1.061-.293-.281-.187-.439-.442-.439-.707 0-.265.158-.519.439-.707.281-.188.663-.293 1.061-.293h35c.398 0 .779.105 1.06.293.282.188.44.442.44.707 0 .265-.158.52-.44.707-.281.188-.662.293-1.06.293zm-10.97 6.93h-24c-.398 0-.779-.105-1.061-.293-.281-.187-.439-.441-.439-.707 0-.265.158-.519.439-.707.282-.187.663-.293 1.061-.293h24c.398 0 .779.106 1.061.293.281.188.439.442.439.707 0 .266-.158.52-.439.707-.282.188-.663.293-1.061.293zm-9.51 6.92h-14.53c-.398 0-.78-.105-1.061-.293-.281-.187-.439-.442-.439-.707 0-.265.158-.519.439-.707.281-.187.663-.293 1.061-.293h14.53c.398 0 .779.106 1.06.293.282.188.44.442.44.707 0 .265-.158.52-.44.707-.281.188-.662.293-1.06.293z" fill="#1E223B"/><path d="M232.43 209.7l7.02 12.16 7.02 12.16h-28.08l7.02-12.16 7.02-12.16zm16.17 11.1a4.99 4.99 0 100-9.98 4.99 4.99 0 000 9.98z" fill="#FBB42F"/><rect x="315" y="181" width="65" height="76" rx="5" fill="#fff"/><path d="M364.58 229.39h-35c-.398 0-.78-.105-1.061-.293-.281-.187-.439-.442-.439-.707 0-.265.158-.519.439-.707.281-.188.663-.293 1.061-.293h35c.398 0 .779.105 1.06.293.282.188.44.442.44.707 0 .265-.158.52-.44.707-.281.188-.662.293-1.06.293zm-10.97 6.93h-24c-.398 0-.779-.105-1.061-.293-.281-.187-.439-.441-.439-.707 0-.265.158-.519.439-.707.282-.187.663-.293 1.061-.293h24c.398 0 .779.106 1.061.293.281.188.439.442.439.707 0 .266-.158.52-.439.707-.282.188-.663.293-1.061.293zm-9.51 6.92h-14.53c-.398 0-.78-.105-1.061-.293-.281-.187-.439-.442-.439-.707 0-.265.158-.519.439-.707.281-.187.663-.293 1.061-.293h14.53c.398 0 .779.106 1.06.293.282.188.44.442.44.707 0 .265-.158.52-.44.707-.281.188-.662.293-1.06.293z" fill="#1E223B"/><path d="M342.43 193.7l7.02 12.16 7.02 12.16h-28.08l7.02-12.16 7.02-12.16zm16.17 11.1a4.99 4.99 0 100-9.98 4.99 4.99 0 000 9.98z" fill="#FBB42F"/><path d="M440.557 180.743h50.211a33.25 33.25 0 0012.717-2.528 33.242 33.242 0 0017.985-17.984 33.228 33.228 0 002.53-12.716v-87.98" stroke="#1E223B" stroke-width="2" stroke-linecap="round" stroke-linejoin="round"/><path d="M385 289a5 5 0 01-5 5H200a5 5 0 01-5-5V106h190v183z" fill="#FBFBFD"/><path d="M249.339 229h-45.678c-.365 0-.661.22-.661.491v3.018c0 .271.296.491.661.491h45.678c.365 0 .661-.22.661-.491v-3.018c0-.271-.296-.491-.661-.491zm127.005 34H203.655c-.362 0-.655.22-.655.491v3.018c0 .271.293.491.655.491h172.689c.362 0 .656-.22.656-.491v-3.018c0-.271-.294-.491-.656-.491zm-74.005-34h-45.678c-.365 0-.661.22-.661.491v3.018c0 .271.296.491.661.491h45.678c.365 0 .661-.22.661-.491v-3.018c0-.271-.296-.491-.661-.491zm51.014 0h-44.706c-.358 0-.647.22-.647.491v3.018c0 .271.289.491.647.491h44.706c.357 0 .647-.22.647-.491v-3.018c0-.271-.29-.491-.647-.491zm-.566 13H204.213c-.67 0-1.213.403-1.213.901v12.198c0 .498.543.901 1.213.901h148.574c.67 0 1.213-.403 1.213-.901v-12.198c0-.498-.543-.901-1.213-.901zm23.946-76.756h-45.85v-45.08h45.85v45.08z" fill="#C2D3E9"/><path d="M376.733 209.08h-45.85V164h45.85v45.08z" fill="#C2D3E9"/><path d="M355.9 147l6.454 11.172 6.446 11.172H343l6.446-11.172L355.9 147z" fill="#447FD3"/><path d="M362.74 158.66a4.594 4.594 0 100-9.189 4.594 4.594 0 000 9.189zm1.022-25.01h-8.606v-13.486h8.606v13.486z" fill="#447FD3"/><path d="M211.647 139.236a8.284 8.284 0 100-16.568 8.284 8.284 0 000 16.568z" fill="#C2D3E9"/><path d="M226.271 123.011h90.954m-90.954 6.3h45.674m-45.674 8.268h90.954" stroke="#C2D3E9" stroke-width="4.372" stroke-linecap="round" stroke-linejoin="round"/><path d="M211.647 171.858a8.284 8.284 0 100-16.568 8.284 8.284 0 000 16.568zm0 34a8.284 8.284 0 100-16.568 8.284 8.284 0 000 16.568z" fill="#C2D3E9"/><path d="M226.271 157.659h82.291m-82.291 6.3h40.949m-40.949 6.3h82.291m-82.291 20.08h82.291m-82.291 6.301h40.949m-40.949 6.299h82.291" stroke="#C2D3E9" stroke-width="4.372" stroke-linecap="round" stroke-linejoin="round"/><path d="M359.716 185.073v-4.688c0-.386-.45-.771-1.028-.771l-4.944.064c-1.156 0-2.055-.77-2.055-1.669v-1.606c0-.963.899-1.734 1.99-1.734h2.954v.771h-2.954c-.642 0-1.22.45-1.22.963v1.606c0 .513.578.899 1.22.899l5.009-.064c.964 0 1.798.706 1.798 1.541l.065 4.688h-.835z" fill="#FBFBFD"/><path d="M363.248 177.238l-7.449.065a2.14 2.14 0 01-2.12-2.12c0-1.156.964-2.119 2.12-2.119l7.449-.064c1.156 0 2.119.963 2.119 2.119a2.138 2.138 0 01-2.119 2.119z" fill="#2D61BB"/><path d="M360.872 194.191h-1.477c-.386 0-.707-.321-.707-.77l.193-8.669c0-.45.321-.771.771-.771h.834a.78.78 0 01.771.771l.321 8.669c0 .385-.321.77-.706.77z" fill="#2F282F"/><path d="M363.183 188.411c.771 1.285.322 2.954-.963 3.661-1.284.77-2.954.321-3.66-.964-.771-1.284-.321-2.954.963-3.724 1.284-.707 2.954-.257 3.66 1.027zm-30.374 13.743h-5.073v-6.742h5.073v6.742zm-9.311 86.372h3.403v3.403h-3.403v-3.403z" fill="#FE9764"/><path d="M321.378 287.113h7.064v2.568h-7.064v-2.568z" fill="#1C181C"/><path d="M337.497 291.929h-3.339v-3.403h3.339v3.403z" fill="#FE9764"/><path d="M340.258 228.033l-1.734 59.079h-5.33l-.77-48.74h-3.789l-.835 48.74h-5.33l-1.67-59.079h19.458z" fill="#2F282F"/><path d="M339.616 289.681h-7.064v-2.568h7.064v2.568z" fill="#1C181C"/><path d="M323.562 192.972a1.67 1.67 0 10-.001-3.34 1.67 1.67 0 00.001 3.34zm13.485 0a1.67 1.67 0 100-3.34 1.67 1.67 0 000 3.34z" fill="#FE9764"/><path d="M330.305 196.76a6.935 6.935 0 000-13.871 6.936 6.936 0 100 13.871z" fill="#2F282F"/><path d="M340.258 228.034H320.8l-.77-21.513c0-3.596 2.376-6.486 5.972-6.486h8.99c3.596 0 5.973 2.89 5.973 6.486l-.707 21.513z" fill="#2D61BB"/><path d="M325.745 206.97l-11.944 13.935.578-1.027c.064-.257.064-.642-.064-.899-.129-.257-.257-.386-.386-.45-.192-.192-.385-.192-.578-.128l.514-.129 9.954-1.348c1.605-.257 3.146.835 3.339 2.504.257 1.606-.899 3.083-2.504 3.275l-10.018 1.413.449-.128c-1.477.513-3.211.256-4.559-.707a5.035 5.035 0 01-1.67-2.119c-.385-.899-.449-2.055-.128-2.954.085-.385.257-.706.514-.963v-.064l11.751-14.77c1.156-1.477 2.761-1.477 4.238-.321a3.377 3.377 0 01.578 4.752c0 .043-.021.085-.064.128z" fill="#2D61BB"/><path fill-rule="evenodd" clip-rule="evenodd" d="M352.652 210.566c-.514-2.247-2.44-1.605-2.761-3.853l1.733-3.724 1.67-3.725c.899-2.055 2.44-5.523 3.596-8.091.129-.386.642-.578 1.028-.386l4.11 1.606c.449.193.642.706.449 1.092-1.156 2.568-2.761 6.1-3.724 8.219l-1.606 3.725-.77 1.862-.065.129v.064l-.064.128a3.44 3.44 0 01-.321.514 3.716 3.716 0 01-.706.963 5.58 5.58 0 01-1.991 1.285 4.685 4.685 0 01-.578.192zm-.706-5.908z" fill="#2D61BB"/><path fill-rule="evenodd" clip-rule="evenodd" d="M354.322 209.86c-1.092.899-2.505 1.284-3.918 1.156l-.642-.129-.321-.064-.449-.129-1.028-.256-3.917-.964-7.835-1.798c-1.798-.385-3.082-2.055-2.889-3.853.257-2.119 1.99-3.788 3.981-3.275.129 0 5.78 1.863 8.413 2.633l3.917 1.156.578.128 1.541.45c1.284 1.927 1.156 3.147 2.569 4.945zm-4.11-4.239v-.064.064c0 .043 0 .043 0 0z" fill="#2D61BB"/><path d="M332.745 230.923h5.265v3.468l-2.632 1.862-2.633-1.798v-3.532zm-9.697 0h5.266v3.468l-2.633 1.862-2.633-1.798v-3.532z" stroke="#545054" stroke-width=".583"/><path d="M338.588 290.837l.065 3.596c5.822 1.627 8.776 2.44 8.862 2.44.064 0 1.348.45 1.348 1.22-10.574.043-15.84.043-15.797 0 .043-.043 0-1.284-.129-3.724-.299-2.869 1.584-4.046 5.651-3.532z" fill="#fff"/><path d="M339.873 296.488c-.193-.064-.385-.257-.385-.449v-1.413c.064-.257.256-.385.449-.385.257 0 .385.192.385.449v1.413a.413.413 0 01-.385.385h-.064zm1.669.321c-.256 0-.385-.192-.385-.449v-1.413c0-.193.257-.385.45-.321.192 0 .385.193.385.385v1.413c-.064.257-.193.385-.45.385zm1.606.449a.35.35 0 01-.321-.449v-1.413c0-.192.192-.385.385-.321.257 0 .385.193.385.45v1.412c0 .193-.192.321-.385.321h-.064z" fill="#fff"/><path d="M348.863 298.094l-.449.513c-.321.45-.835.643-1.349.643h-12.137c-.449 0-.899-.193-1.22-.514l-.642-.642h15.797z" fill="#2F282F"/><path d="M327.8 294.369c-.085 2.44-.128 3.681-.128 3.724.043.043-5.202.043-15.733 0 0-.77 1.22-1.22 1.348-1.22.086 0 3.018-.813 8.798-2.44l.128-3.596c4.025-.514 5.887.663 5.587 3.532z" fill="#fff"/><path d="M320.865 296.488c-.193 0-.386-.192-.386-.385v-1.413a.35.35 0 01.321-.449c.257 0 .45.128.45.385v1.413c0 .192-.128.385-.385.449zm-1.67.321c-.193 0-.385-.128-.385-.385v-1.413c0-.192.128-.385.385-.385.193-.064.385.128.385.321v1.413a.349.349 0 01-.321.449h-.064zm-1.605.449c-.257 0-.386-.128-.45-.321v-1.412c0-.257.193-.45.385-.45.193-.064.45.129.45.321v1.413c0 .257-.129.449-.385.449z" fill="#fff"/><path d="M327.672 298.094l-.643.642c-.256.321-.706.514-1.155.514h-12.202c-.513 0-1.027-.193-1.348-.643l-.385-.513h15.733z" fill="#2F282F"/><circle cx="32.5" cy="400.5" r="32.5" fill="#FDB3A6"/><circle cx="32.5" cy="400.5" r="32" stroke="#fff" stroke-opacity=".3"/><mask id="b" style="mask-type:alpha" maskUnits="userSpaceOnUse" x="0" y="368" width="65" height="65"><circle cx="32.5" cy="400.5" r="32.5" fill="#1E223B"/></mask><g mask="url(#b)"><path d="M16.734 470.69h-57.199a1.983 1.983 0 01-1.979-1.979v-80.999a1.981 1.981 0 011.98-1.979h57.198a1.983 1.983 0 011.979 1.979v80.986a1.984 1.984 0 01-1.979 1.992z" fill="#4D61FC"/><path opacity=".5" d="M16.734 470.69h-57.199a1.983 1.983 0 01-1.979-1.979v-80.999a1.981 1.981 0 011.98-1.979h57.198a1.983 1.983 0 011.979 1.979v80.986a1.984 1.984 0 01-1.979 1.992z" fill="#fff"/><path d="M15.01 470.69h-57.198a1.984 1.984 0 01-1.979-1.979v-80.999a1.983 1.983 0 011.979-1.979H15.01a1.982 1.982 0 011.979 1.979v80.986a1.983 1.983 0 01-1.98 1.992z" fill="#4D61FC"/><path opacity=".7" d="M15.01 470.69h-57.198a1.984 1.984 0 01-1.979-1.979v-80.999a1.983 1.983 0 011.979-1.979H15.01a1.982 1.982 0 011.979 1.979v80.986a1.983 1.983 0 01-1.98 1.992z" fill="#fff"/><path d="M6.207 400.272h-18.362a1.05 1.05 0 010-2.1H6.207a1.053 1.053 0 011.05 1.05 1.05 1.05 0 01-1.05 1.05zm.485 4.981h-19.345a.55.55 0 01-.552-.552.55.55 0 01.552-.552H6.692a.55.55 0 01.39.942.55.55 0 01-.39.162zm-.485 22.615h-18.362a1.05 1.05 0 110-2.1H6.207a1.05 1.05 0 010 2.1zm.485 4.995h-19.345a.553.553 0 01-.552-.552.551.551 0 01.552-.552H6.692a.55.55 0 01.389.942.557.557 0 01-.39.162z" fill="#fff"/><path d="M52.892 455.465L38.61 438.476l.175-15.104.162-8.656-8.28-.013.903 25.429c.004.538.117 1.069.33 1.562.216.493.53.937.922 1.305l16.975 15.562 3.096-3.096z" fill="#4D61FC"/><path opacity=".2" d="M52.892 455.465L38.61 438.476l.296-23.746-8.238-.014.902 25.43c.004.537.117 1.069.33 1.562.216.492.53.936.922 1.305l16.975 15.562 3.096-3.11z" fill="#fff"/><path d="M47.427 414.729l.242 49.849h-4.2l-3.783-41.408a.448.448 0 00-.451-.438.448.448 0 00-.438.451l-.107 3.824-1.01-12.278h9.747z" fill="#4D61FC"/><path opacity=".2" d="M47.427 414.729l.242 49.849h-4.2l-3.783-41.408a.448.448 0 00-.451-.438.448.448 0 00-.438.451l-.107 3.824-1.01-12.278h9.747z" fill="#fff"/><path opacity=".4" d="M30.936 416.251H47.44l-.013-1.522h-16.76l.269 1.522z" fill="#000"/><path d="M42.719 416.374h.538v-1.643h-.538v1.643zm-7.368 0h.539v-1.643h-.539v1.643z" fill="#3F4249"/><path d="M34.019 414.757c1.225-16.101 2.57-25.968 2.57-25.968l.122-.04s2.329 3.109 5.344.686l.404-.498.35.094h-.013s.148 13.516 1.508 25.712l-10.285.014z" fill="#fff"/><path d="M53.7 401.012l-5.506 1.293-.498-1.683-.215 21.62h-3.218a1.162 1.162 0 01-1.158-1.064c-1.426-16.989-.31-32.133-.31-32.133l2.343.606 4.308 1.104a3.522 3.522 0 012.585 2.678l1.669 7.579z" fill="#21252B"/><path d="M36.563 383.001l.04 6.273a.665.665 0 00.121.377l.054.08c1.549 1.549 3.985 1.427 5.789-.067a.689.689 0 00.242-.619l-.969-6.475-5.277.431z" fill="#FC9D9D"/><path d="M42.392 380.335s1.077 7.068-2.827 7.35c-3.81.283-3.917-6.865-3.917-6.865l-.108-2.046 4.9-.862 1.239.633.713 1.79z" fill="#FC9D9D"/><path opacity=".15" d="M42.486 387.093l-.282-1.939c-.35 1.252-1.09 2.289-2.37 2.504h.014l-.283.041c-1.023.08-1.858-.391-2.504-1.4a.086.086 0 00-.055-.039.086.086 0 00-.066.012.084.084 0 00-.038.055.088.088 0 00.011.066c.673 1.063 1.575 1.561 2.665 1.481.23-.013.455-.054.673-.122a3.075 3.075 0 002.235-.659z" fill="#000"/><path d="M41.477 378.747s1.238-.822 1.83.578c.485 1.185-.336 2.477-.336 2.477l-.714-.067c-.296-.013-.511-.148-.538-.444l-.242-2.544z" fill="#21252B"/><path d="M42.365 377.899c.108 1.346-1.05 1.696-1.521 1.736l-3.85.323a.572.572 0 00-.525.606l.067 1.225a.325.325 0 01-.27.337l-.241.027-.27.336c-1.507-.363-2.14-4.644.633-5.519a1.18 1.18 0 00.687-.579c.403-.835 2.06-1.05 2.894-.121a.775.775 0 00.66.282c1.023-.026 1.669.606 1.736 1.347z" fill="#21252B"/><path d="M36.025 382.584a.629.629 0 00-.717-.564.637.637 0 00-.307.133l-.013.013c-.66.566-.242 2.383 1.225 2.208l-.188-1.79zm7.269-.956c-.004 0-.007-.002-.01-.004a.014.014 0 01-.004-.01.633.633 0 00-.644.008.625.625 0 00-.298.571l.08 1.723c1.455-.054 1.603-1.817.876-2.288z" fill="#FC9D9D"/><path d="M36.213 382.812c.014.081-.067.162-.162.175a.183.183 0 01-.202-.134l-.161-1.158.471.013.054 1.104zm6.421-.485c.014.081-.067.162-.161.175a.18.18 0 01-.202-.134l-.162-1.158.471.013.054 1.104z" fill="#21252B"/><path d="M40.857 379.811a.973.973 0 01-.202 0 .08.08 0 01-.056-.024.077.077 0 01-.024-.057c0-.022.008-.042.024-.057a.076.076 0 01.056-.024c.014 0 .781.04 1.104-.471a.078.078 0 01.108-.027c.018.011.03.028.036.048a.085.085 0 01-.01.06c-.241.43-.753.525-1.036.552z" fill="#FC9D9D"/><path d="M37.976 383.58a.338.338 0 00.311-.208.33.33 0 00.02-.194.328.328 0 00-.092-.173.34.34 0 00-.368-.073.35.35 0 00-.15.124.334.334 0 00.28.524z" fill="#21252B"/><path d="M37.816 383.285a.07.07 0 00.066-.081.065.065 0 00-.019-.035.064.064 0 00-.034-.019.075.075 0 00-.04.004.064.064 0 00-.03.025.062.062 0 00-.011.038c0 .018.006.035.02.048a.07.07 0 00.047.02z" fill="#fff"/><path d="M40.575 383.391a.334.334 0 00.33-.402.34.34 0 00-.46-.245.34.34 0 00-.109.549.34.34 0 00.239.098z" fill="#21252B"/><path d="M40.413 383.082a.071.071 0 00.039-.011.061.061 0 00.024-.03.068.068 0 00.004-.04.068.068 0 00-.122-.024.063.063 0 00-.012.038c0 .018.007.035.02.048.012.012.03.019.047.019z" fill="#fff"/><path opacity=".3" d="M39.444 384.845l.27-.027a.1.1 0 00.068-.034.1.1 0 00-.01-.143.097.097 0 00-.072-.025l-.27.027a.213.213 0 01-.08-.009.234.234 0 01-.068-.039.224.224 0 01-.048-.063.223.223 0 01-.019-.077.194.194 0 01.188-.216.096.096 0 00.07-.034.1.1 0 00-.01-.143.102.102 0 00-.073-.025.417.417 0 00-.279.137.393.393 0 00-.078.137.405.405 0 00.253.514.401.401 0 00.158.02z" fill="#000"/><path d="M41.517 382.153l-1.468.08-.201.014-1.293.067h-.013l-1.656.094a.495.495 0 00-.335.161.48.48 0 00-.123.351l.027.377c.004.178.045.353.119.515a1.311 1.311 0 00.76.702 1.334 1.334 0 001.034-.058 1.315 1.315 0 00.679-.782c.055-.17.075-.348.06-.525l-.027-.377a.429.429 0 00-.12-.283l.51-.027a.446.446 0 00-.08.296l.027.377a1.324 1.324 0 002.332.837 1.335 1.335 0 00.32-.985l-.027-.377a.494.494 0 00-.166-.339.488.488 0 00-.36-.118zm-2.625.632l.027.377a1.127 1.127 0 01-1.877.898 1.125 1.125 0 01-.371-.777l-.027-.377a.297.297 0 01.283-.309l1.655-.094h.014a.303.303 0 01.296.282zm2.975.202a1.127 1.127 0 01-1.877.898 1.125 1.125 0 01-.371-.777l-.027-.377a.297.297 0 01.283-.309l.201-.014 1.468-.08a.302.302 0 01.212.077.3.3 0 01.097.205l.014.377z" fill="#21252B"/><path d="M38.61 385.383l1.655-.121c.01 0 .02.002.03.006a.06.06 0 01.022.018.055.055 0 01.014.027c.002.01.003.02.001.03a.942.942 0 01-1.763.148v-.013a.05.05 0 01-.011-.029.057.057 0 01.004-.03.056.056 0 01.019-.024.067.067 0 01.028-.012z" fill="#fff"/><path opacity=".3" d="M35.661 383.512a.1.1 0 01-.069-.02.101.101 0 01-.039-.061l-.027-.201c-.027-.216-.08-.377-.188-.458a.207.207 0 00-.161-.054.102.102 0 01-.04.001.092.092 0 01-.063-.044.072.072 0 01-.013-.037.095.095 0 01.001-.039.105.105 0 01.019-.035.091.091 0 01.03-.024.1.1 0 01.039-.011.44.44 0 01.31.081c.147.108.228.31.268.593l.027.202a.102.102 0 01-.025.072.101.101 0 01-.069.035zm7.175-.525a.093.093 0 00.067-.026.081.081 0 00.02-.031.087.087 0 00.007-.037v-.215c-.013-.216.027-.391.121-.472.068-.067.149-.08.149-.067a.094.094 0 00.094-.094.094.094 0 00-.094-.094.432.432 0 00-.297.134c-.134.135-.188.337-.175.62v.201c0 .041.04.081.108.081zm7.714 10.554l1.696 7.822 1.467-.35-1.521-6.96c-.296-1.885-1.198-2.773-2.517-3.258l-1.67-.431c1.535.687 2.222 1.777 2.545 3.177zm-2.854 7.081l-.215 21.62h-1.697l.23-25.672a.199.199 0 01.049-.121.195.195 0 01.327.067l1.306 4.106z" fill="#000"/><path d="M42.702 388.426l.955.821 1.28 4.671-2.235-1.063.094-3.756-.094-.673z" fill="#21252B"/><path opacity=".3" d="M43.832 389.287l-.188-.054 1.292 4.685-2.234-1.063-.027.982 2.45.256-1.293-4.806z" fill="#000"/><path opacity=".15" d="M37.64 414.757h-1.83l.78-25.429s1.75 12.734 1.05 25.429z" fill="#000"/><path opacity=".15" d="M37.6 414.729h-5.91l.148 7.499h3.998a1.392 1.392 0 001.387-1.266c.161-1.938.282-4.038.376-6.233z" fill="#000"/><path d="M10.864 409.789l13.449-1.453a3.645 3.645 0 002.854-1.993l2.746-5.519-3.177-7.027-4.564 10.015-11.698 3.245.39 2.732z" fill="#FC9D9D"/><path opacity=".15" d="M28.365 401.08l-2.746 5.519a3.668 3.668 0 01-2.073 1.817l.767-.081a3.637 3.637 0 002.854-1.992l2.746-5.519-1.548.256z" fill="#000"/><path d="M34.84 422.228h-3.998l-.471-23.342-1.871 2.544-2.06-7.337c.336-1.211.592-1.817 1.265-2.436a4.176 4.176 0 011.535-.862l7.35-1.992s.686 19.748-.364 32.16a1.38 1.38 0 01-1.386 1.265z" fill="#21252B"/><path d="M23.76 400.151l4.968 3.083 2.316-4.429-3.595-6.152-.632.323-3.056 7.175zm12.83-11.874l-.848.754-1.279 4.685 2.235-1.064-.108-4.375z" fill="#21252B"/><path opacity=".3" d="M35.567 389.086l.188-.054-1.292 4.684 2.235-1.063.027.983-2.45.255 1.292-4.805z" fill="#000"/><path d="M54.817 406.101l-1.104-5.102-5.506 1.292 1.104 3.231-9.208 2.046-.511.108c-.175.04-.323.053-.444-.068l-.202-.202a1.944 1.944 0 00-.62-.323c-.542-.163-1-.53-1.278-1.023l-.445-.781a.072.072 0 00-.019-.024.08.08 0 00-.028-.014.065.065 0 00-.03-.001.081.081 0 00-.03.012l-.068.027a.664.664 0 00-.39.808l.337 1.077a.22.22 0 01-.011.168.222.222 0 01-.124.115l-2.168.888c-.457.175-.296.794.122.7.228-.054.269-.067.269-.067l-.43.215c-.486.229-.257.889.16.795.418-.095.957-.243.957-.243l-.539.216a.404.404 0 00.296.74c.31-.081.808-.229.808-.229l-.323.162c-.418.134-.27.78.12.7.337-.068 3.528-.848 5.17-1.145l12.197-1.319a2.29 2.29 0 001.946-1.818c.063-.311.06-.632-.008-.941z" fill="#FC9D9D"/><path opacity=".2" d="M41.382 441.788l-2.773-3.298.189-15.306a.437.437 0 01.43-.417 1.973 1.973 0 00-1.952 1.952l-.148 14.552 4.497 5.156-.243-2.639z" fill="#000"/><path opacity=".15" d="M52.852 408.86l-12.197 1.319c-1.642.297-4.832 1.077-5.169 1.145a.357.357 0 01-.141-.013.35.35 0 01-.124-.07.357.357 0 01-.084-.115.353.353 0 01-.028-.139.27.27 0 00.337.081c.134-.04 2.086-.754 3.325-1.225a11.03 11.03 0 012.06-.552c2.665-.444 9.584-1.615 11.442-2.033.538-.121 1.13-.525.996-1.238l-1.036-4.671 1.467-.35 1.104 5.088a2.279 2.279 0 01-1.952 2.773z" fill="#000"/><path d="M40.09 407.582l.471 2.611.821-.081-.47-2.719-.822.189z" fill="#001B34"/><path d="M40.776 409.762a.82.82 0 10.002-1.641.82.82 0 00-.002 1.641z" fill="#4D61FC"/><path d="M40.776 409.628a.681.681 0 00.635-.424.69.69 0 00-.5-.936.687.687 0 10-.135 1.36z" fill="#fff"/><path d="M41.234 409.009l-.471-.027-.337-.243c-.013-.013-.026-.04-.013-.053.014-.014.04-.027.054-.014l.323.229.444.027a.03.03 0 01.016.002c.006.001.01.004.014.008a.056.056 0 01.01.014.067.067 0 010 .016.042.042 0 01-.011.028.045.045 0 01-.029.013z" fill="#001B34"/><path opacity=".3" d="M30.398 400.03l-.081-2.329a.138.138 0 00-.108-.162.138.138 0 00-.102.021.133.133 0 00-.06.087l-2.423 4.914 1.09.673 1.684-3.204z" fill="#000"/><path opacity=".2" d="M45.798 422.228l.336 42.351h1.548l-.202-42.351h-1.682z" fill="#000"/><path d="M9.546 392.289l-2.356-2.356-2.356 2.356a.271.271 0 01-.31.071.272.272 0 01-.161-.273v-6.3h5.667v6.3a.286.286 0 01-.484.202z" fill="#3F4249"/><path d="M16.68 381.156l-5.237 8.238 8.616 1.064-3.38-9.302z" fill="#B2B6BB"/><path d="M6.126 456.583l-2.867-.364 8.185-66.824 2.867.35-8.185 66.838zm5.734.376l-2.867-.35 8.171-66.824 2.895.35-8.198 66.824z" fill="#4D61FC"/><path d="M8.993 456.609l-2.867-.35 8.184-66.837 2.854.363-8.171 66.824z" fill="#4D61FC"/><path opacity=".3" d="M8.993 456.933l-2.867-.35 8.184-66.838 2.854.364-8.171 66.824z" fill="#000"/><path d="M15.293 383.337l1.387-2.181.888 2.463-2.275-.282z" fill="#21252B"/><path d="M8.576 405.563a.647.647 0 01.646.646v.875l2.127.215a.335.335 0 01.296.323.323.323 0 01-.296.323l-2.046.135a.06.06 0 00-.04.023.06.06 0 00-.014.044.091.091 0 00.054.068l2.02.134a.35.35 0 01-.014.7l-2.033.067 1.979-.067a.384.384 0 01.38.365.382.382 0 01-.34.402l-2.019.189 1.508-.135a.327.327 0 01.35.323.329.329 0 01-.27.323l-1.278.256a.948.948 0 01-.902-.309 3.267 3.267 0 01-.417-3.689l.228-1.131a.078.078 0 01.05-.075.068.068 0 01.031-.005z" fill="#FC9D9D"/><path opacity=".15" d="M11.111 408.934l-1.871.062.007.188 1.87-.062-.006-.188zm-.224.825l-1.502.125.015.187 1.503-.125-.016-.187z" fill="#000"/><path opacity=".2" d="M9.222 407.07v-.875l-.512.539a.172.172 0 00-.037.188.172.172 0 00.159.108l.39.04z" fill="#000"/></g><circle cx="516.5" cy="60.5" r="32.5" fill="#FDB3A6"/><circle cx="516.5" cy="60.5" r="32" stroke="#fff" stroke-opacity=".3"/><path d="M513.847 59.874a.568.568 0 100 1.137.568.568 0 000-1.137z" fill="#1E223B"/><path d="M517.589 64.745a8.132 8.132 0 008.132-8.131c0-4.491-1.017-9.656-1.017-9.656h-14.23s-1.016 5.165-1.016 9.656a8.13 8.13 0 008.131 8.131v0z" fill="#1E223B" stroke="#1E223B" stroke-width="2.033" stroke-linejoin="round"/><path d="M509.966 50.007h-6.607c0 7.115 3.05 10.672 7.217 10.672m14.637-10.672h6.606c0 7.115-3.049 10.672-7.216 10.672" stroke="#1E223B" stroke-width="2.033" stroke-linejoin="round"/><path d="M525.749 73.412c-6.293-.458-9.852-.461-16.258 0m8.098-8.667v8.132" stroke="#1E223B" stroke-width="2.033"/><path d="M523.82 55.844a6.2 6.2 0 10-12.4 0 6.2 6.2 0 0012.4 0z" fill="#fff"/><path d="M520.169 54.467l-3.229 3.031-1.938-1.818" stroke="#1E223B" stroke-width="1.378" stroke-linecap="round" stroke-linejoin="round"/></g><defs><linearGradient id="paint0_linear_18_1890" x1="549" y1="299.497" x2="0" y2="299.497" gradientUnits="userSpaceOnUse"><stop stop-color="#919B9F"/><stop offset="1" stop-color="#6D7CA0"/></linearGradient><linearGradient id="paint1_linear_18_1890" x1="2684.41" y1="761550" x2="-9649.27" y2="-327205" gradientUnits="userSpaceOnUse"><stop stop-color="#064AF3"/><stop offset="1" stop-color="#08A3EE"/></linearGradient></defs></svg>