<svg xmlns="http://www.w3.org/2000/svg" width="34" height="34" fill="none" viewBox="0 0 34 34"><path fill="#064AF3" d="M21.25 22.313c0 .587-.475 1.062-1.063 1.062h-6.375a1.066 1.066 0 01-1.062-1.063v-3.187H0v9.563c0 1.7 1.488 3.187 3.188 3.187h27.625c1.699 0 3.187-1.488 3.187-3.188v-9.562H21.25v3.188zm9.563-15.938H25.5V3.187C25.5 1.488 24.012 0 22.312 0H11.688C9.988 0 8.5 1.488 8.5 3.188v3.187H3.187C1.488 6.375 0 7.862 0 9.563V17h34V9.562c0-1.7-1.487-3.187-3.188-3.187zm-8.5 0H11.688V3.187h10.624v3.188z"/></svg>