<svg width="50" height="50" viewBox="0 0 50 50" fill="none" xmlns="http://www.w3.org/2000/svg"><circle cx="25" cy="25" r="25" fill="url(#paint0_linear_47_1531)"/><path d="M14 17.556A2.558 2.558 0 0116.556 15h6.388v5.111c0 .707.572 1.278 1.278 1.278h5.111v5.02l-3.466 3.465a3.177 3.177 0 00-.838 1.486l-.747 2.99c-.092.368-.072.751.052 1.098h-7.778A2.558 2.558 0 0114 32.893V17.556zm15.333 2.555h-5.11V15l5.11 5.111zm6.62 4.3l.576.576a1.6 1.6 0 010 2.26l-1.174 1.174-2.835-2.835 1.174-1.174a1.6 1.6 0 012.26 0zm-9.499 7.24l5.16-5.159 2.834 2.835-5.159 5.155c-.163.164-.367.28-.595.336l-2.4.599a.633.633 0 01-.606-.168.633.633 0 01-.168-.607l.599-2.4a1.29 1.29 0 01.335-.595v.004z" fill="#fff"/><defs><linearGradient id="paint0_linear_47_1531" x1="25" y1="0" x2="25" y2="50" gradientUnits="userSpaceOnUse"><stop stop-color="#064AF3"/><stop offset="1" stop-color="#08A3EE"/></linearGradient></defs></svg>