<svg xmlns="http://www.w3.org/2000/svg" width="159" height="47" fill="none" viewBox="0 0 159 47"><path stroke="#1A202C" stroke-width="2.23" d="M23.5 45C35.374 45 45 35.374 45 23.5S35.374 2 23.5 2 2 11.626 2 23.5 11.626 45 23.5 45z"/><path fill="#1A202C" d="M74.276 35H64.98v-1.148l2.8-1.932-1.988-4.816h-9.1l-1.988 4.676 4.648 1.82-.7 1.4h-8.708v-1.148l2.8-2.156 7.616-17.808 3.668-1.428 8.092 19.544 2.856 1.596-.7 1.4zM61.34 16.268l-3.948 9.24h7.756l-3.808-9.24zm28.847 4.956l-7.14 13.804-6.132 7.392-1.344-1.036c1.008-1.139 1.783-2.137 2.324-2.996.56-.859.952-1.727 1.176-2.604.243-.859.374-1.848.392-2.968l-3.388-8.232-2.66-1.568v-1.148l5.348-2.352 1.064 4.228 3.276 7.98 3.724-7.56-3.864-2.716.7-1.4 6.524.028v1.148zm16.852 0l-7.14 13.804-6.132 7.392-1.344-1.036c1.008-1.139 1.782-2.137 2.324-2.996.56-.859.952-1.727 1.176-2.604.242-.859.373-1.848.392-2.968l-3.388-8.232-2.66-1.568v-1.148l5.348-2.352 1.064 4.228 3.276 7.98 3.724-7.56-3.864-2.716.7-1.4 6.524.028v1.148zM123.038 35h-5.74v-2.436l-3.164 2.492c-.374.15-.84.224-1.4.224-1.68 0-2.903-.41-3.668-1.232-.747-.84-1.12-1.848-1.12-3.024 0-.69.233-1.363.7-2.016.485-.672 1.166-1.307 2.044-1.904h6.608v-1.288c0-2.128-1.139-3.192-3.416-3.192-1.195 0-2.726.625-4.592 1.876l-.84-1.26 3.976-3.164c.784-.205 1.764-.308 2.94-.308 1.848 0 3.285.439 4.312 1.316 1.026.877 1.54 2.156 1.54 3.836v7.7l2.52.98-.7 1.4zm-9.212-2.66c1.045 0 2.202-.476 3.472-1.428v-2.38h-4.788c-.374.448-.56.99-.56 1.624 0 .616.168 1.139.504 1.568.354.41.812.616 1.372.616zm19.703-.588c0-.448-.28-.877-.84-1.288-.542-.41-1.372-.915-2.492-1.512-1.456-.784-2.576-1.484-3.36-2.1-.784-.635-1.176-1.372-1.176-2.212 0-.672.298-1.39.896-2.156a8.043 8.043 0 012.184-1.932c.877-.523 1.68-.784 2.408-.784.896 0 1.932.112 3.108.336 1.194.205 2.062.439 2.604.7v4.452h-1.344c-.542-1.064-1.195-1.895-1.96-2.492-.747-.597-1.512-.896-2.296-.896-.504 0-.906.14-1.204.42a1.247 1.247 0 00-.448.98c0 .504.28.97.84 1.4.578.43 1.446.952 2.604 1.568.97.523 1.736.97 2.296 1.344a6.121 6.121 0 011.484 1.26c.41.467.616.99.616 1.568 0 .69-.318 1.419-.952 2.184a8.377 8.377 0 01-2.268 1.904c-.878.523-1.69.784-2.436.784-.971 0-2.119-.103-3.444-.308-1.307-.224-2.24-.467-2.8-.728v-4.536h1.344c.616 1.101 1.353 1.96 2.212 2.576.877.597 1.754.896 2.632.896.522 0 .952-.14 1.288-.42.336-.28.504-.616.504-1.008zM156.841 35h-5.74v-9.24c0-.99-.149-1.67-.448-2.044-.298-.392-.821-.588-1.568-.588-.56 0-1.12.093-1.68.28-.56.187-1.194.541-1.904 1.064v8.204l2.52.924-.7 1.4h-8.232v-1.148l2.492-2.016V15.372l-2.492-1.708v-1.148l5.068-1.96h1.344v12.236l3.556-2.8c.392-.15.934-.224 1.624-.224 1.326 0 2.38.392 3.164 1.176.784.765 1.176 1.81 1.176 3.136v8.596l2.52.924-.7 1.4z"/><g fill="#1A202C" clip-path="url(#a)"><path d="M14.508 23.687c1.344 0 2.433-1.056 2.433-2.358s-1.09-2.357-2.433-2.357c-1.344 0-2.434 1.055-2.434 2.357 0 1.302 1.09 2.358 2.434 2.358zm-.193-7.303c1.238 0 2.24-.972 2.24-2.17 0-1.2-1.002-2.171-2.24-2.171-1.237 0-2.24.972-2.24 2.17 0 1.2 1.003 2.171 2.24 2.171z"/><path d="M20.235 15.407c1.796-3.22 3.725-4.543 6.218-.978 2.745 3.925 5.668 10.925 7.76 15.41 1.128 2.4 1.203 5.779-2.655 4.816-1.04-.259-7.212-3.263-7.687-3.982-.549-.805-.119-1.682 1.039-1.782.742-.058 6.188 2.141 7.004 2.458-1.82-2.55-4.56-6.369-8.221-11.457-.683 2.3-1.707 5.74-3.072 10.321-2.389 7.978-11.084 4.73-7.523-2.099.633-1.13 1.271-2.261 1.914-3.392 1.722-.23 3.042-1.668 3.042-3.393 0-.517-.118-1.006-.326-1.437l.608-1.093c-.07.01-.133.015-.193.015-.875 0-1.588-.69-1.588-1.524 0-.848.713-1.538 1.588-1.538.86 0 1.573.69 1.573 1.538a1.52 1.52 0 01-.727 1.28c1.395.387 2.226-1.783 1.246-3.163z"/></g><defs><clipPath id="a"><path fill="#fff" d="M0 0h23v23H0z" transform="translate(12 12)"/></clipPath></defs></svg>