<svg width="50" height="50" viewBox="0 0 50 50" fill="none" xmlns="http://www.w3.org/2000/svg"><circle cx="25" cy="25" r="25" fill="url(#paint0_linear_47_1516)"/><path d="M16.192 14.575a2.303 2.303 0 00-1.622 1.645c-.056.207-.07.563-.07 1.524V19h21v-1.256c0-.975-.014-1.317-.07-1.533a2.294 2.294 0 00-1.65-1.64c-.399-.104-17.199-.1-17.588.004zm12.103 1.49c.483.202.6.83.225 1.205-.525.53-1.387.057-1.251-.684.084-.44.6-.703 1.026-.52zm2.25 0c.483.202.6.83.225 1.205-.525.53-1.387.057-1.251-.684.084-.44.6-.703 1.026-.52zm2.25 0c.483.202.6.83.225 1.205-.525.53-1.387.057-1.251-.684.084-.44.6-.703 1.026-.52zM14.5 27.006c0 7.158-.014 6.76.286 7.327.178.328.59.736.923.904.53.268.446.263 4.66.263h3.881v-15H14.5v6.506zm7.153-3.384c.248.183.324.333.324.628s-.076.445-.324.628c-.127.094-.192.099-2.175.113-1.36.009-2.105 0-2.222-.038-.473-.136-.656-.787-.333-1.176.235-.277.216-.277 2.508-.263 2.035.01 2.095.014 2.222.108zm0 3c.248.183.324.333.324.628s-.076.445-.324.628c-.127.094-.192.099-2.175.113-1.36.009-2.105 0-2.222-.038-.473-.136-.656-.787-.333-1.176.235-.277.216-.277 2.508-.263 2.035.01 2.095.014 2.222.108zm0 3c.248.183.324.333.324.628s-.076.445-.324.628c-.127.094-.192.099-2.175.113-1.36.009-2.105 0-2.222-.038-.473-.136-.656-.787-.333-1.176.235-.277.216-.277 2.508-.263 2.035.01 2.095.014 2.222.108zM25.75 23.5v3h9.75v-6h-9.75v3zm0 8.25v3.75h3.881c4.214 0 4.13.005 4.66-.263.332-.168.745-.576.923-.904.286-.54.286-.549.286-3.577V28h-9.75v3.75z" fill="#fff"/><defs><linearGradient id="paint0_linear_47_1516" x1="25" y1="0" x2="25" y2="50" gradientUnits="userSpaceOnUse"><stop stop-color="#064AF3"/><stop offset="1" stop-color="#08A3EE"/></linearGradient></defs></svg>