<svg xmlns="http://www.w3.org/2000/svg" width="37" height="37" fill="none" viewBox="0 0 37 37"><g clip-path="url(#a)"><path fill="#064AF3" d="M33.329 9.25H5.78a1.156 1.156 0 110-2.312h27.75c.64 0 1.157-.517 1.157-1.156a3.469 3.469 0 00-3.47-3.469H4.626A4.625 4.625 0 000 6.938v23.125a4.625 4.625 0 004.625 4.625h28.704c2.025 0 3.671-1.556 3.671-3.469v-18.5c0-1.913-1.646-3.469-3.671-3.469zm-3.267 15.032a2.313 2.313 0 11.001-4.626 2.313 2.313 0 010 4.626z"/></g><defs><clipPath id="a"><path fill="#fff" d="M0 0h37v37H0z"/></clipPath></defs></svg>