<svg width="50" height="50" viewBox="0 0 50 50" fill="none" xmlns="http://www.w3.org/2000/svg"><circle cx="25" cy="25" r="25" fill="url(#paint0_linear_47_1541)"/><path d="M23.065 28.785l-1.267-1.267a1.283 1.283 0 01-.316-1.32c.123-.366.287-.842.484-1.387h-4.34a.989.989 0 01-.857-.496.98.98 0 01.009-.989l2.153-3.63a2.952 2.952 0 012.538-1.447h3.376c.098-.164.197-.316.295-.464 3.36-4.954 8.363-5.118 11.349-4.569.475.087.845.46.935.936.55 2.99.381 7.989-4.57 11.348a8.495 8.495 0 01-.463.295v3.376c0 1.041-.55 2.01-1.447 2.538l-3.63 2.154a.984.984 0 01-1.485-.849v-4.397c-.578.2-1.082.365-1.464.488-.46.148-.96.02-1.304-.32h.004zm9.326-8.896a1.64 1.64 0 10.001-3.28 1.64 1.64 0 000 3.28z" fill="#fff"/><path fill="#fff" d="M13 32.977l6.252-6.474.72.695-6.253 6.474zm5 3l6.252-6.474.72.695-6.253 6.474z"/><path fill="#fff" fill-opacity=".93" d="M17 32.977l6.252-6.474.72.695-6.253 6.474z"/><defs><linearGradient id="paint0_linear_47_1541" x1="25" y1="0" x2="25" y2="50" gradientUnits="userSpaceOnUse"><stop stop-color="#064AF3"/><stop offset="1" stop-color="#08A3EE"/></linearGradient></defs></svg>