<svg width="33" height="33" viewBox="0 0 33 33" fill="none" xmlns="http://www.w3.org/2000/svg"><rect width="33" height="33" rx="10" fill="#0748EA"/><path d="M23.875 12.113c-.58.257-1.202.43-1.856.51a3.236 3.236 0 001.42-1.788 6.498 6.498 0 01-2.052.785 3.231 3.231 0 00-5.508 2.947 9.167 9.167 0 01-6.66-3.377 3.231 3.231 0 00.999 4.315 3.2 3.2 0 01-1.463-.406v.042a3.233 3.233 0 002.592 3.168 3.23 3.23 0 01-1.458.055 3.235 3.235 0 003.017 2.245 6.48 6.48 0 01-4.783 1.337 9.153 9.153 0 004.954 1.451c5.943 0 9.194-4.923 9.194-9.192 0-.14-.003-.28-.009-.418a6.572 6.572 0 001.613-1.674z" fill="#fff"/></svg>