<svg width="33" height="33" viewBox="0 0 33 33" fill="none" xmlns="http://www.w3.org/2000/svg"><rect width="33" height="33" rx="10" fill="#0748EA"/><path d="M23.998 15.866h-.027c0-.157.003-.312-.001-.47a11.118 11.118 0 00-.028-.46c-.014-.19-.033-.38-.05-.571-.018-.19-.022-.384-.06-.57a9.117 9.117 0 00-.213-.829 1.83 1.83 0 00-.357-.672c-.372-.43-.852-.659-1.414-.718-.296-.03-.595-.05-.893-.067a28.01 28.01 0 00-.822-.04c-.413-.016-.826-.03-1.239-.042-.404-.011-.81-.022-1.212-.025-.794-.005-1.588-.013-2.381-.007-.805.007-1.608.027-2.413.043-.34.007-.678.018-1.018.028-.107.003-.214.008-.321.014-.352.02-.704.037-1.055.067-.235.021-.475.042-.704.098-.504.121-.91.398-1.19.838-.203.323-.315.685-.384 1.056-.056.303-.09.61-.122.917-.032.31-.05.622-.067.933-.016.254-.027.509-.027.763 0 .722.005 1.445.013 2.166.001.181.014.362.027.541.02.258.042.515.064.771.016.19.027.383.058.572.05.324.137.64.254.947.214.568.616.94 1.187 1.133.363.121.743.155 1.119.19.304.029.61.038.915.053a97.692 97.692 0 001.942.054c.367.007.733.015 1.1.018.643.006 1.287.017 1.929.013.806-.007 1.613-.028 2.42-.044.33-.006.66-.017.991-.027.109-.003.22-.008.328-.014.363-.021.727-.039 1.088-.067.227-.018.458-.034.68-.082.706-.152 1.205-.558 1.469-1.242.18-.465.266-.95.306-1.444.022-.28.05-.56.064-.839.019-.358.036-.718.04-1.077.01-.635.004-1.272.004-1.908zm-9.652 3.212v-4.49c1.441.75 2.875 1.497 4.321 2.252l-4.321 2.238z" fill="#fff"/></svg>